<?xml version="1.0" encoding="UTF-8" standalone="no"?>
<!-- Created with Inkscape (http://www.inkscape.org/) -->

<svg
   xmlns:dc="http://purl.org/dc/elements/1.1/"
   xmlns:cc="http://creativecommons.org/ns#"
   xmlns:rdf="http://www.w3.org/1999/02/22-rdf-syntax-ns#"
   xmlns:svg="http://www.w3.org/2000/svg"
   xmlns="http://www.w3.org/2000/svg"
   xmlns:sodipodi="http://sodipodi.sourceforge.net/DTD/sodipodi-0.dtd"
   xmlns:inkscape="http://www.inkscape.org/namespaces/inkscape"
   id="svg2"
   version="1.1"
   inkscape:version="0.91 r13725"
   width="50"
   height="12.5"
   viewBox="0 0 50 12.5"
   sodipodi:docname="scene_02_forground.svg">
  <metadata
     id="metadata8">
    <rdf:RDF>
      <cc:Work
         rdf:about="">
        <dc:format>image/svg+xml</dc:format>
        <dc:type
           rdf:resource="http://purl.org/dc/dcmitype/StillImage" />
        <dc:title />
      </cc:Work>
    </rdf:RDF>
  </metadata>
  <defs
     id="defs6" />
  <sodipodi:namedview
     pagecolor="#ffffff"
     bordercolor="#666666"
     borderopacity="1"
     objecttolerance="10"
     gridtolerance="10"
     guidetolerance="10"
     inkscape:pageopacity="0"
     inkscape:pageshadow="2"
     inkscape:window-width="702"
     inkscape:window-height="480"
     id="namedview4"
     showgrid="false"
     inkscape:zoom="6.32"
     inkscape:cx="30.861135"
     inkscape:cy="6.25"
     inkscape:window-x="0"
     inkscape:window-y="23"
     inkscape:window-maximized="0"
     inkscape:current-layer="svg2" />
  <g
     transform="translate(0 0)"
     id="g3338"
     inkscape:export-xdpi="900"
     inkscape:export-ydpi="900">
    <path
       style="fill:#000000;fill-opacity:0"
       d="M 0,0.5 0,0 0.5,0 1,0 1.5,0 2,0 2.5,0 3,0 3.5,0 4,0 4.5,0 5,0 5.5,0 6,0 6.5,0 7,0 7.5,0 8,0 8.5,0 9,0 9.5,0 10,0 10.5,0 11,0 11.5,0 12,0 12.5,0 13,0 13.5,0 14,0 14.5,0 15,0 15.5,0 16,0 16.5,0 17,0 17.5,0 18,0 18.5,0 19,0 19.5,0 20,0 20.5,0 21,0 21.5,0 22,0 22.5,0 23,0 23.5,0 24,0 24.5,0 25,0 25.5,0 26,0 26.5,0 27,0 27.5,0 28,0 28.5,0 29,0 29.5,0 30,0 30.5,0 31,0 31.5,0 32,0 32.5,0 33,0 33.5,0 34,0 34.5,0 35,0 35.5,0 36,0 36.5,0 37,0 37.5,0 38,0 38.5,0 39,0 39.5,0 40,0 40,0.5 40,1 40,1.5 40,2 40,2.5 40,3 40,3.5 40,4 40,4.5 40,5 40,5.5 40,6 40,6.5 40,7 40,7.5 40,8 40,8.5 40,9 40,9.5 40,10 39.5,10 39,10 38.5,10 38,10 38,9.5 Q 38,9 37.875,8.625 37.75,8.25 37.375,8.125 37,8 36.625,7.875 36.25,7.75 36.125,7.375 36,7 35.875,6.625 35.75,6.25 35.375,6.125 35,6 34.5,6 34,6 33.5,6 33,6 32.5,6 32,6 31.5,6 31,6 30.625,6.125 30.25,6.25 30.125,6.625 30,7 29.875,7.375 29.75,7.75 29.375,7.875 29,8 28.625,8.125 28.25,8.25 28.125,8.625 28,9 28,9.5 L 28,10 27.5,10 27,10 26.5,10 26,10 25.5,10 25,10 24.5,10 24,10 23.5,10 23,10 22.5,10 22,10 21.5,10 21,10 20.5,10 20,10 19.5,10 19,10 18.5,10 18,10 17.5,10 17,10 16.5,10 16,10 16,9.5 Q 16,9 16,8.5 16,8 16,7.5 16,7 15.875,6.625 15.75,6.25 15.375,6.125 15,6 14.625,5.875 14.25,5.75 14.125,5.375 14,5 13.875,4.625 13.75,4.25 13.375,4.125 13,4 12.5,4 12,4 11.5,4 11,4 10.5,4 10,4 9.5,4 9,4 8.625,4.125 8.25,4.25 8.125,4.625 8,5 7.875,5.375 7.75,5.75 7.375,5.875 7,6 6.5,6 6,6 5.5,6 5,6 4.5,6 4,6 3.5,6 3,6 2.625,6.125 2.25,6.25 2.125,6.625 2,7 2,7.5 L 2,8 1.5,8 Q 1,8 0.5,8 L 0,8 0,7.5 0,7 0,6.5 0,6 0,5.5 0,5 0,4.5 0,4 0,3.5 0,3 0,2.5 0,2 0,1.5 0,1 0,0.5"
       id="path3340" />
    <path
       style="fill:#d07030;fill-opacity:1"
       d="M 8.125,4.625 Q 8.25,4.25 8.625,4.125 9,4 9.5,4 q 0.5,0 1,0 0.5,0 1,0 0.5,0 1,0 0.5,0 0.875,0.125 0.375,0.125 0.5,0.5 Q 14,5 14.125,5.375 14.25,5.75 14.625,5.875 15,6 15.375,6.125 15.75,6.25 15.875,6.625 16,7 16,7.5 L 16,8 15.5,8 Q 15,8 14.5,8 L 14,8 14,7.5 Q 14,7 13.875,6.625 13.75,6.25 13.375,6.125 13,6 12.5,6 12,6 11.5,6 11,6 10.5,6 10,6 9.5,6 9,6 8.625,6.125 8.25,6.25 8.125,6.625 8,7 7.875,7.375 7.75,7.75 7.375,7.875 7,8 6.5,8 6,8 5.5,8 5,8 4.5,8 4,8 3.5,8 3,8 2.5,8 L 2,8 2,7.5 Q 2,7 2.125,6.625 2.25,6.25 2.625,6.125 3,6 3.5,6 4,6 4.5,6 5,6 5.5,6 6,6 6.5,6 7,6 7.375,5.875 7.75,5.75 7.875,5.375 8,5 8.125,4.625 M 16,8.125 16,8 16,7.625 16,7.25 16,7.5 q 0,0.25 0,0.5 l 0,0.25 0,-0.125"
       id="path3342" />
    <path
       style="fill:#f0a850;fill-opacity:1"
       d="M 8.125,6.625 Q 8.25,6.25 8.625,6.125 9,6 9.5,6 l 0.5,0 0,0.5 q 0,0.5 0.125,0.875 0.125,0.375 0.5,0.5 Q 11,8 11.5,8 q 0.5,0 1,0 0.5,0 1,0 l 0.5,0 0,0.5 q 0,0.5 0,1 L 14,10 13.5,10 13,10 12.5,10 12,10 11.5,10 11,10 10.5,10 10,10 10,9.5 Q 10,9 9.875,8.625 9.75,8.25 9.375,8.125 9,8 8.625,8.125 8.25,8.25 8.125,8.625 8,9 8,9.5 L 8,10 7.5,10 7,10 6.5,10 6,10 6,9.5 Q 6,9 6,8.5 L 6,8 6.5,8 Q 7,8 7.375,7.875 7.75,7.75 7.875,7.375 8,7 8.125,6.625 M 6.375,8 6,8 5.875,8 5.75,8 6,8 Q 6.25,8 6.5,8 L 6.75,8 6.375,8 M 10.125,6 10,6 9.625,6 9.25,6 9.5,6 Q 9.75,6 10,6 l 0.25,0 -0.125,0"
       id="path3344" />
    <path
       style="fill:#f8d868;fill-opacity:1"
       d="M 10,6.5 10,6 10.5,6 q 0.5,0 1,0 0.5,0 1,0 0.5,0 0.875,0.125 0.375,0.125 0.5,0.5 Q 14,7 14,7.5 L 14,8 13.5,8 Q 13,8 12.5,8 12,8 11.5,8 11,8 10.625,7.875 10.25,7.75 10.125,7.375 10,7 10,6.5 M 10.375,6 10,6 9.875,6 9.75,6 10,6 q 0.25,0 0.5,0 l 0.25,0 -0.375,0"
       id="path3346" />
    <path
       style="fill:#d07030;fill-opacity:1"
       d="M 30.125,6.625 Q 30.25,6.25 30.625,6.125 31,6 31.5,6 q 0.5,0 1,0 0.5,0 1,0 0.5,0 1,0 0.5,0 0.875,0.125 0.375,0.125 0.5,0.5 Q 36,7 36.125,7.375 36.25,7.75 36.625,7.875 37,8 37.375,8.125 37.75,8.25 37.875,8.625 38,9 38,9.5 L 38,10 37.5,10 37,10 36.5,10 36,10 36,9.5 Q 36,9 35.875,8.625 35.75,8.25 35.375,8.125 35,8 34.5,8 34,8 33.5,8 33,8 32.5,8 32,8 31.5,8 31,8 30.625,8.125 30.25,8.25 30.125,8.625 30,9 30,9.5 L 30,10 29.5,10 29,10 28.5,10 28,10 28,9.5 Q 28,9 28.125,8.625 28.25,8.25 28.625,8.125 29,8 29.375,7.875 29.75,7.75 29.875,7.375 30,7 30.125,6.625"
       id="path3348" />
    <path
       style="fill:#b04820;fill-opacity:1"
       d="M 0,8.5 0,8 0.5,8 Q 1,8 1.5,8 L 2,8 2,8.5 Q 2,9 2,9.5 L 2,10 1.5,10 1,10 0.5,10 0,10 0,9.5 0,9 0,8.5"
       id="path3350" />
    <path
       style="fill:#f8d868;fill-opacity:1"
       d="M 2,8.5 2,8 2.5,8 Q 3,8 3.5,8 4,8 4.5,8 5,8 5.5,8 L 6,8 6,8.5 Q 6,9 6,9.5 L 6,10 5.5,10 5,10 4.5,10 4,10 3.5,10 3,10 2.5,10 2,10 2,9.5 Q 2,9 2,8.5 M 6.125,8 6,8 5.625,8 5.25,8 5.5,8 Q 5.75,8 6,8 L 6.25,8 6.125,8"
       id="path3352" />
    <path
       style="fill:#b04820;fill-opacity:1"
       d="M 8.125,8.625 Q 8.25,8.25 8.625,8.125 9,8 9.375,8.125 9.75,8.25 9.875,8.625 10,9 10,9.5 L 10,10 9.5,10 9,10 8.5,10 8,10 8,9.5 Q 8,9 8.125,8.625"
       id="path3354" />
    <path
       style="fill:#b04820;fill-opacity:1"
       d="M 14,8.5 14,8 14.5,8 q 0.5,0 1,0 l 0.5,0 0,0.5 q 0,0.5 0,1 L 16,10 15.5,10 15,10 14.5,10 14,10 14,9.5 Q 14,9 14,8.5 M 16,8.375 16,8 16,7.875 16,7.75 16,8 q 0,0.25 0,0.5 l 0,0.25 0,-0.375"
       id="path3356" />
    <path
       style="fill:#f8d868;fill-opacity:1"
       d="M 30.125,8.625 Q 30.25,8.25 30.625,8.125 31,8 31.5,8 q 0.5,0 1,0 0.5,0 1,0 l 0.5,0 0,0.5 q 0,0.5 0,1 L 34,10 33.5,10 33,10 32.5,10 32,10 31.5,10 31,10 30.5,10 30,10 30,9.5 Q 30,9 30.125,8.625 M 34.125,8 34,8 33.625,8 33.25,8 33.5,8 q 0.25,0 0.5,0 l 0.25,0 -0.125,0"
       id="path3358" />
    <path
       style="fill:#f0a850;fill-opacity:1"
       d="M 34,8.5 34,8 34.5,8 q 0.5,0 0.875,0.125 0.375,0.125 0.5,0.5 Q 36,9 36,9.5 L 36,10 35.5,10 35,10 34.5,10 34,10 34,9.5 Q 34,9 34,8.5 M 34.375,8 34,8 33.875,8 33.75,8 34,8 q 0.25,0 0.5,0 l 0.25,0 -0.375,0"
       id="path3360" />
  </g>
  <g
     inkscape:export-ydpi="900"
     inkscape:export-xdpi="900"
     id="g3345"
     transform="translate(0 0)">
    <path
       id="path3347"
       d="M 0,0.5 0,0 0.5,0 1,0 1.5,0 2,0 2.5,0 3,0 3.5,0 4,0 4.5,0 5,0 5.5,0 6,0 6.5,0 7,0 7.5,0 8,0 8.5,0 9,0 9.5,0 10,0 10.5,0 11,0 11.5,0 12,0 12.5,0 13,0 13.5,0 14,0 14.5,0 15,0 15.5,0 16,0 16.5,0 17,0 17.5,0 18,0 18.5,0 19,0 19.5,0 20,0 20.5,0 21,0 21.5,0 22,0 22.5,0 23,0 23.5,0 24,0 24.5,0 25,0 25.5,0 26,0 26.5,0 27,0 27.5,0 28,0 28.5,0 29,0 29.5,0 30,0 30.5,0 31,0 31.5,0 32,0 32.5,0 33,0 33.5,0 34,0 34.5,0 35,0 35.5,0 36,0 36.5,0 37,0 37.5,0 38,0 38.5,0 39,0 39.5,0 40,0 40,0.5 40,1 40,1.5 40,2 40,2.5 40,3 40,3.5 40,4 40,4.5 40,5 40,5.5 40,6 40,6.5 40,7 40,7.5 40,8 40,8.5 40,9 40,9.5 40,10 39.5,10 39,10 38.5,10 38,10 38,9.5 Q 38,9 37.875,8.625 37.75,8.25 37.375,8.125 37,8 36.625,7.875 36.25,7.75 36.125,7.375 36,7 35.875,6.625 35.75,6.25 35.375,6.125 35,6 34.5,6 34,6 33.5,6 33,6 32.5,6 32,6 31.5,6 31,6 30.625,6.125 30.25,6.25 30.125,6.625 30,7 29.875,7.375 29.75,7.75 29.375,7.875 29,8 28.625,8.125 28.25,8.25 28.125,8.625 28,9 28,9.5 L 28,10 27.5,10 27,10 26.5,10 26,10 25.5,10 25,10 24.5,10 24,10 23.5,10 23,10 22.5,10 22,10 21.5,10 21,10 20.5,10 20,10 19.5,10 19,10 18.5,10 18,10 17.5,10 17,10 16.5,10 16,10 16,9.5 Q 16,9 16,8.5 16,8 16,7.5 16,7 15.875,6.625 15.75,6.25 15.375,6.125 15,6 14.625,5.875 14.25,5.75 14.125,5.375 14,5 13.875,4.625 13.75,4.25 13.375,4.125 13,4 12.5,4 12,4 11.5,4 11,4 10.5,4 10,4 9.5,4 9,4 8.625,4.125 8.25,4.25 8.125,4.625 8,5 7.875,5.375 7.75,5.75 7.375,5.875 7,6 6.5,6 6,6 5.5,6 5,6 4.5,6 4,6 3.5,6 3,6 2.625,6.125 2.25,6.25 2.125,6.625 2,7 2,7.5 L 2,8 1.5,8 Q 1,8 0.5,8 L 0,8 0,7.5 0,7 0,6.5 0,6 0,5.5 0,5 0,4.5 0,4 0,3.5 0,3 0,2.5 0,2 0,1.5 0,1 0,0.5"
       style="fill:#000000;fill-opacity:0" />
    <path
       id="path3349"
       d="M 8.125,4.625 Q 8.25,4.25 8.625,4.125 9,4 9.5,4 q 0.5,0 1,0 0.5,0 1,0 0.5,0 1,0 0.5,0 0.875,0.125 0.375,0.125 0.5,0.5 Q 14,5 14.125,5.375 14.25,5.75 14.625,5.875 15,6 15.375,6.125 15.75,6.25 15.875,6.625 16,7 16,7.5 L 16,8 15.5,8 Q 15,8 14.5,8 L 14,8 14,7.5 Q 14,7 13.875,6.625 13.75,6.25 13.375,6.125 13,6 12.5,6 12,6 11.5,6 11,6 10.5,6 10,6 9.5,6 9,6 8.625,6.125 8.25,6.25 8.125,6.625 8,7 7.875,7.375 7.75,7.75 7.375,7.875 7,8 6.5,8 6,8 5.5,8 5,8 4.5,8 4,8 3.5,8 3,8 2.5,8 L 2,8 2,7.5 Q 2,7 2.125,6.625 2.25,6.25 2.625,6.125 3,6 3.5,6 4,6 4.5,6 5,6 5.5,6 6,6 6.5,6 7,6 7.375,5.875 7.75,5.75 7.875,5.375 8,5 8.125,4.625 M 16,8.125 16,8 16,7.625 16,7.25 16,7.5 q 0,0.25 0,0.5 l 0,0.25 0,-0.125"
       style="fill:#d07030;fill-opacity:1" />
    <path
       id="path3351"
       d="M 8.125,6.625 Q 8.25,6.25 8.625,6.125 9,6 9.5,6 l 0.5,0 0,0.5 q 0,0.5 0.125,0.875 0.125,0.375 0.5,0.5 Q 11,8 11.5,8 q 0.5,0 1,0 0.5,0 1,0 l 0.5,0 0,0.5 q 0,0.5 0,1 L 14,10 13.5,10 13,10 12.5,10 12,10 11.5,10 11,10 10.5,10 10,10 10,9.5 Q 10,9 9.875,8.625 9.75,8.25 9.375,8.125 9,8 8.625,8.125 8.25,8.25 8.125,8.625 8,9 8,9.5 L 8,10 7.5,10 7,10 6.5,10 6,10 6,9.5 Q 6,9 6,8.5 L 6,8 6.5,8 Q 7,8 7.375,7.875 7.75,7.75 7.875,7.375 8,7 8.125,6.625 M 6.375,8 6,8 5.875,8 5.75,8 6,8 Q 6.25,8 6.5,8 L 6.75,8 6.375,8 M 10.125,6 10,6 9.625,6 9.25,6 9.5,6 Q 9.75,6 10,6 l 0.25,0 -0.125,0"
       style="fill:#f0a850;fill-opacity:1" />
    <path
       id="path3353"
       d="M 10,6.5 10,6 10.5,6 q 0.5,0 1,0 0.5,0 1,0 0.5,0 0.875,0.125 0.375,0.125 0.5,0.5 Q 14,7 14,7.5 L 14,8 13.5,8 Q 13,8 12.5,8 12,8 11.5,8 11,8 10.625,7.875 10.25,7.75 10.125,7.375 10,7 10,6.5 M 10.375,6 10,6 9.875,6 9.75,6 10,6 q 0.25,0 0.5,0 l 0.25,0 -0.375,0"
       style="fill:#f8d868;fill-opacity:1" />
    <path
       id="path3355"
       d="M 30.125,6.625 Q 30.25,6.25 30.625,6.125 31,6 31.5,6 q 0.5,0 1,0 0.5,0 1,0 0.5,0 1,0 0.5,0 0.875,0.125 0.375,0.125 0.5,0.5 Q 36,7 36.125,7.375 36.25,7.75 36.625,7.875 37,8 37.375,8.125 37.75,8.25 37.875,8.625 38,9 38,9.5 L 38,10 37.5,10 37,10 36.5,10 36,10 36,9.5 Q 36,9 35.875,8.625 35.75,8.25 35.375,8.125 35,8 34.5,8 34,8 33.5,8 33,8 32.5,8 32,8 31.5,8 31,8 30.625,8.125 30.25,8.25 30.125,8.625 30,9 30,9.5 L 30,10 29.5,10 29,10 28.5,10 28,10 28,9.5 Q 28,9 28.125,8.625 28.25,8.25 28.625,8.125 29,8 29.375,7.875 29.75,7.75 29.875,7.375 30,7 30.125,6.625"
       style="fill:#d07030;fill-opacity:1" />
    <path
       id="path3357"
       d="M 0,8.5 0,8 0.5,8 Q 1,8 1.5,8 L 2,8 2,8.5 Q 2,9 2,9.5 L 2,10 1.5,10 1,10 0.5,10 0,10 0,9.5 0,9 0,8.5"
       style="fill:#b04820;fill-opacity:1" />
    <path
       id="path3359"
       d="M 2,8.5 2,8 2.5,8 Q 3,8 3.5,8 4,8 4.5,8 5,8 5.5,8 L 6,8 6,8.5 Q 6,9 6,9.5 L 6,10 5.5,10 5,10 4.5,10 4,10 3.5,10 3,10 2.5,10 2,10 2,9.5 Q 2,9 2,8.5 M 6.125,8 6,8 5.625,8 5.25,8 5.5,8 Q 5.75,8 6,8 L 6.25,8 6.125,8"
       style="fill:#f8d868;fill-opacity:1" />
    <path
       id="path3361"
       d="M 8.125,8.625 Q 8.25,8.25 8.625,8.125 9,8 9.375,8.125 9.75,8.25 9.875,8.625 10,9 10,9.5 L 10,10 9.5,10 9,10 8.5,10 8,10 8,9.5 Q 8,9 8.125,8.625"
       style="fill:#b04820;fill-opacity:1" />
    <path
       id="path3363"
       d="M 14,8.5 14,8 14.5,8 q 0.5,0 1,0 l 0.5,0 0,0.5 q 0,0.5 0,1 L 16,10 15.5,10 15,10 14.5,10 14,10 14,9.5 Q 14,9 14,8.5 M 16,8.375 16,8 16,7.875 16,7.75 16,8 q 0,0.25 0,0.5 l 0,0.25 0,-0.375"
       style="fill:#b04820;fill-opacity:1" />
    <path
       id="path3365"
       d="M 30.125,8.625 Q 30.25,8.25 30.625,8.125 31,8 31.5,8 q 0.5,0 1,0 0.5,0 1,0 l 0.5,0 0,0.5 q 0,0.5 0,1 L 34,10 33.5,10 33,10 32.5,10 32,10 31.5,10 31,10 30.5,10 30,10 30,9.5 Q 30,9 30.125,8.625 M 34.125,8 34,8 33.625,8 33.25,8 33.5,8 q 0.25,0 0.5,0 l 0.25,0 -0.125,0"
       style="fill:#f8d868;fill-opacity:1" />
    <path
       id="path3367"
       d="M 34,8.5 34,8 34.5,8 q 0.5,0 0.875,0.125 0.375,0.125 0.5,0.5 Q 36,9 36,9.5 L 36,10 35.5,10 35,10 34.5,10 34,10 34,9.5 Q 34,9 34,8.5 M 34.375,8 34,8 33.875,8 33.75,8 34,8 q 0.25,0 0.5,0 l 0.25,0 -0.375,0"
       style="fill:#f0a850;fill-opacity:1" />
  </g>
  <g
     transform="translate(0 0)"
     id="g3369"
     inkscape:export-xdpi="900"
     inkscape:export-ydpi="900">
    <path
       style="fill:#000000;fill-opacity:0"
       d="M 0,0.5 0,0 0.5,0 1,0 1.5,0 2,0 2.5,0 3,0 3.5,0 4,0 4.5,0 5,0 5.5,0 6,0 6.5,0 7,0 7.5,0 8,0 8.5,0 9,0 9.5,0 10,0 10.5,0 11,0 11.5,0 12,0 12.5,0 13,0 13.5,0 14,0 14.5,0 15,0 15.5,0 16,0 16.5,0 17,0 17.5,0 18,0 18.5,0 19,0 19.5,0 20,0 20.5,0 21,0 21.5,0 22,0 22.5,0 23,0 23.5,0 24,0 24.5,0 25,0 25.5,0 26,0 26.5,0 27,0 27.5,0 28,0 28.5,0 29,0 29.5,0 30,0 30.5,0 31,0 31.5,0 32,0 32.5,0 33,0 33.5,0 34,0 34.5,0 35,0 35.5,0 36,0 36.5,0 37,0 37.5,0 38,0 38.5,0 39,0 39.5,0 40,0 40,0.5 40,1 40,1.5 40,2 40,2.5 40,3 40,3.5 40,4 40,4.5 40,5 40,5.5 40,6 40,6.5 40,7 40,7.5 40,8 40,8.5 40,9 40,9.5 40,10 39.5,10 39,10 38.5,10 38,10 38,9.5 Q 38,9 37.875,8.625 37.75,8.25 37.375,8.125 37,8 36.625,7.875 36.25,7.75 36.125,7.375 36,7 35.875,6.625 35.75,6.25 35.375,6.125 35,6 34.5,6 34,6 33.5,6 33,6 32.5,6 32,6 31.5,6 31,6 30.625,6.125 30.25,6.25 30.125,6.625 30,7 29.875,7.375 29.75,7.75 29.375,7.875 29,8 28.625,8.125 28.25,8.25 28.125,8.625 28,9 28,9.5 L 28,10 27.5,10 27,10 26.5,10 26,10 25.5,10 25,10 24.5,10 24,10 23.5,10 23,10 22.5,10 22,10 21.5,10 21,10 20.5,10 20,10 19.5,10 19,10 18.5,10 18,10 17.5,10 17,10 16.5,10 16,10 16,9.5 Q 16,9 16,8.5 16,8 16,7.5 16,7 15.875,6.625 15.75,6.25 15.375,6.125 15,6 14.625,5.875 14.25,5.75 14.125,5.375 14,5 13.875,4.625 13.75,4.25 13.375,4.125 13,4 12.5,4 12,4 11.5,4 11,4 10.5,4 10,4 9.5,4 9,4 8.625,4.125 8.25,4.25 8.125,4.625 8,5 7.875,5.375 7.75,5.75 7.375,5.875 7,6 6.5,6 6,6 5.5,6 5,6 4.5,6 4,6 3.5,6 3,6 2.625,6.125 2.25,6.25 2.125,6.625 2,7 2,7.5 L 2,8 1.5,8 Q 1,8 0.5,8 L 0,8 0,7.5 0,7 0,6.5 0,6 0,5.5 0,5 0,4.5 0,4 0,3.5 0,3 0,2.5 0,2 0,1.5 0,1 0,0.5"
       id="path3371" />
    <path
       style="fill:#d07030;fill-opacity:1"
       d="M 8.125,4.625 Q 8.25,4.25 8.625,4.125 9,4 9.5,4 q 0.5,0 1,0 0.5,0 1,0 0.5,0 1,0 0.5,0 0.875,0.125 0.375,0.125 0.5,0.5 Q 14,5 14.125,5.375 14.25,5.75 14.625,5.875 15,6 15.375,6.125 15.75,6.25 15.875,6.625 16,7 16,7.5 L 16,8 15.5,8 Q 15,8 14.5,8 L 14,8 14,7.5 Q 14,7 13.875,6.625 13.75,6.25 13.375,6.125 13,6 12.5,6 12,6 11.5,6 11,6 10.5,6 10,6 9.5,6 9,6 8.625,6.125 8.25,6.25 8.125,6.625 8,7 7.875,7.375 7.75,7.75 7.375,7.875 7,8 6.5,8 6,8 5.5,8 5,8 4.5,8 4,8 3.5,8 3,8 2.5,8 L 2,8 2,7.5 Q 2,7 2.125,6.625 2.25,6.25 2.625,6.125 3,6 3.5,6 4,6 4.5,6 5,6 5.5,6 6,6 6.5,6 7,6 7.375,5.875 7.75,5.75 7.875,5.375 8,5 8.125,4.625 M 16,8.125 16,8 16,7.625 16,7.25 16,7.5 q 0,0.25 0,0.5 l 0,0.25 0,-0.125"
       id="path3373" />
    <path
       style="fill:#f0a850;fill-opacity:1"
       d="M 8.125,6.625 Q 8.25,6.25 8.625,6.125 9,6 9.5,6 l 0.5,0 0,0.5 q 0,0.5 0.125,0.875 0.125,0.375 0.5,0.5 Q 11,8 11.5,8 q 0.5,0 1,0 0.5,0 1,0 l 0.5,0 0,0.5 q 0,0.5 0,1 L 14,10 13.5,10 13,10 12.5,10 12,10 11.5,10 11,10 10.5,10 10,10 10,9.5 Q 10,9 9.875,8.625 9.75,8.25 9.375,8.125 9,8 8.625,8.125 8.25,8.25 8.125,8.625 8,9 8,9.5 L 8,10 7.5,10 7,10 6.5,10 6,10 6,9.5 Q 6,9 6,8.5 L 6,8 6.5,8 Q 7,8 7.375,7.875 7.75,7.75 7.875,7.375 8,7 8.125,6.625 M 6.375,8 6,8 5.875,8 5.75,8 6,8 Q 6.25,8 6.5,8 L 6.75,8 6.375,8 M 10.125,6 10,6 9.625,6 9.25,6 9.5,6 Q 9.75,6 10,6 l 0.25,0 -0.125,0"
       id="path3375" />
    <path
       style="fill:#f8d868;fill-opacity:1"
       d="M 10,6.5 10,6 10.5,6 q 0.5,0 1,0 0.5,0 1,0 0.5,0 0.875,0.125 0.375,0.125 0.5,0.5 Q 14,7 14,7.5 L 14,8 13.5,8 Q 13,8 12.5,8 12,8 11.5,8 11,8 10.625,7.875 10.25,7.75 10.125,7.375 10,7 10,6.5 M 10.375,6 10,6 9.875,6 9.75,6 10,6 q 0.25,0 0.5,0 l 0.25,0 -0.375,0"
       id="path3377" />
    <path
       style="fill:#d07030;fill-opacity:1"
       d="M 30.125,6.625 Q 30.25,6.25 30.625,6.125 31,6 31.5,6 q 0.5,0 1,0 0.5,0 1,0 0.5,0 1,0 0.5,0 0.875,0.125 0.375,0.125 0.5,0.5 Q 36,7 36.125,7.375 36.25,7.75 36.625,7.875 37,8 37.375,8.125 37.75,8.25 37.875,8.625 38,9 38,9.5 L 38,10 37.5,10 37,10 36.5,10 36,10 36,9.5 Q 36,9 35.875,8.625 35.75,8.25 35.375,8.125 35,8 34.5,8 34,8 33.5,8 33,8 32.5,8 32,8 31.5,8 31,8 30.625,8.125 30.25,8.25 30.125,8.625 30,9 30,9.5 L 30,10 29.5,10 29,10 28.5,10 28,10 28,9.5 Q 28,9 28.125,8.625 28.25,8.25 28.625,8.125 29,8 29.375,7.875 29.75,7.75 29.875,7.375 30,7 30.125,6.625"
       id="path3379" />
    <path
       style="fill:#b04820;fill-opacity:1"
       d="M 0,8.5 0,8 0.5,8 Q 1,8 1.5,8 L 2,8 2,8.5 Q 2,9 2,9.5 L 2,10 1.5,10 1,10 0.5,10 0,10 0,9.5 0,9 0,8.5"
       id="path3381" />
    <path
       style="fill:#f8d868;fill-opacity:1"
       d="M 2,8.5 2,8 2.5,8 Q 3,8 3.5,8 4,8 4.5,8 5,8 5.5,8 L 6,8 6,8.5 Q 6,9 6,9.5 L 6,10 5.5,10 5,10 4.5,10 4,10 3.5,10 3,10 2.5,10 2,10 2,9.5 Q 2,9 2,8.5 M 6.125,8 6,8 5.625,8 5.25,8 5.5,8 Q 5.75,8 6,8 L 6.25,8 6.125,8"
       id="path3383" />
    <path
       style="fill:#b04820;fill-opacity:1"
       d="M 8.125,8.625 Q 8.25,8.25 8.625,8.125 9,8 9.375,8.125 9.75,8.25 9.875,8.625 10,9 10,9.5 L 10,10 9.5,10 9,10 8.5,10 8,10 8,9.5 Q 8,9 8.125,8.625"
       id="path3385" />
    <path
       style="fill:#b04820;fill-opacity:1"
       d="M 14,8.5 14,8 14.5,8 q 0.5,0 1,0 l 0.5,0 0,0.5 q 0,0.5 0,1 L 16,10 15.5,10 15,10 14.5,10 14,10 14,9.5 Q 14,9 14,8.5 M 16,8.375 16,8 16,7.875 16,7.75 16,8 q 0,0.25 0,0.5 l 0,0.25 0,-0.375"
       id="path3387" />
    <path
       style="fill:#f8d868;fill-opacity:1"
       d="M 30.125,8.625 Q 30.25,8.25 30.625,8.125 31,8 31.5,8 q 0.5,0 1,0 0.5,0 1,0 l 0.5,0 0,0.5 q 0,0.5 0,1 L 34,10 33.5,10 33,10 32.5,10 32,10 31.5,10 31,10 30.5,10 30,10 30,9.5 Q 30,9 30.125,8.625 M 34.125,8 34,8 33.625,8 33.25,8 33.5,8 q 0.25,0 0.5,0 l 0.25,0 -0.125,0"
       id="path3389" />
    <path
       style="fill:#f0a850;fill-opacity:1"
       d="M 34,8.5 34,8 34.5,8 q 0.5,0 0.875,0.125 0.375,0.125 0.5,0.5 Q 36,9 36,9.5 L 36,10 35.5,10 35,10 34.5,10 34,10 34,9.5 Q 34,9 34,8.5 M 34.375,8 34,8 33.875,8 33.75,8 34,8 q 0.25,0 0.5,0 l 0.25,0 -0.375,0"
       id="path3391" />
  </g>
  <g
     inkscape:export-ydpi="900"
     inkscape:export-xdpi="900"
     id="g3393"
     transform="translate(0 0)">
    <path
       id="path3395"
       d="M 0,0.5 0,0 0.5,0 1,0 1.5,0 2,0 2.5,0 3,0 3.5,0 4,0 4.5,0 5,0 5.5,0 6,0 6.5,0 7,0 7.5,0 8,0 8.5,0 9,0 9.5,0 10,0 10.5,0 11,0 11.5,0 12,0 12.5,0 13,0 13.5,0 14,0 14.5,0 15,0 15.5,0 16,0 16.5,0 17,0 17.5,0 18,0 18.5,0 19,0 19.5,0 20,0 20.5,0 21,0 21.5,0 22,0 22.5,0 23,0 23.5,0 24,0 24.5,0 25,0 25.5,0 26,0 26.5,0 27,0 27.5,0 28,0 28.5,0 29,0 29.5,0 30,0 30.5,0 31,0 31.5,0 32,0 32.5,0 33,0 33.5,0 34,0 34.5,0 35,0 35.5,0 36,0 36.5,0 37,0 37.5,0 38,0 38.5,0 39,0 39.5,0 40,0 40,0.5 40,1 40,1.5 40,2 40,2.5 40,3 40,3.5 40,4 40,4.5 40,5 40,5.5 40,6 40,6.5 40,7 40,7.5 40,8 40,8.5 40,9 40,9.5 40,10 39.5,10 39,10 38.5,10 38,10 38,9.5 Q 38,9 37.875,8.625 37.75,8.25 37.375,8.125 37,8 36.625,7.875 36.25,7.75 36.125,7.375 36,7 35.875,6.625 35.75,6.25 35.375,6.125 35,6 34.5,6 34,6 33.5,6 33,6 32.5,6 32,6 31.5,6 31,6 30.625,6.125 30.25,6.25 30.125,6.625 30,7 29.875,7.375 29.75,7.75 29.375,7.875 29,8 28.625,8.125 28.25,8.25 28.125,8.625 28,9 28,9.5 L 28,10 27.5,10 27,10 26.5,10 26,10 25.5,10 25,10 24.5,10 24,10 23.5,10 23,10 22.5,10 22,10 21.5,10 21,10 20.5,10 20,10 19.5,10 19,10 18.5,10 18,10 17.5,10 17,10 16.5,10 16,10 16,9.5 Q 16,9 16,8.5 16,8 16,7.5 16,7 15.875,6.625 15.75,6.25 15.375,6.125 15,6 14.625,5.875 14.25,5.75 14.125,5.375 14,5 13.875,4.625 13.75,4.25 13.375,4.125 13,4 12.5,4 12,4 11.5,4 11,4 10.5,4 10,4 9.5,4 9,4 8.625,4.125 8.25,4.25 8.125,4.625 8,5 7.875,5.375 7.75,5.75 7.375,5.875 7,6 6.5,6 6,6 5.5,6 5,6 4.5,6 4,6 3.5,6 3,6 2.625,6.125 2.25,6.25 2.125,6.625 2,7 2,7.5 L 2,8 1.5,8 Q 1,8 0.5,8 L 0,8 0,7.5 0,7 0,6.5 0,6 0,5.5 0,5 0,4.5 0,4 0,3.5 0,3 0,2.5 0,2 0,1.5 0,1 0,0.5"
       style="fill:#000000;fill-opacity:0" />
    <path
       id="path3397"
       d="M 8.125,4.625 Q 8.25,4.25 8.625,4.125 9,4 9.5,4 q 0.5,0 1,0 0.5,0 1,0 0.5,0 1,0 0.5,0 0.875,0.125 0.375,0.125 0.5,0.5 Q 14,5 14.125,5.375 14.25,5.75 14.625,5.875 15,6 15.375,6.125 15.75,6.25 15.875,6.625 16,7 16,7.5 L 16,8 15.5,8 Q 15,8 14.5,8 L 14,8 14,7.5 Q 14,7 13.875,6.625 13.75,6.25 13.375,6.125 13,6 12.5,6 12,6 11.5,6 11,6 10.5,6 10,6 9.5,6 9,6 8.625,6.125 8.25,6.25 8.125,6.625 8,7 7.875,7.375 7.75,7.75 7.375,7.875 7,8 6.5,8 6,8 5.5,8 5,8 4.5,8 4,8 3.5,8 3,8 2.5,8 L 2,8 2,7.5 Q 2,7 2.125,6.625 2.25,6.25 2.625,6.125 3,6 3.5,6 4,6 4.5,6 5,6 5.5,6 6,6 6.5,6 7,6 7.375,5.875 7.75,5.75 7.875,5.375 8,5 8.125,4.625 M 16,8.125 16,8 16,7.625 16,7.25 16,7.5 q 0,0.25 0,0.5 l 0,0.25 0,-0.125"
       style="fill:#d07030;fill-opacity:1" />
    <path
       id="path3399"
       d="M 8.125,6.625 Q 8.25,6.25 8.625,6.125 9,6 9.5,6 l 0.5,0 0,0.5 q 0,0.5 0.125,0.875 0.125,0.375 0.5,0.5 Q 11,8 11.5,8 q 0.5,0 1,0 0.5,0 1,0 l 0.5,0 0,0.5 q 0,0.5 0,1 L 14,10 13.5,10 13,10 12.5,10 12,10 11.5,10 11,10 10.5,10 10,10 10,9.5 Q 10,9 9.875,8.625 9.75,8.25 9.375,8.125 9,8 8.625,8.125 8.25,8.25 8.125,8.625 8,9 8,9.5 L 8,10 7.5,10 7,10 6.5,10 6,10 6,9.5 Q 6,9 6,8.5 L 6,8 6.5,8 Q 7,8 7.375,7.875 7.75,7.75 7.875,7.375 8,7 8.125,6.625 M 6.375,8 6,8 5.875,8 5.75,8 6,8 Q 6.25,8 6.5,8 L 6.75,8 6.375,8 M 10.125,6 10,6 9.625,6 9.25,6 9.5,6 Q 9.75,6 10,6 l 0.25,0 -0.125,0"
       style="fill:#f0a850;fill-opacity:1" />
    <path
       id="path3401"
       d="M 10,6.5 10,6 10.5,6 q 0.5,0 1,0 0.5,0 1,0 0.5,0 0.875,0.125 0.375,0.125 0.5,0.5 Q 14,7 14,7.5 L 14,8 13.5,8 Q 13,8 12.5,8 12,8 11.5,8 11,8 10.625,7.875 10.25,7.75 10.125,7.375 10,7 10,6.5 M 10.375,6 10,6 9.875,6 9.75,6 10,6 q 0.25,0 0.5,0 l 0.25,0 -0.375,0"
       style="fill:#f8d868;fill-opacity:1" />
    <path
       id="path3403"
       d="M 30.125,6.625 Q 30.25,6.25 30.625,6.125 31,6 31.5,6 q 0.5,0 1,0 0.5,0 1,0 0.5,0 1,0 0.5,0 0.875,0.125 0.375,0.125 0.5,0.5 Q 36,7 36.125,7.375 36.25,7.75 36.625,7.875 37,8 37.375,8.125 37.75,8.25 37.875,8.625 38,9 38,9.5 L 38,10 37.5,10 37,10 36.5,10 36,10 36,9.5 Q 36,9 35.875,8.625 35.75,8.25 35.375,8.125 35,8 34.5,8 34,8 33.5,8 33,8 32.5,8 32,8 31.5,8 31,8 30.625,8.125 30.25,8.25 30.125,8.625 30,9 30,9.5 L 30,10 29.5,10 29,10 28.5,10 28,10 28,9.5 Q 28,9 28.125,8.625 28.25,8.25 28.625,8.125 29,8 29.375,7.875 29.75,7.75 29.875,7.375 30,7 30.125,6.625"
       style="fill:#d07030;fill-opacity:1" />
    <path
       id="path3405"
       d="M 0,8.5 0,8 0.5,8 Q 1,8 1.5,8 L 2,8 2,8.5 Q 2,9 2,9.5 L 2,10 1.5,10 1,10 0.5,10 0,10 0,9.5 0,9 0,8.5"
       style="fill:#b04820;fill-opacity:1" />
    <path
       id="path3407"
       d="M 2,8.5 2,8 2.5,8 Q 3,8 3.5,8 4,8 4.5,8 5,8 5.5,8 L 6,8 6,8.5 Q 6,9 6,9.5 L 6,10 5.5,10 5,10 4.5,10 4,10 3.5,10 3,10 2.5,10 2,10 2,9.5 Q 2,9 2,8.5 M 6.125,8 6,8 5.625,8 5.25,8 5.5,8 Q 5.75,8 6,8 L 6.25,8 6.125,8"
       style="fill:#f8d868;fill-opacity:1" />
    <path
       id="path3409"
       d="M 8.125,8.625 Q 8.25,8.25 8.625,8.125 9,8 9.375,8.125 9.75,8.25 9.875,8.625 10,9 10,9.5 L 10,10 9.5,10 9,10 8.5,10 8,10 8,9.5 Q 8,9 8.125,8.625"
       style="fill:#b04820;fill-opacity:1" />
    <path
       id="path3411"
       d="M 14,8.5 14,8 14.5,8 q 0.5,0 1,0 l 0.5,0 0,0.5 q 0,0.5 0,1 L 16,10 15.5,10 15,10 14.5,10 14,10 14,9.5 Q 14,9 14,8.5 M 16,8.375 16,8 16,7.875 16,7.75 16,8 q 0,0.25 0,0.5 l 0,0.25 0,-0.375"
       style="fill:#b04820;fill-opacity:1" />
    <path
       id="path3413"
       d="M 30.125,8.625 Q 30.25,8.25 30.625,8.125 31,8 31.5,8 q 0.5,0 1,0 0.5,0 1,0 l 0.5,0 0,0.5 q 0,0.5 0,1 L 34,10 33.5,10 33,10 32.5,10 32,10 31.5,10 31,10 30.5,10 30,10 30,9.5 Q 30,9 30.125,8.625 M 34.125,8 34,8 33.625,8 33.25,8 33.5,8 q 0.25,0 0.5,0 l 0.25,0 -0.125,0"
       style="fill:#f8d868;fill-opacity:1" />
    <path
       id="path3415"
       d="M 34,8.5 34,8 34.5,8 q 0.5,0 0.875,0.125 0.375,0.125 0.5,0.5 Q 36,9 36,9.5 L 36,10 35.5,10 35,10 34.5,10 34,10 34,9.5 Q 34,9 34,8.5 M 34.375,8 34,8 33.875,8 33.75,8 34,8 q 0.25,0 0.5,0 l 0.25,0 -0.375,0"
       style="fill:#f0a850;fill-opacity:1" />
  </g>
  <g
     transform="translate(0 0)"
     id="g3417"
     inkscape:export-xdpi="900"
     inkscape:export-ydpi="900">
    <path
       style="fill:#000000;fill-opacity:0"
       d="M 0,0.5 0,0 0.5,0 1,0 1.5,0 2,0 2.5,0 3,0 3.5,0 4,0 4.5,0 5,0 5.5,0 6,0 6.5,0 7,0 7.5,0 8,0 8.5,0 9,0 9.5,0 10,0 10.5,0 11,0 11.5,0 12,0 12.5,0 13,0 13.5,0 14,0 14.5,0 15,0 15.5,0 16,0 16.5,0 17,0 17.5,0 18,0 18.5,0 19,0 19.5,0 20,0 20.5,0 21,0 21.5,0 22,0 22.5,0 23,0 23.5,0 24,0 24.5,0 25,0 25.5,0 26,0 26.5,0 27,0 27.5,0 28,0 28.5,0 29,0 29.5,0 30,0 30.5,0 31,0 31.5,0 32,0 32.5,0 33,0 33.5,0 34,0 34.5,0 35,0 35.5,0 36,0 36.5,0 37,0 37.5,0 38,0 38.5,0 39,0 39.5,0 40,0 40,0.5 40,1 40,1.5 40,2 40,2.5 40,3 40,3.5 40,4 40,4.5 40,5 40,5.5 40,6 40,6.5 40,7 40,7.5 40,8 40,8.5 40,9 40,9.5 40,10 39.5,10 39,10 38.5,10 38,10 38,9.5 Q 38,9 37.875,8.625 37.75,8.25 37.375,8.125 37,8 36.625,7.875 36.25,7.75 36.125,7.375 36,7 35.875,6.625 35.75,6.25 35.375,6.125 35,6 34.5,6 34,6 33.5,6 33,6 32.5,6 32,6 31.5,6 31,6 30.625,6.125 30.25,6.25 30.125,6.625 30,7 29.875,7.375 29.75,7.75 29.375,7.875 29,8 28.625,8.125 28.25,8.25 28.125,8.625 28,9 28,9.5 L 28,10 27.5,10 27,10 26.5,10 26,10 25.5,10 25,10 24.5,10 24,10 23.5,10 23,10 22.5,10 22,10 21.5,10 21,10 20.5,10 20,10 19.5,10 19,10 18.5,10 18,10 17.5,10 17,10 16.5,10 16,10 16,9.5 Q 16,9 16,8.5 16,8 16,7.5 16,7 15.875,6.625 15.75,6.25 15.375,6.125 15,6 14.625,5.875 14.25,5.75 14.125,5.375 14,5 13.875,4.625 13.75,4.25 13.375,4.125 13,4 12.5,4 12,4 11.5,4 11,4 10.5,4 10,4 9.5,4 9,4 8.625,4.125 8.25,4.25 8.125,4.625 8,5 7.875,5.375 7.75,5.75 7.375,5.875 7,6 6.5,6 6,6 5.5,6 5,6 4.5,6 4,6 3.5,6 3,6 2.625,6.125 2.25,6.25 2.125,6.625 2,7 2,7.5 L 2,8 1.5,8 Q 1,8 0.5,8 L 0,8 0,7.5 0,7 0,6.5 0,6 0,5.5 0,5 0,4.5 0,4 0,3.5 0,3 0,2.5 0,2 0,1.5 0,1 0,0.5"
       id="path3419" />
    <path
       style="fill:#d07030;fill-opacity:1"
       d="M 8.125,4.625 Q 8.25,4.25 8.625,4.125 9,4 9.5,4 q 0.5,0 1,0 0.5,0 1,0 0.5,0 1,0 0.5,0 0.875,0.125 0.375,0.125 0.5,0.5 Q 14,5 14.125,5.375 14.25,5.75 14.625,5.875 15,6 15.375,6.125 15.75,6.25 15.875,6.625 16,7 16,7.5 L 16,8 15.5,8 Q 15,8 14.5,8 L 14,8 14,7.5 Q 14,7 13.875,6.625 13.75,6.25 13.375,6.125 13,6 12.5,6 12,6 11.5,6 11,6 10.5,6 10,6 9.5,6 9,6 8.625,6.125 8.25,6.25 8.125,6.625 8,7 7.875,7.375 7.75,7.75 7.375,7.875 7,8 6.5,8 6,8 5.5,8 5,8 4.5,8 4,8 3.5,8 3,8 2.5,8 L 2,8 2,7.5 Q 2,7 2.125,6.625 2.25,6.25 2.625,6.125 3,6 3.5,6 4,6 4.5,6 5,6 5.5,6 6,6 6.5,6 7,6 7.375,5.875 7.75,5.75 7.875,5.375 8,5 8.125,4.625 M 16,8.125 16,8 16,7.625 16,7.25 16,7.5 q 0,0.25 0,0.5 l 0,0.25 0,-0.125"
       id="path3421" />
    <path
       style="fill:#f0a850;fill-opacity:1"
       d="M 8.125,6.625 Q 8.25,6.25 8.625,6.125 9,6 9.5,6 l 0.5,0 0,0.5 q 0,0.5 0.125,0.875 0.125,0.375 0.5,0.5 Q 11,8 11.5,8 q 0.5,0 1,0 0.5,0 1,0 l 0.5,0 0,0.5 q 0,0.5 0,1 L 14,10 13.5,10 13,10 12.5,10 12,10 11.5,10 11,10 10.5,10 10,10 10,9.5 Q 10,9 9.875,8.625 9.75,8.25 9.375,8.125 9,8 8.625,8.125 8.25,8.25 8.125,8.625 8,9 8,9.5 L 8,10 7.5,10 7,10 6.5,10 6,10 6,9.5 Q 6,9 6,8.5 L 6,8 6.5,8 Q 7,8 7.375,7.875 7.75,7.75 7.875,7.375 8,7 8.125,6.625 M 6.375,8 6,8 5.875,8 5.75,8 6,8 Q 6.25,8 6.5,8 L 6.75,8 6.375,8 M 10.125,6 10,6 9.625,6 9.25,6 9.5,6 Q 9.75,6 10,6 l 0.25,0 -0.125,0"
       id="path3423" />
    <path
       style="fill:#f8d868;fill-opacity:1"
       d="M 10,6.5 10,6 10.5,6 q 0.5,0 1,0 0.5,0 1,0 0.5,0 0.875,0.125 0.375,0.125 0.5,0.5 Q 14,7 14,7.5 L 14,8 13.5,8 Q 13,8 12.5,8 12,8 11.5,8 11,8 10.625,7.875 10.25,7.75 10.125,7.375 10,7 10,6.5 M 10.375,6 10,6 9.875,6 9.75,6 10,6 q 0.25,0 0.5,0 l 0.25,0 -0.375,0"
       id="path3425" />
    <path
       style="fill:#d07030;fill-opacity:1"
       d="M 30.125,6.625 Q 30.25,6.25 30.625,6.125 31,6 31.5,6 q 0.5,0 1,0 0.5,0 1,0 0.5,0 1,0 0.5,0 0.875,0.125 0.375,0.125 0.5,0.5 Q 36,7 36.125,7.375 36.25,7.75 36.625,7.875 37,8 37.375,8.125 37.75,8.25 37.875,8.625 38,9 38,9.5 L 38,10 37.5,10 37,10 36.5,10 36,10 36,9.5 Q 36,9 35.875,8.625 35.75,8.25 35.375,8.125 35,8 34.5,8 34,8 33.5,8 33,8 32.5,8 32,8 31.5,8 31,8 30.625,8.125 30.25,8.25 30.125,8.625 30,9 30,9.5 L 30,10 29.5,10 29,10 28.5,10 28,10 28,9.5 Q 28,9 28.125,8.625 28.25,8.25 28.625,8.125 29,8 29.375,7.875 29.75,7.75 29.875,7.375 30,7 30.125,6.625"
       id="path3427" />
    <path
       style="fill:#b04820;fill-opacity:1"
       d="M 0,8.5 0,8 0.5,8 Q 1,8 1.5,8 L 2,8 2,8.5 Q 2,9 2,9.5 L 2,10 1.5,10 1,10 0.5,10 0,10 0,9.5 0,9 0,8.5"
       id="path3429" />
    <path
       style="fill:#f8d868;fill-opacity:1"
       d="M 2,8.5 2,8 2.5,8 Q 3,8 3.5,8 4,8 4.5,8 5,8 5.5,8 L 6,8 6,8.5 Q 6,9 6,9.5 L 6,10 5.5,10 5,10 4.5,10 4,10 3.5,10 3,10 2.5,10 2,10 2,9.5 Q 2,9 2,8.5 M 6.125,8 6,8 5.625,8 5.25,8 5.5,8 Q 5.75,8 6,8 L 6.25,8 6.125,8"
       id="path3431" />
    <path
       style="fill:#b04820;fill-opacity:1"
       d="M 8.125,8.625 Q 8.25,8.25 8.625,8.125 9,8 9.375,8.125 9.75,8.25 9.875,8.625 10,9 10,9.5 L 10,10 9.5,10 9,10 8.5,10 8,10 8,9.5 Q 8,9 8.125,8.625"
       id="path3433" />
    <path
       style="fill:#b04820;fill-opacity:1"
       d="M 14,8.5 14,8 14.5,8 q 0.5,0 1,0 l 0.5,0 0,0.5 q 0,0.5 0,1 L 16,10 15.5,10 15,10 14.5,10 14,10 14,9.5 Q 14,9 14,8.5 M 16,8.375 16,8 16,7.875 16,7.75 16,8 q 0,0.25 0,0.5 l 0,0.25 0,-0.375"
       id="path3435" />
    <path
       style="fill:#f8d868;fill-opacity:1"
       d="M 30.125,8.625 Q 30.25,8.25 30.625,8.125 31,8 31.5,8 q 0.5,0 1,0 0.5,0 1,0 l 0.5,0 0,0.5 q 0,0.5 0,1 L 34,10 33.5,10 33,10 32.5,10 32,10 31.5,10 31,10 30.5,10 30,10 30,9.5 Q 30,9 30.125,8.625 M 34.125,8 34,8 33.625,8 33.25,8 33.5,8 q 0.25,0 0.5,0 l 0.25,0 -0.125,0"
       id="path3437" />
    <path
       style="fill:#f0a850;fill-opacity:1"
       d="M 34,8.5 34,8 34.5,8 q 0.5,0 0.875,0.125 0.375,0.125 0.5,0.5 Q 36,9 36,9.5 L 36,10 35.5,10 35,10 34.5,10 34,10 34,9.5 Q 34,9 34,8.5 M 34.375,8 34,8 33.875,8 33.75,8 34,8 q 0.25,0 0.5,0 l 0.25,0 -0.375,0"
       id="path3439" />
  </g>
  <g
     inkscape:export-ydpi="900"
     inkscape:export-xdpi="900"
     id="g3441"
     transform="translate(0 0)">
    <path
       id="path3443"
       d="M 0,0.5 0,0 0.5,0 1,0 1.5,0 2,0 2.5,0 3,0 3.5,0 4,0 4.5,0 5,0 5.5,0 6,0 6.5,0 7,0 7.5,0 8,0 8.5,0 9,0 9.5,0 10,0 10.5,0 11,0 11.5,0 12,0 12.5,0 13,0 13.5,0 14,0 14.5,0 15,0 15.5,0 16,0 16.5,0 17,0 17.5,0 18,0 18.5,0 19,0 19.5,0 20,0 20.5,0 21,0 21.5,0 22,0 22.5,0 23,0 23.5,0 24,0 24.5,0 25,0 25.5,0 26,0 26.5,0 27,0 27.5,0 28,0 28.5,0 29,0 29.5,0 30,0 30.5,0 31,0 31.5,0 32,0 32.5,0 33,0 33.5,0 34,0 34.5,0 35,0 35.5,0 36,0 36.5,0 37,0 37.5,0 38,0 38.5,0 39,0 39.5,0 40,0 40,0.5 40,1 40,1.5 40,2 40,2.5 40,3 40,3.5 40,4 40,4.5 40,5 40,5.5 40,6 40,6.5 40,7 40,7.5 40,8 40,8.5 40,9 40,9.5 40,10 39.5,10 39,10 38.5,10 38,10 38,9.5 Q 38,9 37.875,8.625 37.75,8.25 37.375,8.125 37,8 36.625,7.875 36.25,7.75 36.125,7.375 36,7 35.875,6.625 35.75,6.25 35.375,6.125 35,6 34.5,6 34,6 33.5,6 33,6 32.5,6 32,6 31.5,6 31,6 30.625,6.125 30.25,6.25 30.125,6.625 30,7 29.875,7.375 29.75,7.75 29.375,7.875 29,8 28.625,8.125 28.25,8.25 28.125,8.625 28,9 28,9.5 L 28,10 27.5,10 27,10 26.5,10 26,10 25.5,10 25,10 24.5,10 24,10 23.5,10 23,10 22.5,10 22,10 21.5,10 21,10 20.5,10 20,10 19.5,10 19,10 18.5,10 18,10 17.5,10 17,10 16.5,10 16,10 16,9.5 Q 16,9 16,8.5 16,8 16,7.5 16,7 15.875,6.625 15.75,6.25 15.375,6.125 15,6 14.625,5.875 14.25,5.75 14.125,5.375 14,5 13.875,4.625 13.75,4.25 13.375,4.125 13,4 12.5,4 12,4 11.5,4 11,4 10.5,4 10,4 9.5,4 9,4 8.625,4.125 8.25,4.25 8.125,4.625 8,5 7.875,5.375 7.75,5.75 7.375,5.875 7,6 6.5,6 6,6 5.5,6 5,6 4.5,6 4,6 3.5,6 3,6 2.625,6.125 2.25,6.25 2.125,6.625 2,7 2,7.5 L 2,8 1.5,8 Q 1,8 0.5,8 L 0,8 0,7.5 0,7 0,6.5 0,6 0,5.5 0,5 0,4.5 0,4 0,3.5 0,3 0,2.5 0,2 0,1.5 0,1 0,0.5"
       style="fill:#000000;fill-opacity:0" />
    <path
       id="path3445"
       d="M 8.125,4.625 Q 8.25,4.25 8.625,4.125 9,4 9.5,4 q 0.5,0 1,0 0.5,0 1,0 0.5,0 1,0 0.5,0 0.875,0.125 0.375,0.125 0.5,0.5 Q 14,5 14.125,5.375 14.25,5.75 14.625,5.875 15,6 15.375,6.125 15.75,6.25 15.875,6.625 16,7 16,7.5 L 16,8 15.5,8 Q 15,8 14.5,8 L 14,8 14,7.5 Q 14,7 13.875,6.625 13.75,6.25 13.375,6.125 13,6 12.5,6 12,6 11.5,6 11,6 10.5,6 10,6 9.5,6 9,6 8.625,6.125 8.25,6.25 8.125,6.625 8,7 7.875,7.375 7.75,7.75 7.375,7.875 7,8 6.5,8 6,8 5.5,8 5,8 4.5,8 4,8 3.5,8 3,8 2.5,8 L 2,8 2,7.5 Q 2,7 2.125,6.625 2.25,6.25 2.625,6.125 3,6 3.5,6 4,6 4.5,6 5,6 5.5,6 6,6 6.5,6 7,6 7.375,5.875 7.75,5.75 7.875,5.375 8,5 8.125,4.625 M 16,8.125 16,8 16,7.625 16,7.25 16,7.5 q 0,0.25 0,0.5 l 0,0.25 0,-0.125"
       style="fill:#d07030;fill-opacity:1" />
    <path
       id="path3447"
       d="M 8.125,6.625 Q 8.25,6.25 8.625,6.125 9,6 9.5,6 l 0.5,0 0,0.5 q 0,0.5 0.125,0.875 0.125,0.375 0.5,0.5 Q 11,8 11.5,8 q 0.5,0 1,0 0.5,0 1,0 l 0.5,0 0,0.5 q 0,0.5 0,1 L 14,10 13.5,10 13,10 12.5,10 12,10 11.5,10 11,10 10.5,10 10,10 10,9.5 Q 10,9 9.875,8.625 9.75,8.25 9.375,8.125 9,8 8.625,8.125 8.25,8.25 8.125,8.625 8,9 8,9.5 L 8,10 7.5,10 7,10 6.5,10 6,10 6,9.5 Q 6,9 6,8.5 L 6,8 6.5,8 Q 7,8 7.375,7.875 7.75,7.75 7.875,7.375 8,7 8.125,6.625 M 6.375,8 6,8 5.875,8 5.75,8 6,8 Q 6.25,8 6.5,8 L 6.75,8 6.375,8 M 10.125,6 10,6 9.625,6 9.25,6 9.5,6 Q 9.75,6 10,6 l 0.25,0 -0.125,0"
       style="fill:#f0a850;fill-opacity:1" />
    <path
       id="path3449"
       d="M 10,6.5 10,6 10.5,6 q 0.5,0 1,0 0.5,0 1,0 0.5,0 0.875,0.125 0.375,0.125 0.5,0.5 Q 14,7 14,7.5 L 14,8 13.5,8 Q 13,8 12.5,8 12,8 11.5,8 11,8 10.625,7.875 10.25,7.75 10.125,7.375 10,7 10,6.5 M 10.375,6 10,6 9.875,6 9.75,6 10,6 q 0.25,0 0.5,0 l 0.25,0 -0.375,0"
       style="fill:#f8d868;fill-opacity:1" />
    <path
       id="path3451"
       d="M 30.125,6.625 Q 30.25,6.25 30.625,6.125 31,6 31.5,6 q 0.5,0 1,0 0.5,0 1,0 0.5,0 1,0 0.5,0 0.875,0.125 0.375,0.125 0.5,0.5 Q 36,7 36.125,7.375 36.25,7.75 36.625,7.875 37,8 37.375,8.125 37.75,8.25 37.875,8.625 38,9 38,9.5 L 38,10 37.5,10 37,10 36.5,10 36,10 36,9.5 Q 36,9 35.875,8.625 35.75,8.25 35.375,8.125 35,8 34.5,8 34,8 33.5,8 33,8 32.5,8 32,8 31.5,8 31,8 30.625,8.125 30.25,8.25 30.125,8.625 30,9 30,9.5 L 30,10 29.5,10 29,10 28.5,10 28,10 28,9.5 Q 28,9 28.125,8.625 28.25,8.25 28.625,8.125 29,8 29.375,7.875 29.75,7.75 29.875,7.375 30,7 30.125,6.625"
       style="fill:#d07030;fill-opacity:1" />
    <path
       id="path3453"
       d="M 0,8.5 0,8 0.5,8 Q 1,8 1.5,8 L 2,8 2,8.5 Q 2,9 2,9.5 L 2,10 1.5,10 1,10 0.5,10 0,10 0,9.5 0,9 0,8.5"
       style="fill:#b04820;fill-opacity:1" />
    <path
       id="path3455"
       d="M 2,8.5 2,8 2.5,8 Q 3,8 3.5,8 4,8 4.5,8 5,8 5.5,8 L 6,8 6,8.5 Q 6,9 6,9.5 L 6,10 5.5,10 5,10 4.5,10 4,10 3.5,10 3,10 2.5,10 2,10 2,9.5 Q 2,9 2,8.5 M 6.125,8 6,8 5.625,8 5.25,8 5.5,8 Q 5.75,8 6,8 L 6.25,8 6.125,8"
       style="fill:#f8d868;fill-opacity:1" />
    <path
       id="path3457"
       d="M 8.125,8.625 Q 8.25,8.25 8.625,8.125 9,8 9.375,8.125 9.75,8.25 9.875,8.625 10,9 10,9.5 L 10,10 9.5,10 9,10 8.5,10 8,10 8,9.5 Q 8,9 8.125,8.625"
       style="fill:#b04820;fill-opacity:1" />
    <path
       id="path3459"
       d="M 14,8.5 14,8 14.5,8 q 0.5,0 1,0 l 0.5,0 0,0.5 q 0,0.5 0,1 L 16,10 15.5,10 15,10 14.5,10 14,10 14,9.5 Q 14,9 14,8.5 M 16,8.375 16,8 16,7.875 16,7.75 16,8 q 0,0.25 0,0.5 l 0,0.25 0,-0.375"
       style="fill:#b04820;fill-opacity:1" />
    <path
       id="path3461"
       d="M 30.125,8.625 Q 30.25,8.25 30.625,8.125 31,8 31.5,8 q 0.5,0 1,0 0.5,0 1,0 l 0.5,0 0,0.5 q 0,0.5 0,1 L 34,10 33.5,10 33,10 32.5,10 32,10 31.5,10 31,10 30.5,10 30,10 30,9.5 Q 30,9 30.125,8.625 M 34.125,8 34,8 33.625,8 33.25,8 33.5,8 q 0.25,0 0.5,0 l 0.25,0 -0.125,0"
       style="fill:#f8d868;fill-opacity:1" />
    <path
       id="path3463"
       d="M 34,8.5 34,8 34.5,8 q 0.5,0 0.875,0.125 0.375,0.125 0.5,0.5 Q 36,9 36,9.5 L 36,10 35.5,10 35,10 34.5,10 34,10 34,9.5 Q 34,9 34,8.5 M 34.375,8 34,8 33.875,8 33.75,8 34,8 q 0.25,0 0.5,0 l 0.25,0 -0.375,0"
       style="fill:#f0a850;fill-opacity:1" />
  </g>
  <g
     transform="translate(0 0)"
     id="g3465"
     inkscape:export-xdpi="900"
     inkscape:export-ydpi="900">
    <path
       style="fill:#000000;fill-opacity:0"
       d="M 0,0.5 0,0 0.5,0 1,0 1.5,0 2,0 2.5,0 3,0 3.5,0 4,0 4.5,0 5,0 5.5,0 6,0 6.5,0 7,0 7.5,0 8,0 8.5,0 9,0 9.5,0 10,0 10.5,0 11,0 11.5,0 12,0 12.5,0 13,0 13.5,0 14,0 14.5,0 15,0 15.5,0 16,0 16.5,0 17,0 17.5,0 18,0 18.5,0 19,0 19.5,0 20,0 20.5,0 21,0 21.5,0 22,0 22.5,0 23,0 23.5,0 24,0 24.5,0 25,0 25.5,0 26,0 26.5,0 27,0 27.5,0 28,0 28.5,0 29,0 29.5,0 30,0 30.5,0 31,0 31.5,0 32,0 32.5,0 33,0 33.5,0 34,0 34.5,0 35,0 35.5,0 36,0 36.5,0 37,0 37.5,0 38,0 38.5,0 39,0 39.5,0 40,0 40,0.5 40,1 40,1.5 40,2 40,2.5 40,3 40,3.5 40,4 40,4.5 40,5 40,5.5 40,6 40,6.5 40,7 40,7.5 40,8 40,8.5 40,9 40,9.5 40,10 39.5,10 39,10 38.5,10 38,10 38,9.5 Q 38,9 37.875,8.625 37.75,8.25 37.375,8.125 37,8 36.625,7.875 36.25,7.75 36.125,7.375 36,7 35.875,6.625 35.75,6.25 35.375,6.125 35,6 34.5,6 34,6 33.5,6 33,6 32.5,6 32,6 31.5,6 31,6 30.625,6.125 30.25,6.25 30.125,6.625 30,7 29.875,7.375 29.75,7.75 29.375,7.875 29,8 28.625,8.125 28.25,8.25 28.125,8.625 28,9 28,9.5 L 28,10 27.5,10 27,10 26.5,10 26,10 25.5,10 25,10 24.5,10 24,10 23.5,10 23,10 22.5,10 22,10 21.5,10 21,10 20.5,10 20,10 19.5,10 19,10 18.5,10 18,10 17.5,10 17,10 16.5,10 16,10 16,9.5 Q 16,9 16,8.5 16,8 16,7.5 16,7 15.875,6.625 15.75,6.25 15.375,6.125 15,6 14.625,5.875 14.25,5.75 14.125,5.375 14,5 13.875,4.625 13.75,4.25 13.375,4.125 13,4 12.5,4 12,4 11.5,4 11,4 10.5,4 10,4 9.5,4 9,4 8.625,4.125 8.25,4.25 8.125,4.625 8,5 7.875,5.375 7.75,5.75 7.375,5.875 7,6 6.5,6 6,6 5.5,6 5,6 4.5,6 4,6 3.5,6 3,6 2.625,6.125 2.25,6.25 2.125,6.625 2,7 2,7.5 L 2,8 1.5,8 Q 1,8 0.5,8 L 0,8 0,7.5 0,7 0,6.5 0,6 0,5.5 0,5 0,4.5 0,4 0,3.5 0,3 0,2.5 0,2 0,1.5 0,1 0,0.5"
       id="path3467" />
    <path
       style="fill:#d07030;fill-opacity:1"
       d="M 8.125,4.625 Q 8.25,4.25 8.625,4.125 9,4 9.5,4 q 0.5,0 1,0 0.5,0 1,0 0.5,0 1,0 0.5,0 0.875,0.125 0.375,0.125 0.5,0.5 Q 14,5 14.125,5.375 14.25,5.75 14.625,5.875 15,6 15.375,6.125 15.75,6.25 15.875,6.625 16,7 16,7.5 L 16,8 15.5,8 Q 15,8 14.5,8 L 14,8 14,7.5 Q 14,7 13.875,6.625 13.75,6.25 13.375,6.125 13,6 12.5,6 12,6 11.5,6 11,6 10.5,6 10,6 9.5,6 9,6 8.625,6.125 8.25,6.25 8.125,6.625 8,7 7.875,7.375 7.75,7.75 7.375,7.875 7,8 6.5,8 6,8 5.5,8 5,8 4.5,8 4,8 3.5,8 3,8 2.5,8 L 2,8 2,7.5 Q 2,7 2.125,6.625 2.25,6.25 2.625,6.125 3,6 3.5,6 4,6 4.5,6 5,6 5.5,6 6,6 6.5,6 7,6 7.375,5.875 7.75,5.75 7.875,5.375 8,5 8.125,4.625 M 16,8.125 16,8 16,7.625 16,7.25 16,7.5 q 0,0.25 0,0.5 l 0,0.25 0,-0.125"
       id="path3469" />
    <path
       style="fill:#f0a850;fill-opacity:1"
       d="M 8.125,6.625 Q 8.25,6.25 8.625,6.125 9,6 9.5,6 l 0.5,0 0,0.5 q 0,0.5 0.125,0.875 0.125,0.375 0.5,0.5 Q 11,8 11.5,8 q 0.5,0 1,0 0.5,0 1,0 l 0.5,0 0,0.5 q 0,0.5 0,1 L 14,10 13.5,10 13,10 12.5,10 12,10 11.5,10 11,10 10.5,10 10,10 10,9.5 Q 10,9 9.875,8.625 9.75,8.25 9.375,8.125 9,8 8.625,8.125 8.25,8.25 8.125,8.625 8,9 8,9.5 L 8,10 7.5,10 7,10 6.5,10 6,10 6,9.5 Q 6,9 6,8.5 L 6,8 6.5,8 Q 7,8 7.375,7.875 7.75,7.75 7.875,7.375 8,7 8.125,6.625 M 6.375,8 6,8 5.875,8 5.75,8 6,8 Q 6.25,8 6.5,8 L 6.75,8 6.375,8 M 10.125,6 10,6 9.625,6 9.25,6 9.5,6 Q 9.75,6 10,6 l 0.25,0 -0.125,0"
       id="path3471" />
    <path
       style="fill:#f8d868;fill-opacity:1"
       d="M 10,6.5 10,6 10.5,6 q 0.5,0 1,0 0.5,0 1,0 0.5,0 0.875,0.125 0.375,0.125 0.5,0.5 Q 14,7 14,7.5 L 14,8 13.5,8 Q 13,8 12.5,8 12,8 11.5,8 11,8 10.625,7.875 10.25,7.75 10.125,7.375 10,7 10,6.5 M 10.375,6 10,6 9.875,6 9.75,6 10,6 q 0.25,0 0.5,0 l 0.25,0 -0.375,0"
       id="path3473" />
    <path
       style="fill:#d07030;fill-opacity:1"
       d="M 30.125,6.625 Q 30.25,6.25 30.625,6.125 31,6 31.5,6 q 0.5,0 1,0 0.5,0 1,0 0.5,0 1,0 0.5,0 0.875,0.125 0.375,0.125 0.5,0.5 Q 36,7 36.125,7.375 36.25,7.75 36.625,7.875 37,8 37.375,8.125 37.75,8.25 37.875,8.625 38,9 38,9.5 L 38,10 37.5,10 37,10 36.5,10 36,10 36,9.5 Q 36,9 35.875,8.625 35.75,8.25 35.375,8.125 35,8 34.5,8 34,8 33.5,8 33,8 32.5,8 32,8 31.5,8 31,8 30.625,8.125 30.25,8.25 30.125,8.625 30,9 30,9.5 L 30,10 29.5,10 29,10 28.5,10 28,10 28,9.5 Q 28,9 28.125,8.625 28.25,8.25 28.625,8.125 29,8 29.375,7.875 29.75,7.75 29.875,7.375 30,7 30.125,6.625"
       id="path3475" />
    <path
       style="fill:#b04820;fill-opacity:1"
       d="M 0,8.5 0,8 0.5,8 Q 1,8 1.5,8 L 2,8 2,8.5 Q 2,9 2,9.5 L 2,10 1.5,10 1,10 0.5,10 0,10 0,9.5 0,9 0,8.5"
       id="path3477" />
    <path
       style="fill:#f8d868;fill-opacity:1"
       d="M 2,8.5 2,8 2.5,8 Q 3,8 3.5,8 4,8 4.5,8 5,8 5.5,8 L 6,8 6,8.5 Q 6,9 6,9.5 L 6,10 5.5,10 5,10 4.5,10 4,10 3.5,10 3,10 2.5,10 2,10 2,9.5 Q 2,9 2,8.5 M 6.125,8 6,8 5.625,8 5.25,8 5.5,8 Q 5.75,8 6,8 L 6.25,8 6.125,8"
       id="path3479" />
    <path
       style="fill:#b04820;fill-opacity:1"
       d="M 8.125,8.625 Q 8.25,8.25 8.625,8.125 9,8 9.375,8.125 9.75,8.25 9.875,8.625 10,9 10,9.5 L 10,10 9.5,10 9,10 8.5,10 8,10 8,9.5 Q 8,9 8.125,8.625"
       id="path3481" />
    <path
       style="fill:#b04820;fill-opacity:1"
       d="M 14,8.5 14,8 14.5,8 q 0.5,0 1,0 l 0.5,0 0,0.5 q 0,0.5 0,1 L 16,10 15.5,10 15,10 14.5,10 14,10 14,9.5 Q 14,9 14,8.5 M 16,8.375 16,8 16,7.875 16,7.75 16,8 q 0,0.25 0,0.5 l 0,0.25 0,-0.375"
       id="path3483" />
    <path
       style="fill:#f8d868;fill-opacity:1"
       d="M 30.125,8.625 Q 30.25,8.25 30.625,8.125 31,8 31.5,8 q 0.5,0 1,0 0.5,0 1,0 l 0.5,0 0,0.5 q 0,0.5 0,1 L 34,10 33.5,10 33,10 32.5,10 32,10 31.5,10 31,10 30.5,10 30,10 30,9.5 Q 30,9 30.125,8.625 M 34.125,8 34,8 33.625,8 33.25,8 33.5,8 q 0.25,0 0.5,0 l 0.25,0 -0.125,0"
       id="path3485" />
    <path
       style="fill:#f0a850;fill-opacity:1"
       d="M 34,8.5 34,8 34.5,8 q 0.5,0 0.875,0.125 0.375,0.125 0.5,0.5 Q 36,9 36,9.5 L 36,10 35.5,10 35,10 34.5,10 34,10 34,9.5 Q 34,9 34,8.5 M 34.375,8 34,8 33.875,8 33.75,8 34,8 q 0.25,0 0.5,0 l 0.25,0 -0.375,0"
       id="path3487" />
  </g>
  <g
     inkscape:export-ydpi="900"
     inkscape:export-xdpi="900"
     id="g3489"
     transform="translate(0 0)">
    <path
       id="path3491"
       d="M 0,0.5 0,0 0.5,0 1,0 1.5,0 2,0 2.5,0 3,0 3.5,0 4,0 4.5,0 5,0 5.5,0 6,0 6.5,0 7,0 7.5,0 8,0 8.5,0 9,0 9.5,0 10,0 10.5,0 11,0 11.5,0 12,0 12.5,0 13,0 13.5,0 14,0 14.5,0 15,0 15.5,0 16,0 16.5,0 17,0 17.5,0 18,0 18.5,0 19,0 19.5,0 20,0 20.5,0 21,0 21.5,0 22,0 22.5,0 23,0 23.5,0 24,0 24.5,0 25,0 25.5,0 26,0 26.5,0 27,0 27.5,0 28,0 28.5,0 29,0 29.5,0 30,0 30.5,0 31,0 31.5,0 32,0 32.5,0 33,0 33.5,0 34,0 34.5,0 35,0 35.5,0 36,0 36.5,0 37,0 37.5,0 38,0 38.5,0 39,0 39.5,0 40,0 40,0.5 40,1 40,1.5 40,2 40,2.5 40,3 40,3.5 40,4 40,4.5 40,5 40,5.5 40,6 40,6.5 40,7 40,7.5 40,8 40,8.5 40,9 40,9.5 40,10 39.5,10 39,10 38.5,10 38,10 38,9.5 Q 38,9 37.875,8.625 37.75,8.25 37.375,8.125 37,8 36.625,7.875 36.25,7.75 36.125,7.375 36,7 35.875,6.625 35.75,6.25 35.375,6.125 35,6 34.5,6 34,6 33.5,6 33,6 32.5,6 32,6 31.5,6 31,6 30.625,6.125 30.25,6.25 30.125,6.625 30,7 29.875,7.375 29.75,7.75 29.375,7.875 29,8 28.625,8.125 28.25,8.25 28.125,8.625 28,9 28,9.5 L 28,10 27.5,10 27,10 26.5,10 26,10 25.5,10 25,10 24.5,10 24,10 23.5,10 23,10 22.5,10 22,10 21.5,10 21,10 20.5,10 20,10 19.5,10 19,10 18.5,10 18,10 17.5,10 17,10 16.5,10 16,10 16,9.5 Q 16,9 16,8.5 16,8 16,7.5 16,7 15.875,6.625 15.75,6.25 15.375,6.125 15,6 14.625,5.875 14.25,5.75 14.125,5.375 14,5 13.875,4.625 13.75,4.25 13.375,4.125 13,4 12.5,4 12,4 11.5,4 11,4 10.5,4 10,4 9.5,4 9,4 8.625,4.125 8.25,4.25 8.125,4.625 8,5 7.875,5.375 7.75,5.75 7.375,5.875 7,6 6.5,6 6,6 5.5,6 5,6 4.5,6 4,6 3.5,6 3,6 2.625,6.125 2.25,6.25 2.125,6.625 2,7 2,7.5 L 2,8 1.5,8 Q 1,8 0.5,8 L 0,8 0,7.5 0,7 0,6.5 0,6 0,5.5 0,5 0,4.5 0,4 0,3.5 0,3 0,2.5 0,2 0,1.5 0,1 0,0.5"
       style="fill:#000000;fill-opacity:0" />
    <path
       id="path3493"
       d="M 8.125,4.625 Q 8.25,4.25 8.625,4.125 9,4 9.5,4 q 0.5,0 1,0 0.5,0 1,0 0.5,0 1,0 0.5,0 0.875,0.125 0.375,0.125 0.5,0.5 Q 14,5 14.125,5.375 14.25,5.75 14.625,5.875 15,6 15.375,6.125 15.75,6.25 15.875,6.625 16,7 16,7.5 L 16,8 15.5,8 Q 15,8 14.5,8 L 14,8 14,7.5 Q 14,7 13.875,6.625 13.75,6.25 13.375,6.125 13,6 12.5,6 12,6 11.5,6 11,6 10.5,6 10,6 9.5,6 9,6 8.625,6.125 8.25,6.25 8.125,6.625 8,7 7.875,7.375 7.75,7.75 7.375,7.875 7,8 6.5,8 6,8 5.5,8 5,8 4.5,8 4,8 3.5,8 3,8 2.5,8 L 2,8 2,7.5 Q 2,7 2.125,6.625 2.25,6.25 2.625,6.125 3,6 3.5,6 4,6 4.5,6 5,6 5.5,6 6,6 6.5,6 7,6 7.375,5.875 7.75,5.75 7.875,5.375 8,5 8.125,4.625 M 16,8.125 16,8 16,7.625 16,7.25 16,7.5 q 0,0.25 0,0.5 l 0,0.25 0,-0.125"
       style="fill:#d07030;fill-opacity:1" />
    <path
       id="path3495"
       d="M 8.125,6.625 Q 8.25,6.25 8.625,6.125 9,6 9.5,6 l 0.5,0 0,0.5 q 0,0.5 0.125,0.875 0.125,0.375 0.5,0.5 Q 11,8 11.5,8 q 0.5,0 1,0 0.5,0 1,0 l 0.5,0 0,0.5 q 0,0.5 0,1 L 14,10 13.5,10 13,10 12.5,10 12,10 11.5,10 11,10 10.5,10 10,10 10,9.5 Q 10,9 9.875,8.625 9.75,8.25 9.375,8.125 9,8 8.625,8.125 8.25,8.25 8.125,8.625 8,9 8,9.5 L 8,10 7.5,10 7,10 6.5,10 6,10 6,9.5 Q 6,9 6,8.5 L 6,8 6.5,8 Q 7,8 7.375,7.875 7.75,7.75 7.875,7.375 8,7 8.125,6.625 M 6.375,8 6,8 5.875,8 5.75,8 6,8 Q 6.25,8 6.5,8 L 6.75,8 6.375,8 M 10.125,6 10,6 9.625,6 9.25,6 9.5,6 Q 9.75,6 10,6 l 0.25,0 -0.125,0"
       style="fill:#f0a850;fill-opacity:1" />
    <path
       id="path3497"
       d="M 10,6.5 10,6 10.5,6 q 0.5,0 1,0 0.5,0 1,0 0.5,0 0.875,0.125 0.375,0.125 0.5,0.5 Q 14,7 14,7.5 L 14,8 13.5,8 Q 13,8 12.5,8 12,8 11.5,8 11,8 10.625,7.875 10.25,7.75 10.125,7.375 10,7 10,6.5 M 10.375,6 10,6 9.875,6 9.75,6 10,6 q 0.25,0 0.5,0 l 0.25,0 -0.375,0"
       style="fill:#f8d868;fill-opacity:1" />
    <path
       id="path3499"
       d="M 30.125,6.625 Q 30.25,6.25 30.625,6.125 31,6 31.5,6 q 0.5,0 1,0 0.5,0 1,0 0.5,0 1,0 0.5,0 0.875,0.125 0.375,0.125 0.5,0.5 Q 36,7 36.125,7.375 36.25,7.75 36.625,7.875 37,8 37.375,8.125 37.75,8.25 37.875,8.625 38,9 38,9.5 L 38,10 37.5,10 37,10 36.5,10 36,10 36,9.5 Q 36,9 35.875,8.625 35.75,8.25 35.375,8.125 35,8 34.5,8 34,8 33.5,8 33,8 32.5,8 32,8 31.5,8 31,8 30.625,8.125 30.25,8.25 30.125,8.625 30,9 30,9.5 L 30,10 29.5,10 29,10 28.5,10 28,10 28,9.5 Q 28,9 28.125,8.625 28.25,8.25 28.625,8.125 29,8 29.375,7.875 29.75,7.75 29.875,7.375 30,7 30.125,6.625"
       style="fill:#d07030;fill-opacity:1" />
    <path
       id="path3501"
       d="M 0,8.5 0,8 0.5,8 Q 1,8 1.5,8 L 2,8 2,8.5 Q 2,9 2,9.5 L 2,10 1.5,10 1,10 0.5,10 0,10 0,9.5 0,9 0,8.5"
       style="fill:#b04820;fill-opacity:1" />
    <path
       id="path3503"
       d="M 2,8.5 2,8 2.5,8 Q 3,8 3.5,8 4,8 4.5,8 5,8 5.5,8 L 6,8 6,8.5 Q 6,9 6,9.5 L 6,10 5.5,10 5,10 4.5,10 4,10 3.5,10 3,10 2.5,10 2,10 2,9.5 Q 2,9 2,8.5 M 6.125,8 6,8 5.625,8 5.25,8 5.5,8 Q 5.75,8 6,8 L 6.25,8 6.125,8"
       style="fill:#f8d868;fill-opacity:1" />
    <path
       id="path3505"
       d="M 8.125,8.625 Q 8.25,8.25 8.625,8.125 9,8 9.375,8.125 9.75,8.25 9.875,8.625 10,9 10,9.5 L 10,10 9.5,10 9,10 8.5,10 8,10 8,9.5 Q 8,9 8.125,8.625"
       style="fill:#b04820;fill-opacity:1" />
    <path
       id="path3507"
       d="M 14,8.5 14,8 14.5,8 q 0.5,0 1,0 l 0.5,0 0,0.5 q 0,0.5 0,1 L 16,10 15.5,10 15,10 14.5,10 14,10 14,9.5 Q 14,9 14,8.5 M 16,8.375 16,8 16,7.875 16,7.75 16,8 q 0,0.25 0,0.5 l 0,0.25 0,-0.375"
       style="fill:#b04820;fill-opacity:1" />
    <path
       id="path3509"
       d="M 30.125,8.625 Q 30.25,8.25 30.625,8.125 31,8 31.5,8 q 0.5,0 1,0 0.5,0 1,0 l 0.5,0 0,0.5 q 0,0.5 0,1 L 34,10 33.5,10 33,10 32.5,10 32,10 31.5,10 31,10 30.5,10 30,10 30,9.5 Q 30,9 30.125,8.625 M 34.125,8 34,8 33.625,8 33.25,8 33.5,8 q 0.25,0 0.5,0 l 0.25,0 -0.125,0"
       style="fill:#f8d868;fill-opacity:1" />
    <path
       id="path3511"
       d="M 34,8.5 34,8 34.5,8 q 0.5,0 0.875,0.125 0.375,0.125 0.5,0.5 Q 36,9 36,9.5 L 36,10 35.5,10 35,10 34.5,10 34,10 34,9.5 Q 34,9 34,8.5 M 34.375,8 34,8 33.875,8 33.75,8 34,8 q 0.25,0 0.5,0 l 0.25,0 -0.375,0"
       style="fill:#f0a850;fill-opacity:1" />
  </g>
  <g
     transform="translate(0 0)"
     id="g3513"
     inkscape:export-xdpi="900"
     inkscape:export-ydpi="900">
    <path
       style="fill:#000000;fill-opacity:0"
       d="M 0,0.5 0,0 0.5,0 1,0 1.5,0 2,0 2.5,0 3,0 3.5,0 4,0 4.5,0 5,0 5.5,0 6,0 6.5,0 7,0 7.5,0 8,0 8.5,0 9,0 9.5,0 10,0 10.5,0 11,0 11.5,0 12,0 12.5,0 13,0 13.5,0 14,0 14.5,0 15,0 15.5,0 16,0 16.5,0 17,0 17.5,0 18,0 18.5,0 19,0 19.5,0 20,0 20.5,0 21,0 21.5,0 22,0 22.5,0 23,0 23.5,0 24,0 24.5,0 25,0 25.5,0 26,0 26.5,0 27,0 27.5,0 28,0 28.5,0 29,0 29.5,0 30,0 30.5,0 31,0 31.5,0 32,0 32.5,0 33,0 33.5,0 34,0 34.5,0 35,0 35.5,0 36,0 36.5,0 37,0 37.5,0 38,0 38.5,0 39,0 39.5,0 40,0 40,0.5 40,1 40,1.5 40,2 40,2.5 40,3 40,3.5 40,4 40,4.5 40,5 40,5.5 40,6 40,6.5 40,7 40,7.5 40,8 40,8.5 40,9 40,9.5 40,10 39.5,10 39,10 38.5,10 38,10 38,9.5 Q 38,9 37.875,8.625 37.75,8.25 37.375,8.125 37,8 36.625,7.875 36.25,7.75 36.125,7.375 36,7 35.875,6.625 35.75,6.25 35.375,6.125 35,6 34.5,6 34,6 33.5,6 33,6 32.5,6 32,6 31.5,6 31,6 30.625,6.125 30.25,6.25 30.125,6.625 30,7 29.875,7.375 29.75,7.75 29.375,7.875 29,8 28.625,8.125 28.25,8.25 28.125,8.625 28,9 28,9.5 L 28,10 27.5,10 27,10 26.5,10 26,10 25.5,10 25,10 24.5,10 24,10 23.5,10 23,10 22.5,10 22,10 21.5,10 21,10 20.5,10 20,10 19.5,10 19,10 18.5,10 18,10 17.5,10 17,10 16.5,10 16,10 16,9.5 Q 16,9 16,8.5 16,8 16,7.5 16,7 15.875,6.625 15.75,6.25 15.375,6.125 15,6 14.625,5.875 14.25,5.75 14.125,5.375 14,5 13.875,4.625 13.75,4.25 13.375,4.125 13,4 12.5,4 12,4 11.5,4 11,4 10.5,4 10,4 9.5,4 9,4 8.625,4.125 8.25,4.25 8.125,4.625 8,5 7.875,5.375 7.75,5.75 7.375,5.875 7,6 6.5,6 6,6 5.5,6 5,6 4.5,6 4,6 3.5,6 3,6 2.625,6.125 2.25,6.25 2.125,6.625 2,7 2,7.5 L 2,8 1.5,8 Q 1,8 0.5,8 L 0,8 0,7.5 0,7 0,6.5 0,6 0,5.5 0,5 0,4.5 0,4 0,3.5 0,3 0,2.5 0,2 0,1.5 0,1 0,0.5"
       id="path3515" />
    <path
       style="fill:#d07030;fill-opacity:1"
       d="M 8.125,4.625 Q 8.25,4.25 8.625,4.125 9,4 9.5,4 q 0.5,0 1,0 0.5,0 1,0 0.5,0 1,0 0.5,0 0.875,0.125 0.375,0.125 0.5,0.5 Q 14,5 14.125,5.375 14.25,5.75 14.625,5.875 15,6 15.375,6.125 15.75,6.25 15.875,6.625 16,7 16,7.5 L 16,8 15.5,8 Q 15,8 14.5,8 L 14,8 14,7.5 Q 14,7 13.875,6.625 13.75,6.25 13.375,6.125 13,6 12.5,6 12,6 11.5,6 11,6 10.5,6 10,6 9.5,6 9,6 8.625,6.125 8.25,6.25 8.125,6.625 8,7 7.875,7.375 7.75,7.75 7.375,7.875 7,8 6.5,8 6,8 5.5,8 5,8 4.5,8 4,8 3.5,8 3,8 2.5,8 L 2,8 2,7.5 Q 2,7 2.125,6.625 2.25,6.25 2.625,6.125 3,6 3.5,6 4,6 4.5,6 5,6 5.5,6 6,6 6.5,6 7,6 7.375,5.875 7.75,5.75 7.875,5.375 8,5 8.125,4.625 M 16,8.125 16,8 16,7.625 16,7.25 16,7.5 q 0,0.25 0,0.5 l 0,0.25 0,-0.125"
       id="path3517" />
    <path
       style="fill:#f0a850;fill-opacity:1"
       d="M 8.125,6.625 Q 8.25,6.25 8.625,6.125 9,6 9.5,6 l 0.5,0 0,0.5 q 0,0.5 0.125,0.875 0.125,0.375 0.5,0.5 Q 11,8 11.5,8 q 0.5,0 1,0 0.5,0 1,0 l 0.5,0 0,0.5 q 0,0.5 0,1 L 14,10 13.5,10 13,10 12.5,10 12,10 11.5,10 11,10 10.5,10 10,10 10,9.5 Q 10,9 9.875,8.625 9.75,8.25 9.375,8.125 9,8 8.625,8.125 8.25,8.25 8.125,8.625 8,9 8,9.5 L 8,10 7.5,10 7,10 6.5,10 6,10 6,9.5 Q 6,9 6,8.5 L 6,8 6.5,8 Q 7,8 7.375,7.875 7.75,7.75 7.875,7.375 8,7 8.125,6.625 M 6.375,8 6,8 5.875,8 5.75,8 6,8 Q 6.25,8 6.5,8 L 6.75,8 6.375,8 M 10.125,6 10,6 9.625,6 9.25,6 9.5,6 Q 9.75,6 10,6 l 0.25,0 -0.125,0"
       id="path3519" />
    <path
       style="fill:#f8d868;fill-opacity:1"
       d="M 10,6.5 10,6 10.5,6 q 0.5,0 1,0 0.5,0 1,0 0.5,0 0.875,0.125 0.375,0.125 0.5,0.5 Q 14,7 14,7.5 L 14,8 13.5,8 Q 13,8 12.5,8 12,8 11.5,8 11,8 10.625,7.875 10.25,7.75 10.125,7.375 10,7 10,6.5 M 10.375,6 10,6 9.875,6 9.75,6 10,6 q 0.25,0 0.5,0 l 0.25,0 -0.375,0"
       id="path3521" />
    <path
       style="fill:#d07030;fill-opacity:1"
       d="M 30.125,6.625 Q 30.25,6.25 30.625,6.125 31,6 31.5,6 q 0.5,0 1,0 0.5,0 1,0 0.5,0 1,0 0.5,0 0.875,0.125 0.375,0.125 0.5,0.5 Q 36,7 36.125,7.375 36.25,7.75 36.625,7.875 37,8 37.375,8.125 37.75,8.25 37.875,8.625 38,9 38,9.5 L 38,10 37.5,10 37,10 36.5,10 36,10 36,9.5 Q 36,9 35.875,8.625 35.75,8.25 35.375,8.125 35,8 34.5,8 34,8 33.5,8 33,8 32.5,8 32,8 31.5,8 31,8 30.625,8.125 30.25,8.25 30.125,8.625 30,9 30,9.5 L 30,10 29.5,10 29,10 28.5,10 28,10 28,9.5 Q 28,9 28.125,8.625 28.25,8.25 28.625,8.125 29,8 29.375,7.875 29.75,7.75 29.875,7.375 30,7 30.125,6.625"
       id="path3523" />
    <path
       style="fill:#b04820;fill-opacity:1"
       d="M 0,8.5 0,8 0.5,8 Q 1,8 1.5,8 L 2,8 2,8.5 Q 2,9 2,9.5 L 2,10 1.5,10 1,10 0.5,10 0,10 0,9.5 0,9 0,8.5"
       id="path3525" />
    <path
       style="fill:#f8d868;fill-opacity:1"
       d="M 2,8.5 2,8 2.5,8 Q 3,8 3.5,8 4,8 4.5,8 5,8 5.5,8 L 6,8 6,8.5 Q 6,9 6,9.5 L 6,10 5.5,10 5,10 4.5,10 4,10 3.5,10 3,10 2.5,10 2,10 2,9.5 Q 2,9 2,8.5 M 6.125,8 6,8 5.625,8 5.25,8 5.5,8 Q 5.75,8 6,8 L 6.25,8 6.125,8"
       id="path3527" />
    <path
       style="fill:#b04820;fill-opacity:1"
       d="M 8.125,8.625 Q 8.25,8.25 8.625,8.125 9,8 9.375,8.125 9.75,8.25 9.875,8.625 10,9 10,9.5 L 10,10 9.5,10 9,10 8.5,10 8,10 8,9.5 Q 8,9 8.125,8.625"
       id="path3529" />
    <path
       style="fill:#b04820;fill-opacity:1"
       d="M 14,8.5 14,8 14.5,8 q 0.5,0 1,0 l 0.5,0 0,0.5 q 0,0.5 0,1 L 16,10 15.5,10 15,10 14.5,10 14,10 14,9.5 Q 14,9 14,8.5 M 16,8.375 16,8 16,7.875 16,7.75 16,8 q 0,0.25 0,0.5 l 0,0.25 0,-0.375"
       id="path3531" />
    <path
       style="fill:#f8d868;fill-opacity:1"
       d="M 30.125,8.625 Q 30.25,8.25 30.625,8.125 31,8 31.5,8 q 0.5,0 1,0 0.5,0 1,0 l 0.5,0 0,0.5 q 0,0.5 0,1 L 34,10 33.5,10 33,10 32.5,10 32,10 31.5,10 31,10 30.5,10 30,10 30,9.5 Q 30,9 30.125,8.625 M 34.125,8 34,8 33.625,8 33.25,8 33.5,8 q 0.25,0 0.5,0 l 0.25,0 -0.125,0"
       id="path3533" />
    <path
       style="fill:#f0a850;fill-opacity:1"
       d="M 34,8.5 34,8 34.5,8 q 0.5,0 0.875,0.125 0.375,0.125 0.5,0.5 Q 36,9 36,9.5 L 36,10 35.5,10 35,10 34.5,10 34,10 34,9.5 Q 34,9 34,8.5 M 34.375,8 34,8 33.875,8 33.75,8 34,8 q 0.25,0 0.5,0 l 0.25,0 -0.375,0"
       id="path3535" />
  </g>
  <g
     inkscape:export-ydpi="900"
     inkscape:export-xdpi="900"
     id="g3537"
     transform="translate(0 0)">
    <path
       id="path3539"
       d="M 0,0.5 0,0 0.5,0 1,0 1.5,0 2,0 2.5,0 3,0 3.5,0 4,0 4.5,0 5,0 5.5,0 6,0 6.5,0 7,0 7.5,0 8,0 8.5,0 9,0 9.5,0 10,0 10.5,0 11,0 11.5,0 12,0 12.5,0 13,0 13.5,0 14,0 14.5,0 15,0 15.5,0 16,0 16.5,0 17,0 17.5,0 18,0 18.5,0 19,0 19.5,0 20,0 20.5,0 21,0 21.5,0 22,0 22.5,0 23,0 23.5,0 24,0 24.5,0 25,0 25.5,0 26,0 26.5,0 27,0 27.5,0 28,0 28.5,0 29,0 29.5,0 30,0 30.5,0 31,0 31.5,0 32,0 32.5,0 33,0 33.5,0 34,0 34.5,0 35,0 35.5,0 36,0 36.5,0 37,0 37.5,0 38,0 38.5,0 39,0 39.5,0 40,0 40,0.5 40,1 40,1.5 40,2 40,2.5 40,3 40,3.5 40,4 40,4.5 40,5 40,5.5 40,6 40,6.5 40,7 40,7.5 40,8 40,8.5 40,9 40,9.5 40,10 39.5,10 39,10 38.5,10 38,10 38,9.5 Q 38,9 37.875,8.625 37.75,8.25 37.375,8.125 37,8 36.625,7.875 36.25,7.75 36.125,7.375 36,7 35.875,6.625 35.75,6.25 35.375,6.125 35,6 34.5,6 34,6 33.5,6 33,6 32.5,6 32,6 31.5,6 31,6 30.625,6.125 30.25,6.25 30.125,6.625 30,7 29.875,7.375 29.75,7.75 29.375,7.875 29,8 28.625,8.125 28.25,8.25 28.125,8.625 28,9 28,9.5 L 28,10 27.5,10 27,10 26.5,10 26,10 25.5,10 25,10 24.5,10 24,10 23.5,10 23,10 22.5,10 22,10 21.5,10 21,10 20.5,10 20,10 19.5,10 19,10 18.5,10 18,10 17.5,10 17,10 16.5,10 16,10 16,9.5 Q 16,9 16,8.5 16,8 16,7.5 16,7 15.875,6.625 15.75,6.25 15.375,6.125 15,6 14.625,5.875 14.25,5.75 14.125,5.375 14,5 13.875,4.625 13.75,4.25 13.375,4.125 13,4 12.5,4 12,4 11.5,4 11,4 10.5,4 10,4 9.5,4 9,4 8.625,4.125 8.25,4.25 8.125,4.625 8,5 7.875,5.375 7.75,5.75 7.375,5.875 7,6 6.5,6 6,6 5.5,6 5,6 4.5,6 4,6 3.5,6 3,6 2.625,6.125 2.25,6.25 2.125,6.625 2,7 2,7.5 L 2,8 1.5,8 Q 1,8 0.5,8 L 0,8 0,7.5 0,7 0,6.5 0,6 0,5.5 0,5 0,4.5 0,4 0,3.5 0,3 0,2.5 0,2 0,1.5 0,1 0,0.5"
       style="fill:#000000;fill-opacity:0" />
    <path
       id="path3541"
       d="M 8.125,4.625 Q 8.25,4.25 8.625,4.125 9,4 9.5,4 q 0.5,0 1,0 0.5,0 1,0 0.5,0 1,0 0.5,0 0.875,0.125 0.375,0.125 0.5,0.5 Q 14,5 14.125,5.375 14.25,5.75 14.625,5.875 15,6 15.375,6.125 15.75,6.25 15.875,6.625 16,7 16,7.5 L 16,8 15.5,8 Q 15,8 14.5,8 L 14,8 14,7.5 Q 14,7 13.875,6.625 13.75,6.25 13.375,6.125 13,6 12.5,6 12,6 11.5,6 11,6 10.5,6 10,6 9.5,6 9,6 8.625,6.125 8.25,6.25 8.125,6.625 8,7 7.875,7.375 7.75,7.75 7.375,7.875 7,8 6.5,8 6,8 5.5,8 5,8 4.5,8 4,8 3.5,8 3,8 2.5,8 L 2,8 2,7.5 Q 2,7 2.125,6.625 2.25,6.25 2.625,6.125 3,6 3.5,6 4,6 4.5,6 5,6 5.5,6 6,6 6.5,6 7,6 7.375,5.875 7.75,5.75 7.875,5.375 8,5 8.125,4.625 M 16,8.125 16,8 16,7.625 16,7.25 16,7.5 q 0,0.25 0,0.5 l 0,0.25 0,-0.125"
       style="fill:#d07030;fill-opacity:1" />
    <path
       id="path3543"
       d="M 8.125,6.625 Q 8.25,6.25 8.625,6.125 9,6 9.5,6 l 0.5,0 0,0.5 q 0,0.5 0.125,0.875 0.125,0.375 0.5,0.5 Q 11,8 11.5,8 q 0.5,0 1,0 0.5,0 1,0 l 0.5,0 0,0.5 q 0,0.5 0,1 L 14,10 13.5,10 13,10 12.5,10 12,10 11.5,10 11,10 10.5,10 10,10 10,9.5 Q 10,9 9.875,8.625 9.75,8.25 9.375,8.125 9,8 8.625,8.125 8.25,8.25 8.125,8.625 8,9 8,9.5 L 8,10 7.5,10 7,10 6.5,10 6,10 6,9.5 Q 6,9 6,8.5 L 6,8 6.5,8 Q 7,8 7.375,7.875 7.75,7.75 7.875,7.375 8,7 8.125,6.625 M 6.375,8 6,8 5.875,8 5.75,8 6,8 Q 6.25,8 6.5,8 L 6.75,8 6.375,8 M 10.125,6 10,6 9.625,6 9.25,6 9.5,6 Q 9.75,6 10,6 l 0.25,0 -0.125,0"
       style="fill:#f0a850;fill-opacity:1" />
    <path
       id="path3545"
       d="M 10,6.5 10,6 10.5,6 q 0.5,0 1,0 0.5,0 1,0 0.5,0 0.875,0.125 0.375,0.125 0.5,0.5 Q 14,7 14,7.5 L 14,8 13.5,8 Q 13,8 12.5,8 12,8 11.5,8 11,8 10.625,7.875 10.25,7.75 10.125,7.375 10,7 10,6.5 M 10.375,6 10,6 9.875,6 9.75,6 10,6 q 0.25,0 0.5,0 l 0.25,0 -0.375,0"
       style="fill:#f8d868;fill-opacity:1" />
    <path
       id="path3547"
       d="M 30.125,6.625 Q 30.25,6.25 30.625,6.125 31,6 31.5,6 q 0.5,0 1,0 0.5,0 1,0 0.5,0 1,0 0.5,0 0.875,0.125 0.375,0.125 0.5,0.5 Q 36,7 36.125,7.375 36.25,7.75 36.625,7.875 37,8 37.375,8.125 37.75,8.25 37.875,8.625 38,9 38,9.5 L 38,10 37.5,10 37,10 36.5,10 36,10 36,9.5 Q 36,9 35.875,8.625 35.75,8.25 35.375,8.125 35,8 34.5,8 34,8 33.5,8 33,8 32.5,8 32,8 31.5,8 31,8 30.625,8.125 30.25,8.25 30.125,8.625 30,9 30,9.5 L 30,10 29.5,10 29,10 28.5,10 28,10 28,9.5 Q 28,9 28.125,8.625 28.25,8.25 28.625,8.125 29,8 29.375,7.875 29.75,7.75 29.875,7.375 30,7 30.125,6.625"
       style="fill:#d07030;fill-opacity:1" />
    <path
       id="path3549"
       d="M 0,8.5 0,8 0.5,8 Q 1,8 1.5,8 L 2,8 2,8.5 Q 2,9 2,9.5 L 2,10 1.5,10 1,10 0.5,10 0,10 0,9.5 0,9 0,8.5"
       style="fill:#b04820;fill-opacity:1" />
    <path
       id="path3551"
       d="M 2,8.5 2,8 2.5,8 Q 3,8 3.5,8 4,8 4.5,8 5,8 5.5,8 L 6,8 6,8.5 Q 6,9 6,9.5 L 6,10 5.5,10 5,10 4.5,10 4,10 3.5,10 3,10 2.5,10 2,10 2,9.5 Q 2,9 2,8.5 M 6.125,8 6,8 5.625,8 5.25,8 5.5,8 Q 5.75,8 6,8 L 6.25,8 6.125,8"
       style="fill:#f8d868;fill-opacity:1" />
    <path
       id="path3553"
       d="M 8.125,8.625 Q 8.25,8.25 8.625,8.125 9,8 9.375,8.125 9.75,8.25 9.875,8.625 10,9 10,9.5 L 10,10 9.5,10 9,10 8.5,10 8,10 8,9.5 Q 8,9 8.125,8.625"
       style="fill:#b04820;fill-opacity:1" />
    <path
       id="path3555"
       d="M 14,8.5 14,8 14.5,8 q 0.5,0 1,0 l 0.5,0 0,0.5 q 0,0.5 0,1 L 16,10 15.5,10 15,10 14.5,10 14,10 14,9.5 Q 14,9 14,8.5 M 16,8.375 16,8 16,7.875 16,7.75 16,8 q 0,0.25 0,0.5 l 0,0.25 0,-0.375"
       style="fill:#b04820;fill-opacity:1" />
    <path
       id="path3557"
       d="M 30.125,8.625 Q 30.25,8.25 30.625,8.125 31,8 31.5,8 q 0.5,0 1,0 0.5,0 1,0 l 0.5,0 0,0.5 q 0,0.5 0,1 L 34,10 33.5,10 33,10 32.5,10 32,10 31.5,10 31,10 30.5,10 30,10 30,9.5 Q 30,9 30.125,8.625 M 34.125,8 34,8 33.625,8 33.25,8 33.5,8 q 0.25,0 0.5,0 l 0.25,0 -0.125,0"
       style="fill:#f8d868;fill-opacity:1" />
    <path
       id="path3559"
       d="M 34,8.5 34,8 34.5,8 q 0.5,0 0.875,0.125 0.375,0.125 0.5,0.5 Q 36,9 36,9.5 L 36,10 35.5,10 35,10 34.5,10 34,10 34,9.5 Q 34,9 34,8.5 M 34.375,8 34,8 33.875,8 33.75,8 34,8 q 0.25,0 0.5,0 l 0.25,0 -0.375,0"
       style="fill:#f0a850;fill-opacity:1" />
  </g>
  <g
     transform="translate(0 0)"
     id="g3561"
     inkscape:export-xdpi="900"
     inkscape:export-ydpi="900">
    <path
       style="fill:#000000;fill-opacity:0"
       d="M 0,0.5 0,0 0.5,0 1,0 1.5,0 2,0 2.5,0 3,0 3.5,0 4,0 4.5,0 5,0 5.5,0 6,0 6.5,0 7,0 7.5,0 8,0 8.5,0 9,0 9.5,0 10,0 10.5,0 11,0 11.5,0 12,0 12.5,0 13,0 13.5,0 14,0 14.5,0 15,0 15.5,0 16,0 16.5,0 17,0 17.5,0 18,0 18.5,0 19,0 19.5,0 20,0 20.5,0 21,0 21.5,0 22,0 22.5,0 23,0 23.5,0 24,0 24.5,0 25,0 25.5,0 26,0 26.5,0 27,0 27.5,0 28,0 28.5,0 29,0 29.5,0 30,0 30.5,0 31,0 31.5,0 32,0 32.5,0 33,0 33.5,0 34,0 34.5,0 35,0 35.5,0 36,0 36.5,0 37,0 37.5,0 38,0 38.5,0 39,0 39.5,0 40,0 40,0.5 40,1 40,1.5 40,2 40,2.5 40,3 40,3.5 40,4 40,4.5 40,5 40,5.5 40,6 40,6.5 40,7 40,7.5 40,8 40,8.5 40,9 40,9.5 40,10 39.5,10 39,10 38.5,10 38,10 38,9.5 Q 38,9 37.875,8.625 37.75,8.25 37.375,8.125 37,8 36.625,7.875 36.25,7.75 36.125,7.375 36,7 35.875,6.625 35.75,6.25 35.375,6.125 35,6 34.5,6 34,6 33.5,6 33,6 32.5,6 32,6 31.5,6 31,6 30.625,6.125 30.25,6.25 30.125,6.625 30,7 29.875,7.375 29.75,7.75 29.375,7.875 29,8 28.625,8.125 28.25,8.25 28.125,8.625 28,9 28,9.5 L 28,10 27.5,10 27,10 26.5,10 26,10 25.5,10 25,10 24.5,10 24,10 23.5,10 23,10 22.5,10 22,10 21.5,10 21,10 20.5,10 20,10 19.5,10 19,10 18.5,10 18,10 17.5,10 17,10 16.5,10 16,10 16,9.5 Q 16,9 16,8.5 16,8 16,7.5 16,7 15.875,6.625 15.75,6.25 15.375,6.125 15,6 14.625,5.875 14.25,5.75 14.125,5.375 14,5 13.875,4.625 13.75,4.25 13.375,4.125 13,4 12.5,4 12,4 11.5,4 11,4 10.5,4 10,4 9.5,4 9,4 8.625,4.125 8.25,4.25 8.125,4.625 8,5 7.875,5.375 7.75,5.75 7.375,5.875 7,6 6.5,6 6,6 5.5,6 5,6 4.5,6 4,6 3.5,6 3,6 2.625,6.125 2.25,6.25 2.125,6.625 2,7 2,7.5 L 2,8 1.5,8 Q 1,8 0.5,8 L 0,8 0,7.5 0,7 0,6.5 0,6 0,5.5 0,5 0,4.5 0,4 0,3.5 0,3 0,2.5 0,2 0,1.5 0,1 0,0.5"
       id="path3563" />
    <path
       style="fill:#d07030;fill-opacity:1"
       d="M 8.125,4.625 Q 8.25,4.25 8.625,4.125 9,4 9.5,4 q 0.5,0 1,0 0.5,0 1,0 0.5,0 1,0 0.5,0 0.875,0.125 0.375,0.125 0.5,0.5 Q 14,5 14.125,5.375 14.25,5.75 14.625,5.875 15,6 15.375,6.125 15.75,6.25 15.875,6.625 16,7 16,7.5 L 16,8 15.5,8 Q 15,8 14.5,8 L 14,8 14,7.5 Q 14,7 13.875,6.625 13.75,6.25 13.375,6.125 13,6 12.5,6 12,6 11.5,6 11,6 10.5,6 10,6 9.5,6 9,6 8.625,6.125 8.25,6.25 8.125,6.625 8,7 7.875,7.375 7.75,7.75 7.375,7.875 7,8 6.5,8 6,8 5.5,8 5,8 4.5,8 4,8 3.5,8 3,8 2.5,8 L 2,8 2,7.5 Q 2,7 2.125,6.625 2.25,6.25 2.625,6.125 3,6 3.5,6 4,6 4.5,6 5,6 5.5,6 6,6 6.5,6 7,6 7.375,5.875 7.75,5.75 7.875,5.375 8,5 8.125,4.625 M 16,8.125 16,8 16,7.625 16,7.25 16,7.5 q 0,0.25 0,0.5 l 0,0.25 0,-0.125"
       id="path3565" />
    <path
       style="fill:#f0a850;fill-opacity:1"
       d="M 8.125,6.625 Q 8.25,6.25 8.625,6.125 9,6 9.5,6 l 0.5,0 0,0.5 q 0,0.5 0.125,0.875 0.125,0.375 0.5,0.5 Q 11,8 11.5,8 q 0.5,0 1,0 0.5,0 1,0 l 0.5,0 0,0.5 q 0,0.5 0,1 L 14,10 13.5,10 13,10 12.5,10 12,10 11.5,10 11,10 10.5,10 10,10 10,9.5 Q 10,9 9.875,8.625 9.75,8.25 9.375,8.125 9,8 8.625,8.125 8.25,8.25 8.125,8.625 8,9 8,9.5 L 8,10 7.5,10 7,10 6.5,10 6,10 6,9.5 Q 6,9 6,8.5 L 6,8 6.5,8 Q 7,8 7.375,7.875 7.75,7.75 7.875,7.375 8,7 8.125,6.625 M 6.375,8 6,8 5.875,8 5.75,8 6,8 Q 6.25,8 6.5,8 L 6.75,8 6.375,8 M 10.125,6 10,6 9.625,6 9.25,6 9.5,6 Q 9.75,6 10,6 l 0.25,0 -0.125,0"
       id="path3567" />
    <path
       style="fill:#f8d868;fill-opacity:1"
       d="M 10,6.5 10,6 10.5,6 q 0.5,0 1,0 0.5,0 1,0 0.5,0 0.875,0.125 0.375,0.125 0.5,0.5 Q 14,7 14,7.5 L 14,8 13.5,8 Q 13,8 12.5,8 12,8 11.5,8 11,8 10.625,7.875 10.25,7.75 10.125,7.375 10,7 10,6.5 M 10.375,6 10,6 9.875,6 9.75,6 10,6 q 0.25,0 0.5,0 l 0.25,0 -0.375,0"
       id="path3569" />
    <path
       style="fill:#d07030;fill-opacity:1"
       d="M 30.125,6.625 Q 30.25,6.25 30.625,6.125 31,6 31.5,6 q 0.5,0 1,0 0.5,0 1,0 0.5,0 1,0 0.5,0 0.875,0.125 0.375,0.125 0.5,0.5 Q 36,7 36.125,7.375 36.25,7.75 36.625,7.875 37,8 37.375,8.125 37.75,8.25 37.875,8.625 38,9 38,9.5 L 38,10 37.5,10 37,10 36.5,10 36,10 36,9.5 Q 36,9 35.875,8.625 35.75,8.25 35.375,8.125 35,8 34.5,8 34,8 33.5,8 33,8 32.5,8 32,8 31.5,8 31,8 30.625,8.125 30.25,8.25 30.125,8.625 30,9 30,9.5 L 30,10 29.5,10 29,10 28.5,10 28,10 28,9.5 Q 28,9 28.125,8.625 28.25,8.25 28.625,8.125 29,8 29.375,7.875 29.75,7.75 29.875,7.375 30,7 30.125,6.625"
       id="path3571" />
    <path
       style="fill:#b04820;fill-opacity:1"
       d="M 0,8.5 0,8 0.5,8 Q 1,8 1.5,8 L 2,8 2,8.5 Q 2,9 2,9.5 L 2,10 1.5,10 1,10 0.5,10 0,10 0,9.5 0,9 0,8.5"
       id="path3573" />
    <path
       style="fill:#f8d868;fill-opacity:1"
       d="M 2,8.5 2,8 2.5,8 Q 3,8 3.5,8 4,8 4.5,8 5,8 5.5,8 L 6,8 6,8.5 Q 6,9 6,9.5 L 6,10 5.5,10 5,10 4.5,10 4,10 3.5,10 3,10 2.5,10 2,10 2,9.5 Q 2,9 2,8.5 M 6.125,8 6,8 5.625,8 5.25,8 5.5,8 Q 5.75,8 6,8 L 6.25,8 6.125,8"
       id="path3575" />
    <path
       style="fill:#b04820;fill-opacity:1"
       d="M 8.125,8.625 Q 8.25,8.25 8.625,8.125 9,8 9.375,8.125 9.75,8.25 9.875,8.625 10,9 10,9.5 L 10,10 9.5,10 9,10 8.5,10 8,10 8,9.5 Q 8,9 8.125,8.625"
       id="path3577" />
    <path
       style="fill:#b04820;fill-opacity:1"
       d="M 14,8.5 14,8 14.5,8 q 0.5,0 1,0 l 0.5,0 0,0.5 q 0,0.5 0,1 L 16,10 15.5,10 15,10 14.5,10 14,10 14,9.5 Q 14,9 14,8.5 M 16,8.375 16,8 16,7.875 16,7.75 16,8 q 0,0.25 0,0.5 l 0,0.25 0,-0.375"
       id="path3579" />
    <path
       style="fill:#f8d868;fill-opacity:1"
       d="M 30.125,8.625 Q 30.25,8.25 30.625,8.125 31,8 31.5,8 q 0.5,0 1,0 0.5,0 1,0 l 0.5,0 0,0.5 q 0,0.5 0,1 L 34,10 33.5,10 33,10 32.5,10 32,10 31.5,10 31,10 30.5,10 30,10 30,9.5 Q 30,9 30.125,8.625 M 34.125,8 34,8 33.625,8 33.25,8 33.5,8 q 0.25,0 0.5,0 l 0.25,0 -0.125,0"
       id="path3581" />
    <path
       style="fill:#f0a850;fill-opacity:1"
       d="M 34,8.5 34,8 34.5,8 q 0.5,0 0.875,0.125 0.375,0.125 0.5,0.5 Q 36,9 36,9.5 L 36,10 35.5,10 35,10 34.5,10 34,10 34,9.5 Q 34,9 34,8.5 M 34.375,8 34,8 33.875,8 33.75,8 34,8 q 0.25,0 0.5,0 l 0.25,0 -0.375,0"
       id="path3583" />
  </g>
  <g
     inkscape:export-ydpi="900"
     inkscape:export-xdpi="900"
     id="g3585"
     transform="translate(0 0)">
    <path
       id="path3587"
       d="M 0,0.5 0,0 0.5,0 1,0 1.5,0 2,0 2.5,0 3,0 3.5,0 4,0 4.5,0 5,0 5.5,0 6,0 6.5,0 7,0 7.5,0 8,0 8.5,0 9,0 9.5,0 10,0 10.5,0 11,0 11.5,0 12,0 12.5,0 13,0 13.5,0 14,0 14.5,0 15,0 15.5,0 16,0 16.5,0 17,0 17.5,0 18,0 18.5,0 19,0 19.5,0 20,0 20.5,0 21,0 21.5,0 22,0 22.5,0 23,0 23.5,0 24,0 24.5,0 25,0 25.5,0 26,0 26.5,0 27,0 27.5,0 28,0 28.5,0 29,0 29.5,0 30,0 30.5,0 31,0 31.5,0 32,0 32.5,0 33,0 33.5,0 34,0 34.5,0 35,0 35.5,0 36,0 36.5,0 37,0 37.5,0 38,0 38.5,0 39,0 39.5,0 40,0 40,0.5 40,1 40,1.5 40,2 40,2.5 40,3 40,3.5 40,4 40,4.5 40,5 40,5.5 40,6 40,6.5 40,7 40,7.5 40,8 40,8.5 40,9 40,9.5 40,10 39.5,10 39,10 38.5,10 38,10 38,9.5 Q 38,9 37.875,8.625 37.75,8.25 37.375,8.125 37,8 36.625,7.875 36.25,7.75 36.125,7.375 36,7 35.875,6.625 35.75,6.25 35.375,6.125 35,6 34.5,6 34,6 33.5,6 33,6 32.5,6 32,6 31.5,6 31,6 30.625,6.125 30.25,6.25 30.125,6.625 30,7 29.875,7.375 29.75,7.75 29.375,7.875 29,8 28.625,8.125 28.25,8.25 28.125,8.625 28,9 28,9.5 L 28,10 27.5,10 27,10 26.5,10 26,10 25.5,10 25,10 24.5,10 24,10 23.5,10 23,10 22.5,10 22,10 21.5,10 21,10 20.5,10 20,10 19.5,10 19,10 18.5,10 18,10 17.5,10 17,10 16.5,10 16,10 16,9.5 Q 16,9 16,8.5 16,8 16,7.5 16,7 15.875,6.625 15.75,6.25 15.375,6.125 15,6 14.625,5.875 14.25,5.75 14.125,5.375 14,5 13.875,4.625 13.75,4.25 13.375,4.125 13,4 12.5,4 12,4 11.5,4 11,4 10.5,4 10,4 9.5,4 9,4 8.625,4.125 8.25,4.25 8.125,4.625 8,5 7.875,5.375 7.75,5.75 7.375,5.875 7,6 6.5,6 6,6 5.5,6 5,6 4.5,6 4,6 3.5,6 3,6 2.625,6.125 2.25,6.25 2.125,6.625 2,7 2,7.5 L 2,8 1.5,8 Q 1,8 0.5,8 L 0,8 0,7.5 0,7 0,6.5 0,6 0,5.5 0,5 0,4.5 0,4 0,3.5 0,3 0,2.5 0,2 0,1.5 0,1 0,0.5"
       style="fill:#000000;fill-opacity:0" />
    <path
       id="path3589"
       d="M 8.125,4.625 Q 8.25,4.25 8.625,4.125 9,4 9.5,4 q 0.5,0 1,0 0.5,0 1,0 0.5,0 1,0 0.5,0 0.875,0.125 0.375,0.125 0.5,0.5 Q 14,5 14.125,5.375 14.25,5.75 14.625,5.875 15,6 15.375,6.125 15.75,6.25 15.875,6.625 16,7 16,7.5 L 16,8 15.5,8 Q 15,8 14.5,8 L 14,8 14,7.5 Q 14,7 13.875,6.625 13.75,6.25 13.375,6.125 13,6 12.5,6 12,6 11.5,6 11,6 10.5,6 10,6 9.5,6 9,6 8.625,6.125 8.25,6.25 8.125,6.625 8,7 7.875,7.375 7.75,7.75 7.375,7.875 7,8 6.5,8 6,8 5.5,8 5,8 4.5,8 4,8 3.5,8 3,8 2.5,8 L 2,8 2,7.5 Q 2,7 2.125,6.625 2.25,6.25 2.625,6.125 3,6 3.5,6 4,6 4.5,6 5,6 5.5,6 6,6 6.5,6 7,6 7.375,5.875 7.75,5.75 7.875,5.375 8,5 8.125,4.625 M 16,8.125 16,8 16,7.625 16,7.25 16,7.5 q 0,0.25 0,0.5 l 0,0.25 0,-0.125"
       style="fill:#d07030;fill-opacity:1" />
    <path
       id="path3591"
       d="M 8.125,6.625 Q 8.25,6.25 8.625,6.125 9,6 9.5,6 l 0.5,0 0,0.5 q 0,0.5 0.125,0.875 0.125,0.375 0.5,0.5 Q 11,8 11.5,8 q 0.5,0 1,0 0.5,0 1,0 l 0.5,0 0,0.5 q 0,0.5 0,1 L 14,10 13.5,10 13,10 12.5,10 12,10 11.5,10 11,10 10.5,10 10,10 10,9.5 Q 10,9 9.875,8.625 9.75,8.25 9.375,8.125 9,8 8.625,8.125 8.25,8.25 8.125,8.625 8,9 8,9.5 L 8,10 7.5,10 7,10 6.5,10 6,10 6,9.5 Q 6,9 6,8.5 L 6,8 6.5,8 Q 7,8 7.375,7.875 7.75,7.75 7.875,7.375 8,7 8.125,6.625 M 6.375,8 6,8 5.875,8 5.75,8 6,8 Q 6.25,8 6.5,8 L 6.75,8 6.375,8 M 10.125,6 10,6 9.625,6 9.25,6 9.5,6 Q 9.75,6 10,6 l 0.25,0 -0.125,0"
       style="fill:#f0a850;fill-opacity:1" />
    <path
       id="path3593"
       d="M 10,6.5 10,6 10.5,6 q 0.5,0 1,0 0.5,0 1,0 0.5,0 0.875,0.125 0.375,0.125 0.5,0.5 Q 14,7 14,7.5 L 14,8 13.5,8 Q 13,8 12.5,8 12,8 11.5,8 11,8 10.625,7.875 10.25,7.75 10.125,7.375 10,7 10,6.5 M 10.375,6 10,6 9.875,6 9.75,6 10,6 q 0.25,0 0.5,0 l 0.25,0 -0.375,0"
       style="fill:#f8d868;fill-opacity:1" />
    <path
       id="path3595"
       d="M 30.125,6.625 Q 30.25,6.25 30.625,6.125 31,6 31.5,6 q 0.5,0 1,0 0.5,0 1,0 0.5,0 1,0 0.5,0 0.875,0.125 0.375,0.125 0.5,0.5 Q 36,7 36.125,7.375 36.25,7.75 36.625,7.875 37,8 37.375,8.125 37.75,8.25 37.875,8.625 38,9 38,9.5 L 38,10 37.5,10 37,10 36.5,10 36,10 36,9.5 Q 36,9 35.875,8.625 35.75,8.25 35.375,8.125 35,8 34.5,8 34,8 33.5,8 33,8 32.5,8 32,8 31.5,8 31,8 30.625,8.125 30.25,8.25 30.125,8.625 30,9 30,9.5 L 30,10 29.5,10 29,10 28.5,10 28,10 28,9.5 Q 28,9 28.125,8.625 28.25,8.25 28.625,8.125 29,8 29.375,7.875 29.75,7.75 29.875,7.375 30,7 30.125,6.625"
       style="fill:#d07030;fill-opacity:1" />
    <path
       id="path3597"
       d="M 0,8.5 0,8 0.5,8 Q 1,8 1.5,8 L 2,8 2,8.5 Q 2,9 2,9.5 L 2,10 1.5,10 1,10 0.5,10 0,10 0,9.5 0,9 0,8.5"
       style="fill:#b04820;fill-opacity:1" />
    <path
       id="path3599"
       d="M 2,8.5 2,8 2.5,8 Q 3,8 3.5,8 4,8 4.5,8 5,8 5.5,8 L 6,8 6,8.5 Q 6,9 6,9.5 L 6,10 5.5,10 5,10 4.5,10 4,10 3.5,10 3,10 2.5,10 2,10 2,9.5 Q 2,9 2,8.5 M 6.125,8 6,8 5.625,8 5.25,8 5.5,8 Q 5.75,8 6,8 L 6.25,8 6.125,8"
       style="fill:#f8d868;fill-opacity:1" />
    <path
       id="path3601"
       d="M 8.125,8.625 Q 8.25,8.25 8.625,8.125 9,8 9.375,8.125 9.75,8.25 9.875,8.625 10,9 10,9.5 L 10,10 9.5,10 9,10 8.5,10 8,10 8,9.5 Q 8,9 8.125,8.625"
       style="fill:#b04820;fill-opacity:1" />
    <path
       id="path3603"
       d="M 14,8.5 14,8 14.5,8 q 0.5,0 1,0 l 0.5,0 0,0.5 q 0,0.5 0,1 L 16,10 15.5,10 15,10 14.5,10 14,10 14,9.5 Q 14,9 14,8.5 M 16,8.375 16,8 16,7.875 16,7.75 16,8 q 0,0.25 0,0.5 l 0,0.25 0,-0.375"
       style="fill:#b04820;fill-opacity:1" />
    <path
       id="path3605"
       d="M 30.125,8.625 Q 30.25,8.25 30.625,8.125 31,8 31.5,8 q 0.5,0 1,0 0.5,0 1,0 l 0.5,0 0,0.5 q 0,0.5 0,1 L 34,10 33.5,10 33,10 32.5,10 32,10 31.5,10 31,10 30.5,10 30,10 30,9.5 Q 30,9 30.125,8.625 M 34.125,8 34,8 33.625,8 33.25,8 33.5,8 q 0.25,0 0.5,0 l 0.25,0 -0.125,0"
       style="fill:#f8d868;fill-opacity:1" />
    <path
       id="path3607"
       d="M 34,8.5 34,8 34.5,8 q 0.5,0 0.875,0.125 0.375,0.125 0.5,0.5 Q 36,9 36,9.5 L 36,10 35.5,10 35,10 34.5,10 34,10 34,9.5 Q 34,9 34,8.5 M 34.375,8 34,8 33.875,8 33.75,8 34,8 q 0.25,0 0.5,0 l 0.25,0 -0.375,0"
       style="fill:#f0a850;fill-opacity:1" />
  </g>
  <g
     transform="translate(0 0)"
     id="g3609"
     inkscape:export-xdpi="900"
     inkscape:export-ydpi="900">
    <path
       style="fill:#000000;fill-opacity:0"
       d="M 0,0.5 0,0 0.5,0 1,0 1.5,0 2,0 2.5,0 3,0 3.5,0 4,0 4.5,0 5,0 5.5,0 6,0 6.5,0 7,0 7.5,0 8,0 8.5,0 9,0 9.5,0 10,0 10.5,0 11,0 11.5,0 12,0 12.5,0 13,0 13.5,0 14,0 14.5,0 15,0 15.5,0 16,0 16.5,0 17,0 17.5,0 18,0 18.5,0 19,0 19.5,0 20,0 20.5,0 21,0 21.5,0 22,0 22.5,0 23,0 23.5,0 24,0 24.5,0 25,0 25.5,0 26,0 26.5,0 27,0 27.5,0 28,0 28.5,0 29,0 29.5,0 30,0 30.5,0 31,0 31.5,0 32,0 32.5,0 33,0 33.5,0 34,0 34.5,0 35,0 35.5,0 36,0 36.5,0 37,0 37.5,0 38,0 38.5,0 39,0 39.5,0 40,0 40,0.5 40,1 40,1.5 40,2 40,2.5 40,3 40,3.5 40,4 40,4.5 40,5 40,5.5 40,6 40,6.5 40,7 40,7.5 40,8 40,8.5 40,9 40,9.5 40,10 39.5,10 39,10 38.5,10 38,10 38,9.5 Q 38,9 37.875,8.625 37.75,8.25 37.375,8.125 37,8 36.625,7.875 36.25,7.75 36.125,7.375 36,7 35.875,6.625 35.75,6.25 35.375,6.125 35,6 34.5,6 34,6 33.5,6 33,6 32.5,6 32,6 31.5,6 31,6 30.625,6.125 30.25,6.25 30.125,6.625 30,7 29.875,7.375 29.75,7.75 29.375,7.875 29,8 28.625,8.125 28.25,8.25 28.125,8.625 28,9 28,9.5 L 28,10 27.5,10 27,10 26.5,10 26,10 25.5,10 25,10 24.5,10 24,10 23.5,10 23,10 22.5,10 22,10 21.5,10 21,10 20.5,10 20,10 19.5,10 19,10 18.5,10 18,10 17.5,10 17,10 16.5,10 16,10 16,9.5 Q 16,9 16,8.5 16,8 16,7.5 16,7 15.875,6.625 15.75,6.25 15.375,6.125 15,6 14.625,5.875 14.25,5.75 14.125,5.375 14,5 13.875,4.625 13.75,4.25 13.375,4.125 13,4 12.5,4 12,4 11.5,4 11,4 10.5,4 10,4 9.5,4 9,4 8.625,4.125 8.25,4.25 8.125,4.625 8,5 7.875,5.375 7.75,5.75 7.375,5.875 7,6 6.5,6 6,6 5.5,6 5,6 4.5,6 4,6 3.5,6 3,6 2.625,6.125 2.25,6.25 2.125,6.625 2,7 2,7.5 L 2,8 1.5,8 Q 1,8 0.5,8 L 0,8 0,7.5 0,7 0,6.5 0,6 0,5.5 0,5 0,4.5 0,4 0,3.5 0,3 0,2.5 0,2 0,1.5 0,1 0,0.5"
       id="path3611" />
    <path
       style="fill:#d07030;fill-opacity:1"
       d="M 8.125,4.625 Q 8.25,4.25 8.625,4.125 9,4 9.5,4 q 0.5,0 1,0 0.5,0 1,0 0.5,0 1,0 0.5,0 0.875,0.125 0.375,0.125 0.5,0.5 Q 14,5 14.125,5.375 14.25,5.75 14.625,5.875 15,6 15.375,6.125 15.75,6.25 15.875,6.625 16,7 16,7.5 L 16,8 15.5,8 Q 15,8 14.5,8 L 14,8 14,7.5 Q 14,7 13.875,6.625 13.75,6.25 13.375,6.125 13,6 12.5,6 12,6 11.5,6 11,6 10.5,6 10,6 9.5,6 9,6 8.625,6.125 8.25,6.25 8.125,6.625 8,7 7.875,7.375 7.75,7.75 7.375,7.875 7,8 6.5,8 6,8 5.5,8 5,8 4.5,8 4,8 3.5,8 3,8 2.5,8 L 2,8 2,7.5 Q 2,7 2.125,6.625 2.25,6.25 2.625,6.125 3,6 3.5,6 4,6 4.5,6 5,6 5.5,6 6,6 6.5,6 7,6 7.375,5.875 7.75,5.75 7.875,5.375 8,5 8.125,4.625 M 16,8.125 16,8 16,7.625 16,7.25 16,7.5 q 0,0.25 0,0.5 l 0,0.25 0,-0.125"
       id="path3613" />
    <path
       style="fill:#f0a850;fill-opacity:1"
       d="M 8.125,6.625 Q 8.25,6.25 8.625,6.125 9,6 9.5,6 l 0.5,0 0,0.5 q 0,0.5 0.125,0.875 0.125,0.375 0.5,0.5 Q 11,8 11.5,8 q 0.5,0 1,0 0.5,0 1,0 l 0.5,0 0,0.5 q 0,0.5 0,1 L 14,10 13.5,10 13,10 12.5,10 12,10 11.5,10 11,10 10.5,10 10,10 10,9.5 Q 10,9 9.875,8.625 9.75,8.25 9.375,8.125 9,8 8.625,8.125 8.25,8.25 8.125,8.625 8,9 8,9.5 L 8,10 7.5,10 7,10 6.5,10 6,10 6,9.5 Q 6,9 6,8.5 L 6,8 6.5,8 Q 7,8 7.375,7.875 7.75,7.75 7.875,7.375 8,7 8.125,6.625 M 6.375,8 6,8 5.875,8 5.75,8 6,8 Q 6.25,8 6.5,8 L 6.75,8 6.375,8 M 10.125,6 10,6 9.625,6 9.25,6 9.5,6 Q 9.75,6 10,6 l 0.25,0 -0.125,0"
       id="path3615" />
    <path
       style="fill:#f8d868;fill-opacity:1"
       d="M 10,6.5 10,6 10.5,6 q 0.5,0 1,0 0.5,0 1,0 0.5,0 0.875,0.125 0.375,0.125 0.5,0.5 Q 14,7 14,7.5 L 14,8 13.5,8 Q 13,8 12.5,8 12,8 11.5,8 11,8 10.625,7.875 10.25,7.75 10.125,7.375 10,7 10,6.5 M 10.375,6 10,6 9.875,6 9.75,6 10,6 q 0.25,0 0.5,0 l 0.25,0 -0.375,0"
       id="path3617" />
    <path
       style="fill:#d07030;fill-opacity:1"
       d="M 30.125,6.625 Q 30.25,6.25 30.625,6.125 31,6 31.5,6 q 0.5,0 1,0 0.5,0 1,0 0.5,0 1,0 0.5,0 0.875,0.125 0.375,0.125 0.5,0.5 Q 36,7 36.125,7.375 36.25,7.75 36.625,7.875 37,8 37.375,8.125 37.75,8.25 37.875,8.625 38,9 38,9.5 L 38,10 37.5,10 37,10 36.5,10 36,10 36,9.5 Q 36,9 35.875,8.625 35.75,8.25 35.375,8.125 35,8 34.5,8 34,8 33.5,8 33,8 32.5,8 32,8 31.5,8 31,8 30.625,8.125 30.25,8.25 30.125,8.625 30,9 30,9.5 L 30,10 29.5,10 29,10 28.5,10 28,10 28,9.5 Q 28,9 28.125,8.625 28.25,8.25 28.625,8.125 29,8 29.375,7.875 29.75,7.75 29.875,7.375 30,7 30.125,6.625"
       id="path3619" />
    <path
       style="fill:#b04820;fill-opacity:1"
       d="M 0,8.5 0,8 0.5,8 Q 1,8 1.5,8 L 2,8 2,8.5 Q 2,9 2,9.5 L 2,10 1.5,10 1,10 0.5,10 0,10 0,9.5 0,9 0,8.5"
       id="path3621" />
    <path
       style="fill:#f8d868;fill-opacity:1"
       d="M 2,8.5 2,8 2.5,8 Q 3,8 3.5,8 4,8 4.5,8 5,8 5.5,8 L 6,8 6,8.5 Q 6,9 6,9.5 L 6,10 5.5,10 5,10 4.5,10 4,10 3.5,10 3,10 2.5,10 2,10 2,9.5 Q 2,9 2,8.5 M 6.125,8 6,8 5.625,8 5.25,8 5.5,8 Q 5.75,8 6,8 L 6.25,8 6.125,8"
       id="path3623" />
    <path
       style="fill:#b04820;fill-opacity:1"
       d="M 8.125,8.625 Q 8.25,8.25 8.625,8.125 9,8 9.375,8.125 9.75,8.25 9.875,8.625 10,9 10,9.5 L 10,10 9.5,10 9,10 8.5,10 8,10 8,9.5 Q 8,9 8.125,8.625"
       id="path3625" />
    <path
       style="fill:#b04820;fill-opacity:1"
       d="M 14,8.5 14,8 14.5,8 q 0.5,0 1,0 l 0.5,0 0,0.5 q 0,0.5 0,1 L 16,10 15.5,10 15,10 14.5,10 14,10 14,9.5 Q 14,9 14,8.5 M 16,8.375 16,8 16,7.875 16,7.75 16,8 q 0,0.25 0,0.5 l 0,0.25 0,-0.375"
       id="path3627" />
    <path
       style="fill:#f8d868;fill-opacity:1"
       d="M 30.125,8.625 Q 30.25,8.25 30.625,8.125 31,8 31.5,8 q 0.5,0 1,0 0.5,0 1,0 l 0.5,0 0,0.5 q 0,0.5 0,1 L 34,10 33.5,10 33,10 32.5,10 32,10 31.5,10 31,10 30.5,10 30,10 30,9.5 Q 30,9 30.125,8.625 M 34.125,8 34,8 33.625,8 33.25,8 33.5,8 q 0.25,0 0.5,0 l 0.25,0 -0.125,0"
       id="path3629" />
    <path
       style="fill:#f0a850;fill-opacity:1"
       d="M 34,8.5 34,8 34.5,8 q 0.5,0 0.875,0.125 0.375,0.125 0.5,0.5 Q 36,9 36,9.5 L 36,10 35.5,10 35,10 34.5,10 34,10 34,9.5 Q 34,9 34,8.5 M 34.375,8 34,8 33.875,8 33.75,8 34,8 q 0.25,0 0.5,0 l 0.25,0 -0.375,0"
       id="path3631" />
  </g>
  <g
     inkscape:export-ydpi="900"
     inkscape:export-xdpi="900"
     id="g3633"
     transform="translate(0 0)">
    <path
       id="path3635"
       d="M 0,0.5 0,0 0.5,0 1,0 1.5,0 2,0 2.5,0 3,0 3.5,0 4,0 4.5,0 5,0 5.5,0 6,0 6.5,0 7,0 7.5,0 8,0 8.5,0 9,0 9.5,0 10,0 10.5,0 11,0 11.5,0 12,0 12.5,0 13,0 13.5,0 14,0 14.5,0 15,0 15.5,0 16,0 16.5,0 17,0 17.5,0 18,0 18.5,0 19,0 19.5,0 20,0 20.5,0 21,0 21.5,0 22,0 22.5,0 23,0 23.5,0 24,0 24.5,0 25,0 25.5,0 26,0 26.5,0 27,0 27.5,0 28,0 28.5,0 29,0 29.5,0 30,0 30.5,0 31,0 31.5,0 32,0 32.5,0 33,0 33.5,0 34,0 34.5,0 35,0 35.5,0 36,0 36.5,0 37,0 37.5,0 38,0 38.5,0 39,0 39.5,0 40,0 40,0.5 40,1 40,1.5 40,2 40,2.5 40,3 40,3.5 40,4 40,4.5 40,5 40,5.5 40,6 40,6.5 40,7 40,7.5 40,8 40,8.5 40,9 40,9.5 40,10 39.5,10 39,10 38.5,10 38,10 38,9.5 Q 38,9 37.875,8.625 37.75,8.25 37.375,8.125 37,8 36.625,7.875 36.25,7.75 36.125,7.375 36,7 35.875,6.625 35.75,6.25 35.375,6.125 35,6 34.5,6 34,6 33.5,6 33,6 32.5,6 32,6 31.5,6 31,6 30.625,6.125 30.25,6.25 30.125,6.625 30,7 29.875,7.375 29.75,7.75 29.375,7.875 29,8 28.625,8.125 28.25,8.25 28.125,8.625 28,9 28,9.5 L 28,10 27.5,10 27,10 26.5,10 26,10 25.5,10 25,10 24.5,10 24,10 23.5,10 23,10 22.5,10 22,10 21.5,10 21,10 20.5,10 20,10 19.5,10 19,10 18.5,10 18,10 17.5,10 17,10 16.5,10 16,10 16,9.5 Q 16,9 16,8.5 16,8 16,7.5 16,7 15.875,6.625 15.75,6.25 15.375,6.125 15,6 14.625,5.875 14.25,5.75 14.125,5.375 14,5 13.875,4.625 13.75,4.25 13.375,4.125 13,4 12.5,4 12,4 11.5,4 11,4 10.5,4 10,4 9.5,4 9,4 8.625,4.125 8.25,4.25 8.125,4.625 8,5 7.875,5.375 7.75,5.75 7.375,5.875 7,6 6.5,6 6,6 5.5,6 5,6 4.5,6 4,6 3.5,6 3,6 2.625,6.125 2.25,6.25 2.125,6.625 2,7 2,7.5 L 2,8 1.5,8 Q 1,8 0.5,8 L 0,8 0,7.5 0,7 0,6.5 0,6 0,5.5 0,5 0,4.5 0,4 0,3.5 0,3 0,2.5 0,2 0,1.5 0,1 0,0.5"
       style="fill:#000000;fill-opacity:0" />
    <path
       id="path3637"
       d="M 8.125,4.625 Q 8.25,4.25 8.625,4.125 9,4 9.5,4 q 0.5,0 1,0 0.5,0 1,0 0.5,0 1,0 0.5,0 0.875,0.125 0.375,0.125 0.5,0.5 Q 14,5 14.125,5.375 14.25,5.75 14.625,5.875 15,6 15.375,6.125 15.75,6.25 15.875,6.625 16,7 16,7.5 L 16,8 15.5,8 Q 15,8 14.5,8 L 14,8 14,7.5 Q 14,7 13.875,6.625 13.75,6.25 13.375,6.125 13,6 12.5,6 12,6 11.5,6 11,6 10.5,6 10,6 9.5,6 9,6 8.625,6.125 8.25,6.25 8.125,6.625 8,7 7.875,7.375 7.75,7.75 7.375,7.875 7,8 6.5,8 6,8 5.5,8 5,8 4.5,8 4,8 3.5,8 3,8 2.5,8 L 2,8 2,7.5 Q 2,7 2.125,6.625 2.25,6.25 2.625,6.125 3,6 3.5,6 4,6 4.5,6 5,6 5.5,6 6,6 6.5,6 7,6 7.375,5.875 7.75,5.75 7.875,5.375 8,5 8.125,4.625 M 16,8.125 16,8 16,7.625 16,7.25 16,7.5 q 0,0.25 0,0.5 l 0,0.25 0,-0.125"
       style="fill:#d07030;fill-opacity:1" />
    <path
       id="path3639"
       d="M 8.125,6.625 Q 8.25,6.25 8.625,6.125 9,6 9.5,6 l 0.5,0 0,0.5 q 0,0.5 0.125,0.875 0.125,0.375 0.5,0.5 Q 11,8 11.5,8 q 0.5,0 1,0 0.5,0 1,0 l 0.5,0 0,0.5 q 0,0.5 0,1 L 14,10 13.5,10 13,10 12.5,10 12,10 11.5,10 11,10 10.5,10 10,10 10,9.5 Q 10,9 9.875,8.625 9.75,8.25 9.375,8.125 9,8 8.625,8.125 8.25,8.25 8.125,8.625 8,9 8,9.5 L 8,10 7.5,10 7,10 6.5,10 6,10 6,9.5 Q 6,9 6,8.5 L 6,8 6.5,8 Q 7,8 7.375,7.875 7.75,7.75 7.875,7.375 8,7 8.125,6.625 M 6.375,8 6,8 5.875,8 5.75,8 6,8 Q 6.25,8 6.5,8 L 6.75,8 6.375,8 M 10.125,6 10,6 9.625,6 9.25,6 9.5,6 Q 9.75,6 10,6 l 0.25,0 -0.125,0"
       style="fill:#f0a850;fill-opacity:1" />
    <path
       id="path3641"
       d="M 10,6.5 10,6 10.5,6 q 0.5,0 1,0 0.5,0 1,0 0.5,0 0.875,0.125 0.375,0.125 0.5,0.5 Q 14,7 14,7.5 L 14,8 13.5,8 Q 13,8 12.5,8 12,8 11.5,8 11,8 10.625,7.875 10.25,7.75 10.125,7.375 10,7 10,6.5 M 10.375,6 10,6 9.875,6 9.75,6 10,6 q 0.25,0 0.5,0 l 0.25,0 -0.375,0"
       style="fill:#f8d868;fill-opacity:1" />
    <path
       id="path3643"
       d="M 30.125,6.625 Q 30.25,6.25 30.625,6.125 31,6 31.5,6 q 0.5,0 1,0 0.5,0 1,0 0.5,0 1,0 0.5,0 0.875,0.125 0.375,0.125 0.5,0.5 Q 36,7 36.125,7.375 36.25,7.75 36.625,7.875 37,8 37.375,8.125 37.75,8.25 37.875,8.625 38,9 38,9.5 L 38,10 37.5,10 37,10 36.5,10 36,10 36,9.5 Q 36,9 35.875,8.625 35.75,8.25 35.375,8.125 35,8 34.5,8 34,8 33.5,8 33,8 32.5,8 32,8 31.5,8 31,8 30.625,8.125 30.25,8.25 30.125,8.625 30,9 30,9.5 L 30,10 29.5,10 29,10 28.5,10 28,10 28,9.5 Q 28,9 28.125,8.625 28.25,8.25 28.625,8.125 29,8 29.375,7.875 29.75,7.75 29.875,7.375 30,7 30.125,6.625"
       style="fill:#d07030;fill-opacity:1" />
    <path
       id="path3645"
       d="M 0,8.5 0,8 0.5,8 Q 1,8 1.5,8 L 2,8 2,8.5 Q 2,9 2,9.5 L 2,10 1.5,10 1,10 0.5,10 0,10 0,9.5 0,9 0,8.5"
       style="fill:#b04820;fill-opacity:1" />
    <path
       id="path3647"
       d="M 2,8.5 2,8 2.5,8 Q 3,8 3.5,8 4,8 4.5,8 5,8 5.5,8 L 6,8 6,8.5 Q 6,9 6,9.5 L 6,10 5.5,10 5,10 4.5,10 4,10 3.5,10 3,10 2.5,10 2,10 2,9.5 Q 2,9 2,8.5 M 6.125,8 6,8 5.625,8 5.25,8 5.5,8 Q 5.75,8 6,8 L 6.25,8 6.125,8"
       style="fill:#f8d868;fill-opacity:1" />
    <path
       id="path3649"
       d="M 8.125,8.625 Q 8.25,8.25 8.625,8.125 9,8 9.375,8.125 9.75,8.25 9.875,8.625 10,9 10,9.5 L 10,10 9.5,10 9,10 8.5,10 8,10 8,9.5 Q 8,9 8.125,8.625"
       style="fill:#b04820;fill-opacity:1" />
    <path
       id="path3651"
       d="M 14,8.5 14,8 14.5,8 q 0.5,0 1,0 l 0.5,0 0,0.5 q 0,0.5 0,1 L 16,10 15.5,10 15,10 14.5,10 14,10 14,9.5 Q 14,9 14,8.5 M 16,8.375 16,8 16,7.875 16,7.75 16,8 q 0,0.25 0,0.5 l 0,0.25 0,-0.375"
       style="fill:#b04820;fill-opacity:1" />
    <path
       id="path3653"
       d="M 30.125,8.625 Q 30.25,8.25 30.625,8.125 31,8 31.5,8 q 0.5,0 1,0 0.5,0 1,0 l 0.5,0 0,0.5 q 0,0.5 0,1 L 34,10 33.5,10 33,10 32.5,10 32,10 31.5,10 31,10 30.5,10 30,10 30,9.5 Q 30,9 30.125,8.625 M 34.125,8 34,8 33.625,8 33.25,8 33.5,8 q 0.25,0 0.5,0 l 0.25,0 -0.125,0"
       style="fill:#f8d868;fill-opacity:1" />
    <path
       id="path3655"
       d="M 34,8.5 34,8 34.5,8 q 0.5,0 0.875,0.125 0.375,0.125 0.5,0.5 Q 36,9 36,9.5 L 36,10 35.5,10 35,10 34.5,10 34,10 34,9.5 Q 34,9 34,8.5 M 34.375,8 34,8 33.875,8 33.75,8 34,8 q 0.25,0 0.5,0 l 0.25,0 -0.375,0"
       style="fill:#f0a850;fill-opacity:1" />
  </g>
  <g
     transform="translate(0 0)"
     id="g3657"
     inkscape:export-xdpi="900"
     inkscape:export-ydpi="900">
    <path
       style="fill:#000000;fill-opacity:0"
       d="M 0,0.5 0,0 0.5,0 1,0 1.5,0 2,0 2.5,0 3,0 3.5,0 4,0 4.5,0 5,0 5.5,0 6,0 6.5,0 7,0 7.5,0 8,0 8.5,0 9,0 9.5,0 10,0 10.5,0 11,0 11.5,0 12,0 12.5,0 13,0 13.5,0 14,0 14.5,0 15,0 15.5,0 16,0 16.5,0 17,0 17.5,0 18,0 18.5,0 19,0 19.5,0 20,0 20.5,0 21,0 21.5,0 22,0 22.5,0 23,0 23.5,0 24,0 24.5,0 25,0 25.5,0 26,0 26.5,0 27,0 27.5,0 28,0 28.5,0 29,0 29.5,0 30,0 30.5,0 31,0 31.5,0 32,0 32.5,0 33,0 33.5,0 34,0 34.5,0 35,0 35.5,0 36,0 36.5,0 37,0 37.5,0 38,0 38.5,0 39,0 39.5,0 40,0 40,0.5 40,1 40,1.5 40,2 40,2.5 40,3 40,3.5 40,4 40,4.5 40,5 40,5.5 40,6 40,6.5 40,7 40,7.5 40,8 40,8.5 40,9 40,9.5 40,10 39.5,10 39,10 38.5,10 38,10 38,9.5 Q 38,9 37.875,8.625 37.75,8.25 37.375,8.125 37,8 36.625,7.875 36.25,7.75 36.125,7.375 36,7 35.875,6.625 35.75,6.25 35.375,6.125 35,6 34.5,6 34,6 33.5,6 33,6 32.5,6 32,6 31.5,6 31,6 30.625,6.125 30.25,6.25 30.125,6.625 30,7 29.875,7.375 29.75,7.75 29.375,7.875 29,8 28.625,8.125 28.25,8.25 28.125,8.625 28,9 28,9.5 L 28,10 27.5,10 27,10 26.5,10 26,10 25.5,10 25,10 24.5,10 24,10 23.5,10 23,10 22.5,10 22,10 21.5,10 21,10 20.5,10 20,10 19.5,10 19,10 18.5,10 18,10 17.5,10 17,10 16.5,10 16,10 16,9.5 Q 16,9 16,8.5 16,8 16,7.5 16,7 15.875,6.625 15.75,6.25 15.375,6.125 15,6 14.625,5.875 14.25,5.75 14.125,5.375 14,5 13.875,4.625 13.75,4.25 13.375,4.125 13,4 12.5,4 12,4 11.5,4 11,4 10.5,4 10,4 9.5,4 9,4 8.625,4.125 8.25,4.25 8.125,4.625 8,5 7.875,5.375 7.75,5.75 7.375,5.875 7,6 6.5,6 6,6 5.5,6 5,6 4.5,6 4,6 3.5,6 3,6 2.625,6.125 2.25,6.25 2.125,6.625 2,7 2,7.5 L 2,8 1.5,8 Q 1,8 0.5,8 L 0,8 0,7.5 0,7 0,6.5 0,6 0,5.5 0,5 0,4.5 0,4 0,3.5 0,3 0,2.5 0,2 0,1.5 0,1 0,0.5"
       id="path3659" />
    <path
       style="fill:#d07030;fill-opacity:1"
       d="M 8.125,4.625 Q 8.25,4.25 8.625,4.125 9,4 9.5,4 q 0.5,0 1,0 0.5,0 1,0 0.5,0 1,0 0.5,0 0.875,0.125 0.375,0.125 0.5,0.5 Q 14,5 14.125,5.375 14.25,5.75 14.625,5.875 15,6 15.375,6.125 15.75,6.25 15.875,6.625 16,7 16,7.5 L 16,8 15.5,8 Q 15,8 14.5,8 L 14,8 14,7.5 Q 14,7 13.875,6.625 13.75,6.25 13.375,6.125 13,6 12.5,6 12,6 11.5,6 11,6 10.5,6 10,6 9.5,6 9,6 8.625,6.125 8.25,6.25 8.125,6.625 8,7 7.875,7.375 7.75,7.75 7.375,7.875 7,8 6.5,8 6,8 5.5,8 5,8 4.5,8 4,8 3.5,8 3,8 2.5,8 L 2,8 2,7.5 Q 2,7 2.125,6.625 2.25,6.25 2.625,6.125 3,6 3.5,6 4,6 4.5,6 5,6 5.5,6 6,6 6.5,6 7,6 7.375,5.875 7.75,5.75 7.875,5.375 8,5 8.125,4.625 M 16,8.125 16,8 16,7.625 16,7.25 16,7.5 q 0,0.25 0,0.5 l 0,0.25 0,-0.125"
       id="path3661" />
    <path
       style="fill:#f0a850;fill-opacity:1"
       d="M 8.125,6.625 Q 8.25,6.25 8.625,6.125 9,6 9.5,6 l 0.5,0 0,0.5 q 0,0.5 0.125,0.875 0.125,0.375 0.5,0.5 Q 11,8 11.5,8 q 0.5,0 1,0 0.5,0 1,0 l 0.5,0 0,0.5 q 0,0.5 0,1 L 14,10 13.5,10 13,10 12.5,10 12,10 11.5,10 11,10 10.5,10 10,10 10,9.5 Q 10,9 9.875,8.625 9.75,8.25 9.375,8.125 9,8 8.625,8.125 8.25,8.25 8.125,8.625 8,9 8,9.5 L 8,10 7.5,10 7,10 6.5,10 6,10 6,9.5 Q 6,9 6,8.5 L 6,8 6.5,8 Q 7,8 7.375,7.875 7.75,7.75 7.875,7.375 8,7 8.125,6.625 M 6.375,8 6,8 5.875,8 5.75,8 6,8 Q 6.25,8 6.5,8 L 6.75,8 6.375,8 M 10.125,6 10,6 9.625,6 9.25,6 9.5,6 Q 9.75,6 10,6 l 0.25,0 -0.125,0"
       id="path3663" />
    <path
       style="fill:#f8d868;fill-opacity:1"
       d="M 10,6.5 10,6 10.5,6 q 0.5,0 1,0 0.5,0 1,0 0.5,0 0.875,0.125 0.375,0.125 0.5,0.5 Q 14,7 14,7.5 L 14,8 13.5,8 Q 13,8 12.5,8 12,8 11.5,8 11,8 10.625,7.875 10.25,7.75 10.125,7.375 10,7 10,6.5 M 10.375,6 10,6 9.875,6 9.75,6 10,6 q 0.25,0 0.5,0 l 0.25,0 -0.375,0"
       id="path3665" />
    <path
       style="fill:#d07030;fill-opacity:1"
       d="M 30.125,6.625 Q 30.25,6.25 30.625,6.125 31,6 31.5,6 q 0.5,0 1,0 0.5,0 1,0 0.5,0 1,0 0.5,0 0.875,0.125 0.375,0.125 0.5,0.5 Q 36,7 36.125,7.375 36.25,7.75 36.625,7.875 37,8 37.375,8.125 37.75,8.25 37.875,8.625 38,9 38,9.5 L 38,10 37.5,10 37,10 36.5,10 36,10 36,9.5 Q 36,9 35.875,8.625 35.75,8.25 35.375,8.125 35,8 34.5,8 34,8 33.5,8 33,8 32.5,8 32,8 31.5,8 31,8 30.625,8.125 30.25,8.25 30.125,8.625 30,9 30,9.5 L 30,10 29.5,10 29,10 28.5,10 28,10 28,9.5 Q 28,9 28.125,8.625 28.25,8.25 28.625,8.125 29,8 29.375,7.875 29.75,7.75 29.875,7.375 30,7 30.125,6.625"
       id="path3667" />
    <path
       style="fill:#b04820;fill-opacity:1"
       d="M 0,8.5 0,8 0.5,8 Q 1,8 1.5,8 L 2,8 2,8.5 Q 2,9 2,9.5 L 2,10 1.5,10 1,10 0.5,10 0,10 0,9.5 0,9 0,8.5"
       id="path3669" />
    <path
       style="fill:#f8d868;fill-opacity:1"
       d="M 2,8.5 2,8 2.5,8 Q 3,8 3.5,8 4,8 4.5,8 5,8 5.5,8 L 6,8 6,8.5 Q 6,9 6,9.5 L 6,10 5.5,10 5,10 4.5,10 4,10 3.5,10 3,10 2.5,10 2,10 2,9.5 Q 2,9 2,8.5 M 6.125,8 6,8 5.625,8 5.25,8 5.5,8 Q 5.75,8 6,8 L 6.25,8 6.125,8"
       id="path3671" />
    <path
       style="fill:#b04820;fill-opacity:1"
       d="M 8.125,8.625 Q 8.25,8.25 8.625,8.125 9,8 9.375,8.125 9.75,8.25 9.875,8.625 10,9 10,9.5 L 10,10 9.5,10 9,10 8.5,10 8,10 8,9.5 Q 8,9 8.125,8.625"
       id="path3673" />
    <path
       style="fill:#b04820;fill-opacity:1"
       d="M 14,8.5 14,8 14.5,8 q 0.5,0 1,0 l 0.5,0 0,0.5 q 0,0.5 0,1 L 16,10 15.5,10 15,10 14.5,10 14,10 14,9.5 Q 14,9 14,8.5 M 16,8.375 16,8 16,7.875 16,7.75 16,8 q 0,0.25 0,0.5 l 0,0.25 0,-0.375"
       id="path3675" />
    <path
       style="fill:#f8d868;fill-opacity:1"
       d="M 30.125,8.625 Q 30.25,8.25 30.625,8.125 31,8 31.5,8 q 0.5,0 1,0 0.5,0 1,0 l 0.5,0 0,0.5 q 0,0.5 0,1 L 34,10 33.5,10 33,10 32.5,10 32,10 31.5,10 31,10 30.5,10 30,10 30,9.5 Q 30,9 30.125,8.625 M 34.125,8 34,8 33.625,8 33.25,8 33.5,8 q 0.25,0 0.5,0 l 0.25,0 -0.125,0"
       id="path3677" />
    <path
       style="fill:#f0a850;fill-opacity:1"
       d="M 34,8.5 34,8 34.5,8 q 0.5,0 0.875,0.125 0.375,0.125 0.5,0.5 Q 36,9 36,9.5 L 36,10 35.5,10 35,10 34.5,10 34,10 34,9.5 Q 34,9 34,8.5 M 34.375,8 34,8 33.875,8 33.75,8 34,8 q 0.25,0 0.5,0 l 0.25,0 -0.375,0"
       id="path3679" />
  </g>
</svg>
