<?xml version="1.0" encoding="UTF-8" standalone="no"?>
<!-- Created with Inkscape (http://www.inkscape.org/) -->

<svg
   xmlns:dc="http://purl.org/dc/elements/1.1/"
   xmlns:cc="http://creativecommons.org/ns#"
   xmlns:rdf="http://www.w3.org/1999/02/22-rdf-syntax-ns#"
   xmlns:svg="http://www.w3.org/2000/svg"
   xmlns="http://www.w3.org/2000/svg"
   xmlns:sodipodi="http://sodipodi.sourceforge.net/DTD/sodipodi-0.dtd"
   xmlns:inkscape="http://www.inkscape.org/namespaces/inkscape"
   id="svg2"
   version="1.1"
   inkscape:version="0.91 r13725"
   width="62.5"
   height="65"
   viewBox="0 0 62.5 65"
   sodipodi:docname="button_back.svg">
  <metadata
     id="metadata8">
    <rdf:RDF>
      <cc:Work
         rdf:about="">
        <dc:format>image/svg+xml</dc:format>
        <dc:type
           rdf:resource="http://purl.org/dc/dcmitype/StillImage" />
        <dc:title></dc:title>
      </cc:Work>
    </rdf:RDF>
  </metadata>
  <defs
     id="defs6" />
  <sodipodi:namedview
     pagecolor="#ffffff"
     bordercolor="#666666"
     borderopacity="1"
     objecttolerance="10"
     gridtolerance="10"
     guidetolerance="10"
     inkscape:pageopacity="0"
     inkscape:pageshadow="2"
     inkscape:window-width="702"
     inkscape:window-height="480"
     id="namedview4"
     showgrid="false"
     inkscape:zoom="3.6307692"
     inkscape:cx="31.25"
     inkscape:cy="32.5"
     inkscape:window-x="0"
     inkscape:window-y="0"
     inkscape:window-maximized="0"
     inkscape:current-layer="svg2" />
  <g
     transform="translate(0 0)"
     id="g3357">
    <path
       style="fill:#303030;fill-opacity:1"
       d="M 0,0.5 0,0 0.5,0 1,0 1.5,0 2,0 2.5,0 3,0 3.5,0 4,0 4.5,0 5,0 5.5,0 6,0 6.5,0 7,0 7.5,0 8,0 8.5,0 9,0 9.5,0 10,0 10.5,0 11,0 11.5,0 12,0 12.5,0 13,0 13.5,0 14,0 14.5,0 15,0 15.5,0 16,0 16.5,0 17,0 17.5,0 18,0 18.5,0 19,0 19.5,0 20,0 20.5,0 21,0 21.5,0 22,0 22.5,0 23,0 23.5,0 24,0 24.5,0 25,0 25.5,0 26,0 26.5,0 27,0 27.5,0 28,0 28.5,0 29,0 29.5,0 30,0 30.5,0 31,0 31.5,0 32,0 32.5,0 33,0 33.5,0 34,0 34.5,0 35,0 35.5,0 36,0 36.5,0 37,0 37.5,0 38,0 38.5,0 39,0 39.5,0 40,0 40.5,0 41,0 41.5,0 42,0 42,0.5 q 0,0.5 0.125,0.875 0.125,0.375 0.5,0.5 Q 43,2 43.5,2 q 0.5,0 1,0 0.5,0 1,0 0.5,0 0.5,0.5 0,0.5 0.125,0.875 0.125,0.375 0.5,0.5 Q 47,4 47.5,4 48,4 48,4.5 q 0,0.5 0,1 0,0.5 0,1 0,0.5 0,1 0,0.5 0.125,0.875 0.125,0.375 0.5,0.5 Q 49,9 49.5,9 l 0.5,0 0,0.5 0,0.5 0,0.5 0,0.5 0,0.5 0,0.5 0,0.5 0,0.5 0,0.5 0,0.5 0,0.5 0,0.5 0,0.5 0,0.5 0,0.5 0,0.5 0,0.5 0,0.5 0,0.5 0,0.5 0,0.5 0,0.5 0,0.5 0,0.5 0,0.5 0,0.5 0,0.5 0,0.5 0,0.5 0,0.5 0,0.5 0,0.5 0,0.5 0,0.5 0,0.5 0,0.5 0,0.5 0,0.5 0,0.5 0,0.5 0,0.5 0,0.5 0,0.5 0,0.5 0,0.5 0,0.5 0,0.5 0,0.5 0,0.5 0,0.5 0,0.5 0,0.5 0,0.5 0,0.5 0,0.5 0,0.5 0,0.5 0,0.5 0,0.5 0,0.5 0,0.5 0,0.5 0,0.5 0,0.5 0,0.5 0,0.5 0,0.5 0,0.5 0,0.5 0,0.5 -0.5,0 q -0.5,0 -0.875,0.125 -0.375,0.125 -0.5,0.5 Q 48,45 48,45.5 q 0,0.5 0,1 0,0.5 0,1 0,0.5 -0.5,0.5 -0.5,0 -0.875,0.125 -0.375,0.125 -0.5,0.5 Q 46,49 46,49.5 46,50 45.5,50 q -0.5,0 -1,0 -0.5,0 -1,0 -0.5,0 -0.875,0.125 -0.375,0.125 -0.5,0.5 Q 42,51 42,51.5 L 42,52 41.5,52 41,52 40.5,52 40,52 39.5,52 39,52 38.5,52 38,52 37.5,52 37,52 36.5,52 36,52 35.5,52 35,52 34.5,52 34,52 33.5,52 33,52 32.5,52 32,52 31.5,52 31,52 30.5,52 30,52 29.5,52 29,52 28.5,52 28,52 27.5,52 27,52 26.5,52 26,52 25.5,52 25,52 24.5,52 24,52 23.5,52 23,52 22.5,52 22,52 21.5,52 21,52 20.5,52 20,52 19.5,52 19,52 18.5,52 18,52 17.5,52 17,52 16.5,52 16,52 15.5,52 15,52 14.5,52 14,52 13.5,52 13,52 12.5,52 12,52 11.5,52 11,52 10.5,52 10,52 9.5,52 9,52 8.5,52 8,52 7.5,52 7,52 6.5,52 6,52 5.5,52 5,52 4.5,52 4,52 3.5,52 3,52 2.5,52 2,52 1.5,52 1,52 0.5,52 0,52 0,51.5 0,51 0,50.5 0,50 0.5,50 q 0.5,0 1,0 0.5,0 1,0 0.5,0 1,0 0.5,0 1,0 0.5,0 1,0 0.5,0 1,0 0.5,0 1,0 0.5,0 1,0 0.5,0 1,0 0.5,0 1,0 0.5,0 1,0 0.5,0 1,0 0.5,0 1,0 0.5,0 1,0 0.5,0 1,0 0.5,0 1,0 0.5,0 1,0 0.5,0 1,0 0.5,0 1,0 0.5,0 1,0 0.5,0 1,0 0.5,0 1,0 0.5,0 1,0 0.5,0 1,0 0.5,0 1,0 0.5,0 1,0 0.5,0 1,0 0.5,0 1,0 0.5,0 1,0 0.5,0 1,0 0.5,0 1,0 0.5,0 1,0 0.5,0 1,0 0.5,0 1,0 0.5,0 1,0 0.5,0 1,0 0.5,0 1,0 0.5,0 1,0 0.5,0 1,0 0.5,0 1,0 0.5,0 0.875,-0.125 0.375,-0.125 0.5,-0.5 Q 42,49 42.125,48.625 42.25,48.25 42.625,48.125 43,48 43.5,48 q 0.5,0 1,0 0.5,0 0.875,-0.125 0.375,-0.125 0.5,-0.5 Q 46,47 46,46.5 q 0,-0.5 0,-1 0,-0.5 0,-1 0,-0.5 0.5,-0.5 0.5,0 0.875,-0.125 0.375,-0.125 0.5,-0.5 Q 48,43 48,42.5 q 0,-0.5 0,-1 0,-0.5 0,-1 0,-0.5 0,-1 0,-0.5 0,-1 0,-0.5 0,-1 0,-0.5 0,-1 0,-0.5 0,-1 0,-0.5 0,-1 0,-0.5 0,-1 0,-0.5 0,-1 0,-0.5 0,-1 0,-0.5 0,-1 0,-0.5 0,-1 0,-0.5 0,-1 0,-0.5 0,-1 0,-0.5 0,-1 0,-0.5 0,-1 0,-0.5 0,-1 0,-0.5 0,-1 0,-0.5 0,-1 0,-0.5 0,-1 0,-0.5 0,-1 0,-0.5 0,-1 0,-0.5 0,-1 0,-0.5 0,-1 0,-0.5 0,-1 0,-0.5 0,-1 0,-0.5 0,-1 0,-0.5 0,-1 0,-0.5 0,-1 0,-0.5 0,-1 0,-0.5 0,-1 Q 48,10 47.875,9.625 47.75,9.25 47.375,9.125 47,9 46.625,8.875 46.25,8.75 46.125,8.375 46,8 46,7.5 46,7 46,6.5 46,6 46,5.5 46,5 45.875,4.625 45.75,4.25 45.375,4.125 45,4 44.5,4 44,4 43.5,4 43,4 42.625,3.875 42.25,3.75 42.125,3.375 42,3 41.875,2.625 41.75,2.25 41.375,2.125 41,2 40.5,2 40,2 39.5,2 39,2 38.5,2 38,2 37.5,2 37,2 36.5,2 36,2 35.5,2 35,2 34.5,2 34,2 33.5,2 33,2 32.5,2 32,2 31.5,2 31,2 30.5,2 30,2 29.5,2 29,2 28.5,2 28,2 27.5,2 27,2 26.5,2 26,2 25.5,2 25,2 24.5,2 24,2 23.5,2 23,2 22.5,2 22,2 21.5,2 21,2 20.5,2 20,2 19.5,2 19,2 18.5,2 18,2 17.5,2 17,2 16.5,2 16,2 15.5,2 15,2 14.5,2 14,2 13.5,2 13,2 12.5,2 12,2 11.5,2 11,2 10.5,2 10,2 9.5,2 9,2 8.5,2 8,2 7.5,2 7,2 6.5,2 6,2 5.5,2 5,2 4.5,2 4,2 3.5,2 3,2 2.5,2 2,2 1.5,2 1,2 0.5,2 L 0,2 0,1.5 0,1 0,0.5"
       id="path3359" />
    <path
       style="fill:#000000;fill-opacity:0"
       d="M 42,0.5 42,0 42.5,0 43,0 43.5,0 44,0 44.5,0 45,0 45.5,0 46,0 46.5,0 47,0 47.5,0 48,0 48.5,0 49,0 49.5,0 50,0 50,0.5 50,1 50,1.5 50,2 50,2.5 50,3 50,3.5 50,4 50,4.5 50,5 50,5.5 50,6 50,6.5 50,7 50,7.5 50,8 50,8.5 50,9 49.5,9 Q 49,9 48.625,8.875 48.25,8.75 48.125,8.375 48,8 48,7.5 48,7 48,6.5 48,6 48,5.5 48,5 48,4.5 48,4 47.5,4 47,4 46.625,3.875 46.25,3.75 46.125,3.375 46,3 46,2.5 46,2 45.5,2 45,2 44.5,2 44,2 43.5,2 43,2 42.625,1.875 42.25,1.75 42.125,1.375 42,1 42,0.5"
       id="path3361" />
    <path
       style="fill:#fafafa;fill-opacity:1"
       d="M 0,2.5 0,2 0.5,2 q 0.5,0 1,0 0.5,0 1,0 0.5,0 1,0 0.5,0 1,0 0.5,0 1,0 0.5,0 1,0 0.5,0 1,0 0.5,0 1,0 0.5,0 1,0 0.5,0 1,0 0.5,0 1,0 0.5,0 1,0 0.5,0 1,0 0.5,0 1,0 0.5,0 1,0 0.5,0 1,0 0.5,0 1,0 0.5,0 1,0 0.5,0 1,0 0.5,0 1,0 0.5,0 1,0 0.5,0 1,0 0.5,0 1,0 0.5,0 1,0 0.5,0 1,0 0.5,0 1,0 0.5,0 1,0 0.5,0 1,0 0.5,0 1,0 0.5,0 1,0 0.5,0 1,0 0.5,0 1,0 0.5,0 1,0 0.5,0 1,0 0.5,0 1,0 0.5,0 1,0 0.5,0 1,0 0.5,0 1,0 0.5,0 1,0 0.5,0 1,0 0.5,0 0.875,0.125 0.375,0.125 0.5,0.5 Q 42,3 42.125,3.375 42.25,3.75 42.625,3.875 43,4 43.5,4 q 0.5,0 1,0 0.5,0 0.875,0.125 0.375,0.125 0.5,0.5 Q 46,5 46,5.5 q 0,0.5 0,1 0,0.5 0,1 0,0.5 0.125,0.875 0.125,0.375 0.5,0.5 Q 47,9 47.375,9.125 47.75,9.25 47.875,9.625 48,10 48,10.5 q 0,0.5 0,1 0,0.5 0,1 0,0.5 0,1 0,0.5 0,1 0,0.5 0,1 0,0.5 0,1 0,0.5 0,1 0,0.5 0,1 0,0.5 0,1 0,0.5 0,1 0,0.5 0,1 0,0.5 0,1 0,0.5 0,1 0,0.5 0,1 0,0.5 0,1 0,0.5 0,1 0,0.5 0,1 0,0.5 0,1 0,0.5 0,1 0,0.5 0,1 0,0.5 0,1 0,0.5 0,1 0,0.5 0,1 0,0.5 0,1 0,0.5 0,1 0,0.5 0,1 0,0.5 0,1 0,0.5 0,1 0,0.5 0,1 0,0.5 0,1 0,0.5 0,1 l 0,0.5 -0.5,0 q -0.5,0 -0.875,0.125 -0.375,0.125 -0.5,0.5 Q 46,43 46.0625,43.5625 L 46.125,44.125 46.1875,44.0625 46.25,44 46.125,44.125 Q 46,44.25 46,44.5 l 0,0.25 0,-0.375 0,-0.375 0,0.5 q 0,0.5 0,1 l 0,0.5 -0.5,0 q -0.5,0 -1,0 -0.5,0 -1,0 -0.5,0 -0.875,0.125 -0.375,0.125 -0.5,0.5 Q 42,47 41.875,47.375 41.75,47.75 41.375,47.875 41,48 40.5,48 q -0.5,0 -1,0 -0.5,0 -1,0 -0.5,0 -1,0 -0.5,0 -1,0 -0.5,0 -1,0 -0.5,0 -1,0 -0.5,0 -1,0 -0.5,0 -1,0 -0.5,0 -1,0 -0.5,0 -1,0 -0.5,0 -1,0 -0.5,0 -1,0 -0.5,0 -1,0 -0.5,0 -1,0 -0.5,0 -1,0 -0.5,0 -1,0 -0.5,0 -1,0 -0.5,0 -1,0 -0.5,0 -1,0 -0.5,0 -1,0 -0.5,0 -1,0 -0.5,0 -1,0 -0.5,0 -1,0 -0.5,0 -1,0 -0.5,0 -1,0 -0.5,0 -1,0 -0.5,0 -1,0 -0.5,0 -1,0 -0.5,0 -1,0 -0.5,0 -1,0 -0.5,0 -1,0 -0.5,0 -1,0 -0.5,0 -1,0 -0.5,0 -1,0 -0.5,0 -1,0 -0.5,0 -1,0 -0.5,0 -1,0 -0.5,0 -1,0 -0.5,0 -1,0 -0.5,0 -1,0 L 0,48 0,47.5 0,47 0,46.5 0,46 0,45.5 0,45 0,44.5 0,44 0,43.5 0,43 0,42.5 0,42 0,41.5 0,41 0,40.5 0,40 0,39.5 0,39 0,38.5 0,38 0,37.5 0,37 0,36.5 0,36 0,35.5 0,35 0,34.5 0,34 0,33.5 0,33 0,32.5 0,32 0,31.5 0,31 0,30.5 0,30 0,29.5 0,29 0,28.5 0,28 0,27.5 0,27 0,26.5 0,26 0,25.5 0,25 0,24.5 0,24 0,23.5 0,23 0,22.5 0,22 0,21.5 0,21 0,20.5 0,20 0,19.5 0,19 0,18.5 0,18 0,17.5 0,17 0,16.5 0,16 0,15.5 0,15 0,14.5 0,14 0,13.5 0,13 0,12.5 0,12 0,11.5 0,11 0,10.5 0,10 0,9.5 0,9 0,8.5 0,8 0,7.5 0,7 0,6.5 0,6 0,5.5 0,5 0,4.5 0,4 0,3.5 0,3 0,2.5 M 24.5,36 q 0.5,0 0.875,-0.125 0.375,-0.125 0.5,-0.5 Q 26,35 26,34.5 q 0,-0.5 0,-1 0,-0.5 0.125,-0.875 0.125,-0.375 0.5,-0.5 Q 27,32 27.5,32 q 0.5,0 1,0 0.5,0 1,0 0.5,0 1,0 0.5,0 0.875,-0.125 0.375,-0.125 0.5,-0.5 Q 32,31 32,30.5 q 0,-0.5 0,-1 0,-0.5 0,-1 0,-0.5 0,-1 0,-0.5 0,-1 0,-0.5 0,-1 0,-0.5 0,-1 0,-0.5 0,-1 0,-0.5 0,-1 0,-0.5 0,-1 0,-0.5 0,-1 0,-0.5 0,-1 0,-0.5 -0.125,-0.875 -0.125,-0.375 -0.5,-0.5 Q 31,18 30.5,18 q -0.5,0 -1,0 -0.5,0 -1,0 -0.5,0 -1,0 -0.5,0 -0.875,-0.125 -0.375,-0.125 -0.5,-0.5 Q 26,17 26,16.5 26,16 26,15.5 26,15 25.875,14.625 25.75,14.25 25.375,14.125 25,14 24.5,14 q -0.5,0 -1,0 -0.5,0 -0.875,0.125 -0.375,0.125 -0.5,0.5 -0.125,0.375 -0.25,0.75 -0.125,0.375 -0.5,0.5 -0.375,0.125 -0.75,0.25 -0.375,0.125 -0.5,0.5 -0.125,0.375 -0.25,0.75 -0.125,0.375 -0.5,0.5 -0.375,0.125 -0.75,0.25 -0.375,0.125 -0.5,0.5 -0.125,0.375 -0.25,0.75 -0.125,0.375 -0.5,0.5 -0.375,0.125 -0.75,0.25 -0.375,0.125 -0.5,0.5 -0.125,0.375 -0.25,0.75 -0.125,0.375 -0.5,0.5 -0.375,0.125 -0.75,0.25 -0.375,0.125 -0.5,0.5 -0.125,0.375 -0.25,0.75 -0.125,0.375 -0.5,0.5 -0.375,0.125 -0.75,0.25 -0.375,0.125 -0.5,0.5 -0.125,0.375 0,0.75 0.125,0.375 0.5,0.5 0.375,0.125 0.75,0.25 0.375,0.125 0.5,0.5 0.125,0.375 0.25,0.75 0.125,0.375 0.5,0.5 0.375,0.125 0.75,0.25 0.375,0.125 0.5,0.5 0.125,0.375 0.25,0.75 0.125,0.375 0.5,0.5 0.375,0.125 0.75,0.25 0.375,0.125 0.5,0.5 0.125,0.375 0.25,0.75 0.125,0.375 0.5,0.5 0.375,0.125 0.75,0.25 0.375,0.125 0.5,0.5 0.125,0.375 0.25,0.75 0.125,0.375 0.5,0.5 0.375,0.125 0.75,0.25 0.375,0.125 0.5,0.5 0.125,0.375 0.25,0.75 0.125,0.375 0.5,0.5 Q 23,36 23.5,36 q 0.5,0 1,0 M 46,46.125 46,46 l 0,-0.375 0,-0.375 0,0.25 q 0,0.25 0,0.5 l 0,0.25 0,-0.125 m 2,-4 0,-0.125 0,-0.375 0,-0.375 0,0.25 q 0,0.25 0,0.5 l 0,0.25 0,-0.125"
       id="path3363" />
    <path
       style="fill:#f78e56;fill-opacity:1"
       d="m 22.125,14.625 q 0.125,-0.375 0.5,-0.5 Q 23,14 23.5,14 q 0.5,0 1,0 0.5,0 0.875,0.125 0.375,0.125 0.5,0.5 Q 26,15 26,15.5 q 0,0.5 0,1 0,0.5 0.125,0.875 0.125,0.375 0.5,0.5 Q 27,18 27.5,18 q 0.5,0 1,0 0.5,0 1,0 0.5,0 1,0 0.5,0 0.875,0.125 0.375,0.125 0.5,0.5 Q 32,19 32,19.5 q 0,0.5 0,1 0,0.5 0,1 0,0.5 0,1 0,0.5 0,1 0,0.5 0,1 0,0.5 0,1 0,0.5 0,1 0,0.5 0,1 0,0.5 0,1 0,0.5 0,1 0,0.5 0,1 0,0.5 -0.125,0.875 -0.125,0.375 -0.5,0.5 Q 31,32 30.5,32 q -0.5,0 -1,0 -0.5,0 -1,0 -0.5,0 -1,0 -0.5,0 -0.875,0.125 -0.375,0.125 -0.5,0.5 Q 26,33 26,33.5 q 0,0.5 0,1 0,0.5 -0.125,0.875 -0.125,0.375 -0.5,0.5 Q 25,36 24.5,36 24,36 23.5,36 23,36 22.625,35.875 22.25,35.75 22.125,35.375 22,35 21.875,34.625 21.75,34.25 21.375,34.125 21,34 20.625,33.875 20.25,33.75 20.125,33.375 20,33 19.875,32.625 19.75,32.25 19.375,32.125 19,32 18.625,31.875 18.25,31.75 18.125,31.375 18,31 17.875,30.625 17.75,30.25 17.375,30.125 17,30 16.625,29.875 16.25,29.75 16.125,29.375 16,29 15.875,28.625 15.75,28.25 15.375,28.125 15,28 14.625,27.875 14.25,27.75 14.125,27.375 14,27 13.875,26.625 13.75,26.25 13.375,26.125 13,26 12.625,25.875 12.25,25.75 12.125,25.375 12,25 12.125,24.625 12.25,24.25 12.625,24.125 13,24 13.375,23.875 13.75,23.75 13.875,23.375 14,23 14.125,22.625 14.25,22.25 14.625,22.125 15,22 15.375,21.875 15.75,21.75 15.875,21.375 16,21 16.125,20.625 16.25,20.25 16.625,20.125 17,20 17.375,19.875 17.75,19.75 17.875,19.375 18,19 18.125,18.625 18.25,18.25 18.625,18.125 19,18 19.375,17.875 19.75,17.75 19.875,17.375 20,17 20.125,16.625 20.25,16.25 20.625,16.125 21,16 21.375,15.875 21.75,15.75 21.875,15.375 22,15 22.125,14.625"
       id="path3365" />
    <path
       style="fill:#d6be9b;fill-opacity:1"
       d="m 46.125,42.625 q 0.125,-0.375 0.5,-0.5 Q 47,42 47.5,42 l 0.5,0 0,0.5 q 0,0.5 -0.125,0.875 -0.125,0.375 -0.5,0.5 Q 47,44 46.5,44 l -0.5,0 0.375,0 0.375,0 -0.25,0 q -0.25,0 -0.375,0.125 L 46,44.25 46.0625,44.1875 46.125,44.125 46.0625,43.5625 Q 46,43 46.125,42.625 M 48,42.375 48,42 48,41.875 48,41.75 48,42 q 0,0.25 0,0.5 l 0,0.25 0,-0.375"
       id="path3367" />
    <path
       style="fill:#000000;fill-opacity:0"
       d="m 48.125,44.625 q 0.125,-0.375 0.5,-0.5 Q 49,44 49.5,44 l 0.5,0 0,0.5 0,0.5 0,0.5 0,0.5 0,0.5 0,0.5 0,0.5 0,0.5 0,0.5 0,0.5 0,0.5 0,0.5 0,0.5 0,0.5 0,0.5 0,0.5 -0.5,0 -0.5,0 -0.5,0 -0.5,0 -0.5,0 -0.5,0 -0.5,0 -0.5,0 -0.5,0 -0.5,0 -0.5,0 -0.5,0 -0.5,0 -0.5,0 -0.5,0 -0.5,0 0,-0.5 q 0,-0.5 0.125,-0.875 0.125,-0.375 0.5,-0.5 Q 43,50 43.5,50 q 0.5,0 1,0 0.5,0 1,0 0.5,0 0.5,-0.5 0,-0.5 0.125,-0.875 0.125,-0.375 0.5,-0.5 Q 47,48 47.5,48 48,48 48,47.5 q 0,-0.5 0,-1 0,-0.5 0,-1 0,-0.5 0.125,-0.875"
       id="path3369" />
    <path
       style="fill:#d6be9b;fill-opacity:1"
       d="m 42.125,46.625 q 0.125,-0.375 0.5,-0.5 Q 43,46 43.5,46 q 0.5,0 1,0 0.5,0 1,0 l 0.5,0 0,0.5 q 0,0.5 -0.125,0.875 -0.125,0.375 -0.5,0.5 Q 45,48 44.5,48 q -0.5,0 -1,0 -0.5,0 -0.875,0.125 -0.375,0.125 -0.5,0.5 Q 42,49 41.875,49.375 41.75,49.75 41.375,49.875 41,50 40.5,50 q -0.5,0 -1,0 -0.5,0 -1,0 -0.5,0 -1,0 -0.5,0 -1,0 -0.5,0 -1,0 -0.5,0 -1,0 -0.5,0 -1,0 -0.5,0 -1,0 -0.5,0 -1,0 -0.5,0 -1,0 -0.5,0 -1,0 -0.5,0 -1,0 -0.5,0 -1,0 -0.5,0 -1,0 -0.5,0 -1,0 -0.5,0 -1,0 -0.5,0 -1,0 -0.5,0 -1,0 -0.5,0 -1,0 -0.5,0 -1,0 -0.5,0 -1,0 -0.5,0 -1,0 -0.5,0 -1,0 -0.5,0 -1,0 -0.5,0 -1,0 -0.5,0 -1,0 -0.5,0 -1,0 -0.5,0 -1,0 -0.5,0 -1,0 -0.5,0 -1,0 -0.5,0 -1,0 -0.5,0 -1,0 -0.5,0 -1,0 -0.5,0 -1,0 -0.5,0 -1,0 -0.5,0 -1,0 -0.5,0 -1,0 -0.5,0 -1,0 -0.5,0 -1,0 -0.5,0 -1,0 L 0,50 0,49.5 0,49 0,48.5 0,48 0.5,48 q 0.5,0 1,0 0.5,0 1,0 0.5,0 1,0 0.5,0 1,0 0.5,0 1,0 0.5,0 1,0 0.5,0 1,0 0.5,0 1,0 0.5,0 1,0 0.5,0 1,0 0.5,0 1,0 0.5,0 1,0 0.5,0 1,0 0.5,0 1,0 0.5,0 1,0 0.5,0 1,0 0.5,0 1,0 0.5,0 1,0 0.5,0 1,0 0.5,0 1,0 0.5,0 1,0 0.5,0 1,0 0.5,0 1,0 0.5,0 1,0 0.5,0 1,0 0.5,0 1,0 0.5,0 1,0 0.5,0 1,0 0.5,0 1,0 0.5,0 1,0 0.5,0 1,0 0.5,0 1,0 0.5,0 1,0 0.5,0 1,0 0.5,0 1,0 0.5,0 1,0 0.5,0 1,0 0.5,0 1,0 0.5,0 1,0 0.5,0 1,0 0.5,0 0.875,-0.125 0.375,-0.125 0.5,-0.5 Q 42,47 42.125,46.625 M 46,46.375 46,46 46,45.875 46,45.75 46,46 q 0,0.25 0,0.5 l 0,0.25 0,-0.375"
       id="path3371" />
  </g>
  <g
     id="g3373"
     transform="translate(0 0)">
    <path
       id="path3375"
       d="M 0,0.5 0,0 0.5,0 1,0 1.5,0 2,0 2.5,0 3,0 3.5,0 4,0 4.5,0 5,0 5.5,0 6,0 6.5,0 7,0 7.5,0 8,0 8.5,0 9,0 9.5,0 10,0 10.5,0 11,0 11.5,0 12,0 12.5,0 13,0 13.5,0 14,0 14.5,0 15,0 15.5,0 16,0 16.5,0 17,0 17.5,0 18,0 18.5,0 19,0 19.5,0 20,0 20.5,0 21,0 21.5,0 22,0 22.5,0 23,0 23.5,0 24,0 24.5,0 25,0 25.5,0 26,0 26.5,0 27,0 27.5,0 28,0 28.5,0 29,0 29.5,0 30,0 30.5,0 31,0 31.5,0 32,0 32.5,0 33,0 33.5,0 34,0 34.5,0 35,0 35.5,0 36,0 36.5,0 37,0 37.5,0 38,0 38.5,0 39,0 39.5,0 40,0 40.5,0 41,0 41.5,0 42,0 42,0.5 q 0,0.5 0.125,0.875 0.125,0.375 0.5,0.5 Q 43,2 43.5,2 q 0.5,0 1,0 0.5,0 1,0 0.5,0 0.5,0.5 0,0.5 0.125,0.875 0.125,0.375 0.5,0.5 Q 47,4 47.5,4 48,4 48,4.5 q 0,0.5 0,1 0,0.5 0,1 0,0.5 0,1 0,0.5 0.125,0.875 0.125,0.375 0.5,0.5 Q 49,9 49.5,9 l 0.5,0 0,0.5 0,0.5 0,0.5 0,0.5 0,0.5 0,0.5 0,0.5 0,0.5 0,0.5 0,0.5 0,0.5 0,0.5 0,0.5 0,0.5 0,0.5 0,0.5 0,0.5 0,0.5 0,0.5 0,0.5 0,0.5 0,0.5 0,0.5 0,0.5 0,0.5 0,0.5 0,0.5 0,0.5 0,0.5 0,0.5 0,0.5 0,0.5 0,0.5 0,0.5 0,0.5 0,0.5 0,0.5 0,0.5 0,0.5 0,0.5 0,0.5 0,0.5 0,0.5 0,0.5 0,0.5 0,0.5 0,0.5 0,0.5 0,0.5 0,0.5 0,0.5 0,0.5 0,0.5 0,0.5 0,0.5 0,0.5 0,0.5 0,0.5 0,0.5 0,0.5 0,0.5 0,0.5 0,0.5 0,0.5 0,0.5 0,0.5 0,0.5 0,0.5 0,0.5 0,0.5 -0.5,0 q -0.5,0 -0.875,0.125 -0.375,0.125 -0.5,0.5 Q 48,45 48,45.5 q 0,0.5 0,1 0,0.5 0,1 0,0.5 -0.5,0.5 -0.5,0 -0.875,0.125 -0.375,0.125 -0.5,0.5 Q 46,49 46,49.5 46,50 45.5,50 q -0.5,0 -1,0 -0.5,0 -1,0 -0.5,0 -0.875,0.125 -0.375,0.125 -0.5,0.5 Q 42,51 42,51.5 L 42,52 41.5,52 41,52 40.5,52 40,52 39.5,52 39,52 38.5,52 38,52 37.5,52 37,52 36.5,52 36,52 35.5,52 35,52 34.5,52 34,52 33.5,52 33,52 32.5,52 32,52 31.5,52 31,52 30.5,52 30,52 29.5,52 29,52 28.5,52 28,52 27.5,52 27,52 26.5,52 26,52 25.5,52 25,52 24.5,52 24,52 23.5,52 23,52 22.5,52 22,52 21.5,52 21,52 20.5,52 20,52 19.5,52 19,52 18.5,52 18,52 17.5,52 17,52 16.5,52 16,52 15.5,52 15,52 14.5,52 14,52 13.5,52 13,52 12.5,52 12,52 11.5,52 11,52 10.5,52 10,52 9.5,52 9,52 8.5,52 8,52 7.5,52 7,52 6.5,52 6,52 5.5,52 5,52 4.5,52 4,52 3.5,52 3,52 2.5,52 2,52 1.5,52 1,52 0.5,52 0,52 0,51.5 0,51 0,50.5 0,50 0.5,50 q 0.5,0 1,0 0.5,0 1,0 0.5,0 1,0 0.5,0 1,0 0.5,0 1,0 0.5,0 1,0 0.5,0 1,0 0.5,0 1,0 0.5,0 1,0 0.5,0 1,0 0.5,0 1,0 0.5,0 1,0 0.5,0 1,0 0.5,0 1,0 0.5,0 1,0 0.5,0 1,0 0.5,0 1,0 0.5,0 1,0 0.5,0 1,0 0.5,0 1,0 0.5,0 1,0 0.5,0 1,0 0.5,0 1,0 0.5,0 1,0 0.5,0 1,0 0.5,0 1,0 0.5,0 1,0 0.5,0 1,0 0.5,0 1,0 0.5,0 1,0 0.5,0 1,0 0.5,0 1,0 0.5,0 1,0 0.5,0 1,0 0.5,0 1,0 0.5,0 1,0 0.5,0 1,0 0.5,0 1,0 0.5,0 1,0 0.5,0 1,0 0.5,0 0.875,-0.125 0.375,-0.125 0.5,-0.5 Q 42,49 42.125,48.625 42.25,48.25 42.625,48.125 43,48 43.5,48 q 0.5,0 1,0 0.5,0 0.875,-0.125 0.375,-0.125 0.5,-0.5 Q 46,47 46,46.5 q 0,-0.5 0,-1 0,-0.5 0,-1 0,-0.5 0.5,-0.5 0.5,0 0.875,-0.125 0.375,-0.125 0.5,-0.5 Q 48,43 48,42.5 q 0,-0.5 0,-1 0,-0.5 0,-1 0,-0.5 0,-1 0,-0.5 0,-1 0,-0.5 0,-1 0,-0.5 0,-1 0,-0.5 0,-1 0,-0.5 0,-1 0,-0.5 0,-1 0,-0.5 0,-1 0,-0.5 0,-1 0,-0.5 0,-1 0,-0.5 0,-1 0,-0.5 0,-1 0,-0.5 0,-1 0,-0.5 0,-1 0,-0.5 0,-1 0,-0.5 0,-1 0,-0.5 0,-1 0,-0.5 0,-1 0,-0.5 0,-1 0,-0.5 0,-1 0,-0.5 0,-1 0,-0.5 0,-1 0,-0.5 0,-1 0,-0.5 0,-1 0,-0.5 0,-1 0,-0.5 0,-1 0,-0.5 0,-1 0,-0.5 0,-1 0,-0.5 0,-1 0,-0.5 0,-1 Q 48,10 47.875,9.625 47.75,9.25 47.375,9.125 47,9 46.625,8.875 46.25,8.75 46.125,8.375 46,8 46,7.5 46,7 46,6.5 46,6 46,5.5 46,5 45.875,4.625 45.75,4.25 45.375,4.125 45,4 44.5,4 44,4 43.5,4 43,4 42.625,3.875 42.25,3.75 42.125,3.375 42,3 41.875,2.625 41.75,2.25 41.375,2.125 41,2 40.5,2 40,2 39.5,2 39,2 38.5,2 38,2 37.5,2 37,2 36.5,2 36,2 35.5,2 35,2 34.5,2 34,2 33.5,2 33,2 32.5,2 32,2 31.5,2 31,2 30.5,2 30,2 29.5,2 29,2 28.5,2 28,2 27.5,2 27,2 26.5,2 26,2 25.5,2 25,2 24.5,2 24,2 23.5,2 23,2 22.5,2 22,2 21.5,2 21,2 20.5,2 20,2 19.5,2 19,2 18.5,2 18,2 17.5,2 17,2 16.5,2 16,2 15.5,2 15,2 14.5,2 14,2 13.5,2 13,2 12.5,2 12,2 11.5,2 11,2 10.5,2 10,2 9.5,2 9,2 8.5,2 8,2 7.5,2 7,2 6.5,2 6,2 5.5,2 5,2 4.5,2 4,2 3.5,2 3,2 2.5,2 2,2 1.5,2 1,2 0.5,2 L 0,2 0,1.5 0,1 0,0.5"
       style="fill:#303030;fill-opacity:1" />
    <path
       id="path3377"
       d="M 42,0.5 42,0 42.5,0 43,0 43.5,0 44,0 44.5,0 45,0 45.5,0 46,0 46.5,0 47,0 47.5,0 48,0 48.5,0 49,0 49.5,0 50,0 50,0.5 50,1 50,1.5 50,2 50,2.5 50,3 50,3.5 50,4 50,4.5 50,5 50,5.5 50,6 50,6.5 50,7 50,7.5 50,8 50,8.5 50,9 49.5,9 Q 49,9 48.625,8.875 48.25,8.75 48.125,8.375 48,8 48,7.5 48,7 48,6.5 48,6 48,5.5 48,5 48,4.5 48,4 47.5,4 47,4 46.625,3.875 46.25,3.75 46.125,3.375 46,3 46,2.5 46,2 45.5,2 45,2 44.5,2 44,2 43.5,2 43,2 42.625,1.875 42.25,1.75 42.125,1.375 42,1 42,0.5"
       style="fill:#000000;fill-opacity:0" />
    <path
       id="path3379"
       d="M 0,2.5 0,2 0.5,2 q 0.5,0 1,0 0.5,0 1,0 0.5,0 1,0 0.5,0 1,0 0.5,0 1,0 0.5,0 1,0 0.5,0 1,0 0.5,0 1,0 0.5,0 1,0 0.5,0 1,0 0.5,0 1,0 0.5,0 1,0 0.5,0 1,0 0.5,0 1,0 0.5,0 1,0 0.5,0 1,0 0.5,0 1,0 0.5,0 1,0 0.5,0 1,0 0.5,0 1,0 0.5,0 1,0 0.5,0 1,0 0.5,0 1,0 0.5,0 1,0 0.5,0 1,0 0.5,0 1,0 0.5,0 1,0 0.5,0 1,0 0.5,0 1,0 0.5,0 1,0 0.5,0 1,0 0.5,0 1,0 0.5,0 1,0 0.5,0 1,0 0.5,0 1,0 0.5,0 1,0 0.5,0 1,0 0.5,0 1,0 0.5,0 1,0 0.5,0 1,0 0.5,0 0.875,0.125 0.375,0.125 0.5,0.5 Q 42,3 42.125,3.375 42.25,3.75 42.625,3.875 43,4 43.5,4 q 0.5,0 1,0 0.5,0 0.875,0.125 0.375,0.125 0.5,0.5 Q 46,5 46,5.5 q 0,0.5 0,1 0,0.5 0,1 0,0.5 0.125,0.875 0.125,0.375 0.5,0.5 Q 47,9 47.375,9.125 47.75,9.25 47.875,9.625 48,10 48,10.5 q 0,0.5 0,1 0,0.5 0,1 0,0.5 0,1 0,0.5 0,1 0,0.5 0,1 0,0.5 0,1 0,0.5 0,1 0,0.5 0,1 0,0.5 0,1 0,0.5 0,1 0,0.5 0,1 0,0.5 0,1 0,0.5 0,1 0,0.5 0,1 0,0.5 0,1 0,0.5 0,1 0,0.5 0,1 0,0.5 0,1 0,0.5 0,1 0,0.5 0,1 0,0.5 0,1 0,0.5 0,1 0,0.5 0,1 0,0.5 0,1 0,0.5 0,1 0,0.5 0,1 0,0.5 0,1 0,0.5 0,1 0,0.5 0,1 0,0.5 0,1 0,0.5 0,1 l 0,0.5 -0.5,0 q -0.5,0 -0.875,0.125 -0.375,0.125 -0.5,0.5 Q 46,43 46.0625,43.5625 L 46.125,44.125 46.1875,44.0625 46.25,44 46.125,44.125 Q 46,44.25 46,44.5 l 0,0.25 0,-0.375 0,-0.375 0,0.5 q 0,0.5 0,1 l 0,0.5 -0.5,0 q -0.5,0 -1,0 -0.5,0 -1,0 -0.5,0 -0.875,0.125 -0.375,0.125 -0.5,0.5 Q 42,47 41.875,47.375 41.75,47.75 41.375,47.875 41,48 40.5,48 q -0.5,0 -1,0 -0.5,0 -1,0 -0.5,0 -1,0 -0.5,0 -1,0 -0.5,0 -1,0 -0.5,0 -1,0 -0.5,0 -1,0 -0.5,0 -1,0 -0.5,0 -1,0 -0.5,0 -1,0 -0.5,0 -1,0 -0.5,0 -1,0 -0.5,0 -1,0 -0.5,0 -1,0 -0.5,0 -1,0 -0.5,0 -1,0 -0.5,0 -1,0 -0.5,0 -1,0 -0.5,0 -1,0 -0.5,0 -1,0 -0.5,0 -1,0 -0.5,0 -1,0 -0.5,0 -1,0 -0.5,0 -1,0 -0.5,0 -1,0 -0.5,0 -1,0 -0.5,0 -1,0 -0.5,0 -1,0 -0.5,0 -1,0 -0.5,0 -1,0 -0.5,0 -1,0 -0.5,0 -1,0 -0.5,0 -1,0 -0.5,0 -1,0 -0.5,0 -1,0 -0.5,0 -1,0 -0.5,0 -1,0 -0.5,0 -1,0 -0.5,0 -1,0 -0.5,0 -1,0 L 0,48 0,47.5 0,47 0,46.5 0,46 0,45.5 0,45 0,44.5 0,44 0,43.5 0,43 0,42.5 0,42 0,41.5 0,41 0,40.5 0,40 0,39.5 0,39 0,38.5 0,38 0,37.5 0,37 0,36.5 0,36 0,35.5 0,35 0,34.5 0,34 0,33.5 0,33 0,32.5 0,32 0,31.5 0,31 0,30.5 0,30 0,29.5 0,29 0,28.5 0,28 0,27.5 0,27 0,26.5 0,26 0,25.5 0,25 0,24.5 0,24 0,23.5 0,23 0,22.5 0,22 0,21.5 0,21 0,20.5 0,20 0,19.5 0,19 0,18.5 0,18 0,17.5 0,17 0,16.5 0,16 0,15.5 0,15 0,14.5 0,14 0,13.5 0,13 0,12.5 0,12 0,11.5 0,11 0,10.5 0,10 0,9.5 0,9 0,8.5 0,8 0,7.5 0,7 0,6.5 0,6 0,5.5 0,5 0,4.5 0,4 0,3.5 0,3 0,2.5 M 24.5,36 q 0.5,0 0.875,-0.125 0.375,-0.125 0.5,-0.5 Q 26,35 26,34.5 q 0,-0.5 0,-1 0,-0.5 0.125,-0.875 0.125,-0.375 0.5,-0.5 Q 27,32 27.5,32 q 0.5,0 1,0 0.5,0 1,0 0.5,0 1,0 0.5,0 0.875,-0.125 0.375,-0.125 0.5,-0.5 Q 32,31 32,30.5 q 0,-0.5 0,-1 0,-0.5 0,-1 0,-0.5 0,-1 0,-0.5 0,-1 0,-0.5 0,-1 0,-0.5 0,-1 0,-0.5 0,-1 0,-0.5 0,-1 0,-0.5 0,-1 0,-0.5 0,-1 0,-0.5 0,-1 0,-0.5 -0.125,-0.875 -0.125,-0.375 -0.5,-0.5 Q 31,18 30.5,18 q -0.5,0 -1,0 -0.5,0 -1,0 -0.5,0 -1,0 -0.5,0 -0.875,-0.125 -0.375,-0.125 -0.5,-0.5 Q 26,17 26,16.5 26,16 26,15.5 26,15 25.875,14.625 25.75,14.25 25.375,14.125 25,14 24.5,14 q -0.5,0 -1,0 -0.5,0 -0.875,0.125 -0.375,0.125 -0.5,0.5 -0.125,0.375 -0.25,0.75 -0.125,0.375 -0.5,0.5 -0.375,0.125 -0.75,0.25 -0.375,0.125 -0.5,0.5 -0.125,0.375 -0.25,0.75 -0.125,0.375 -0.5,0.5 -0.375,0.125 -0.75,0.25 -0.375,0.125 -0.5,0.5 -0.125,0.375 -0.25,0.75 -0.125,0.375 -0.5,0.5 -0.375,0.125 -0.75,0.25 -0.375,0.125 -0.5,0.5 -0.125,0.375 -0.25,0.75 -0.125,0.375 -0.5,0.5 -0.375,0.125 -0.75,0.25 -0.375,0.125 -0.5,0.5 -0.125,0.375 -0.25,0.75 -0.125,0.375 -0.5,0.5 -0.375,0.125 -0.75,0.25 -0.375,0.125 -0.5,0.5 -0.125,0.375 0,0.75 0.125,0.375 0.5,0.5 0.375,0.125 0.75,0.25 0.375,0.125 0.5,0.5 0.125,0.375 0.25,0.75 0.125,0.375 0.5,0.5 0.375,0.125 0.75,0.25 0.375,0.125 0.5,0.5 0.125,0.375 0.25,0.75 0.125,0.375 0.5,0.5 0.375,0.125 0.75,0.25 0.375,0.125 0.5,0.5 0.125,0.375 0.25,0.75 0.125,0.375 0.5,0.5 0.375,0.125 0.75,0.25 0.375,0.125 0.5,0.5 0.125,0.375 0.25,0.75 0.125,0.375 0.5,0.5 0.375,0.125 0.75,0.25 0.375,0.125 0.5,0.5 0.125,0.375 0.25,0.75 0.125,0.375 0.5,0.5 Q 23,36 23.5,36 q 0.5,0 1,0 M 46,46.125 46,46 l 0,-0.375 0,-0.375 0,0.25 q 0,0.25 0,0.5 l 0,0.25 0,-0.125 m 2,-4 0,-0.125 0,-0.375 0,-0.375 0,0.25 q 0,0.25 0,0.5 l 0,0.25 0,-0.125"
       style="fill:#fafafa;fill-opacity:1" />
    <path
       id="path3381"
       d="m 22.125,14.625 q 0.125,-0.375 0.5,-0.5 Q 23,14 23.5,14 q 0.5,0 1,0 0.5,0 0.875,0.125 0.375,0.125 0.5,0.5 Q 26,15 26,15.5 q 0,0.5 0,1 0,0.5 0.125,0.875 0.125,0.375 0.5,0.5 Q 27,18 27.5,18 q 0.5,0 1,0 0.5,0 1,0 0.5,0 1,0 0.5,0 0.875,0.125 0.375,0.125 0.5,0.5 Q 32,19 32,19.5 q 0,0.5 0,1 0,0.5 0,1 0,0.5 0,1 0,0.5 0,1 0,0.5 0,1 0,0.5 0,1 0,0.5 0,1 0,0.5 0,1 0,0.5 0,1 0,0.5 0,1 0,0.5 0,1 0,0.5 -0.125,0.875 -0.125,0.375 -0.5,0.5 Q 31,32 30.5,32 q -0.5,0 -1,0 -0.5,0 -1,0 -0.5,0 -1,0 -0.5,0 -0.875,0.125 -0.375,0.125 -0.5,0.5 Q 26,33 26,33.5 q 0,0.5 0,1 0,0.5 -0.125,0.875 -0.125,0.375 -0.5,0.5 Q 25,36 24.5,36 24,36 23.5,36 23,36 22.625,35.875 22.25,35.75 22.125,35.375 22,35 21.875,34.625 21.75,34.25 21.375,34.125 21,34 20.625,33.875 20.25,33.75 20.125,33.375 20,33 19.875,32.625 19.75,32.25 19.375,32.125 19,32 18.625,31.875 18.25,31.75 18.125,31.375 18,31 17.875,30.625 17.75,30.25 17.375,30.125 17,30 16.625,29.875 16.25,29.75 16.125,29.375 16,29 15.875,28.625 15.75,28.25 15.375,28.125 15,28 14.625,27.875 14.25,27.75 14.125,27.375 14,27 13.875,26.625 13.75,26.25 13.375,26.125 13,26 12.625,25.875 12.25,25.75 12.125,25.375 12,25 12.125,24.625 12.25,24.25 12.625,24.125 13,24 13.375,23.875 13.75,23.75 13.875,23.375 14,23 14.125,22.625 14.25,22.25 14.625,22.125 15,22 15.375,21.875 15.75,21.75 15.875,21.375 16,21 16.125,20.625 16.25,20.25 16.625,20.125 17,20 17.375,19.875 17.75,19.75 17.875,19.375 18,19 18.125,18.625 18.25,18.25 18.625,18.125 19,18 19.375,17.875 19.75,17.75 19.875,17.375 20,17 20.125,16.625 20.25,16.25 20.625,16.125 21,16 21.375,15.875 21.75,15.75 21.875,15.375 22,15 22.125,14.625"
       style="fill:#f78e56;fill-opacity:1" />
    <path
       id="path3383"
       d="m 46.125,42.625 q 0.125,-0.375 0.5,-0.5 Q 47,42 47.5,42 l 0.5,0 0,0.5 q 0,0.5 -0.125,0.875 -0.125,0.375 -0.5,0.5 Q 47,44 46.5,44 l -0.5,0 0.375,0 0.375,0 -0.25,0 q -0.25,0 -0.375,0.125 L 46,44.25 46.0625,44.1875 46.125,44.125 46.0625,43.5625 Q 46,43 46.125,42.625 M 48,42.375 48,42 48,41.875 48,41.75 48,42 q 0,0.25 0,0.5 l 0,0.25 0,-0.375"
       style="fill:#d6be9b;fill-opacity:1" />
    <path
       id="path3385"
       d="m 48.125,44.625 q 0.125,-0.375 0.5,-0.5 Q 49,44 49.5,44 l 0.5,0 0,0.5 0,0.5 0,0.5 0,0.5 0,0.5 0,0.5 0,0.5 0,0.5 0,0.5 0,0.5 0,0.5 0,0.5 0,0.5 0,0.5 0,0.5 0,0.5 -0.5,0 -0.5,0 -0.5,0 -0.5,0 -0.5,0 -0.5,0 -0.5,0 -0.5,0 -0.5,0 -0.5,0 -0.5,0 -0.5,0 -0.5,0 -0.5,0 -0.5,0 -0.5,0 0,-0.5 q 0,-0.5 0.125,-0.875 0.125,-0.375 0.5,-0.5 Q 43,50 43.5,50 q 0.5,0 1,0 0.5,0 1,0 0.5,0 0.5,-0.5 0,-0.5 0.125,-0.875 0.125,-0.375 0.5,-0.5 Q 47,48 47.5,48 48,48 48,47.5 q 0,-0.5 0,-1 0,-0.5 0,-1 0,-0.5 0.125,-0.875"
       style="fill:#000000;fill-opacity:0" />
    <path
       id="path3387"
       d="m 42.125,46.625 q 0.125,-0.375 0.5,-0.5 Q 43,46 43.5,46 q 0.5,0 1,0 0.5,0 1,0 l 0.5,0 0,0.5 q 0,0.5 -0.125,0.875 -0.125,0.375 -0.5,0.5 Q 45,48 44.5,48 q -0.5,0 -1,0 -0.5,0 -0.875,0.125 -0.375,0.125 -0.5,0.5 Q 42,49 41.875,49.375 41.75,49.75 41.375,49.875 41,50 40.5,50 q -0.5,0 -1,0 -0.5,0 -1,0 -0.5,0 -1,0 -0.5,0 -1,0 -0.5,0 -1,0 -0.5,0 -1,0 -0.5,0 -1,0 -0.5,0 -1,0 -0.5,0 -1,0 -0.5,0 -1,0 -0.5,0 -1,0 -0.5,0 -1,0 -0.5,0 -1,0 -0.5,0 -1,0 -0.5,0 -1,0 -0.5,0 -1,0 -0.5,0 -1,0 -0.5,0 -1,0 -0.5,0 -1,0 -0.5,0 -1,0 -0.5,0 -1,0 -0.5,0 -1,0 -0.5,0 -1,0 -0.5,0 -1,0 -0.5,0 -1,0 -0.5,0 -1,0 -0.5,0 -1,0 -0.5,0 -1,0 -0.5,0 -1,0 -0.5,0 -1,0 -0.5,0 -1,0 -0.5,0 -1,0 -0.5,0 -1,0 -0.5,0 -1,0 -0.5,0 -1,0 -0.5,0 -1,0 -0.5,0 -1,0 -0.5,0 -1,0 -0.5,0 -1,0 -0.5,0 -1,0 L 0,50 0,49.5 0,49 0,48.5 0,48 0.5,48 q 0.5,0 1,0 0.5,0 1,0 0.5,0 1,0 0.5,0 1,0 0.5,0 1,0 0.5,0 1,0 0.5,0 1,0 0.5,0 1,0 0.5,0 1,0 0.5,0 1,0 0.5,0 1,0 0.5,0 1,0 0.5,0 1,0 0.5,0 1,0 0.5,0 1,0 0.5,0 1,0 0.5,0 1,0 0.5,0 1,0 0.5,0 1,0 0.5,0 1,0 0.5,0 1,0 0.5,0 1,0 0.5,0 1,0 0.5,0 1,0 0.5,0 1,0 0.5,0 1,0 0.5,0 1,0 0.5,0 1,0 0.5,0 1,0 0.5,0 1,0 0.5,0 1,0 0.5,0 1,0 0.5,0 1,0 0.5,0 1,0 0.5,0 1,0 0.5,0 1,0 0.5,0 1,0 0.5,0 1,0 0.5,0 1,0 0.5,0 1,0 0.5,0 0.875,-0.125 0.375,-0.125 0.5,-0.5 Q 42,47 42.125,46.625 M 46,46.375 46,46 46,45.875 46,45.75 46,46 q 0,0.25 0,0.5 l 0,0.25 0,-0.375"
       style="fill:#d6be9b;fill-opacity:1" />
  </g>
  <g
     transform="translate(0 0)"
     id="g3389">
    <path
       style="fill:#303030;fill-opacity:1"
       d="M 0,0.5 0,0 0.5,0 1,0 1.5,0 2,0 2.5,0 3,0 3.5,0 4,0 4.5,0 5,0 5.5,0 6,0 6.5,0 7,0 7.5,0 8,0 8.5,0 9,0 9.5,0 10,0 10.5,0 11,0 11.5,0 12,0 12.5,0 13,0 13.5,0 14,0 14.5,0 15,0 15.5,0 16,0 16.5,0 17,0 17.5,0 18,0 18.5,0 19,0 19.5,0 20,0 20.5,0 21,0 21.5,0 22,0 22.5,0 23,0 23.5,0 24,0 24.5,0 25,0 25.5,0 26,0 26.5,0 27,0 27.5,0 28,0 28.5,0 29,0 29.5,0 30,0 30.5,0 31,0 31.5,0 32,0 32.5,0 33,0 33.5,0 34,0 34.5,0 35,0 35.5,0 36,0 36.5,0 37,0 37.5,0 38,0 38.5,0 39,0 39.5,0 40,0 40.5,0 41,0 41.5,0 42,0 42,0.5 q 0,0.5 0.125,0.875 0.125,0.375 0.5,0.5 Q 43,2 43.5,2 q 0.5,0 1,0 0.5,0 1,0 0.5,0 0.5,0.5 0,0.5 0.125,0.875 0.125,0.375 0.5,0.5 Q 47,4 47.5,4 48,4 48,4.5 q 0,0.5 0,1 0,0.5 0,1 0,0.5 0,1 0,0.5 0.125,0.875 0.125,0.375 0.5,0.5 Q 49,9 49.5,9 l 0.5,0 0,0.5 0,0.5 0,0.5 0,0.5 0,0.5 0,0.5 0,0.5 0,0.5 0,0.5 0,0.5 0,0.5 0,0.5 0,0.5 0,0.5 0,0.5 0,0.5 0,0.5 0,0.5 0,0.5 0,0.5 0,0.5 0,0.5 0,0.5 0,0.5 0,0.5 0,0.5 0,0.5 0,0.5 0,0.5 0,0.5 0,0.5 0,0.5 0,0.5 0,0.5 0,0.5 0,0.5 0,0.5 0,0.5 0,0.5 0,0.5 0,0.5 0,0.5 0,0.5 0,0.5 0,0.5 0,0.5 0,0.5 0,0.5 0,0.5 0,0.5 0,0.5 0,0.5 0,0.5 0,0.5 0,0.5 0,0.5 0,0.5 0,0.5 0,0.5 0,0.5 0,0.5 0,0.5 0,0.5 0,0.5 0,0.5 0,0.5 0,0.5 0,0.5 0,0.5 0,0.5 -0.5,0 q -0.5,0 -0.875,0.125 -0.375,0.125 -0.5,0.5 Q 48,45 48,45.5 q 0,0.5 0,1 0,0.5 0,1 0,0.5 -0.5,0.5 -0.5,0 -0.875,0.125 -0.375,0.125 -0.5,0.5 Q 46,49 46,49.5 46,50 45.5,50 q -0.5,0 -1,0 -0.5,0 -1,0 -0.5,0 -0.875,0.125 -0.375,0.125 -0.5,0.5 Q 42,51 42,51.5 L 42,52 41.5,52 41,52 40.5,52 40,52 39.5,52 39,52 38.5,52 38,52 37.5,52 37,52 36.5,52 36,52 35.5,52 35,52 34.5,52 34,52 33.5,52 33,52 32.5,52 32,52 31.5,52 31,52 30.5,52 30,52 29.5,52 29,52 28.5,52 28,52 27.5,52 27,52 26.5,52 26,52 25.5,52 25,52 24.5,52 24,52 23.5,52 23,52 22.5,52 22,52 21.5,52 21,52 20.5,52 20,52 19.5,52 19,52 18.5,52 18,52 17.5,52 17,52 16.5,52 16,52 15.5,52 15,52 14.5,52 14,52 13.5,52 13,52 12.5,52 12,52 11.5,52 11,52 10.5,52 10,52 9.5,52 9,52 8.5,52 8,52 7.5,52 7,52 6.5,52 6,52 5.5,52 5,52 4.5,52 4,52 3.5,52 3,52 2.5,52 2,52 1.5,52 1,52 0.5,52 0,52 0,51.5 0,51 0,50.5 0,50 0.5,50 q 0.5,0 1,0 0.5,0 1,0 0.5,0 1,0 0.5,0 1,0 0.5,0 1,0 0.5,0 1,0 0.5,0 1,0 0.5,0 1,0 0.5,0 1,0 0.5,0 1,0 0.5,0 1,0 0.5,0 1,0 0.5,0 1,0 0.5,0 1,0 0.5,0 1,0 0.5,0 1,0 0.5,0 1,0 0.5,0 1,0 0.5,0 1,0 0.5,0 1,0 0.5,0 1,0 0.5,0 1,0 0.5,0 1,0 0.5,0 1,0 0.5,0 1,0 0.5,0 1,0 0.5,0 1,0 0.5,0 1,0 0.5,0 1,0 0.5,0 1,0 0.5,0 1,0 0.5,0 1,0 0.5,0 1,0 0.5,0 1,0 0.5,0 1,0 0.5,0 1,0 0.5,0 1,0 0.5,0 1,0 0.5,0 1,0 0.5,0 1,0 0.5,0 0.875,-0.125 0.375,-0.125 0.5,-0.5 Q 42,49 42.125,48.625 42.25,48.25 42.625,48.125 43,48 43.5,48 q 0.5,0 1,0 0.5,0 0.875,-0.125 0.375,-0.125 0.5,-0.5 Q 46,47 46,46.5 q 0,-0.5 0,-1 0,-0.5 0,-1 0,-0.5 0.5,-0.5 0.5,0 0.875,-0.125 0.375,-0.125 0.5,-0.5 Q 48,43 48,42.5 q 0,-0.5 0,-1 0,-0.5 0,-1 0,-0.5 0,-1 0,-0.5 0,-1 0,-0.5 0,-1 0,-0.5 0,-1 0,-0.5 0,-1 0,-0.5 0,-1 0,-0.5 0,-1 0,-0.5 0,-1 0,-0.5 0,-1 0,-0.5 0,-1 0,-0.5 0,-1 0,-0.5 0,-1 0,-0.5 0,-1 0,-0.5 0,-1 0,-0.5 0,-1 0,-0.5 0,-1 0,-0.5 0,-1 0,-0.5 0,-1 0,-0.5 0,-1 0,-0.5 0,-1 0,-0.5 0,-1 0,-0.5 0,-1 0,-0.5 0,-1 0,-0.5 0,-1 0,-0.5 0,-1 0,-0.5 0,-1 0,-0.5 0,-1 0,-0.5 0,-1 0,-0.5 0,-1 0,-0.5 0,-1 Q 48,10 47.875,9.625 47.75,9.25 47.375,9.125 47,9 46.625,8.875 46.25,8.75 46.125,8.375 46,8 46,7.5 46,7 46,6.5 46,6 46,5.5 46,5 45.875,4.625 45.75,4.25 45.375,4.125 45,4 44.5,4 44,4 43.5,4 43,4 42.625,3.875 42.25,3.75 42.125,3.375 42,3 41.875,2.625 41.75,2.25 41.375,2.125 41,2 40.5,2 40,2 39.5,2 39,2 38.5,2 38,2 37.5,2 37,2 36.5,2 36,2 35.5,2 35,2 34.5,2 34,2 33.5,2 33,2 32.5,2 32,2 31.5,2 31,2 30.5,2 30,2 29.5,2 29,2 28.5,2 28,2 27.5,2 27,2 26.5,2 26,2 25.5,2 25,2 24.5,2 24,2 23.5,2 23,2 22.5,2 22,2 21.5,2 21,2 20.5,2 20,2 19.5,2 19,2 18.5,2 18,2 17.5,2 17,2 16.5,2 16,2 15.5,2 15,2 14.5,2 14,2 13.5,2 13,2 12.5,2 12,2 11.5,2 11,2 10.5,2 10,2 9.5,2 9,2 8.5,2 8,2 7.5,2 7,2 6.5,2 6,2 5.5,2 5,2 4.5,2 4,2 3.5,2 3,2 2.5,2 2,2 1.5,2 1,2 0.5,2 L 0,2 0,1.5 0,1 0,0.5"
       id="path3391" />
    <path
       style="fill:#000000;fill-opacity:0"
       d="M 42,0.5 42,0 42.5,0 43,0 43.5,0 44,0 44.5,0 45,0 45.5,0 46,0 46.5,0 47,0 47.5,0 48,0 48.5,0 49,0 49.5,0 50,0 50,0.5 50,1 50,1.5 50,2 50,2.5 50,3 50,3.5 50,4 50,4.5 50,5 50,5.5 50,6 50,6.5 50,7 50,7.5 50,8 50,8.5 50,9 49.5,9 Q 49,9 48.625,8.875 48.25,8.75 48.125,8.375 48,8 48,7.5 48,7 48,6.5 48,6 48,5.5 48,5 48,4.5 48,4 47.5,4 47,4 46.625,3.875 46.25,3.75 46.125,3.375 46,3 46,2.5 46,2 45.5,2 45,2 44.5,2 44,2 43.5,2 43,2 42.625,1.875 42.25,1.75 42.125,1.375 42,1 42,0.5"
       id="path3393" />
    <path
       style="fill:#fafafa;fill-opacity:1"
       d="M 0,2.5 0,2 0.5,2 q 0.5,0 1,0 0.5,0 1,0 0.5,0 1,0 0.5,0 1,0 0.5,0 1,0 0.5,0 1,0 0.5,0 1,0 0.5,0 1,0 0.5,0 1,0 0.5,0 1,0 0.5,0 1,0 0.5,0 1,0 0.5,0 1,0 0.5,0 1,0 0.5,0 1,0 0.5,0 1,0 0.5,0 1,0 0.5,0 1,0 0.5,0 1,0 0.5,0 1,0 0.5,0 1,0 0.5,0 1,0 0.5,0 1,0 0.5,0 1,0 0.5,0 1,0 0.5,0 1,0 0.5,0 1,0 0.5,0 1,0 0.5,0 1,0 0.5,0 1,0 0.5,0 1,0 0.5,0 1,0 0.5,0 1,0 0.5,0 1,0 0.5,0 1,0 0.5,0 1,0 0.5,0 1,0 0.5,0 1,0 0.5,0 1,0 0.5,0 1,0 0.5,0 0.875,0.125 0.375,0.125 0.5,0.5 Q 42,3 42.125,3.375 42.25,3.75 42.625,3.875 43,4 43.5,4 q 0.5,0 1,0 0.5,0 0.875,0.125 0.375,0.125 0.5,0.5 Q 46,5 46,5.5 q 0,0.5 0,1 0,0.5 0,1 0,0.5 0.125,0.875 0.125,0.375 0.5,0.5 Q 47,9 47.375,9.125 47.75,9.25 47.875,9.625 48,10 48,10.5 q 0,0.5 0,1 0,0.5 0,1 0,0.5 0,1 0,0.5 0,1 0,0.5 0,1 0,0.5 0,1 0,0.5 0,1 0,0.5 0,1 0,0.5 0,1 0,0.5 0,1 0,0.5 0,1 0,0.5 0,1 0,0.5 0,1 0,0.5 0,1 0,0.5 0,1 0,0.5 0,1 0,0.5 0,1 0,0.5 0,1 0,0.5 0,1 0,0.5 0,1 0,0.5 0,1 0,0.5 0,1 0,0.5 0,1 0,0.5 0,1 0,0.5 0,1 0,0.5 0,1 0,0.5 0,1 0,0.5 0,1 0,0.5 0,1 0,0.5 0,1 0,0.5 0,1 l 0,0.5 -0.5,0 q -0.5,0 -0.875,0.125 -0.375,0.125 -0.5,0.5 Q 46,43 46.0625,43.5625 L 46.125,44.125 46.1875,44.0625 46.25,44 46.125,44.125 Q 46,44.25 46,44.5 l 0,0.25 0,-0.375 0,-0.375 0,0.5 q 0,0.5 0,1 l 0,0.5 -0.5,0 q -0.5,0 -1,0 -0.5,0 -1,0 -0.5,0 -0.875,0.125 -0.375,0.125 -0.5,0.5 Q 42,47 41.875,47.375 41.75,47.75 41.375,47.875 41,48 40.5,48 q -0.5,0 -1,0 -0.5,0 -1,0 -0.5,0 -1,0 -0.5,0 -1,0 -0.5,0 -1,0 -0.5,0 -1,0 -0.5,0 -1,0 -0.5,0 -1,0 -0.5,0 -1,0 -0.5,0 -1,0 -0.5,0 -1,0 -0.5,0 -1,0 -0.5,0 -1,0 -0.5,0 -1,0 -0.5,0 -1,0 -0.5,0 -1,0 -0.5,0 -1,0 -0.5,0 -1,0 -0.5,0 -1,0 -0.5,0 -1,0 -0.5,0 -1,0 -0.5,0 -1,0 -0.5,0 -1,0 -0.5,0 -1,0 -0.5,0 -1,0 -0.5,0 -1,0 -0.5,0 -1,0 -0.5,0 -1,0 -0.5,0 -1,0 -0.5,0 -1,0 -0.5,0 -1,0 -0.5,0 -1,0 -0.5,0 -1,0 -0.5,0 -1,0 -0.5,0 -1,0 -0.5,0 -1,0 -0.5,0 -1,0 -0.5,0 -1,0 -0.5,0 -1,0 -0.5,0 -1,0 L 0,48 0,47.5 0,47 0,46.5 0,46 0,45.5 0,45 0,44.5 0,44 0,43.5 0,43 0,42.5 0,42 0,41.5 0,41 0,40.5 0,40 0,39.5 0,39 0,38.5 0,38 0,37.5 0,37 0,36.5 0,36 0,35.5 0,35 0,34.5 0,34 0,33.5 0,33 0,32.5 0,32 0,31.5 0,31 0,30.5 0,30 0,29.5 0,29 0,28.5 0,28 0,27.5 0,27 0,26.5 0,26 0,25.5 0,25 0,24.5 0,24 0,23.5 0,23 0,22.5 0,22 0,21.5 0,21 0,20.5 0,20 0,19.5 0,19 0,18.5 0,18 0,17.5 0,17 0,16.5 0,16 0,15.5 0,15 0,14.5 0,14 0,13.5 0,13 0,12.5 0,12 0,11.5 0,11 0,10.5 0,10 0,9.5 0,9 0,8.5 0,8 0,7.5 0,7 0,6.5 0,6 0,5.5 0,5 0,4.5 0,4 0,3.5 0,3 0,2.5 M 24.5,36 q 0.5,0 0.875,-0.125 0.375,-0.125 0.5,-0.5 Q 26,35 26,34.5 q 0,-0.5 0,-1 0,-0.5 0.125,-0.875 0.125,-0.375 0.5,-0.5 Q 27,32 27.5,32 q 0.5,0 1,0 0.5,0 1,0 0.5,0 1,0 0.5,0 0.875,-0.125 0.375,-0.125 0.5,-0.5 Q 32,31 32,30.5 q 0,-0.5 0,-1 0,-0.5 0,-1 0,-0.5 0,-1 0,-0.5 0,-1 0,-0.5 0,-1 0,-0.5 0,-1 0,-0.5 0,-1 0,-0.5 0,-1 0,-0.5 0,-1 0,-0.5 0,-1 0,-0.5 0,-1 0,-0.5 -0.125,-0.875 -0.125,-0.375 -0.5,-0.5 Q 31,18 30.5,18 q -0.5,0 -1,0 -0.5,0 -1,0 -0.5,0 -1,0 -0.5,0 -0.875,-0.125 -0.375,-0.125 -0.5,-0.5 Q 26,17 26,16.5 26,16 26,15.5 26,15 25.875,14.625 25.75,14.25 25.375,14.125 25,14 24.5,14 q -0.5,0 -1,0 -0.5,0 -0.875,0.125 -0.375,0.125 -0.5,0.5 -0.125,0.375 -0.25,0.75 -0.125,0.375 -0.5,0.5 -0.375,0.125 -0.75,0.25 -0.375,0.125 -0.5,0.5 -0.125,0.375 -0.25,0.75 -0.125,0.375 -0.5,0.5 -0.375,0.125 -0.75,0.25 -0.375,0.125 -0.5,0.5 -0.125,0.375 -0.25,0.75 -0.125,0.375 -0.5,0.5 -0.375,0.125 -0.75,0.25 -0.375,0.125 -0.5,0.5 -0.125,0.375 -0.25,0.75 -0.125,0.375 -0.5,0.5 -0.375,0.125 -0.75,0.25 -0.375,0.125 -0.5,0.5 -0.125,0.375 -0.25,0.75 -0.125,0.375 -0.5,0.5 -0.375,0.125 -0.75,0.25 -0.375,0.125 -0.5,0.5 -0.125,0.375 0,0.75 0.125,0.375 0.5,0.5 0.375,0.125 0.75,0.25 0.375,0.125 0.5,0.5 0.125,0.375 0.25,0.75 0.125,0.375 0.5,0.5 0.375,0.125 0.75,0.25 0.375,0.125 0.5,0.5 0.125,0.375 0.25,0.75 0.125,0.375 0.5,0.5 0.375,0.125 0.75,0.25 0.375,0.125 0.5,0.5 0.125,0.375 0.25,0.75 0.125,0.375 0.5,0.5 0.375,0.125 0.75,0.25 0.375,0.125 0.5,0.5 0.125,0.375 0.25,0.75 0.125,0.375 0.5,0.5 0.375,0.125 0.75,0.25 0.375,0.125 0.5,0.5 0.125,0.375 0.25,0.75 0.125,0.375 0.5,0.5 Q 23,36 23.5,36 q 0.5,0 1,0 M 46,46.125 46,46 l 0,-0.375 0,-0.375 0,0.25 q 0,0.25 0,0.5 l 0,0.25 0,-0.125 m 2,-4 0,-0.125 0,-0.375 0,-0.375 0,0.25 q 0,0.25 0,0.5 l 0,0.25 0,-0.125"
       id="path3395" />
    <path
       style="fill:#f78e56;fill-opacity:1"
       d="m 22.125,14.625 q 0.125,-0.375 0.5,-0.5 Q 23,14 23.5,14 q 0.5,0 1,0 0.5,0 0.875,0.125 0.375,0.125 0.5,0.5 Q 26,15 26,15.5 q 0,0.5 0,1 0,0.5 0.125,0.875 0.125,0.375 0.5,0.5 Q 27,18 27.5,18 q 0.5,0 1,0 0.5,0 1,0 0.5,0 1,0 0.5,0 0.875,0.125 0.375,0.125 0.5,0.5 Q 32,19 32,19.5 q 0,0.5 0,1 0,0.5 0,1 0,0.5 0,1 0,0.5 0,1 0,0.5 0,1 0,0.5 0,1 0,0.5 0,1 0,0.5 0,1 0,0.5 0,1 0,0.5 0,1 0,0.5 0,1 0,0.5 -0.125,0.875 -0.125,0.375 -0.5,0.5 Q 31,32 30.5,32 q -0.5,0 -1,0 -0.5,0 -1,0 -0.5,0 -1,0 -0.5,0 -0.875,0.125 -0.375,0.125 -0.5,0.5 Q 26,33 26,33.5 q 0,0.5 0,1 0,0.5 -0.125,0.875 -0.125,0.375 -0.5,0.5 Q 25,36 24.5,36 24,36 23.5,36 23,36 22.625,35.875 22.25,35.75 22.125,35.375 22,35 21.875,34.625 21.75,34.25 21.375,34.125 21,34 20.625,33.875 20.25,33.75 20.125,33.375 20,33 19.875,32.625 19.75,32.25 19.375,32.125 19,32 18.625,31.875 18.25,31.75 18.125,31.375 18,31 17.875,30.625 17.75,30.25 17.375,30.125 17,30 16.625,29.875 16.25,29.75 16.125,29.375 16,29 15.875,28.625 15.75,28.25 15.375,28.125 15,28 14.625,27.875 14.25,27.75 14.125,27.375 14,27 13.875,26.625 13.75,26.25 13.375,26.125 13,26 12.625,25.875 12.25,25.75 12.125,25.375 12,25 12.125,24.625 12.25,24.25 12.625,24.125 13,24 13.375,23.875 13.75,23.75 13.875,23.375 14,23 14.125,22.625 14.25,22.25 14.625,22.125 15,22 15.375,21.875 15.75,21.75 15.875,21.375 16,21 16.125,20.625 16.25,20.25 16.625,20.125 17,20 17.375,19.875 17.75,19.75 17.875,19.375 18,19 18.125,18.625 18.25,18.25 18.625,18.125 19,18 19.375,17.875 19.75,17.75 19.875,17.375 20,17 20.125,16.625 20.25,16.25 20.625,16.125 21,16 21.375,15.875 21.75,15.75 21.875,15.375 22,15 22.125,14.625"
       id="path3397" />
    <path
       style="fill:#d6be9b;fill-opacity:1"
       d="m 46.125,42.625 q 0.125,-0.375 0.5,-0.5 Q 47,42 47.5,42 l 0.5,0 0,0.5 q 0,0.5 -0.125,0.875 -0.125,0.375 -0.5,0.5 Q 47,44 46.5,44 l -0.5,0 0.375,0 0.375,0 -0.25,0 q -0.25,0 -0.375,0.125 L 46,44.25 46.0625,44.1875 46.125,44.125 46.0625,43.5625 Q 46,43 46.125,42.625 M 48,42.375 48,42 48,41.875 48,41.75 48,42 q 0,0.25 0,0.5 l 0,0.25 0,-0.375"
       id="path3399" />
    <path
       style="fill:#000000;fill-opacity:0"
       d="m 48.125,44.625 q 0.125,-0.375 0.5,-0.5 Q 49,44 49.5,44 l 0.5,0 0,0.5 0,0.5 0,0.5 0,0.5 0,0.5 0,0.5 0,0.5 0,0.5 0,0.5 0,0.5 0,0.5 0,0.5 0,0.5 0,0.5 0,0.5 0,0.5 -0.5,0 -0.5,0 -0.5,0 -0.5,0 -0.5,0 -0.5,0 -0.5,0 -0.5,0 -0.5,0 -0.5,0 -0.5,0 -0.5,0 -0.5,0 -0.5,0 -0.5,0 -0.5,0 0,-0.5 q 0,-0.5 0.125,-0.875 0.125,-0.375 0.5,-0.5 Q 43,50 43.5,50 q 0.5,0 1,0 0.5,0 1,0 0.5,0 0.5,-0.5 0,-0.5 0.125,-0.875 0.125,-0.375 0.5,-0.5 Q 47,48 47.5,48 48,48 48,47.5 q 0,-0.5 0,-1 0,-0.5 0,-1 0,-0.5 0.125,-0.875"
       id="path3401" />
    <path
       style="fill:#d6be9b;fill-opacity:1"
       d="m 42.125,46.625 q 0.125,-0.375 0.5,-0.5 Q 43,46 43.5,46 q 0.5,0 1,0 0.5,0 1,0 l 0.5,0 0,0.5 q 0,0.5 -0.125,0.875 -0.125,0.375 -0.5,0.5 Q 45,48 44.5,48 q -0.5,0 -1,0 -0.5,0 -0.875,0.125 -0.375,0.125 -0.5,0.5 Q 42,49 41.875,49.375 41.75,49.75 41.375,49.875 41,50 40.5,50 q -0.5,0 -1,0 -0.5,0 -1,0 -0.5,0 -1,0 -0.5,0 -1,0 -0.5,0 -1,0 -0.5,0 -1,0 -0.5,0 -1,0 -0.5,0 -1,0 -0.5,0 -1,0 -0.5,0 -1,0 -0.5,0 -1,0 -0.5,0 -1,0 -0.5,0 -1,0 -0.5,0 -1,0 -0.5,0 -1,0 -0.5,0 -1,0 -0.5,0 -1,0 -0.5,0 -1,0 -0.5,0 -1,0 -0.5,0 -1,0 -0.5,0 -1,0 -0.5,0 -1,0 -0.5,0 -1,0 -0.5,0 -1,0 -0.5,0 -1,0 -0.5,0 -1,0 -0.5,0 -1,0 -0.5,0 -1,0 -0.5,0 -1,0 -0.5,0 -1,0 -0.5,0 -1,0 -0.5,0 -1,0 -0.5,0 -1,0 -0.5,0 -1,0 -0.5,0 -1,0 -0.5,0 -1,0 -0.5,0 -1,0 -0.5,0 -1,0 -0.5,0 -1,0 -0.5,0 -1,0 L 0,50 0,49.5 0,49 0,48.5 0,48 0.5,48 q 0.5,0 1,0 0.5,0 1,0 0.5,0 1,0 0.5,0 1,0 0.5,0 1,0 0.5,0 1,0 0.5,0 1,0 0.5,0 1,0 0.5,0 1,0 0.5,0 1,0 0.5,0 1,0 0.5,0 1,0 0.5,0 1,0 0.5,0 1,0 0.5,0 1,0 0.5,0 1,0 0.5,0 1,0 0.5,0 1,0 0.5,0 1,0 0.5,0 1,0 0.5,0 1,0 0.5,0 1,0 0.5,0 1,0 0.5,0 1,0 0.5,0 1,0 0.5,0 1,0 0.5,0 1,0 0.5,0 1,0 0.5,0 1,0 0.5,0 1,0 0.5,0 1,0 0.5,0 1,0 0.5,0 1,0 0.5,0 1,0 0.5,0 1,0 0.5,0 1,0 0.5,0 1,0 0.5,0 1,0 0.5,0 1,0 0.5,0 1,0 0.5,0 0.875,-0.125 0.375,-0.125 0.5,-0.5 Q 42,47 42.125,46.625 M 46,46.375 46,46 46,45.875 46,45.75 46,46 q 0,0.25 0,0.5 l 0,0.25 0,-0.375"
       id="path3403" />
  </g>
  <g
     id="g3405"
     transform="translate(0 0)">
    <path
       id="path3407"
       d="M 0,0.5 0,0 0.5,0 1,0 1.5,0 2,0 2.5,0 3,0 3.5,0 4,0 4.5,0 5,0 5.5,0 6,0 6.5,0 7,0 7.5,0 8,0 8.5,0 9,0 9.5,0 10,0 10.5,0 11,0 11.5,0 12,0 12.5,0 13,0 13.5,0 14,0 14.5,0 15,0 15.5,0 16,0 16.5,0 17,0 17.5,0 18,0 18.5,0 19,0 19.5,0 20,0 20.5,0 21,0 21.5,0 22,0 22.5,0 23,0 23.5,0 24,0 24.5,0 25,0 25.5,0 26,0 26.5,0 27,0 27.5,0 28,0 28.5,0 29,0 29.5,0 30,0 30.5,0 31,0 31.5,0 32,0 32.5,0 33,0 33.5,0 34,0 34.5,0 35,0 35.5,0 36,0 36.5,0 37,0 37.5,0 38,0 38.5,0 39,0 39.5,0 40,0 40.5,0 41,0 41.5,0 42,0 42,0.5 q 0,0.5 0.125,0.875 0.125,0.375 0.5,0.5 Q 43,2 43.5,2 q 0.5,0 1,0 0.5,0 1,0 0.5,0 0.5,0.5 0,0.5 0.125,0.875 0.125,0.375 0.5,0.5 Q 47,4 47.5,4 48,4 48,4.5 q 0,0.5 0,1 0,0.5 0,1 0,0.5 0,1 0,0.5 0.125,0.875 0.125,0.375 0.5,0.5 Q 49,9 49.5,9 l 0.5,0 0,0.5 0,0.5 0,0.5 0,0.5 0,0.5 0,0.5 0,0.5 0,0.5 0,0.5 0,0.5 0,0.5 0,0.5 0,0.5 0,0.5 0,0.5 0,0.5 0,0.5 0,0.5 0,0.5 0,0.5 0,0.5 0,0.5 0,0.5 0,0.5 0,0.5 0,0.5 0,0.5 0,0.5 0,0.5 0,0.5 0,0.5 0,0.5 0,0.5 0,0.5 0,0.5 0,0.5 0,0.5 0,0.5 0,0.5 0,0.5 0,0.5 0,0.5 0,0.5 0,0.5 0,0.5 0,0.5 0,0.5 0,0.5 0,0.5 0,0.5 0,0.5 0,0.5 0,0.5 0,0.5 0,0.5 0,0.5 0,0.5 0,0.5 0,0.5 0,0.5 0,0.5 0,0.5 0,0.5 0,0.5 0,0.5 0,0.5 0,0.5 0,0.5 0,0.5 0,0.5 -0.5,0 q -0.5,0 -0.875,0.125 -0.375,0.125 -0.5,0.5 Q 48,45 48,45.5 q 0,0.5 0,1 0,0.5 0,1 0,0.5 -0.5,0.5 -0.5,0 -0.875,0.125 -0.375,0.125 -0.5,0.5 Q 46,49 46,49.5 46,50 45.5,50 q -0.5,0 -1,0 -0.5,0 -1,0 -0.5,0 -0.875,0.125 -0.375,0.125 -0.5,0.5 Q 42,51 42,51.5 L 42,52 41.5,52 41,52 40.5,52 40,52 39.5,52 39,52 38.5,52 38,52 37.5,52 37,52 36.5,52 36,52 35.5,52 35,52 34.5,52 34,52 33.5,52 33,52 32.5,52 32,52 31.5,52 31,52 30.5,52 30,52 29.5,52 29,52 28.5,52 28,52 27.5,52 27,52 26.5,52 26,52 25.5,52 25,52 24.5,52 24,52 23.5,52 23,52 22.5,52 22,52 21.5,52 21,52 20.5,52 20,52 19.5,52 19,52 18.5,52 18,52 17.5,52 17,52 16.5,52 16,52 15.5,52 15,52 14.5,52 14,52 13.5,52 13,52 12.5,52 12,52 11.5,52 11,52 10.5,52 10,52 9.5,52 9,52 8.5,52 8,52 7.5,52 7,52 6.5,52 6,52 5.5,52 5,52 4.5,52 4,52 3.5,52 3,52 2.5,52 2,52 1.5,52 1,52 0.5,52 0,52 0,51.5 0,51 0,50.5 0,50 0.5,50 q 0.5,0 1,0 0.5,0 1,0 0.5,0 1,0 0.5,0 1,0 0.5,0 1,0 0.5,0 1,0 0.5,0 1,0 0.5,0 1,0 0.5,0 1,0 0.5,0 1,0 0.5,0 1,0 0.5,0 1,0 0.5,0 1,0 0.5,0 1,0 0.5,0 1,0 0.5,0 1,0 0.5,0 1,0 0.5,0 1,0 0.5,0 1,0 0.5,0 1,0 0.5,0 1,0 0.5,0 1,0 0.5,0 1,0 0.5,0 1,0 0.5,0 1,0 0.5,0 1,0 0.5,0 1,0 0.5,0 1,0 0.5,0 1,0 0.5,0 1,0 0.5,0 1,0 0.5,0 1,0 0.5,0 1,0 0.5,0 1,0 0.5,0 1,0 0.5,0 1,0 0.5,0 1,0 0.5,0 1,0 0.5,0 1,0 0.5,0 1,0 0.5,0 0.875,-0.125 0.375,-0.125 0.5,-0.5 Q 42,49 42.125,48.625 42.25,48.25 42.625,48.125 43,48 43.5,48 q 0.5,0 1,0 0.5,0 0.875,-0.125 0.375,-0.125 0.5,-0.5 Q 46,47 46,46.5 q 0,-0.5 0,-1 0,-0.5 0,-1 0,-0.5 0.5,-0.5 0.5,0 0.875,-0.125 0.375,-0.125 0.5,-0.5 Q 48,43 48,42.5 q 0,-0.5 0,-1 0,-0.5 0,-1 0,-0.5 0,-1 0,-0.5 0,-1 0,-0.5 0,-1 0,-0.5 0,-1 0,-0.5 0,-1 0,-0.5 0,-1 0,-0.5 0,-1 0,-0.5 0,-1 0,-0.5 0,-1 0,-0.5 0,-1 0,-0.5 0,-1 0,-0.5 0,-1 0,-0.5 0,-1 0,-0.5 0,-1 0,-0.5 0,-1 0,-0.5 0,-1 0,-0.5 0,-1 0,-0.5 0,-1 0,-0.5 0,-1 0,-0.5 0,-1 0,-0.5 0,-1 0,-0.5 0,-1 0,-0.5 0,-1 0,-0.5 0,-1 0,-0.5 0,-1 0,-0.5 0,-1 0,-0.5 0,-1 0,-0.5 0,-1 0,-0.5 0,-1 0,-0.5 0,-1 Q 48,10 47.875,9.625 47.75,9.25 47.375,9.125 47,9 46.625,8.875 46.25,8.75 46.125,8.375 46,8 46,7.5 46,7 46,6.5 46,6 46,5.5 46,5 45.875,4.625 45.75,4.25 45.375,4.125 45,4 44.5,4 44,4 43.5,4 43,4 42.625,3.875 42.25,3.75 42.125,3.375 42,3 41.875,2.625 41.75,2.25 41.375,2.125 41,2 40.5,2 40,2 39.5,2 39,2 38.5,2 38,2 37.5,2 37,2 36.5,2 36,2 35.5,2 35,2 34.5,2 34,2 33.5,2 33,2 32.5,2 32,2 31.5,2 31,2 30.5,2 30,2 29.5,2 29,2 28.5,2 28,2 27.5,2 27,2 26.5,2 26,2 25.5,2 25,2 24.5,2 24,2 23.5,2 23,2 22.5,2 22,2 21.5,2 21,2 20.5,2 20,2 19.5,2 19,2 18.5,2 18,2 17.5,2 17,2 16.5,2 16,2 15.5,2 15,2 14.5,2 14,2 13.5,2 13,2 12.5,2 12,2 11.5,2 11,2 10.5,2 10,2 9.5,2 9,2 8.5,2 8,2 7.5,2 7,2 6.5,2 6,2 5.5,2 5,2 4.5,2 4,2 3.5,2 3,2 2.5,2 2,2 1.5,2 1,2 0.5,2 L 0,2 0,1.5 0,1 0,0.5"
       style="fill:#303030;fill-opacity:1" />
    <path
       id="path3409"
       d="M 42,0.5 42,0 42.5,0 43,0 43.5,0 44,0 44.5,0 45,0 45.5,0 46,0 46.5,0 47,0 47.5,0 48,0 48.5,0 49,0 49.5,0 50,0 50,0.5 50,1 50,1.5 50,2 50,2.5 50,3 50,3.5 50,4 50,4.5 50,5 50,5.5 50,6 50,6.5 50,7 50,7.5 50,8 50,8.5 50,9 49.5,9 Q 49,9 48.625,8.875 48.25,8.75 48.125,8.375 48,8 48,7.5 48,7 48,6.5 48,6 48,5.5 48,5 48,4.5 48,4 47.5,4 47,4 46.625,3.875 46.25,3.75 46.125,3.375 46,3 46,2.5 46,2 45.5,2 45,2 44.5,2 44,2 43.5,2 43,2 42.625,1.875 42.25,1.75 42.125,1.375 42,1 42,0.5"
       style="fill:#000000;fill-opacity:0" />
    <path
       id="path3411"
       d="M 0,2.5 0,2 0.5,2 q 0.5,0 1,0 0.5,0 1,0 0.5,0 1,0 0.5,0 1,0 0.5,0 1,0 0.5,0 1,0 0.5,0 1,0 0.5,0 1,0 0.5,0 1,0 0.5,0 1,0 0.5,0 1,0 0.5,0 1,0 0.5,0 1,0 0.5,0 1,0 0.5,0 1,0 0.5,0 1,0 0.5,0 1,0 0.5,0 1,0 0.5,0 1,0 0.5,0 1,0 0.5,0 1,0 0.5,0 1,0 0.5,0 1,0 0.5,0 1,0 0.5,0 1,0 0.5,0 1,0 0.5,0 1,0 0.5,0 1,0 0.5,0 1,0 0.5,0 1,0 0.5,0 1,0 0.5,0 1,0 0.5,0 1,0 0.5,0 1,0 0.5,0 1,0 0.5,0 1,0 0.5,0 1,0 0.5,0 1,0 0.5,0 1,0 0.5,0 1,0 0.5,0 0.875,0.125 0.375,0.125 0.5,0.5 Q 42,3 42.125,3.375 42.25,3.75 42.625,3.875 43,4 43.5,4 q 0.5,0 1,0 0.5,0 0.875,0.125 0.375,0.125 0.5,0.5 Q 46,5 46,5.5 q 0,0.5 0,1 0,0.5 0,1 0,0.5 0.125,0.875 0.125,0.375 0.5,0.5 Q 47,9 47.375,9.125 47.75,9.25 47.875,9.625 48,10 48,10.5 q 0,0.5 0,1 0,0.5 0,1 0,0.5 0,1 0,0.5 0,1 0,0.5 0,1 0,0.5 0,1 0,0.5 0,1 0,0.5 0,1 0,0.5 0,1 0,0.5 0,1 0,0.5 0,1 0,0.5 0,1 0,0.5 0,1 0,0.5 0,1 0,0.5 0,1 0,0.5 0,1 0,0.5 0,1 0,0.5 0,1 0,0.5 0,1 0,0.5 0,1 0,0.5 0,1 0,0.5 0,1 0,0.5 0,1 0,0.5 0,1 0,0.5 0,1 0,0.5 0,1 0,0.5 0,1 0,0.5 0,1 0,0.5 0,1 0,0.5 0,1 0,0.5 0,1 l 0,0.5 -0.5,0 q -0.5,0 -0.875,0.125 -0.375,0.125 -0.5,0.5 Q 46,43 46.0625,43.5625 L 46.125,44.125 46.1875,44.0625 46.25,44 46.125,44.125 Q 46,44.25 46,44.5 l 0,0.25 0,-0.375 0,-0.375 0,0.5 q 0,0.5 0,1 l 0,0.5 -0.5,0 q -0.5,0 -1,0 -0.5,0 -1,0 -0.5,0 -0.875,0.125 -0.375,0.125 -0.5,0.5 Q 42,47 41.875,47.375 41.75,47.75 41.375,47.875 41,48 40.5,48 q -0.5,0 -1,0 -0.5,0 -1,0 -0.5,0 -1,0 -0.5,0 -1,0 -0.5,0 -1,0 -0.5,0 -1,0 -0.5,0 -1,0 -0.5,0 -1,0 -0.5,0 -1,0 -0.5,0 -1,0 -0.5,0 -1,0 -0.5,0 -1,0 -0.5,0 -1,0 -0.5,0 -1,0 -0.5,0 -1,0 -0.5,0 -1,0 -0.5,0 -1,0 -0.5,0 -1,0 -0.5,0 -1,0 -0.5,0 -1,0 -0.5,0 -1,0 -0.5,0 -1,0 -0.5,0 -1,0 -0.5,0 -1,0 -0.5,0 -1,0 -0.5,0 -1,0 -0.5,0 -1,0 -0.5,0 -1,0 -0.5,0 -1,0 -0.5,0 -1,0 -0.5,0 -1,0 -0.5,0 -1,0 -0.5,0 -1,0 -0.5,0 -1,0 -0.5,0 -1,0 -0.5,0 -1,0 -0.5,0 -1,0 -0.5,0 -1,0 -0.5,0 -1,0 -0.5,0 -1,0 L 0,48 0,47.5 0,47 0,46.5 0,46 0,45.5 0,45 0,44.5 0,44 0,43.5 0,43 0,42.5 0,42 0,41.5 0,41 0,40.5 0,40 0,39.5 0,39 0,38.5 0,38 0,37.5 0,37 0,36.5 0,36 0,35.5 0,35 0,34.5 0,34 0,33.5 0,33 0,32.5 0,32 0,31.5 0,31 0,30.5 0,30 0,29.5 0,29 0,28.5 0,28 0,27.5 0,27 0,26.5 0,26 0,25.5 0,25 0,24.5 0,24 0,23.5 0,23 0,22.5 0,22 0,21.5 0,21 0,20.5 0,20 0,19.5 0,19 0,18.5 0,18 0,17.5 0,17 0,16.5 0,16 0,15.5 0,15 0,14.5 0,14 0,13.5 0,13 0,12.5 0,12 0,11.5 0,11 0,10.5 0,10 0,9.5 0,9 0,8.5 0,8 0,7.5 0,7 0,6.5 0,6 0,5.5 0,5 0,4.5 0,4 0,3.5 0,3 0,2.5 M 24.5,36 q 0.5,0 0.875,-0.125 0.375,-0.125 0.5,-0.5 Q 26,35 26,34.5 q 0,-0.5 0,-1 0,-0.5 0.125,-0.875 0.125,-0.375 0.5,-0.5 Q 27,32 27.5,32 q 0.5,0 1,0 0.5,0 1,0 0.5,0 1,0 0.5,0 0.875,-0.125 0.375,-0.125 0.5,-0.5 Q 32,31 32,30.5 q 0,-0.5 0,-1 0,-0.5 0,-1 0,-0.5 0,-1 0,-0.5 0,-1 0,-0.5 0,-1 0,-0.5 0,-1 0,-0.5 0,-1 0,-0.5 0,-1 0,-0.5 0,-1 0,-0.5 0,-1 0,-0.5 0,-1 0,-0.5 -0.125,-0.875 -0.125,-0.375 -0.5,-0.5 Q 31,18 30.5,18 q -0.5,0 -1,0 -0.5,0 -1,0 -0.5,0 -1,0 -0.5,0 -0.875,-0.125 -0.375,-0.125 -0.5,-0.5 Q 26,17 26,16.5 26,16 26,15.5 26,15 25.875,14.625 25.75,14.25 25.375,14.125 25,14 24.5,14 q -0.5,0 -1,0 -0.5,0 -0.875,0.125 -0.375,0.125 -0.5,0.5 -0.125,0.375 -0.25,0.75 -0.125,0.375 -0.5,0.5 -0.375,0.125 -0.75,0.25 -0.375,0.125 -0.5,0.5 -0.125,0.375 -0.25,0.75 -0.125,0.375 -0.5,0.5 -0.375,0.125 -0.75,0.25 -0.375,0.125 -0.5,0.5 -0.125,0.375 -0.25,0.75 -0.125,0.375 -0.5,0.5 -0.375,0.125 -0.75,0.25 -0.375,0.125 -0.5,0.5 -0.125,0.375 -0.25,0.75 -0.125,0.375 -0.5,0.5 -0.375,0.125 -0.75,0.25 -0.375,0.125 -0.5,0.5 -0.125,0.375 -0.25,0.75 -0.125,0.375 -0.5,0.5 -0.375,0.125 -0.75,0.25 -0.375,0.125 -0.5,0.5 -0.125,0.375 0,0.75 0.125,0.375 0.5,0.5 0.375,0.125 0.75,0.25 0.375,0.125 0.5,0.5 0.125,0.375 0.25,0.75 0.125,0.375 0.5,0.5 0.375,0.125 0.75,0.25 0.375,0.125 0.5,0.5 0.125,0.375 0.25,0.75 0.125,0.375 0.5,0.5 0.375,0.125 0.75,0.25 0.375,0.125 0.5,0.5 0.125,0.375 0.25,0.75 0.125,0.375 0.5,0.5 0.375,0.125 0.75,0.25 0.375,0.125 0.5,0.5 0.125,0.375 0.25,0.75 0.125,0.375 0.5,0.5 0.375,0.125 0.75,0.25 0.375,0.125 0.5,0.5 0.125,0.375 0.25,0.75 0.125,0.375 0.5,0.5 Q 23,36 23.5,36 q 0.5,0 1,0 M 46,46.125 46,46 l 0,-0.375 0,-0.375 0,0.25 q 0,0.25 0,0.5 l 0,0.25 0,-0.125 m 2,-4 0,-0.125 0,-0.375 0,-0.375 0,0.25 q 0,0.25 0,0.5 l 0,0.25 0,-0.125"
       style="fill:#fafafa;fill-opacity:1" />
    <path
       id="path3413"
       d="m 22.125,14.625 q 0.125,-0.375 0.5,-0.5 Q 23,14 23.5,14 q 0.5,0 1,0 0.5,0 0.875,0.125 0.375,0.125 0.5,0.5 Q 26,15 26,15.5 q 0,0.5 0,1 0,0.5 0.125,0.875 0.125,0.375 0.5,0.5 Q 27,18 27.5,18 q 0.5,0 1,0 0.5,0 1,0 0.5,0 1,0 0.5,0 0.875,0.125 0.375,0.125 0.5,0.5 Q 32,19 32,19.5 q 0,0.5 0,1 0,0.5 0,1 0,0.5 0,1 0,0.5 0,1 0,0.5 0,1 0,0.5 0,1 0,0.5 0,1 0,0.5 0,1 0,0.5 0,1 0,0.5 0,1 0,0.5 0,1 0,0.5 -0.125,0.875 -0.125,0.375 -0.5,0.5 Q 31,32 30.5,32 q -0.5,0 -1,0 -0.5,0 -1,0 -0.5,0 -1,0 -0.5,0 -0.875,0.125 -0.375,0.125 -0.5,0.5 Q 26,33 26,33.5 q 0,0.5 0,1 0,0.5 -0.125,0.875 -0.125,0.375 -0.5,0.5 Q 25,36 24.5,36 24,36 23.5,36 23,36 22.625,35.875 22.25,35.75 22.125,35.375 22,35 21.875,34.625 21.75,34.25 21.375,34.125 21,34 20.625,33.875 20.25,33.75 20.125,33.375 20,33 19.875,32.625 19.75,32.25 19.375,32.125 19,32 18.625,31.875 18.25,31.75 18.125,31.375 18,31 17.875,30.625 17.75,30.25 17.375,30.125 17,30 16.625,29.875 16.25,29.75 16.125,29.375 16,29 15.875,28.625 15.75,28.25 15.375,28.125 15,28 14.625,27.875 14.25,27.75 14.125,27.375 14,27 13.875,26.625 13.75,26.25 13.375,26.125 13,26 12.625,25.875 12.25,25.75 12.125,25.375 12,25 12.125,24.625 12.25,24.25 12.625,24.125 13,24 13.375,23.875 13.75,23.75 13.875,23.375 14,23 14.125,22.625 14.25,22.25 14.625,22.125 15,22 15.375,21.875 15.75,21.75 15.875,21.375 16,21 16.125,20.625 16.25,20.25 16.625,20.125 17,20 17.375,19.875 17.75,19.75 17.875,19.375 18,19 18.125,18.625 18.25,18.25 18.625,18.125 19,18 19.375,17.875 19.75,17.75 19.875,17.375 20,17 20.125,16.625 20.25,16.25 20.625,16.125 21,16 21.375,15.875 21.75,15.75 21.875,15.375 22,15 22.125,14.625"
       style="fill:#f78e56;fill-opacity:1" />
    <path
       id="path3415"
       d="m 46.125,42.625 q 0.125,-0.375 0.5,-0.5 Q 47,42 47.5,42 l 0.5,0 0,0.5 q 0,0.5 -0.125,0.875 -0.125,0.375 -0.5,0.5 Q 47,44 46.5,44 l -0.5,0 0.375,0 0.375,0 -0.25,0 q -0.25,0 -0.375,0.125 L 46,44.25 46.0625,44.1875 46.125,44.125 46.0625,43.5625 Q 46,43 46.125,42.625 M 48,42.375 48,42 48,41.875 48,41.75 48,42 q 0,0.25 0,0.5 l 0,0.25 0,-0.375"
       style="fill:#d6be9b;fill-opacity:1" />
    <path
       id="path3417"
       d="m 48.125,44.625 q 0.125,-0.375 0.5,-0.5 Q 49,44 49.5,44 l 0.5,0 0,0.5 0,0.5 0,0.5 0,0.5 0,0.5 0,0.5 0,0.5 0,0.5 0,0.5 0,0.5 0,0.5 0,0.5 0,0.5 0,0.5 0,0.5 0,0.5 -0.5,0 -0.5,0 -0.5,0 -0.5,0 -0.5,0 -0.5,0 -0.5,0 -0.5,0 -0.5,0 -0.5,0 -0.5,0 -0.5,0 -0.5,0 -0.5,0 -0.5,0 -0.5,0 0,-0.5 q 0,-0.5 0.125,-0.875 0.125,-0.375 0.5,-0.5 Q 43,50 43.5,50 q 0.5,0 1,0 0.5,0 1,0 0.5,0 0.5,-0.5 0,-0.5 0.125,-0.875 0.125,-0.375 0.5,-0.5 Q 47,48 47.5,48 48,48 48,47.5 q 0,-0.5 0,-1 0,-0.5 0,-1 0,-0.5 0.125,-0.875"
       style="fill:#000000;fill-opacity:0" />
    <path
       id="path3419"
       d="m 42.125,46.625 q 0.125,-0.375 0.5,-0.5 Q 43,46 43.5,46 q 0.5,0 1,0 0.5,0 1,0 l 0.5,0 0,0.5 q 0,0.5 -0.125,0.875 -0.125,0.375 -0.5,0.5 Q 45,48 44.5,48 q -0.5,0 -1,0 -0.5,0 -0.875,0.125 -0.375,0.125 -0.5,0.5 Q 42,49 41.875,49.375 41.75,49.75 41.375,49.875 41,50 40.5,50 q -0.5,0 -1,0 -0.5,0 -1,0 -0.5,0 -1,0 -0.5,0 -1,0 -0.5,0 -1,0 -0.5,0 -1,0 -0.5,0 -1,0 -0.5,0 -1,0 -0.5,0 -1,0 -0.5,0 -1,0 -0.5,0 -1,0 -0.5,0 -1,0 -0.5,0 -1,0 -0.5,0 -1,0 -0.5,0 -1,0 -0.5,0 -1,0 -0.5,0 -1,0 -0.5,0 -1,0 -0.5,0 -1,0 -0.5,0 -1,0 -0.5,0 -1,0 -0.5,0 -1,0 -0.5,0 -1,0 -0.5,0 -1,0 -0.5,0 -1,0 -0.5,0 -1,0 -0.5,0 -1,0 -0.5,0 -1,0 -0.5,0 -1,0 -0.5,0 -1,0 -0.5,0 -1,0 -0.5,0 -1,0 -0.5,0 -1,0 -0.5,0 -1,0 -0.5,0 -1,0 -0.5,0 -1,0 -0.5,0 -1,0 -0.5,0 -1,0 -0.5,0 -1,0 -0.5,0 -1,0 L 0,50 0,49.5 0,49 0,48.5 0,48 0.5,48 q 0.5,0 1,0 0.5,0 1,0 0.5,0 1,0 0.5,0 1,0 0.5,0 1,0 0.5,0 1,0 0.5,0 1,0 0.5,0 1,0 0.5,0 1,0 0.5,0 1,0 0.5,0 1,0 0.5,0 1,0 0.5,0 1,0 0.5,0 1,0 0.5,0 1,0 0.5,0 1,0 0.5,0 1,0 0.5,0 1,0 0.5,0 1,0 0.5,0 1,0 0.5,0 1,0 0.5,0 1,0 0.5,0 1,0 0.5,0 1,0 0.5,0 1,0 0.5,0 1,0 0.5,0 1,0 0.5,0 1,0 0.5,0 1,0 0.5,0 1,0 0.5,0 1,0 0.5,0 1,0 0.5,0 1,0 0.5,0 1,0 0.5,0 1,0 0.5,0 1,0 0.5,0 1,0 0.5,0 1,0 0.5,0 1,0 0.5,0 1,0 0.5,0 0.875,-0.125 0.375,-0.125 0.5,-0.5 Q 42,47 42.125,46.625 M 46,46.375 46,46 46,45.875 46,45.75 46,46 q 0,0.25 0,0.5 l 0,0.25 0,-0.375"
       style="fill:#d6be9b;fill-opacity:1" />
  </g>
  <g
     transform="translate(0 0)"
     id="g3421">
    <path
       style="fill:#303030;fill-opacity:1"
       d="M 0,0.5 0,0 0.5,0 1,0 1.5,0 2,0 2.5,0 3,0 3.5,0 4,0 4.5,0 5,0 5.5,0 6,0 6.5,0 7,0 7.5,0 8,0 8.5,0 9,0 9.5,0 10,0 10.5,0 11,0 11.5,0 12,0 12.5,0 13,0 13.5,0 14,0 14.5,0 15,0 15.5,0 16,0 16.5,0 17,0 17.5,0 18,0 18.5,0 19,0 19.5,0 20,0 20.5,0 21,0 21.5,0 22,0 22.5,0 23,0 23.5,0 24,0 24.5,0 25,0 25.5,0 26,0 26.5,0 27,0 27.5,0 28,0 28.5,0 29,0 29.5,0 30,0 30.5,0 31,0 31.5,0 32,0 32.5,0 33,0 33.5,0 34,0 34.5,0 35,0 35.5,0 36,0 36.5,0 37,0 37.5,0 38,0 38.5,0 39,0 39.5,0 40,0 40.5,0 41,0 41.5,0 42,0 42,0.5 q 0,0.5 0.125,0.875 0.125,0.375 0.5,0.5 Q 43,2 43.5,2 q 0.5,0 1,0 0.5,0 1,0 0.5,0 0.5,0.5 0,0.5 0.125,0.875 0.125,0.375 0.5,0.5 Q 47,4 47.5,4 48,4 48,4.5 q 0,0.5 0,1 0,0.5 0,1 0,0.5 0,1 0,0.5 0.125,0.875 0.125,0.375 0.5,0.5 Q 49,9 49.5,9 l 0.5,0 0,0.5 0,0.5 0,0.5 0,0.5 0,0.5 0,0.5 0,0.5 0,0.5 0,0.5 0,0.5 0,0.5 0,0.5 0,0.5 0,0.5 0,0.5 0,0.5 0,0.5 0,0.5 0,0.5 0,0.5 0,0.5 0,0.5 0,0.5 0,0.5 0,0.5 0,0.5 0,0.5 0,0.5 0,0.5 0,0.5 0,0.5 0,0.5 0,0.5 0,0.5 0,0.5 0,0.5 0,0.5 0,0.5 0,0.5 0,0.5 0,0.5 0,0.5 0,0.5 0,0.5 0,0.5 0,0.5 0,0.5 0,0.5 0,0.5 0,0.5 0,0.5 0,0.5 0,0.5 0,0.5 0,0.5 0,0.5 0,0.5 0,0.5 0,0.5 0,0.5 0,0.5 0,0.5 0,0.5 0,0.5 0,0.5 0,0.5 0,0.5 0,0.5 0,0.5 0,0.5 -0.5,0 q -0.5,0 -0.875,0.125 -0.375,0.125 -0.5,0.5 Q 48,45 48,45.5 q 0,0.5 0,1 0,0.5 0,1 0,0.5 -0.5,0.5 -0.5,0 -0.875,0.125 -0.375,0.125 -0.5,0.5 Q 46,49 46,49.5 46,50 45.5,50 q -0.5,0 -1,0 -0.5,0 -1,0 -0.5,0 -0.875,0.125 -0.375,0.125 -0.5,0.5 Q 42,51 42,51.5 L 42,52 41.5,52 41,52 40.5,52 40,52 39.5,52 39,52 38.5,52 38,52 37.5,52 37,52 36.5,52 36,52 35.5,52 35,52 34.5,52 34,52 33.5,52 33,52 32.5,52 32,52 31.5,52 31,52 30.5,52 30,52 29.5,52 29,52 28.5,52 28,52 27.5,52 27,52 26.5,52 26,52 25.5,52 25,52 24.5,52 24,52 23.5,52 23,52 22.5,52 22,52 21.5,52 21,52 20.5,52 20,52 19.5,52 19,52 18.5,52 18,52 17.5,52 17,52 16.5,52 16,52 15.5,52 15,52 14.5,52 14,52 13.5,52 13,52 12.5,52 12,52 11.5,52 11,52 10.5,52 10,52 9.5,52 9,52 8.5,52 8,52 7.5,52 7,52 6.5,52 6,52 5.5,52 5,52 4.5,52 4,52 3.5,52 3,52 2.5,52 2,52 1.5,52 1,52 0.5,52 0,52 0,51.5 0,51 0,50.5 0,50 0.5,50 q 0.5,0 1,0 0.5,0 1,0 0.5,0 1,0 0.5,0 1,0 0.5,0 1,0 0.5,0 1,0 0.5,0 1,0 0.5,0 1,0 0.5,0 1,0 0.5,0 1,0 0.5,0 1,0 0.5,0 1,0 0.5,0 1,0 0.5,0 1,0 0.5,0 1,0 0.5,0 1,0 0.5,0 1,0 0.5,0 1,0 0.5,0 1,0 0.5,0 1,0 0.5,0 1,0 0.5,0 1,0 0.5,0 1,0 0.5,0 1,0 0.5,0 1,0 0.5,0 1,0 0.5,0 1,0 0.5,0 1,0 0.5,0 1,0 0.5,0 1,0 0.5,0 1,0 0.5,0 1,0 0.5,0 1,0 0.5,0 1,0 0.5,0 1,0 0.5,0 1,0 0.5,0 1,0 0.5,0 1,0 0.5,0 1,0 0.5,0 1,0 0.5,0 0.875,-0.125 0.375,-0.125 0.5,-0.5 Q 42,49 42.125,48.625 42.25,48.25 42.625,48.125 43,48 43.5,48 q 0.5,0 1,0 0.5,0 0.875,-0.125 0.375,-0.125 0.5,-0.5 Q 46,47 46,46.5 q 0,-0.5 0,-1 0,-0.5 0,-1 0,-0.5 0.5,-0.5 0.5,0 0.875,-0.125 0.375,-0.125 0.5,-0.5 Q 48,43 48,42.5 q 0,-0.5 0,-1 0,-0.5 0,-1 0,-0.5 0,-1 0,-0.5 0,-1 0,-0.5 0,-1 0,-0.5 0,-1 0,-0.5 0,-1 0,-0.5 0,-1 0,-0.5 0,-1 0,-0.5 0,-1 0,-0.5 0,-1 0,-0.5 0,-1 0,-0.5 0,-1 0,-0.5 0,-1 0,-0.5 0,-1 0,-0.5 0,-1 0,-0.5 0,-1 0,-0.5 0,-1 0,-0.5 0,-1 0,-0.5 0,-1 0,-0.5 0,-1 0,-0.5 0,-1 0,-0.5 0,-1 0,-0.5 0,-1 0,-0.5 0,-1 0,-0.5 0,-1 0,-0.5 0,-1 0,-0.5 0,-1 0,-0.5 0,-1 0,-0.5 0,-1 0,-0.5 0,-1 0,-0.5 0,-1 Q 48,10 47.875,9.625 47.75,9.25 47.375,9.125 47,9 46.625,8.875 46.25,8.75 46.125,8.375 46,8 46,7.5 46,7 46,6.5 46,6 46,5.5 46,5 45.875,4.625 45.75,4.25 45.375,4.125 45,4 44.5,4 44,4 43.5,4 43,4 42.625,3.875 42.25,3.75 42.125,3.375 42,3 41.875,2.625 41.75,2.25 41.375,2.125 41,2 40.5,2 40,2 39.5,2 39,2 38.5,2 38,2 37.5,2 37,2 36.5,2 36,2 35.5,2 35,2 34.5,2 34,2 33.5,2 33,2 32.5,2 32,2 31.5,2 31,2 30.5,2 30,2 29.5,2 29,2 28.5,2 28,2 27.5,2 27,2 26.5,2 26,2 25.5,2 25,2 24.5,2 24,2 23.5,2 23,2 22.5,2 22,2 21.5,2 21,2 20.5,2 20,2 19.5,2 19,2 18.5,2 18,2 17.5,2 17,2 16.5,2 16,2 15.5,2 15,2 14.5,2 14,2 13.5,2 13,2 12.5,2 12,2 11.5,2 11,2 10.5,2 10,2 9.5,2 9,2 8.5,2 8,2 7.5,2 7,2 6.5,2 6,2 5.5,2 5,2 4.5,2 4,2 3.5,2 3,2 2.5,2 2,2 1.5,2 1,2 0.5,2 L 0,2 0,1.5 0,1 0,0.5"
       id="path3423" />
    <path
       style="fill:#000000;fill-opacity:0"
       d="M 42,0.5 42,0 42.5,0 43,0 43.5,0 44,0 44.5,0 45,0 45.5,0 46,0 46.5,0 47,0 47.5,0 48,0 48.5,0 49,0 49.5,0 50,0 50,0.5 50,1 50,1.5 50,2 50,2.5 50,3 50,3.5 50,4 50,4.5 50,5 50,5.5 50,6 50,6.5 50,7 50,7.5 50,8 50,8.5 50,9 49.5,9 Q 49,9 48.625,8.875 48.25,8.75 48.125,8.375 48,8 48,7.5 48,7 48,6.5 48,6 48,5.5 48,5 48,4.5 48,4 47.5,4 47,4 46.625,3.875 46.25,3.75 46.125,3.375 46,3 46,2.5 46,2 45.5,2 45,2 44.5,2 44,2 43.5,2 43,2 42.625,1.875 42.25,1.75 42.125,1.375 42,1 42,0.5"
       id="path3425" />
    <path
       style="fill:#fafafa;fill-opacity:1"
       d="M 0,2.5 0,2 0.5,2 q 0.5,0 1,0 0.5,0 1,0 0.5,0 1,0 0.5,0 1,0 0.5,0 1,0 0.5,0 1,0 0.5,0 1,0 0.5,0 1,0 0.5,0 1,0 0.5,0 1,0 0.5,0 1,0 0.5,0 1,0 0.5,0 1,0 0.5,0 1,0 0.5,0 1,0 0.5,0 1,0 0.5,0 1,0 0.5,0 1,0 0.5,0 1,0 0.5,0 1,0 0.5,0 1,0 0.5,0 1,0 0.5,0 1,0 0.5,0 1,0 0.5,0 1,0 0.5,0 1,0 0.5,0 1,0 0.5,0 1,0 0.5,0 1,0 0.5,0 1,0 0.5,0 1,0 0.5,0 1,0 0.5,0 1,0 0.5,0 1,0 0.5,0 1,0 0.5,0 1,0 0.5,0 1,0 0.5,0 1,0 0.5,0 1,0 0.5,0 1,0 0.5,0 0.875,0.125 0.375,0.125 0.5,0.5 Q 42,3 42.125,3.375 42.25,3.75 42.625,3.875 43,4 43.5,4 q 0.5,0 1,0 0.5,0 0.875,0.125 0.375,0.125 0.5,0.5 Q 46,5 46,5.5 q 0,0.5 0,1 0,0.5 0,1 0,0.5 0.125,0.875 0.125,0.375 0.5,0.5 Q 47,9 47.375,9.125 47.75,9.25 47.875,9.625 48,10 48,10.5 q 0,0.5 0,1 0,0.5 0,1 0,0.5 0,1 0,0.5 0,1 0,0.5 0,1 0,0.5 0,1 0,0.5 0,1 0,0.5 0,1 0,0.5 0,1 0,0.5 0,1 0,0.5 0,1 0,0.5 0,1 0,0.5 0,1 0,0.5 0,1 0,0.5 0,1 0,0.5 0,1 0,0.5 0,1 0,0.5 0,1 0,0.5 0,1 0,0.5 0,1 0,0.5 0,1 0,0.5 0,1 0,0.5 0,1 0,0.5 0,1 0,0.5 0,1 0,0.5 0,1 0,0.5 0,1 0,0.5 0,1 0,0.5 0,1 0,0.5 0,1 0,0.5 0,1 l 0,0.5 -0.5,0 q -0.5,0 -0.875,0.125 -0.375,0.125 -0.5,0.5 Q 46,43 46.0625,43.5625 L 46.125,44.125 46.1875,44.0625 46.25,44 46.125,44.125 Q 46,44.25 46,44.5 l 0,0.25 0,-0.375 0,-0.375 0,0.5 q 0,0.5 0,1 l 0,0.5 -0.5,0 q -0.5,0 -1,0 -0.5,0 -1,0 -0.5,0 -0.875,0.125 -0.375,0.125 -0.5,0.5 Q 42,47 41.875,47.375 41.75,47.75 41.375,47.875 41,48 40.5,48 q -0.5,0 -1,0 -0.5,0 -1,0 -0.5,0 -1,0 -0.5,0 -1,0 -0.5,0 -1,0 -0.5,0 -1,0 -0.5,0 -1,0 -0.5,0 -1,0 -0.5,0 -1,0 -0.5,0 -1,0 -0.5,0 -1,0 -0.5,0 -1,0 -0.5,0 -1,0 -0.5,0 -1,0 -0.5,0 -1,0 -0.5,0 -1,0 -0.5,0 -1,0 -0.5,0 -1,0 -0.5,0 -1,0 -0.5,0 -1,0 -0.5,0 -1,0 -0.5,0 -1,0 -0.5,0 -1,0 -0.5,0 -1,0 -0.5,0 -1,0 -0.5,0 -1,0 -0.5,0 -1,0 -0.5,0 -1,0 -0.5,0 -1,0 -0.5,0 -1,0 -0.5,0 -1,0 -0.5,0 -1,0 -0.5,0 -1,0 -0.5,0 -1,0 -0.5,0 -1,0 -0.5,0 -1,0 -0.5,0 -1,0 -0.5,0 -1,0 -0.5,0 -1,0 -0.5,0 -1,0 L 0,48 0,47.5 0,47 0,46.5 0,46 0,45.5 0,45 0,44.5 0,44 0,43.5 0,43 0,42.5 0,42 0,41.5 0,41 0,40.5 0,40 0,39.5 0,39 0,38.5 0,38 0,37.5 0,37 0,36.5 0,36 0,35.5 0,35 0,34.5 0,34 0,33.5 0,33 0,32.5 0,32 0,31.5 0,31 0,30.5 0,30 0,29.5 0,29 0,28.5 0,28 0,27.5 0,27 0,26.5 0,26 0,25.5 0,25 0,24.5 0,24 0,23.5 0,23 0,22.5 0,22 0,21.5 0,21 0,20.5 0,20 0,19.5 0,19 0,18.5 0,18 0,17.5 0,17 0,16.5 0,16 0,15.5 0,15 0,14.5 0,14 0,13.5 0,13 0,12.5 0,12 0,11.5 0,11 0,10.5 0,10 0,9.5 0,9 0,8.5 0,8 0,7.5 0,7 0,6.5 0,6 0,5.5 0,5 0,4.5 0,4 0,3.5 0,3 0,2.5 M 24.5,36 q 0.5,0 0.875,-0.125 0.375,-0.125 0.5,-0.5 Q 26,35 26,34.5 q 0,-0.5 0,-1 0,-0.5 0.125,-0.875 0.125,-0.375 0.5,-0.5 Q 27,32 27.5,32 q 0.5,0 1,0 0.5,0 1,0 0.5,0 1,0 0.5,0 0.875,-0.125 0.375,-0.125 0.5,-0.5 Q 32,31 32,30.5 q 0,-0.5 0,-1 0,-0.5 0,-1 0,-0.5 0,-1 0,-0.5 0,-1 0,-0.5 0,-1 0,-0.5 0,-1 0,-0.5 0,-1 0,-0.5 0,-1 0,-0.5 0,-1 0,-0.5 0,-1 0,-0.5 0,-1 0,-0.5 -0.125,-0.875 -0.125,-0.375 -0.5,-0.5 Q 31,18 30.5,18 q -0.5,0 -1,0 -0.5,0 -1,0 -0.5,0 -1,0 -0.5,0 -0.875,-0.125 -0.375,-0.125 -0.5,-0.5 Q 26,17 26,16.5 26,16 26,15.5 26,15 25.875,14.625 25.75,14.25 25.375,14.125 25,14 24.5,14 q -0.5,0 -1,0 -0.5,0 -0.875,0.125 -0.375,0.125 -0.5,0.5 -0.125,0.375 -0.25,0.75 -0.125,0.375 -0.5,0.5 -0.375,0.125 -0.75,0.25 -0.375,0.125 -0.5,0.5 -0.125,0.375 -0.25,0.75 -0.125,0.375 -0.5,0.5 -0.375,0.125 -0.75,0.25 -0.375,0.125 -0.5,0.5 -0.125,0.375 -0.25,0.75 -0.125,0.375 -0.5,0.5 -0.375,0.125 -0.75,0.25 -0.375,0.125 -0.5,0.5 -0.125,0.375 -0.25,0.75 -0.125,0.375 -0.5,0.5 -0.375,0.125 -0.75,0.25 -0.375,0.125 -0.5,0.5 -0.125,0.375 -0.25,0.75 -0.125,0.375 -0.5,0.5 -0.375,0.125 -0.75,0.25 -0.375,0.125 -0.5,0.5 -0.125,0.375 0,0.75 0.125,0.375 0.5,0.5 0.375,0.125 0.75,0.25 0.375,0.125 0.5,0.5 0.125,0.375 0.25,0.75 0.125,0.375 0.5,0.5 0.375,0.125 0.75,0.25 0.375,0.125 0.5,0.5 0.125,0.375 0.25,0.75 0.125,0.375 0.5,0.5 0.375,0.125 0.75,0.25 0.375,0.125 0.5,0.5 0.125,0.375 0.25,0.75 0.125,0.375 0.5,0.5 0.375,0.125 0.75,0.25 0.375,0.125 0.5,0.5 0.125,0.375 0.25,0.75 0.125,0.375 0.5,0.5 0.375,0.125 0.75,0.25 0.375,0.125 0.5,0.5 0.125,0.375 0.25,0.75 0.125,0.375 0.5,0.5 Q 23,36 23.5,36 q 0.5,0 1,0 M 46,46.125 46,46 l 0,-0.375 0,-0.375 0,0.25 q 0,0.25 0,0.5 l 0,0.25 0,-0.125 m 2,-4 0,-0.125 0,-0.375 0,-0.375 0,0.25 q 0,0.25 0,0.5 l 0,0.25 0,-0.125"
       id="path3427" />
    <path
       style="fill:#f78e56;fill-opacity:1"
       d="m 22.125,14.625 q 0.125,-0.375 0.5,-0.5 Q 23,14 23.5,14 q 0.5,0 1,0 0.5,0 0.875,0.125 0.375,0.125 0.5,0.5 Q 26,15 26,15.5 q 0,0.5 0,1 0,0.5 0.125,0.875 0.125,0.375 0.5,0.5 Q 27,18 27.5,18 q 0.5,0 1,0 0.5,0 1,0 0.5,0 1,0 0.5,0 0.875,0.125 0.375,0.125 0.5,0.5 Q 32,19 32,19.5 q 0,0.5 0,1 0,0.5 0,1 0,0.5 0,1 0,0.5 0,1 0,0.5 0,1 0,0.5 0,1 0,0.5 0,1 0,0.5 0,1 0,0.5 0,1 0,0.5 0,1 0,0.5 0,1 0,0.5 -0.125,0.875 -0.125,0.375 -0.5,0.5 Q 31,32 30.5,32 q -0.5,0 -1,0 -0.5,0 -1,0 -0.5,0 -1,0 -0.5,0 -0.875,0.125 -0.375,0.125 -0.5,0.5 Q 26,33 26,33.5 q 0,0.5 0,1 0,0.5 -0.125,0.875 -0.125,0.375 -0.5,0.5 Q 25,36 24.5,36 24,36 23.5,36 23,36 22.625,35.875 22.25,35.75 22.125,35.375 22,35 21.875,34.625 21.75,34.25 21.375,34.125 21,34 20.625,33.875 20.25,33.75 20.125,33.375 20,33 19.875,32.625 19.75,32.25 19.375,32.125 19,32 18.625,31.875 18.25,31.75 18.125,31.375 18,31 17.875,30.625 17.75,30.25 17.375,30.125 17,30 16.625,29.875 16.25,29.75 16.125,29.375 16,29 15.875,28.625 15.75,28.25 15.375,28.125 15,28 14.625,27.875 14.25,27.75 14.125,27.375 14,27 13.875,26.625 13.75,26.25 13.375,26.125 13,26 12.625,25.875 12.25,25.75 12.125,25.375 12,25 12.125,24.625 12.25,24.25 12.625,24.125 13,24 13.375,23.875 13.75,23.75 13.875,23.375 14,23 14.125,22.625 14.25,22.25 14.625,22.125 15,22 15.375,21.875 15.75,21.75 15.875,21.375 16,21 16.125,20.625 16.25,20.25 16.625,20.125 17,20 17.375,19.875 17.75,19.75 17.875,19.375 18,19 18.125,18.625 18.25,18.25 18.625,18.125 19,18 19.375,17.875 19.75,17.75 19.875,17.375 20,17 20.125,16.625 20.25,16.25 20.625,16.125 21,16 21.375,15.875 21.75,15.75 21.875,15.375 22,15 22.125,14.625"
       id="path3429" />
    <path
       style="fill:#d6be9b;fill-opacity:1"
       d="m 46.125,42.625 q 0.125,-0.375 0.5,-0.5 Q 47,42 47.5,42 l 0.5,0 0,0.5 q 0,0.5 -0.125,0.875 -0.125,0.375 -0.5,0.5 Q 47,44 46.5,44 l -0.5,0 0.375,0 0.375,0 -0.25,0 q -0.25,0 -0.375,0.125 L 46,44.25 46.0625,44.1875 46.125,44.125 46.0625,43.5625 Q 46,43 46.125,42.625 M 48,42.375 48,42 48,41.875 48,41.75 48,42 q 0,0.25 0,0.5 l 0,0.25 0,-0.375"
       id="path3431" />
    <path
       style="fill:#000000;fill-opacity:0"
       d="m 48.125,44.625 q 0.125,-0.375 0.5,-0.5 Q 49,44 49.5,44 l 0.5,0 0,0.5 0,0.5 0,0.5 0,0.5 0,0.5 0,0.5 0,0.5 0,0.5 0,0.5 0,0.5 0,0.5 0,0.5 0,0.5 0,0.5 0,0.5 0,0.5 -0.5,0 -0.5,0 -0.5,0 -0.5,0 -0.5,0 -0.5,0 -0.5,0 -0.5,0 -0.5,0 -0.5,0 -0.5,0 -0.5,0 -0.5,0 -0.5,0 -0.5,0 -0.5,0 0,-0.5 q 0,-0.5 0.125,-0.875 0.125,-0.375 0.5,-0.5 Q 43,50 43.5,50 q 0.5,0 1,0 0.5,0 1,0 0.5,0 0.5,-0.5 0,-0.5 0.125,-0.875 0.125,-0.375 0.5,-0.5 Q 47,48 47.5,48 48,48 48,47.5 q 0,-0.5 0,-1 0,-0.5 0,-1 0,-0.5 0.125,-0.875"
       id="path3433" />
    <path
       style="fill:#d6be9b;fill-opacity:1"
       d="m 42.125,46.625 q 0.125,-0.375 0.5,-0.5 Q 43,46 43.5,46 q 0.5,0 1,0 0.5,0 1,0 l 0.5,0 0,0.5 q 0,0.5 -0.125,0.875 -0.125,0.375 -0.5,0.5 Q 45,48 44.5,48 q -0.5,0 -1,0 -0.5,0 -0.875,0.125 -0.375,0.125 -0.5,0.5 Q 42,49 41.875,49.375 41.75,49.75 41.375,49.875 41,50 40.5,50 q -0.5,0 -1,0 -0.5,0 -1,0 -0.5,0 -1,0 -0.5,0 -1,0 -0.5,0 -1,0 -0.5,0 -1,0 -0.5,0 -1,0 -0.5,0 -1,0 -0.5,0 -1,0 -0.5,0 -1,0 -0.5,0 -1,0 -0.5,0 -1,0 -0.5,0 -1,0 -0.5,0 -1,0 -0.5,0 -1,0 -0.5,0 -1,0 -0.5,0 -1,0 -0.5,0 -1,0 -0.5,0 -1,0 -0.5,0 -1,0 -0.5,0 -1,0 -0.5,0 -1,0 -0.5,0 -1,0 -0.5,0 -1,0 -0.5,0 -1,0 -0.5,0 -1,0 -0.5,0 -1,0 -0.5,0 -1,0 -0.5,0 -1,0 -0.5,0 -1,0 -0.5,0 -1,0 -0.5,0 -1,0 -0.5,0 -1,0 -0.5,0 -1,0 -0.5,0 -1,0 -0.5,0 -1,0 -0.5,0 -1,0 -0.5,0 -1,0 -0.5,0 -1,0 -0.5,0 -1,0 L 0,50 0,49.5 0,49 0,48.5 0,48 0.5,48 q 0.5,0 1,0 0.5,0 1,0 0.5,0 1,0 0.5,0 1,0 0.5,0 1,0 0.5,0 1,0 0.5,0 1,0 0.5,0 1,0 0.5,0 1,0 0.5,0 1,0 0.5,0 1,0 0.5,0 1,0 0.5,0 1,0 0.5,0 1,0 0.5,0 1,0 0.5,0 1,0 0.5,0 1,0 0.5,0 1,0 0.5,0 1,0 0.5,0 1,0 0.5,0 1,0 0.5,0 1,0 0.5,0 1,0 0.5,0 1,0 0.5,0 1,0 0.5,0 1,0 0.5,0 1,0 0.5,0 1,0 0.5,0 1,0 0.5,0 1,0 0.5,0 1,0 0.5,0 1,0 0.5,0 1,0 0.5,0 1,0 0.5,0 1,0 0.5,0 1,0 0.5,0 1,0 0.5,0 1,0 0.5,0 1,0 0.5,0 1,0 0.5,0 0.875,-0.125 0.375,-0.125 0.5,-0.5 Q 42,47 42.125,46.625 M 46,46.375 46,46 46,45.875 46,45.75 46,46 q 0,0.25 0,0.5 l 0,0.25 0,-0.375"
       id="path3435" />
  </g>
  <g
     id="g3437"
     transform="translate(0 0)"
     inkscape:export-xdpi="900"
     inkscape:export-ydpi="900">
    <path
       id="path3439"
       d="M 0,0.5 0,0 0.5,0 1,0 1.5,0 2,0 2.5,0 3,0 3.5,0 4,0 4.5,0 5,0 5.5,0 6,0 6.5,0 7,0 7.5,0 8,0 8.5,0 9,0 9.5,0 10,0 10.5,0 11,0 11.5,0 12,0 12.5,0 13,0 13.5,0 14,0 14.5,0 15,0 15.5,0 16,0 16.5,0 17,0 17.5,0 18,0 18.5,0 19,0 19.5,0 20,0 20.5,0 21,0 21.5,0 22,0 22.5,0 23,0 23.5,0 24,0 24.5,0 25,0 25.5,0 26,0 26.5,0 27,0 27.5,0 28,0 28.5,0 29,0 29.5,0 30,0 30.5,0 31,0 31.5,0 32,0 32.5,0 33,0 33.5,0 34,0 34.5,0 35,0 35.5,0 36,0 36.5,0 37,0 37.5,0 38,0 38.5,0 39,0 39.5,0 40,0 40.5,0 41,0 41.5,0 42,0 42,0.5 q 0,0.5 0.125,0.875 0.125,0.375 0.5,0.5 Q 43,2 43.5,2 q 0.5,0 1,0 0.5,0 1,0 0.5,0 0.5,0.5 0,0.5 0.125,0.875 0.125,0.375 0.5,0.5 Q 47,4 47.5,4 48,4 48,4.5 q 0,0.5 0,1 0,0.5 0,1 0,0.5 0,1 0,0.5 0.125,0.875 0.125,0.375 0.5,0.5 Q 49,9 49.5,9 l 0.5,0 0,0.5 0,0.5 0,0.5 0,0.5 0,0.5 0,0.5 0,0.5 0,0.5 0,0.5 0,0.5 0,0.5 0,0.5 0,0.5 0,0.5 0,0.5 0,0.5 0,0.5 0,0.5 0,0.5 0,0.5 0,0.5 0,0.5 0,0.5 0,0.5 0,0.5 0,0.5 0,0.5 0,0.5 0,0.5 0,0.5 0,0.5 0,0.5 0,0.5 0,0.5 0,0.5 0,0.5 0,0.5 0,0.5 0,0.5 0,0.5 0,0.5 0,0.5 0,0.5 0,0.5 0,0.5 0,0.5 0,0.5 0,0.5 0,0.5 0,0.5 0,0.5 0,0.5 0,0.5 0,0.5 0,0.5 0,0.5 0,0.5 0,0.5 0,0.5 0,0.5 0,0.5 0,0.5 0,0.5 0,0.5 0,0.5 0,0.5 0,0.5 0,0.5 0,0.5 0,0.5 -0.5,0 q -0.5,0 -0.875,0.125 -0.375,0.125 -0.5,0.5 Q 48,45 48,45.5 q 0,0.5 0,1 0,0.5 0,1 0,0.5 -0.5,0.5 -0.5,0 -0.875,0.125 -0.375,0.125 -0.5,0.5 Q 46,49 46,49.5 46,50 45.5,50 q -0.5,0 -1,0 -0.5,0 -1,0 -0.5,0 -0.875,0.125 -0.375,0.125 -0.5,0.5 Q 42,51 42,51.5 L 42,52 41.5,52 41,52 40.5,52 40,52 39.5,52 39,52 38.5,52 38,52 37.5,52 37,52 36.5,52 36,52 35.5,52 35,52 34.5,52 34,52 33.5,52 33,52 32.5,52 32,52 31.5,52 31,52 30.5,52 30,52 29.5,52 29,52 28.5,52 28,52 27.5,52 27,52 26.5,52 26,52 25.5,52 25,52 24.5,52 24,52 23.5,52 23,52 22.5,52 22,52 21.5,52 21,52 20.5,52 20,52 19.5,52 19,52 18.5,52 18,52 17.5,52 17,52 16.5,52 16,52 15.5,52 15,52 14.5,52 14,52 13.5,52 13,52 12.5,52 12,52 11.5,52 11,52 10.5,52 10,52 9.5,52 9,52 8.5,52 8,52 7.5,52 7,52 6.5,52 6,52 5.5,52 5,52 4.5,52 4,52 3.5,52 3,52 2.5,52 2,52 1.5,52 1,52 0.5,52 0,52 0,51.5 0,51 0,50.5 0,50 0.5,50 q 0.5,0 1,0 0.5,0 1,0 0.5,0 1,0 0.5,0 1,0 0.5,0 1,0 0.5,0 1,0 0.5,0 1,0 0.5,0 1,0 0.5,0 1,0 0.5,0 1,0 0.5,0 1,0 0.5,0 1,0 0.5,0 1,0 0.5,0 1,0 0.5,0 1,0 0.5,0 1,0 0.5,0 1,0 0.5,0 1,0 0.5,0 1,0 0.5,0 1,0 0.5,0 1,0 0.5,0 1,0 0.5,0 1,0 0.5,0 1,0 0.5,0 1,0 0.5,0 1,0 0.5,0 1,0 0.5,0 1,0 0.5,0 1,0 0.5,0 1,0 0.5,0 1,0 0.5,0 1,0 0.5,0 1,0 0.5,0 1,0 0.5,0 1,0 0.5,0 1,0 0.5,0 1,0 0.5,0 1,0 0.5,0 1,0 0.5,0 1,0 0.5,0 0.875,-0.125 0.375,-0.125 0.5,-0.5 Q 42,49 42.125,48.625 42.25,48.25 42.625,48.125 43,48 43.5,48 q 0.5,0 1,0 0.5,0 0.875,-0.125 0.375,-0.125 0.5,-0.5 Q 46,47 46,46.5 q 0,-0.5 0,-1 0,-0.5 0,-1 0,-0.5 0.5,-0.5 0.5,0 0.875,-0.125 0.375,-0.125 0.5,-0.5 Q 48,43 48,42.5 q 0,-0.5 0,-1 0,-0.5 0,-1 0,-0.5 0,-1 0,-0.5 0,-1 0,-0.5 0,-1 0,-0.5 0,-1 0,-0.5 0,-1 0,-0.5 0,-1 0,-0.5 0,-1 0,-0.5 0,-1 0,-0.5 0,-1 0,-0.5 0,-1 0,-0.5 0,-1 0,-0.5 0,-1 0,-0.5 0,-1 0,-0.5 0,-1 0,-0.5 0,-1 0,-0.5 0,-1 0,-0.5 0,-1 0,-0.5 0,-1 0,-0.5 0,-1 0,-0.5 0,-1 0,-0.5 0,-1 0,-0.5 0,-1 0,-0.5 0,-1 0,-0.5 0,-1 0,-0.5 0,-1 0,-0.5 0,-1 0,-0.5 0,-1 0,-0.5 0,-1 0,-0.5 0,-1 0,-0.5 0,-1 Q 48,10 47.875,9.625 47.75,9.25 47.375,9.125 47,9 46.625,8.875 46.25,8.75 46.125,8.375 46,8 46,7.5 46,7 46,6.5 46,6 46,5.5 46,5 45.875,4.625 45.75,4.25 45.375,4.125 45,4 44.5,4 44,4 43.5,4 43,4 42.625,3.875 42.25,3.75 42.125,3.375 42,3 41.875,2.625 41.75,2.25 41.375,2.125 41,2 40.5,2 40,2 39.5,2 39,2 38.5,2 38,2 37.5,2 37,2 36.5,2 36,2 35.5,2 35,2 34.5,2 34,2 33.5,2 33,2 32.5,2 32,2 31.5,2 31,2 30.5,2 30,2 29.5,2 29,2 28.5,2 28,2 27.5,2 27,2 26.5,2 26,2 25.5,2 25,2 24.5,2 24,2 23.5,2 23,2 22.5,2 22,2 21.5,2 21,2 20.5,2 20,2 19.5,2 19,2 18.5,2 18,2 17.5,2 17,2 16.5,2 16,2 15.5,2 15,2 14.5,2 14,2 13.5,2 13,2 12.5,2 12,2 11.5,2 11,2 10.5,2 10,2 9.5,2 9,2 8.5,2 8,2 7.5,2 7,2 6.5,2 6,2 5.5,2 5,2 4.5,2 4,2 3.5,2 3,2 2.5,2 2,2 1.5,2 1,2 0.5,2 L 0,2 0,1.5 0,1 0,0.5"
       style="fill:#303030;fill-opacity:1" />
    <path
       id="path3441"
       d="M 42,0.5 42,0 42.5,0 43,0 43.5,0 44,0 44.5,0 45,0 45.5,0 46,0 46.5,0 47,0 47.5,0 48,0 48.5,0 49,0 49.5,0 50,0 50,0.5 50,1 50,1.5 50,2 50,2.5 50,3 50,3.5 50,4 50,4.5 50,5 50,5.5 50,6 50,6.5 50,7 50,7.5 50,8 50,8.5 50,9 49.5,9 Q 49,9 48.625,8.875 48.25,8.75 48.125,8.375 48,8 48,7.5 48,7 48,6.5 48,6 48,5.5 48,5 48,4.5 48,4 47.5,4 47,4 46.625,3.875 46.25,3.75 46.125,3.375 46,3 46,2.5 46,2 45.5,2 45,2 44.5,2 44,2 43.5,2 43,2 42.625,1.875 42.25,1.75 42.125,1.375 42,1 42,0.5"
       style="fill:#000000;fill-opacity:0" />
    <path
       id="path3443"
       d="M 0,2.5 0,2 0.5,2 q 0.5,0 1,0 0.5,0 1,0 0.5,0 1,0 0.5,0 1,0 0.5,0 1,0 0.5,0 1,0 0.5,0 1,0 0.5,0 1,0 0.5,0 1,0 0.5,0 1,0 0.5,0 1,0 0.5,0 1,0 0.5,0 1,0 0.5,0 1,0 0.5,0 1,0 0.5,0 1,0 0.5,0 1,0 0.5,0 1,0 0.5,0 1,0 0.5,0 1,0 0.5,0 1,0 0.5,0 1,0 0.5,0 1,0 0.5,0 1,0 0.5,0 1,0 0.5,0 1,0 0.5,0 1,0 0.5,0 1,0 0.5,0 1,0 0.5,0 1,0 0.5,0 1,0 0.5,0 1,0 0.5,0 1,0 0.5,0 1,0 0.5,0 1,0 0.5,0 1,0 0.5,0 1,0 0.5,0 1,0 0.5,0 1,0 0.5,0 1,0 0.5,0 0.875,0.125 0.375,0.125 0.5,0.5 Q 42,3 42.125,3.375 42.25,3.75 42.625,3.875 43,4 43.5,4 q 0.5,0 1,0 0.5,0 0.875,0.125 0.375,0.125 0.5,0.5 Q 46,5 46,5.5 q 0,0.5 0,1 0,0.5 0,1 0,0.5 0.125,0.875 0.125,0.375 0.5,0.5 Q 47,9 47.375,9.125 47.75,9.25 47.875,9.625 48,10 48,10.5 q 0,0.5 0,1 0,0.5 0,1 0,0.5 0,1 0,0.5 0,1 0,0.5 0,1 0,0.5 0,1 0,0.5 0,1 0,0.5 0,1 0,0.5 0,1 0,0.5 0,1 0,0.5 0,1 0,0.5 0,1 0,0.5 0,1 0,0.5 0,1 0,0.5 0,1 0,0.5 0,1 0,0.5 0,1 0,0.5 0,1 0,0.5 0,1 0,0.5 0,1 0,0.5 0,1 0,0.5 0,1 0,0.5 0,1 0,0.5 0,1 0,0.5 0,1 0,0.5 0,1 0,0.5 0,1 0,0.5 0,1 0,0.5 0,1 0,0.5 0,1 0,0.5 0,1 l 0,0.5 -0.5,0 q -0.5,0 -0.875,0.125 -0.375,0.125 -0.5,0.5 Q 46,43 46.0625,43.5625 L 46.125,44.125 46.1875,44.0625 46.25,44 46.125,44.125 Q 46,44.25 46,44.5 l 0,0.25 0,-0.375 0,-0.375 0,0.5 q 0,0.5 0,1 l 0,0.5 -0.5,0 q -0.5,0 -1,0 -0.5,0 -1,0 -0.5,0 -0.875,0.125 -0.375,0.125 -0.5,0.5 Q 42,47 41.875,47.375 41.75,47.75 41.375,47.875 41,48 40.5,48 q -0.5,0 -1,0 -0.5,0 -1,0 -0.5,0 -1,0 -0.5,0 -1,0 -0.5,0 -1,0 -0.5,0 -1,0 -0.5,0 -1,0 -0.5,0 -1,0 -0.5,0 -1,0 -0.5,0 -1,0 -0.5,0 -1,0 -0.5,0 -1,0 -0.5,0 -1,0 -0.5,0 -1,0 -0.5,0 -1,0 -0.5,0 -1,0 -0.5,0 -1,0 -0.5,0 -1,0 -0.5,0 -1,0 -0.5,0 -1,0 -0.5,0 -1,0 -0.5,0 -1,0 -0.5,0 -1,0 -0.5,0 -1,0 -0.5,0 -1,0 -0.5,0 -1,0 -0.5,0 -1,0 -0.5,0 -1,0 -0.5,0 -1,0 -0.5,0 -1,0 -0.5,0 -1,0 -0.5,0 -1,0 -0.5,0 -1,0 -0.5,0 -1,0 -0.5,0 -1,0 -0.5,0 -1,0 -0.5,0 -1,0 -0.5,0 -1,0 -0.5,0 -1,0 -0.5,0 -1,0 L 0,48 0,47.5 0,47 0,46.5 0,46 0,45.5 0,45 0,44.5 0,44 0,43.5 0,43 0,42.5 0,42 0,41.5 0,41 0,40.5 0,40 0,39.5 0,39 0,38.5 0,38 0,37.5 0,37 0,36.5 0,36 0,35.5 0,35 0,34.5 0,34 0,33.5 0,33 0,32.5 0,32 0,31.5 0,31 0,30.5 0,30 0,29.5 0,29 0,28.5 0,28 0,27.5 0,27 0,26.5 0,26 0,25.5 0,25 0,24.5 0,24 0,23.5 0,23 0,22.5 0,22 0,21.5 0,21 0,20.5 0,20 0,19.5 0,19 0,18.5 0,18 0,17.5 0,17 0,16.5 0,16 0,15.5 0,15 0,14.5 0,14 0,13.5 0,13 0,12.5 0,12 0,11.5 0,11 0,10.5 0,10 0,9.5 0,9 0,8.5 0,8 0,7.5 0,7 0,6.5 0,6 0,5.5 0,5 0,4.5 0,4 0,3.5 0,3 0,2.5 M 24.5,36 q 0.5,0 0.875,-0.125 0.375,-0.125 0.5,-0.5 Q 26,35 26,34.5 q 0,-0.5 0,-1 0,-0.5 0.125,-0.875 0.125,-0.375 0.5,-0.5 Q 27,32 27.5,32 q 0.5,0 1,0 0.5,0 1,0 0.5,0 1,0 0.5,0 0.875,-0.125 0.375,-0.125 0.5,-0.5 Q 32,31 32,30.5 q 0,-0.5 0,-1 0,-0.5 0,-1 0,-0.5 0,-1 0,-0.5 0,-1 0,-0.5 0,-1 0,-0.5 0,-1 0,-0.5 0,-1 0,-0.5 0,-1 0,-0.5 0,-1 0,-0.5 0,-1 0,-0.5 0,-1 0,-0.5 -0.125,-0.875 -0.125,-0.375 -0.5,-0.5 Q 31,18 30.5,18 q -0.5,0 -1,0 -0.5,0 -1,0 -0.5,0 -1,0 -0.5,0 -0.875,-0.125 -0.375,-0.125 -0.5,-0.5 Q 26,17 26,16.5 26,16 26,15.5 26,15 25.875,14.625 25.75,14.25 25.375,14.125 25,14 24.5,14 q -0.5,0 -1,0 -0.5,0 -0.875,0.125 -0.375,0.125 -0.5,0.5 -0.125,0.375 -0.25,0.75 -0.125,0.375 -0.5,0.5 -0.375,0.125 -0.75,0.25 -0.375,0.125 -0.5,0.5 -0.125,0.375 -0.25,0.75 -0.125,0.375 -0.5,0.5 -0.375,0.125 -0.75,0.25 -0.375,0.125 -0.5,0.5 -0.125,0.375 -0.25,0.75 -0.125,0.375 -0.5,0.5 -0.375,0.125 -0.75,0.25 -0.375,0.125 -0.5,0.5 -0.125,0.375 -0.25,0.75 -0.125,0.375 -0.5,0.5 -0.375,0.125 -0.75,0.25 -0.375,0.125 -0.5,0.5 -0.125,0.375 -0.25,0.75 -0.125,0.375 -0.5,0.5 -0.375,0.125 -0.75,0.25 -0.375,0.125 -0.5,0.5 -0.125,0.375 0,0.75 0.125,0.375 0.5,0.5 0.375,0.125 0.75,0.25 0.375,0.125 0.5,0.5 0.125,0.375 0.25,0.75 0.125,0.375 0.5,0.5 0.375,0.125 0.75,0.25 0.375,0.125 0.5,0.5 0.125,0.375 0.25,0.75 0.125,0.375 0.5,0.5 0.375,0.125 0.75,0.25 0.375,0.125 0.5,0.5 0.125,0.375 0.25,0.75 0.125,0.375 0.5,0.5 0.375,0.125 0.75,0.25 0.375,0.125 0.5,0.5 0.125,0.375 0.25,0.75 0.125,0.375 0.5,0.5 0.375,0.125 0.75,0.25 0.375,0.125 0.5,0.5 0.125,0.375 0.25,0.75 0.125,0.375 0.5,0.5 Q 23,36 23.5,36 q 0.5,0 1,0 M 46,46.125 46,46 l 0,-0.375 0,-0.375 0,0.25 q 0,0.25 0,0.5 l 0,0.25 0,-0.125 m 2,-4 0,-0.125 0,-0.375 0,-0.375 0,0.25 q 0,0.25 0,0.5 l 0,0.25 0,-0.125"
       style="fill:#fafafa;fill-opacity:1" />
    <path
       id="path3445"
       d="m 22.125,14.625 q 0.125,-0.375 0.5,-0.5 Q 23,14 23.5,14 q 0.5,0 1,0 0.5,0 0.875,0.125 0.375,0.125 0.5,0.5 Q 26,15 26,15.5 q 0,0.5 0,1 0,0.5 0.125,0.875 0.125,0.375 0.5,0.5 Q 27,18 27.5,18 q 0.5,0 1,0 0.5,0 1,0 0.5,0 1,0 0.5,0 0.875,0.125 0.375,0.125 0.5,0.5 Q 32,19 32,19.5 q 0,0.5 0,1 0,0.5 0,1 0,0.5 0,1 0,0.5 0,1 0,0.5 0,1 0,0.5 0,1 0,0.5 0,1 0,0.5 0,1 0,0.5 0,1 0,0.5 0,1 0,0.5 0,1 0,0.5 -0.125,0.875 -0.125,0.375 -0.5,0.5 Q 31,32 30.5,32 q -0.5,0 -1,0 -0.5,0 -1,0 -0.5,0 -1,0 -0.5,0 -0.875,0.125 -0.375,0.125 -0.5,0.5 Q 26,33 26,33.5 q 0,0.5 0,1 0,0.5 -0.125,0.875 -0.125,0.375 -0.5,0.5 Q 25,36 24.5,36 24,36 23.5,36 23,36 22.625,35.875 22.25,35.75 22.125,35.375 22,35 21.875,34.625 21.75,34.25 21.375,34.125 21,34 20.625,33.875 20.25,33.75 20.125,33.375 20,33 19.875,32.625 19.75,32.25 19.375,32.125 19,32 18.625,31.875 18.25,31.75 18.125,31.375 18,31 17.875,30.625 17.75,30.25 17.375,30.125 17,30 16.625,29.875 16.25,29.75 16.125,29.375 16,29 15.875,28.625 15.75,28.25 15.375,28.125 15,28 14.625,27.875 14.25,27.75 14.125,27.375 14,27 13.875,26.625 13.75,26.25 13.375,26.125 13,26 12.625,25.875 12.25,25.75 12.125,25.375 12,25 12.125,24.625 12.25,24.25 12.625,24.125 13,24 13.375,23.875 13.75,23.75 13.875,23.375 14,23 14.125,22.625 14.25,22.25 14.625,22.125 15,22 15.375,21.875 15.75,21.75 15.875,21.375 16,21 16.125,20.625 16.25,20.25 16.625,20.125 17,20 17.375,19.875 17.75,19.75 17.875,19.375 18,19 18.125,18.625 18.25,18.25 18.625,18.125 19,18 19.375,17.875 19.75,17.75 19.875,17.375 20,17 20.125,16.625 20.25,16.25 20.625,16.125 21,16 21.375,15.875 21.75,15.75 21.875,15.375 22,15 22.125,14.625"
       style="fill:#f78e56;fill-opacity:1" />
    <path
       id="path3447"
       d="m 46.125,42.625 q 0.125,-0.375 0.5,-0.5 Q 47,42 47.5,42 l 0.5,0 0,0.5 q 0,0.5 -0.125,0.875 -0.125,0.375 -0.5,0.5 Q 47,44 46.5,44 l -0.5,0 0.375,0 0.375,0 -0.25,0 q -0.25,0 -0.375,0.125 L 46,44.25 46.0625,44.1875 46.125,44.125 46.0625,43.5625 Q 46,43 46.125,42.625 M 48,42.375 48,42 48,41.875 48,41.75 48,42 q 0,0.25 0,0.5 l 0,0.25 0,-0.375"
       style="fill:#d6be9b;fill-opacity:1" />
    <path
       id="path3449"
       d="m 48.125,44.625 q 0.125,-0.375 0.5,-0.5 Q 49,44 49.5,44 l 0.5,0 0,0.5 0,0.5 0,0.5 0,0.5 0,0.5 0,0.5 0,0.5 0,0.5 0,0.5 0,0.5 0,0.5 0,0.5 0,0.5 0,0.5 0,0.5 0,0.5 -0.5,0 -0.5,0 -0.5,0 -0.5,0 -0.5,0 -0.5,0 -0.5,0 -0.5,0 -0.5,0 -0.5,0 -0.5,0 -0.5,0 -0.5,0 -0.5,0 -0.5,0 -0.5,0 0,-0.5 q 0,-0.5 0.125,-0.875 0.125,-0.375 0.5,-0.5 Q 43,50 43.5,50 q 0.5,0 1,0 0.5,0 1,0 0.5,0 0.5,-0.5 0,-0.5 0.125,-0.875 0.125,-0.375 0.5,-0.5 Q 47,48 47.5,48 48,48 48,47.5 q 0,-0.5 0,-1 0,-0.5 0,-1 0,-0.5 0.125,-0.875"
       style="fill:#000000;fill-opacity:0" />
    <path
       id="path3451"
       d="m 42.125,46.625 q 0.125,-0.375 0.5,-0.5 Q 43,46 43.5,46 q 0.5,0 1,0 0.5,0 1,0 l 0.5,0 0,0.5 q 0,0.5 -0.125,0.875 -0.125,0.375 -0.5,0.5 Q 45,48 44.5,48 q -0.5,0 -1,0 -0.5,0 -0.875,0.125 -0.375,0.125 -0.5,0.5 Q 42,49 41.875,49.375 41.75,49.75 41.375,49.875 41,50 40.5,50 q -0.5,0 -1,0 -0.5,0 -1,0 -0.5,0 -1,0 -0.5,0 -1,0 -0.5,0 -1,0 -0.5,0 -1,0 -0.5,0 -1,0 -0.5,0 -1,0 -0.5,0 -1,0 -0.5,0 -1,0 -0.5,0 -1,0 -0.5,0 -1,0 -0.5,0 -1,0 -0.5,0 -1,0 -0.5,0 -1,0 -0.5,0 -1,0 -0.5,0 -1,0 -0.5,0 -1,0 -0.5,0 -1,0 -0.5,0 -1,0 -0.5,0 -1,0 -0.5,0 -1,0 -0.5,0 -1,0 -0.5,0 -1,0 -0.5,0 -1,0 -0.5,0 -1,0 -0.5,0 -1,0 -0.5,0 -1,0 -0.5,0 -1,0 -0.5,0 -1,0 -0.5,0 -1,0 -0.5,0 -1,0 -0.5,0 -1,0 -0.5,0 -1,0 -0.5,0 -1,0 -0.5,0 -1,0 -0.5,0 -1,0 -0.5,0 -1,0 -0.5,0 -1,0 -0.5,0 -1,0 L 0,50 0,49.5 0,49 0,48.5 0,48 0.5,48 q 0.5,0 1,0 0.5,0 1,0 0.5,0 1,0 0.5,0 1,0 0.5,0 1,0 0.5,0 1,0 0.5,0 1,0 0.5,0 1,0 0.5,0 1,0 0.5,0 1,0 0.5,0 1,0 0.5,0 1,0 0.5,0 1,0 0.5,0 1,0 0.5,0 1,0 0.5,0 1,0 0.5,0 1,0 0.5,0 1,0 0.5,0 1,0 0.5,0 1,0 0.5,0 1,0 0.5,0 1,0 0.5,0 1,0 0.5,0 1,0 0.5,0 1,0 0.5,0 1,0 0.5,0 1,0 0.5,0 1,0 0.5,0 1,0 0.5,0 1,0 0.5,0 1,0 0.5,0 1,0 0.5,0 1,0 0.5,0 1,0 0.5,0 1,0 0.5,0 1,0 0.5,0 1,0 0.5,0 1,0 0.5,0 1,0 0.5,0 1,0 0.5,0 0.875,-0.125 0.375,-0.125 0.5,-0.5 Q 42,47 42.125,46.625 M 46,46.375 46,46 46,45.875 46,45.75 46,46 q 0,0.25 0,0.5 l 0,0.25 0,-0.375"
       style="fill:#d6be9b;fill-opacity:1" />
  </g>
</svg>
