<?xml version="1.0" encoding="UTF-8" standalone="no"?>
<!-- Created with Inkscape (http://www.inkscape.org/) -->

<svg
   xmlns:dc="http://purl.org/dc/elements/1.1/"
   xmlns:cc="http://creativecommons.org/ns#"
   xmlns:rdf="http://www.w3.org/1999/02/22-rdf-syntax-ns#"
   xmlns:svg="http://www.w3.org/2000/svg"
   xmlns="http://www.w3.org/2000/svg"
   xmlns:sodipodi="http://sodipodi.sourceforge.net/DTD/sodipodi-0.dtd"
   xmlns:inkscape="http://www.inkscape.org/namespaces/inkscape"
   id="svg2"
   version="1.1"
   inkscape:version="0.91 r13725"
   width="42.5"
   height="17.5"
   viewBox="0 0 42.5 17.5"
   sodipodi:docname="new.svg">
  <metadata
     id="metadata8">
    <rdf:RDF>
      <cc:Work
         rdf:about="">
        <dc:format>image/svg+xml</dc:format>
        <dc:type
           rdf:resource="http://purl.org/dc/dcmitype/StillImage" />
        <dc:title></dc:title>
      </cc:Work>
    </rdf:RDF>
  </metadata>
  <defs
     id="defs6" />
  <sodipodi:namedview
     pagecolor="#ffffff"
     bordercolor="#666666"
     borderopacity="1"
     objecttolerance="10"
     gridtolerance="10"
     guidetolerance="10"
     inkscape:pageopacity="0"
     inkscape:pageshadow="2"
     inkscape:window-width="702"
     inkscape:window-height="480"
     id="namedview4"
     showgrid="false"
     inkscape:zoom="7.4352941"
     inkscape:cx="21.25"
     inkscape:cy="8.75"
     inkscape:window-x="0"
     inkscape:window-y="0"
     inkscape:window-maximized="0"
     inkscape:current-layer="svg2" />
  <g
     transform="translate(0 0)"
     id="g3357">
    <path
       style="fill:#cc0000;fill-opacity:1"
       d="M 0,0.5 0,0 0.5,0 1,0 1.5,0 2,0 2.5,0 3,0 3.5,0 4,0 4.5,0 5,0 5.5,0 6,0 6.5,0 7,0 7.5,0 8,0 8.5,0 9,0 9.5,0 10,0 l 0.5,0 0.5,0 0.5,0 0.5,0 0.5,0 0.5,0 0.5,0 0.5,0 0.5,0 0.5,0 0.5,0 0.5,0 0.5,0 0.5,0 0.5,0 0.5,0 0.5,0 0.5,0 0.5,0 0.5,0 0.5,0 0.5,0 0.5,0 0.5,0 0.5,0 0.5,0 0.5,0 0.5,0 0.5,0 0.5,0 0.5,0 0.5,0 0.5,0 0.5,0 0.5,0 0.5,0 0.5,0 0.5,0 0.5,0 0.5,0 0.5,0 0.5,0 0.5,0 0.5,0 0.5,0 0.5,0 0.5,0 0.5,0 0,0.5 0,0.5 0,0.5 0,0.5 0,0.5 0,0.5 0,0.5 0,0.5 0,0.5 0,0.5 0,0.5 0,0.5 0,0.5 0,0.5 0,0.5 0,0.5 0,0.5 0,0.5 0,0.5 0,0.5 0,0.5 0,0.5 0,0.5 0,0.5 0,0.5 0,0.5 0,0.5 0,0.5 -0.5,0 L 33,14 32.5,14 32,14 31.5,14 31,14 30.5,14 30,14 29.5,14 29,14 28.5,14 28,14 27.5,14 27,14 26.5,14 26,14 25.5,14 25,14 24.5,14 24,14 23.5,14 23,14 22.5,14 22,14 21.5,14 21,14 20.5,14 20,14 19.5,14 19,14 18.5,14 18,14 17.5,14 17,14 16.5,14 16,14 15.5,14 15,14 14.5,14 14,14 13.5,14 13,14 12.5,14 12,14 11.5,14 11,14 10.5,14 10,14 9.5,14 9,14 8.5,14 8,14 7.5,14 7,14 6.5,14 6,14 5.5,14 5,14 4.5,14 4,14 3.5,14 3,14 2.5,14 2,14 1.5,14 1,14 0.5,14 0,14 0,13.5 0,13 0,12.5 0,12 0,11.5 0,11 0,10.5 0,10 0,9.5 0,9 0,8.5 0,8 0,7.5 0,7 0,6.5 0,6 0,5.5 0,5 0,4.5 0,4 0,3.5 0,3 0,2.5 0,2 0,1.5 0,1 0,0.5 M 2.625,11.875 Q 3,12 3.375,11.875 3.75,11.75 3.875,11.375 4,11 4,10.5 4,10 4,9.5 4,9 4,8.5 4,8 4,7.5 4,7 4.125,6.625 4.25,6.25 4.625,6.125 5,6 5.375,5.875 5.75,5.75 5.875,5.375 6,5 5.875,4.625 5.75,4.25 5.375,4.125 5,4 4.625,3.875 4.25,3.75 4.125,3.375 4,3 3.875,2.625 3.75,2.25 3.375,2.125 3,2 2.625,2.125 2.25,2.25 2.125,2.625 2,3 2,3.5 q 0,0.5 0,1 0,0.5 0,1 0,0.5 0,1 0,0.5 0,1 0,0.5 0,1 0,0.5 0,1 0,0.5 0,1 0,0.5 0.125,0.875 0.125,0.375 0.5,0.5 m 6,0 Q 9,12 9.375,11.875 9.75,11.75 9.875,11.375 10,11 10,10.5 10,10 10,9.5 10,9 10,8.5 10,8 10,7.5 10,7 10,6.5 10,6 10,5.5 10,5 10,4.5 10,4 10,3.5 10,3 9.875,2.625 9.75,2.25 9.375,2.125 9,2 8.625,2.125 8.25,2.25 8.125,2.625 8,3 8,3.5 8,4 8,4.5 8,5 7.875,5.375 7.75,5.75 7.375,5.875 7,6 6.625,6.125 6.25,6.25 6.125,6.625 6,7 6.125,7.375 6.25,7.75 6.625,7.875 7,8 7.375,8.125 7.75,8.25 7.875,8.625 8,9 8,9.5 q 0,0.5 0,1 0,0.5 0.125,0.875 0.125,0.375 0.5,0.5 M 18.5,12 q 0.5,0 0.875,-0.125 0.375,-0.125 0.5,-0.5 0.125,-0.375 0,-0.75 -0.125,-0.375 -0.5,-0.5 Q 19,10 18.5,10 q -0.5,0 -1,0 -0.5,0 -1,0 -0.5,0 -1,0 Q 15,10 14.625,9.875 14.25,9.75 14.125,9.375 14,9 14.125,8.625 14.25,8.25 14.625,8.125 15,8 15.5,8 16,8 16.5,8 17,8 17.375,7.875 17.75,7.75 17.875,7.375 18,7 17.875,6.625 17.75,6.25 17.375,6.125 17,6 16.5,6 16,6 15.5,6 15,6 14.625,5.875 14.25,5.75 14.125,5.375 14,5 14.125,4.625 14.25,4.25 14.625,4.125 15,4 15.5,4 q 0.5,0 1,0 0.5,0 1,0 0.5,0 1,0 0.5,0 0.875,-0.125 0.375,-0.125 0.5,-0.5 Q 20,3 19.875,2.625 19.75,2.25 19.375,2.125 19,2 18.5,2 18,2 17.5,2 17,2 16.5,2 16,2 15.5,2 15,2 14.625,2.125 14.25,2.25 14.125,2.625 14,3 13.875,3.375 13.75,3.75 13.375,3.875 13,4 12.625,4.125 12.25,4.25 12.125,4.625 12,5 12,5.5 q 0,0.5 0,1 0,0.5 0,1 0,0.5 0,1 0,0.5 0.125,0.875 0.125,0.375 0.5,0.5 0.375,0.125 0.75,0.25 0.375,0.125 0.5,0.5 0.125,0.375 0.25,0.75 0.125,0.375 0.5,0.5 Q 15,12 15.5,12 q 0.5,0 1,0 0.5,0 1,0 0.5,0 1,0 m 10.125,-0.125 q 0.375,0.125 0.75,0 0.375,-0.125 0.5,-0.5 Q 30,11 30.125,10.625 30.25,10.25 30.625,10.125 31,10 31.375,9.875 31.75,9.75 31.875,9.375 32,9 32,8.5 32,8 32,7.5 32,7 32,6.5 32,6 32,5.5 32,5 32,4.5 32,4 32,3.5 32,3 31.875,2.625 31.75,2.25 31.375,2.125 31,2 30.625,2.125 30.25,2.25 30.125,2.625 30,3 30,3.5 q 0,0.5 0,1 0,0.5 0,1 0,0.5 0,1 0,0.5 0,1 0,0.5 0,1 0,0.5 -0.125,0.875 -0.125,0.375 -0.5,0.5 Q 29,10 28.625,9.875 28.25,9.75 28.125,9.375 28,9 28,8.5 28,8 28,7.5 28,7 28,6.5 28,6 27.875,5.625 27.75,5.25 27.375,5.125 27,5 26.625,5.125 26.25,5.25 26.125,5.625 26,6 26,6.5 q 0,0.5 0,1 0,0.5 0,1 0,0.5 -0.125,0.875 -0.125,0.375 -0.5,0.5 Q 25,10 24.625,9.875 24.25,9.75 24.125,9.375 24,9 24,8.5 24,8 24,7.5 24,7 24,6.5 24,6 24,5.5 24,5 24,4.5 24,4 24,3.5 24,3 23.875,2.625 23.75,2.25 23.375,2.125 23,2 22.625,2.125 22.25,2.25 22.125,2.625 22,3 22,3.5 q 0,0.5 0,1 0,0.5 0,1 0,0.5 0,1 0,0.5 0,1 0,0.5 0,1 0,0.5 0.125,0.875 0.125,0.375 0.5,0.5 0.375,0.125 0.75,0.25 0.375,0.125 0.5,0.5 0.125,0.375 0.25,0.75 0.125,0.375 0.5,0.5 0.375,0.125 0.75,0 0.375,-0.125 0.5,-0.5 0.125,-0.375 0.25,-0.75 0.125,-0.375 0.5,-0.5 0.375,-0.125 0.75,0 0.375,0.125 0.5,0.5 0.125,0.375 0.25,0.75 0.125,0.375 0.5,0.5"
       id="path3359" />
    <path
       style="fill:#ffffff;fill-opacity:1"
       d="M 2.125,2.625 Q 2.25,2.25 2.625,2.125 3,2 3.375,2.125 3.75,2.25 3.875,2.625 4,3 4.125,3.375 4.25,3.75 4.625,3.875 5,4 5.375,4.125 5.75,4.25 5.875,4.625 6,5 5.875,5.375 5.75,5.75 5.375,5.875 5,6 4.625,6.125 4.25,6.25 4.125,6.625 4,7 4,7.5 4,8 4,8.5 4,9 4,9.5 4,10 4,10.5 4,11 3.875,11.375 3.75,11.75 3.375,11.875 3,12 2.625,11.875 2.25,11.75 2.125,11.375 2,11 2,10.5 2,10 2,9.5 2,9 2,8.5 2,8 2,7.5 2,7 2,6.5 2,6 2,5.5 2,5 2,4.5 2,4 2,3.5 2,3 2.125,2.625"
       id="path3361" />
    <path
       style="fill:#ffffff;fill-opacity:1"
       d="M 8.125,2.625 Q 8.25,2.25 8.625,2.125 9,2 9.375,2.125 9.75,2.25 9.875,2.625 10,3 10,3.5 q 0,0.5 0,1 0,0.5 0,1 0,0.5 0,1 0,0.5 0,1 0,0.5 0,1 0,0.5 0,1 0,0.5 0,1 0,0.5 -0.125,0.875 -0.125,0.375 -0.5,0.5 Q 9,12 8.625,11.875 8.25,11.75 8.125,11.375 8,11 8,10.5 8,10 8,9.5 8,9 7.875,8.625 7.75,8.25 7.375,8.125 7,8 6.625,7.875 6.25,7.75 6.125,7.375 6,7 6.125,6.625 6.25,6.25 6.625,6.125 7,6 7.375,5.875 7.75,5.75 7.875,5.375 8,5 8,4.5 8,4 8,3.5 8,3 8.125,2.625"
       id="path3363" />
    <path
       style="fill:#ffffff;fill-opacity:1"
       d="M 14.125,2.625 Q 14.25,2.25 14.625,2.125 15,2 15.5,2 q 0.5,0 1,0 0.5,0 1,0 0.5,0 1,0 0.5,0 0.875,0.125 0.375,0.125 0.5,0.5 0.125,0.375 0,0.75 -0.125,0.375 -0.5,0.5 Q 19,4 18.5,4 18,4 17.5,4 17,4 16.5,4 16,4 15.5,4 15,4 14.625,4.125 14.25,4.25 14.125,4.625 14,5 14.125,5.375 14.25,5.75 14.625,5.875 15,6 15.5,6 q 0.5,0 1,0 0.5,0 0.875,0.125 0.375,0.125 0.5,0.5 0.125,0.375 0,0.75 -0.125,0.375 -0.5,0.5 Q 17,8 16.5,8 16,8 15.5,8 15,8 14.625,8.125 14.25,8.25 14.125,8.625 14,9 14.125,9.375 14.25,9.75 14.625,9.875 15,10 15.5,10 q 0.5,0 1,0 0.5,0 1,0 0.5,0 1,0 0.5,0 0.875,0.125 0.375,0.125 0.5,0.5 0.125,0.375 0,0.75 -0.125,0.375 -0.5,0.5 Q 19,12 18.5,12 q -0.5,0 -1,0 -0.5,0 -1,0 -0.5,0 -1,0 -0.5,0 -0.875,-0.125 -0.375,-0.125 -0.5,-0.5 Q 14,11 13.875,10.625 13.75,10.25 13.375,10.125 13,10 12.625,9.875 12.25,9.75 12.125,9.375 12,9 12,8.5 12,8 12,7.5 12,7 12,6.5 12,6 12,5.5 12,5 12.125,4.625 12.25,4.25 12.625,4.125 13,4 13.375,3.875 13.75,3.75 13.875,3.375 14,3 14.125,2.625"
       id="path3365" />
    <path
       style="fill:#ffffff;fill-opacity:1"
       d="m 22.125,2.625 q 0.125,-0.375 0.5,-0.5 0.375,-0.125 0.75,0 0.375,0.125 0.5,0.5 Q 24,3 24,3.5 q 0,0.5 0,1 0,0.5 0,1 0,0.5 0,1 0,0.5 0,1 0,0.5 0,1 0,0.5 0.125,0.875 0.125,0.375 0.5,0.5 0.375,0.125 0.75,0 0.375,-0.125 0.5,-0.5 Q 26,9 26,8.5 26,8 26,7.5 26,7 26,6.5 26,6 26.125,5.625 26.25,5.25 26.625,5.125 27,5 27.375,5.125 27.75,5.25 27.875,5.625 28,6 28,6.5 q 0,0.5 0,1 0,0.5 0,1 0,0.5 0.125,0.875 0.125,0.375 0.5,0.5 0.375,0.125 0.75,0 0.375,-0.125 0.5,-0.5 Q 30,9 30,8.5 30,8 30,7.5 30,7 30,6.5 30,6 30,5.5 30,5 30,4.5 30,4 30,3.5 30,3 30.125,2.625 30.25,2.25 30.625,2.125 31,2 31.375,2.125 31.75,2.25 31.875,2.625 32,3 32,3.5 q 0,0.5 0,1 0,0.5 0,1 0,0.5 0,1 0,0.5 0,1 0,0.5 0,1 0,0.5 -0.125,0.875 -0.125,0.375 -0.5,0.5 -0.375,0.125 -0.75,0.25 -0.375,0.125 -0.5,0.5 -0.125,0.375 -0.25,0.75 -0.125,0.375 -0.5,0.5 -0.375,0.125 -0.75,0 -0.375,-0.125 -0.5,-0.5 Q 28,11 27.875,10.625 q -0.125,-0.375 -0.5,-0.5 -0.375,-0.125 -0.75,0 -0.375,0.125 -0.5,0.5 -0.125,0.375 -0.25,0.75 -0.125,0.375 -0.5,0.5 -0.375,0.125 -0.75,0 -0.375,-0.125 -0.5,-0.5 Q 24,11 23.875,10.625 23.75,10.25 23.375,10.125 23,10 22.625,9.875 22.25,9.75 22.125,9.375 22,9 22,8.5 22,8 22,7.5 22,7 22,6.5 22,6 22,5.5 22,5 22,4.5 22,4 22,3.5 22,3 22.125,2.625"
       id="path3367" />
  </g>
  <g
     id="g3369"
     transform="translate(0 0)">
    <path
       id="path3371"
       d="M 0,0.5 0,0 0.5,0 1,0 1.5,0 2,0 2.5,0 3,0 3.5,0 4,0 4.5,0 5,0 5.5,0 6,0 6.5,0 7,0 7.5,0 8,0 8.5,0 9,0 9.5,0 10,0 l 0.5,0 0.5,0 0.5,0 0.5,0 0.5,0 0.5,0 0.5,0 0.5,0 0.5,0 0.5,0 0.5,0 0.5,0 0.5,0 0.5,0 0.5,0 0.5,0 0.5,0 0.5,0 0.5,0 0.5,0 0.5,0 0.5,0 0.5,0 0.5,0 0.5,0 0.5,0 0.5,0 0.5,0 0.5,0 0.5,0 0.5,0 0.5,0 0.5,0 0.5,0 0.5,0 0.5,0 0.5,0 0.5,0 0.5,0 0.5,0 0.5,0 0.5,0 0.5,0 0.5,0 0.5,0 0.5,0 0.5,0 0.5,0 0,0.5 0,0.5 0,0.5 0,0.5 0,0.5 0,0.5 0,0.5 0,0.5 0,0.5 0,0.5 0,0.5 0,0.5 0,0.5 0,0.5 0,0.5 0,0.5 0,0.5 0,0.5 0,0.5 0,0.5 0,0.5 0,0.5 0,0.5 0,0.5 0,0.5 0,0.5 0,0.5 0,0.5 -0.5,0 L 33,14 32.5,14 32,14 31.5,14 31,14 30.5,14 30,14 29.5,14 29,14 28.5,14 28,14 27.5,14 27,14 26.5,14 26,14 25.5,14 25,14 24.5,14 24,14 23.5,14 23,14 22.5,14 22,14 21.5,14 21,14 20.5,14 20,14 19.5,14 19,14 18.5,14 18,14 17.5,14 17,14 16.5,14 16,14 15.5,14 15,14 14.5,14 14,14 13.5,14 13,14 12.5,14 12,14 11.5,14 11,14 10.5,14 10,14 9.5,14 9,14 8.5,14 8,14 7.5,14 7,14 6.5,14 6,14 5.5,14 5,14 4.5,14 4,14 3.5,14 3,14 2.5,14 2,14 1.5,14 1,14 0.5,14 0,14 0,13.5 0,13 0,12.5 0,12 0,11.5 0,11 0,10.5 0,10 0,9.5 0,9 0,8.5 0,8 0,7.5 0,7 0,6.5 0,6 0,5.5 0,5 0,4.5 0,4 0,3.5 0,3 0,2.5 0,2 0,1.5 0,1 0,0.5 M 2.625,11.875 Q 3,12 3.375,11.875 3.75,11.75 3.875,11.375 4,11 4,10.5 4,10 4,9.5 4,9 4,8.5 4,8 4,7.5 4,7 4.125,6.625 4.25,6.25 4.625,6.125 5,6 5.375,5.875 5.75,5.75 5.875,5.375 6,5 5.875,4.625 5.75,4.25 5.375,4.125 5,4 4.625,3.875 4.25,3.75 4.125,3.375 4,3 3.875,2.625 3.75,2.25 3.375,2.125 3,2 2.625,2.125 2.25,2.25 2.125,2.625 2,3 2,3.5 q 0,0.5 0,1 0,0.5 0,1 0,0.5 0,1 0,0.5 0,1 0,0.5 0,1 0,0.5 0,1 0,0.5 0,1 0,0.5 0.125,0.875 0.125,0.375 0.5,0.5 m 6,0 Q 9,12 9.375,11.875 9.75,11.75 9.875,11.375 10,11 10,10.5 10,10 10,9.5 10,9 10,8.5 10,8 10,7.5 10,7 10,6.5 10,6 10,5.5 10,5 10,4.5 10,4 10,3.5 10,3 9.875,2.625 9.75,2.25 9.375,2.125 9,2 8.625,2.125 8.25,2.25 8.125,2.625 8,3 8,3.5 8,4 8,4.5 8,5 7.875,5.375 7.75,5.75 7.375,5.875 7,6 6.625,6.125 6.25,6.25 6.125,6.625 6,7 6.125,7.375 6.25,7.75 6.625,7.875 7,8 7.375,8.125 7.75,8.25 7.875,8.625 8,9 8,9.5 q 0,0.5 0,1 0,0.5 0.125,0.875 0.125,0.375 0.5,0.5 M 18.5,12 q 0.5,0 0.875,-0.125 0.375,-0.125 0.5,-0.5 0.125,-0.375 0,-0.75 -0.125,-0.375 -0.5,-0.5 Q 19,10 18.5,10 q -0.5,0 -1,0 -0.5,0 -1,0 -0.5,0 -1,0 Q 15,10 14.625,9.875 14.25,9.75 14.125,9.375 14,9 14.125,8.625 14.25,8.25 14.625,8.125 15,8 15.5,8 16,8 16.5,8 17,8 17.375,7.875 17.75,7.75 17.875,7.375 18,7 17.875,6.625 17.75,6.25 17.375,6.125 17,6 16.5,6 16,6 15.5,6 15,6 14.625,5.875 14.25,5.75 14.125,5.375 14,5 14.125,4.625 14.25,4.25 14.625,4.125 15,4 15.5,4 q 0.5,0 1,0 0.5,0 1,0 0.5,0 1,0 0.5,0 0.875,-0.125 0.375,-0.125 0.5,-0.5 Q 20,3 19.875,2.625 19.75,2.25 19.375,2.125 19,2 18.5,2 18,2 17.5,2 17,2 16.5,2 16,2 15.5,2 15,2 14.625,2.125 14.25,2.25 14.125,2.625 14,3 13.875,3.375 13.75,3.75 13.375,3.875 13,4 12.625,4.125 12.25,4.25 12.125,4.625 12,5 12,5.5 q 0,0.5 0,1 0,0.5 0,1 0,0.5 0,1 0,0.5 0.125,0.875 0.125,0.375 0.5,0.5 0.375,0.125 0.75,0.25 0.375,0.125 0.5,0.5 0.125,0.375 0.25,0.75 0.125,0.375 0.5,0.5 Q 15,12 15.5,12 q 0.5,0 1,0 0.5,0 1,0 0.5,0 1,0 m 10.125,-0.125 q 0.375,0.125 0.75,0 0.375,-0.125 0.5,-0.5 Q 30,11 30.125,10.625 30.25,10.25 30.625,10.125 31,10 31.375,9.875 31.75,9.75 31.875,9.375 32,9 32,8.5 32,8 32,7.5 32,7 32,6.5 32,6 32,5.5 32,5 32,4.5 32,4 32,3.5 32,3 31.875,2.625 31.75,2.25 31.375,2.125 31,2 30.625,2.125 30.25,2.25 30.125,2.625 30,3 30,3.5 q 0,0.5 0,1 0,0.5 0,1 0,0.5 0,1 0,0.5 0,1 0,0.5 0,1 0,0.5 -0.125,0.875 -0.125,0.375 -0.5,0.5 Q 29,10 28.625,9.875 28.25,9.75 28.125,9.375 28,9 28,8.5 28,8 28,7.5 28,7 28,6.5 28,6 27.875,5.625 27.75,5.25 27.375,5.125 27,5 26.625,5.125 26.25,5.25 26.125,5.625 26,6 26,6.5 q 0,0.5 0,1 0,0.5 0,1 0,0.5 -0.125,0.875 -0.125,0.375 -0.5,0.5 Q 25,10 24.625,9.875 24.25,9.75 24.125,9.375 24,9 24,8.5 24,8 24,7.5 24,7 24,6.5 24,6 24,5.5 24,5 24,4.5 24,4 24,3.5 24,3 23.875,2.625 23.75,2.25 23.375,2.125 23,2 22.625,2.125 22.25,2.25 22.125,2.625 22,3 22,3.5 q 0,0.5 0,1 0,0.5 0,1 0,0.5 0,1 0,0.5 0,1 0,0.5 0,1 0,0.5 0.125,0.875 0.125,0.375 0.5,0.5 0.375,0.125 0.75,0.25 0.375,0.125 0.5,0.5 0.125,0.375 0.25,0.75 0.125,0.375 0.5,0.5 0.375,0.125 0.75,0 0.375,-0.125 0.5,-0.5 0.125,-0.375 0.25,-0.75 0.125,-0.375 0.5,-0.5 0.375,-0.125 0.75,0 0.375,0.125 0.5,0.5 0.125,0.375 0.25,0.75 0.125,0.375 0.5,0.5"
       style="fill:#cc0000;fill-opacity:1" />
    <path
       id="path3373"
       d="M 2.125,2.625 Q 2.25,2.25 2.625,2.125 3,2 3.375,2.125 3.75,2.25 3.875,2.625 4,3 4.125,3.375 4.25,3.75 4.625,3.875 5,4 5.375,4.125 5.75,4.25 5.875,4.625 6,5 5.875,5.375 5.75,5.75 5.375,5.875 5,6 4.625,6.125 4.25,6.25 4.125,6.625 4,7 4,7.5 4,8 4,8.5 4,9 4,9.5 4,10 4,10.5 4,11 3.875,11.375 3.75,11.75 3.375,11.875 3,12 2.625,11.875 2.25,11.75 2.125,11.375 2,11 2,10.5 2,10 2,9.5 2,9 2,8.5 2,8 2,7.5 2,7 2,6.5 2,6 2,5.5 2,5 2,4.5 2,4 2,3.5 2,3 2.125,2.625"
       style="fill:#ffffff;fill-opacity:1" />
    <path
       id="path3375"
       d="M 8.125,2.625 Q 8.25,2.25 8.625,2.125 9,2 9.375,2.125 9.75,2.25 9.875,2.625 10,3 10,3.5 q 0,0.5 0,1 0,0.5 0,1 0,0.5 0,1 0,0.5 0,1 0,0.5 0,1 0,0.5 0,1 0,0.5 0,1 0,0.5 -0.125,0.875 -0.125,0.375 -0.5,0.5 Q 9,12 8.625,11.875 8.25,11.75 8.125,11.375 8,11 8,10.5 8,10 8,9.5 8,9 7.875,8.625 7.75,8.25 7.375,8.125 7,8 6.625,7.875 6.25,7.75 6.125,7.375 6,7 6.125,6.625 6.25,6.25 6.625,6.125 7,6 7.375,5.875 7.75,5.75 7.875,5.375 8,5 8,4.5 8,4 8,3.5 8,3 8.125,2.625"
       style="fill:#ffffff;fill-opacity:1" />
    <path
       id="path3377"
       d="M 14.125,2.625 Q 14.25,2.25 14.625,2.125 15,2 15.5,2 q 0.5,0 1,0 0.5,0 1,0 0.5,0 1,0 0.5,0 0.875,0.125 0.375,0.125 0.5,0.5 0.125,0.375 0,0.75 -0.125,0.375 -0.5,0.5 Q 19,4 18.5,4 18,4 17.5,4 17,4 16.5,4 16,4 15.5,4 15,4 14.625,4.125 14.25,4.25 14.125,4.625 14,5 14.125,5.375 14.25,5.75 14.625,5.875 15,6 15.5,6 q 0.5,0 1,0 0.5,0 0.875,0.125 0.375,0.125 0.5,0.5 0.125,0.375 0,0.75 -0.125,0.375 -0.5,0.5 Q 17,8 16.5,8 16,8 15.5,8 15,8 14.625,8.125 14.25,8.25 14.125,8.625 14,9 14.125,9.375 14.25,9.75 14.625,9.875 15,10 15.5,10 q 0.5,0 1,0 0.5,0 1,0 0.5,0 1,0 0.5,0 0.875,0.125 0.375,0.125 0.5,0.5 0.125,0.375 0,0.75 -0.125,0.375 -0.5,0.5 Q 19,12 18.5,12 q -0.5,0 -1,0 -0.5,0 -1,0 -0.5,0 -1,0 -0.5,0 -0.875,-0.125 -0.375,-0.125 -0.5,-0.5 Q 14,11 13.875,10.625 13.75,10.25 13.375,10.125 13,10 12.625,9.875 12.25,9.75 12.125,9.375 12,9 12,8.5 12,8 12,7.5 12,7 12,6.5 12,6 12,5.5 12,5 12.125,4.625 12.25,4.25 12.625,4.125 13,4 13.375,3.875 13.75,3.75 13.875,3.375 14,3 14.125,2.625"
       style="fill:#ffffff;fill-opacity:1" />
    <path
       id="path3379"
       d="m 22.125,2.625 q 0.125,-0.375 0.5,-0.5 0.375,-0.125 0.75,0 0.375,0.125 0.5,0.5 Q 24,3 24,3.5 q 0,0.5 0,1 0,0.5 0,1 0,0.5 0,1 0,0.5 0,1 0,0.5 0,1 0,0.5 0.125,0.875 0.125,0.375 0.5,0.5 0.375,0.125 0.75,0 0.375,-0.125 0.5,-0.5 Q 26,9 26,8.5 26,8 26,7.5 26,7 26,6.5 26,6 26.125,5.625 26.25,5.25 26.625,5.125 27,5 27.375,5.125 27.75,5.25 27.875,5.625 28,6 28,6.5 q 0,0.5 0,1 0,0.5 0,1 0,0.5 0.125,0.875 0.125,0.375 0.5,0.5 0.375,0.125 0.75,0 0.375,-0.125 0.5,-0.5 Q 30,9 30,8.5 30,8 30,7.5 30,7 30,6.5 30,6 30,5.5 30,5 30,4.5 30,4 30,3.5 30,3 30.125,2.625 30.25,2.25 30.625,2.125 31,2 31.375,2.125 31.75,2.25 31.875,2.625 32,3 32,3.5 q 0,0.5 0,1 0,0.5 0,1 0,0.5 0,1 0,0.5 0,1 0,0.5 0,1 0,0.5 -0.125,0.875 -0.125,0.375 -0.5,0.5 -0.375,0.125 -0.75,0.25 -0.375,0.125 -0.5,0.5 -0.125,0.375 -0.25,0.75 -0.125,0.375 -0.5,0.5 -0.375,0.125 -0.75,0 -0.375,-0.125 -0.5,-0.5 Q 28,11 27.875,10.625 q -0.125,-0.375 -0.5,-0.5 -0.375,-0.125 -0.75,0 -0.375,0.125 -0.5,0.5 -0.125,0.375 -0.25,0.75 -0.125,0.375 -0.5,0.5 -0.375,0.125 -0.75,0 -0.375,-0.125 -0.5,-0.5 Q 24,11 23.875,10.625 23.75,10.25 23.375,10.125 23,10 22.625,9.875 22.25,9.75 22.125,9.375 22,9 22,8.5 22,8 22,7.5 22,7 22,6.5 22,6 22,5.5 22,5 22,4.5 22,4 22,3.5 22,3 22.125,2.625"
       style="fill:#ffffff;fill-opacity:1" />
  </g>
  <g
     transform="translate(0 0)"
     id="g3381">
    <path
       style="fill:#cc0000;fill-opacity:1"
       d="M 0,0.5 0,0 0.5,0 1,0 1.5,0 2,0 2.5,0 3,0 3.5,0 4,0 4.5,0 5,0 5.5,0 6,0 6.5,0 7,0 7.5,0 8,0 8.5,0 9,0 9.5,0 10,0 l 0.5,0 0.5,0 0.5,0 0.5,0 0.5,0 0.5,0 0.5,0 0.5,0 0.5,0 0.5,0 0.5,0 0.5,0 0.5,0 0.5,0 0.5,0 0.5,0 0.5,0 0.5,0 0.5,0 0.5,0 0.5,0 0.5,0 0.5,0 0.5,0 0.5,0 0.5,0 0.5,0 0.5,0 0.5,0 0.5,0 0.5,0 0.5,0 0.5,0 0.5,0 0.5,0 0.5,0 0.5,0 0.5,0 0.5,0 0.5,0 0.5,0 0.5,0 0.5,0 0.5,0 0.5,0 0.5,0 0.5,0 0.5,0 0,0.5 0,0.5 0,0.5 0,0.5 0,0.5 0,0.5 0,0.5 0,0.5 0,0.5 0,0.5 0,0.5 0,0.5 0,0.5 0,0.5 0,0.5 0,0.5 0,0.5 0,0.5 0,0.5 0,0.5 0,0.5 0,0.5 0,0.5 0,0.5 0,0.5 0,0.5 0,0.5 0,0.5 -0.5,0 L 33,14 32.5,14 32,14 31.5,14 31,14 30.5,14 30,14 29.5,14 29,14 28.5,14 28,14 27.5,14 27,14 26.5,14 26,14 25.5,14 25,14 24.5,14 24,14 23.5,14 23,14 22.5,14 22,14 21.5,14 21,14 20.5,14 20,14 19.5,14 19,14 18.5,14 18,14 17.5,14 17,14 16.5,14 16,14 15.5,14 15,14 14.5,14 14,14 13.5,14 13,14 12.5,14 12,14 11.5,14 11,14 10.5,14 10,14 9.5,14 9,14 8.5,14 8,14 7.5,14 7,14 6.5,14 6,14 5.5,14 5,14 4.5,14 4,14 3.5,14 3,14 2.5,14 2,14 1.5,14 1,14 0.5,14 0,14 0,13.5 0,13 0,12.5 0,12 0,11.5 0,11 0,10.5 0,10 0,9.5 0,9 0,8.5 0,8 0,7.5 0,7 0,6.5 0,6 0,5.5 0,5 0,4.5 0,4 0,3.5 0,3 0,2.5 0,2 0,1.5 0,1 0,0.5 M 2.625,11.875 Q 3,12 3.375,11.875 3.75,11.75 3.875,11.375 4,11 4,10.5 4,10 4,9.5 4,9 4,8.5 4,8 4,7.5 4,7 4.125,6.625 4.25,6.25 4.625,6.125 5,6 5.375,5.875 5.75,5.75 5.875,5.375 6,5 5.875,4.625 5.75,4.25 5.375,4.125 5,4 4.625,3.875 4.25,3.75 4.125,3.375 4,3 3.875,2.625 3.75,2.25 3.375,2.125 3,2 2.625,2.125 2.25,2.25 2.125,2.625 2,3 2,3.5 q 0,0.5 0,1 0,0.5 0,1 0,0.5 0,1 0,0.5 0,1 0,0.5 0,1 0,0.5 0,1 0,0.5 0,1 0,0.5 0.125,0.875 0.125,0.375 0.5,0.5 m 6,0 Q 9,12 9.375,11.875 9.75,11.75 9.875,11.375 10,11 10,10.5 10,10 10,9.5 10,9 10,8.5 10,8 10,7.5 10,7 10,6.5 10,6 10,5.5 10,5 10,4.5 10,4 10,3.5 10,3 9.875,2.625 9.75,2.25 9.375,2.125 9,2 8.625,2.125 8.25,2.25 8.125,2.625 8,3 8,3.5 8,4 8,4.5 8,5 7.875,5.375 7.75,5.75 7.375,5.875 7,6 6.625,6.125 6.25,6.25 6.125,6.625 6,7 6.125,7.375 6.25,7.75 6.625,7.875 7,8 7.375,8.125 7.75,8.25 7.875,8.625 8,9 8,9.5 q 0,0.5 0,1 0,0.5 0.125,0.875 0.125,0.375 0.5,0.5 M 18.5,12 q 0.5,0 0.875,-0.125 0.375,-0.125 0.5,-0.5 0.125,-0.375 0,-0.75 -0.125,-0.375 -0.5,-0.5 Q 19,10 18.5,10 q -0.5,0 -1,0 -0.5,0 -1,0 -0.5,0 -1,0 Q 15,10 14.625,9.875 14.25,9.75 14.125,9.375 14,9 14.125,8.625 14.25,8.25 14.625,8.125 15,8 15.5,8 16,8 16.5,8 17,8 17.375,7.875 17.75,7.75 17.875,7.375 18,7 17.875,6.625 17.75,6.25 17.375,6.125 17,6 16.5,6 16,6 15.5,6 15,6 14.625,5.875 14.25,5.75 14.125,5.375 14,5 14.125,4.625 14.25,4.25 14.625,4.125 15,4 15.5,4 q 0.5,0 1,0 0.5,0 1,0 0.5,0 1,0 0.5,0 0.875,-0.125 0.375,-0.125 0.5,-0.5 Q 20,3 19.875,2.625 19.75,2.25 19.375,2.125 19,2 18.5,2 18,2 17.5,2 17,2 16.5,2 16,2 15.5,2 15,2 14.625,2.125 14.25,2.25 14.125,2.625 14,3 13.875,3.375 13.75,3.75 13.375,3.875 13,4 12.625,4.125 12.25,4.25 12.125,4.625 12,5 12,5.5 q 0,0.5 0,1 0,0.5 0,1 0,0.5 0,1 0,0.5 0.125,0.875 0.125,0.375 0.5,0.5 0.375,0.125 0.75,0.25 0.375,0.125 0.5,0.5 0.125,0.375 0.25,0.75 0.125,0.375 0.5,0.5 Q 15,12 15.5,12 q 0.5,0 1,0 0.5,0 1,0 0.5,0 1,0 m 10.125,-0.125 q 0.375,0.125 0.75,0 0.375,-0.125 0.5,-0.5 Q 30,11 30.125,10.625 30.25,10.25 30.625,10.125 31,10 31.375,9.875 31.75,9.75 31.875,9.375 32,9 32,8.5 32,8 32,7.5 32,7 32,6.5 32,6 32,5.5 32,5 32,4.5 32,4 32,3.5 32,3 31.875,2.625 31.75,2.25 31.375,2.125 31,2 30.625,2.125 30.25,2.25 30.125,2.625 30,3 30,3.5 q 0,0.5 0,1 0,0.5 0,1 0,0.5 0,1 0,0.5 0,1 0,0.5 0,1 0,0.5 -0.125,0.875 -0.125,0.375 -0.5,0.5 Q 29,10 28.625,9.875 28.25,9.75 28.125,9.375 28,9 28,8.5 28,8 28,7.5 28,7 28,6.5 28,6 27.875,5.625 27.75,5.25 27.375,5.125 27,5 26.625,5.125 26.25,5.25 26.125,5.625 26,6 26,6.5 q 0,0.5 0,1 0,0.5 0,1 0,0.5 -0.125,0.875 -0.125,0.375 -0.5,0.5 Q 25,10 24.625,9.875 24.25,9.75 24.125,9.375 24,9 24,8.5 24,8 24,7.5 24,7 24,6.5 24,6 24,5.5 24,5 24,4.5 24,4 24,3.5 24,3 23.875,2.625 23.75,2.25 23.375,2.125 23,2 22.625,2.125 22.25,2.25 22.125,2.625 22,3 22,3.5 q 0,0.5 0,1 0,0.5 0,1 0,0.5 0,1 0,0.5 0,1 0,0.5 0,1 0,0.5 0.125,0.875 0.125,0.375 0.5,0.5 0.375,0.125 0.75,0.25 0.375,0.125 0.5,0.5 0.125,0.375 0.25,0.75 0.125,0.375 0.5,0.5 0.375,0.125 0.75,0 0.375,-0.125 0.5,-0.5 0.125,-0.375 0.25,-0.75 0.125,-0.375 0.5,-0.5 0.375,-0.125 0.75,0 0.375,0.125 0.5,0.5 0.125,0.375 0.25,0.75 0.125,0.375 0.5,0.5"
       id="path3383" />
    <path
       style="fill:#ffffff;fill-opacity:1"
       d="M 2.125,2.625 Q 2.25,2.25 2.625,2.125 3,2 3.375,2.125 3.75,2.25 3.875,2.625 4,3 4.125,3.375 4.25,3.75 4.625,3.875 5,4 5.375,4.125 5.75,4.25 5.875,4.625 6,5 5.875,5.375 5.75,5.75 5.375,5.875 5,6 4.625,6.125 4.25,6.25 4.125,6.625 4,7 4,7.5 4,8 4,8.5 4,9 4,9.5 4,10 4,10.5 4,11 3.875,11.375 3.75,11.75 3.375,11.875 3,12 2.625,11.875 2.25,11.75 2.125,11.375 2,11 2,10.5 2,10 2,9.5 2,9 2,8.5 2,8 2,7.5 2,7 2,6.5 2,6 2,5.5 2,5 2,4.5 2,4 2,3.5 2,3 2.125,2.625"
       id="path3385" />
    <path
       style="fill:#ffffff;fill-opacity:1"
       d="M 8.125,2.625 Q 8.25,2.25 8.625,2.125 9,2 9.375,2.125 9.75,2.25 9.875,2.625 10,3 10,3.5 q 0,0.5 0,1 0,0.5 0,1 0,0.5 0,1 0,0.5 0,1 0,0.5 0,1 0,0.5 0,1 0,0.5 0,1 0,0.5 -0.125,0.875 -0.125,0.375 -0.5,0.5 Q 9,12 8.625,11.875 8.25,11.75 8.125,11.375 8,11 8,10.5 8,10 8,9.5 8,9 7.875,8.625 7.75,8.25 7.375,8.125 7,8 6.625,7.875 6.25,7.75 6.125,7.375 6,7 6.125,6.625 6.25,6.25 6.625,6.125 7,6 7.375,5.875 7.75,5.75 7.875,5.375 8,5 8,4.5 8,4 8,3.5 8,3 8.125,2.625"
       id="path3387" />
    <path
       style="fill:#ffffff;fill-opacity:1"
       d="M 14.125,2.625 Q 14.25,2.25 14.625,2.125 15,2 15.5,2 q 0.5,0 1,0 0.5,0 1,0 0.5,0 1,0 0.5,0 0.875,0.125 0.375,0.125 0.5,0.5 0.125,0.375 0,0.75 -0.125,0.375 -0.5,0.5 Q 19,4 18.5,4 18,4 17.5,4 17,4 16.5,4 16,4 15.5,4 15,4 14.625,4.125 14.25,4.25 14.125,4.625 14,5 14.125,5.375 14.25,5.75 14.625,5.875 15,6 15.5,6 q 0.5,0 1,0 0.5,0 0.875,0.125 0.375,0.125 0.5,0.5 0.125,0.375 0,0.75 -0.125,0.375 -0.5,0.5 Q 17,8 16.5,8 16,8 15.5,8 15,8 14.625,8.125 14.25,8.25 14.125,8.625 14,9 14.125,9.375 14.25,9.75 14.625,9.875 15,10 15.5,10 q 0.5,0 1,0 0.5,0 1,0 0.5,0 1,0 0.5,0 0.875,0.125 0.375,0.125 0.5,0.5 0.125,0.375 0,0.75 -0.125,0.375 -0.5,0.5 Q 19,12 18.5,12 q -0.5,0 -1,0 -0.5,0 -1,0 -0.5,0 -1,0 -0.5,0 -0.875,-0.125 -0.375,-0.125 -0.5,-0.5 Q 14,11 13.875,10.625 13.75,10.25 13.375,10.125 13,10 12.625,9.875 12.25,9.75 12.125,9.375 12,9 12,8.5 12,8 12,7.5 12,7 12,6.5 12,6 12,5.5 12,5 12.125,4.625 12.25,4.25 12.625,4.125 13,4 13.375,3.875 13.75,3.75 13.875,3.375 14,3 14.125,2.625"
       id="path3389" />
    <path
       style="fill:#ffffff;fill-opacity:1"
       d="m 22.125,2.625 q 0.125,-0.375 0.5,-0.5 0.375,-0.125 0.75,0 0.375,0.125 0.5,0.5 Q 24,3 24,3.5 q 0,0.5 0,1 0,0.5 0,1 0,0.5 0,1 0,0.5 0,1 0,0.5 0,1 0,0.5 0.125,0.875 0.125,0.375 0.5,0.5 0.375,0.125 0.75,0 0.375,-0.125 0.5,-0.5 Q 26,9 26,8.5 26,8 26,7.5 26,7 26,6.5 26,6 26.125,5.625 26.25,5.25 26.625,5.125 27,5 27.375,5.125 27.75,5.25 27.875,5.625 28,6 28,6.5 q 0,0.5 0,1 0,0.5 0,1 0,0.5 0.125,0.875 0.125,0.375 0.5,0.5 0.375,0.125 0.75,0 0.375,-0.125 0.5,-0.5 Q 30,9 30,8.5 30,8 30,7.5 30,7 30,6.5 30,6 30,5.5 30,5 30,4.5 30,4 30,3.5 30,3 30.125,2.625 30.25,2.25 30.625,2.125 31,2 31.375,2.125 31.75,2.25 31.875,2.625 32,3 32,3.5 q 0,0.5 0,1 0,0.5 0,1 0,0.5 0,1 0,0.5 0,1 0,0.5 0,1 0,0.5 -0.125,0.875 -0.125,0.375 -0.5,0.5 -0.375,0.125 -0.75,0.25 -0.375,0.125 -0.5,0.5 -0.125,0.375 -0.25,0.75 -0.125,0.375 -0.5,0.5 -0.375,0.125 -0.75,0 -0.375,-0.125 -0.5,-0.5 Q 28,11 27.875,10.625 q -0.125,-0.375 -0.5,-0.5 -0.375,-0.125 -0.75,0 -0.375,0.125 -0.5,0.5 -0.125,0.375 -0.25,0.75 -0.125,0.375 -0.5,0.5 -0.375,0.125 -0.75,0 -0.375,-0.125 -0.5,-0.5 Q 24,11 23.875,10.625 23.75,10.25 23.375,10.125 23,10 22.625,9.875 22.25,9.75 22.125,9.375 22,9 22,8.5 22,8 22,7.5 22,7 22,6.5 22,6 22,5.5 22,5 22,4.5 22,4 22,3.5 22,3 22.125,2.625"
       id="path3391" />
  </g>
  <g
     id="g3393"
     transform="translate(0 0)">
    <path
       id="path3395"
       d="M 0,0.5 0,0 0.5,0 1,0 1.5,0 2,0 2.5,0 3,0 3.5,0 4,0 4.5,0 5,0 5.5,0 6,0 6.5,0 7,0 7.5,0 8,0 8.5,0 9,0 9.5,0 10,0 l 0.5,0 0.5,0 0.5,0 0.5,0 0.5,0 0.5,0 0.5,0 0.5,0 0.5,0 0.5,0 0.5,0 0.5,0 0.5,0 0.5,0 0.5,0 0.5,0 0.5,0 0.5,0 0.5,0 0.5,0 0.5,0 0.5,0 0.5,0 0.5,0 0.5,0 0.5,0 0.5,0 0.5,0 0.5,0 0.5,0 0.5,0 0.5,0 0.5,0 0.5,0 0.5,0 0.5,0 0.5,0 0.5,0 0.5,0 0.5,0 0.5,0 0.5,0 0.5,0 0.5,0 0.5,0 0.5,0 0.5,0 0.5,0 0,0.5 0,0.5 0,0.5 0,0.5 0,0.5 0,0.5 0,0.5 0,0.5 0,0.5 0,0.5 0,0.5 0,0.5 0,0.5 0,0.5 0,0.5 0,0.5 0,0.5 0,0.5 0,0.5 0,0.5 0,0.5 0,0.5 0,0.5 0,0.5 0,0.5 0,0.5 0,0.5 0,0.5 -0.5,0 L 33,14 32.5,14 32,14 31.5,14 31,14 30.5,14 30,14 29.5,14 29,14 28.5,14 28,14 27.5,14 27,14 26.5,14 26,14 25.5,14 25,14 24.5,14 24,14 23.5,14 23,14 22.5,14 22,14 21.5,14 21,14 20.5,14 20,14 19.5,14 19,14 18.5,14 18,14 17.5,14 17,14 16.5,14 16,14 15.5,14 15,14 14.5,14 14,14 13.5,14 13,14 12.5,14 12,14 11.5,14 11,14 10.5,14 10,14 9.5,14 9,14 8.5,14 8,14 7.5,14 7,14 6.5,14 6,14 5.5,14 5,14 4.5,14 4,14 3.5,14 3,14 2.5,14 2,14 1.5,14 1,14 0.5,14 0,14 0,13.5 0,13 0,12.5 0,12 0,11.5 0,11 0,10.5 0,10 0,9.5 0,9 0,8.5 0,8 0,7.5 0,7 0,6.5 0,6 0,5.5 0,5 0,4.5 0,4 0,3.5 0,3 0,2.5 0,2 0,1.5 0,1 0,0.5 M 2.625,11.875 Q 3,12 3.375,11.875 3.75,11.75 3.875,11.375 4,11 4,10.5 4,10 4,9.5 4,9 4,8.5 4,8 4,7.5 4,7 4.125,6.625 4.25,6.25 4.625,6.125 5,6 5.375,5.875 5.75,5.75 5.875,5.375 6,5 5.875,4.625 5.75,4.25 5.375,4.125 5,4 4.625,3.875 4.25,3.75 4.125,3.375 4,3 3.875,2.625 3.75,2.25 3.375,2.125 3,2 2.625,2.125 2.25,2.25 2.125,2.625 2,3 2,3.5 q 0,0.5 0,1 0,0.5 0,1 0,0.5 0,1 0,0.5 0,1 0,0.5 0,1 0,0.5 0,1 0,0.5 0,1 0,0.5 0.125,0.875 0.125,0.375 0.5,0.5 m 6,0 Q 9,12 9.375,11.875 9.75,11.75 9.875,11.375 10,11 10,10.5 10,10 10,9.5 10,9 10,8.5 10,8 10,7.5 10,7 10,6.5 10,6 10,5.5 10,5 10,4.5 10,4 10,3.5 10,3 9.875,2.625 9.75,2.25 9.375,2.125 9,2 8.625,2.125 8.25,2.25 8.125,2.625 8,3 8,3.5 8,4 8,4.5 8,5 7.875,5.375 7.75,5.75 7.375,5.875 7,6 6.625,6.125 6.25,6.25 6.125,6.625 6,7 6.125,7.375 6.25,7.75 6.625,7.875 7,8 7.375,8.125 7.75,8.25 7.875,8.625 8,9 8,9.5 q 0,0.5 0,1 0,0.5 0.125,0.875 0.125,0.375 0.5,0.5 M 18.5,12 q 0.5,0 0.875,-0.125 0.375,-0.125 0.5,-0.5 0.125,-0.375 0,-0.75 -0.125,-0.375 -0.5,-0.5 Q 19,10 18.5,10 q -0.5,0 -1,0 -0.5,0 -1,0 -0.5,0 -1,0 Q 15,10 14.625,9.875 14.25,9.75 14.125,9.375 14,9 14.125,8.625 14.25,8.25 14.625,8.125 15,8 15.5,8 16,8 16.5,8 17,8 17.375,7.875 17.75,7.75 17.875,7.375 18,7 17.875,6.625 17.75,6.25 17.375,6.125 17,6 16.5,6 16,6 15.5,6 15,6 14.625,5.875 14.25,5.75 14.125,5.375 14,5 14.125,4.625 14.25,4.25 14.625,4.125 15,4 15.5,4 q 0.5,0 1,0 0.5,0 1,0 0.5,0 1,0 0.5,0 0.875,-0.125 0.375,-0.125 0.5,-0.5 Q 20,3 19.875,2.625 19.75,2.25 19.375,2.125 19,2 18.5,2 18,2 17.5,2 17,2 16.5,2 16,2 15.5,2 15,2 14.625,2.125 14.25,2.25 14.125,2.625 14,3 13.875,3.375 13.75,3.75 13.375,3.875 13,4 12.625,4.125 12.25,4.25 12.125,4.625 12,5 12,5.5 q 0,0.5 0,1 0,0.5 0,1 0,0.5 0,1 0,0.5 0.125,0.875 0.125,0.375 0.5,0.5 0.375,0.125 0.75,0.25 0.375,0.125 0.5,0.5 0.125,0.375 0.25,0.75 0.125,0.375 0.5,0.5 Q 15,12 15.5,12 q 0.5,0 1,0 0.5,0 1,0 0.5,0 1,0 m 10.125,-0.125 q 0.375,0.125 0.75,0 0.375,-0.125 0.5,-0.5 Q 30,11 30.125,10.625 30.25,10.25 30.625,10.125 31,10 31.375,9.875 31.75,9.75 31.875,9.375 32,9 32,8.5 32,8 32,7.5 32,7 32,6.5 32,6 32,5.5 32,5 32,4.5 32,4 32,3.5 32,3 31.875,2.625 31.75,2.25 31.375,2.125 31,2 30.625,2.125 30.25,2.25 30.125,2.625 30,3 30,3.5 q 0,0.5 0,1 0,0.5 0,1 0,0.5 0,1 0,0.5 0,1 0,0.5 0,1 0,0.5 -0.125,0.875 -0.125,0.375 -0.5,0.5 Q 29,10 28.625,9.875 28.25,9.75 28.125,9.375 28,9 28,8.5 28,8 28,7.5 28,7 28,6.5 28,6 27.875,5.625 27.75,5.25 27.375,5.125 27,5 26.625,5.125 26.25,5.25 26.125,5.625 26,6 26,6.5 q 0,0.5 0,1 0,0.5 0,1 0,0.5 -0.125,0.875 -0.125,0.375 -0.5,0.5 Q 25,10 24.625,9.875 24.25,9.75 24.125,9.375 24,9 24,8.5 24,8 24,7.5 24,7 24,6.5 24,6 24,5.5 24,5 24,4.5 24,4 24,3.5 24,3 23.875,2.625 23.75,2.25 23.375,2.125 23,2 22.625,2.125 22.25,2.25 22.125,2.625 22,3 22,3.5 q 0,0.5 0,1 0,0.5 0,1 0,0.5 0,1 0,0.5 0,1 0,0.5 0,1 0,0.5 0.125,0.875 0.125,0.375 0.5,0.5 0.375,0.125 0.75,0.25 0.375,0.125 0.5,0.5 0.125,0.375 0.25,0.75 0.125,0.375 0.5,0.5 0.375,0.125 0.75,0 0.375,-0.125 0.5,-0.5 0.125,-0.375 0.25,-0.75 0.125,-0.375 0.5,-0.5 0.375,-0.125 0.75,0 0.375,0.125 0.5,0.5 0.125,0.375 0.25,0.75 0.125,0.375 0.5,0.5"
       style="fill:#cc0000;fill-opacity:1" />
    <path
       id="path3397"
       d="M 2.125,2.625 Q 2.25,2.25 2.625,2.125 3,2 3.375,2.125 3.75,2.25 3.875,2.625 4,3 4.125,3.375 4.25,3.75 4.625,3.875 5,4 5.375,4.125 5.75,4.25 5.875,4.625 6,5 5.875,5.375 5.75,5.75 5.375,5.875 5,6 4.625,6.125 4.25,6.25 4.125,6.625 4,7 4,7.5 4,8 4,8.5 4,9 4,9.5 4,10 4,10.5 4,11 3.875,11.375 3.75,11.75 3.375,11.875 3,12 2.625,11.875 2.25,11.75 2.125,11.375 2,11 2,10.5 2,10 2,9.5 2,9 2,8.5 2,8 2,7.5 2,7 2,6.5 2,6 2,5.5 2,5 2,4.5 2,4 2,3.5 2,3 2.125,2.625"
       style="fill:#ffffff;fill-opacity:1" />
    <path
       id="path3399"
       d="M 8.125,2.625 Q 8.25,2.25 8.625,2.125 9,2 9.375,2.125 9.75,2.25 9.875,2.625 10,3 10,3.5 q 0,0.5 0,1 0,0.5 0,1 0,0.5 0,1 0,0.5 0,1 0,0.5 0,1 0,0.5 0,1 0,0.5 0,1 0,0.5 -0.125,0.875 -0.125,0.375 -0.5,0.5 Q 9,12 8.625,11.875 8.25,11.75 8.125,11.375 8,11 8,10.5 8,10 8,9.5 8,9 7.875,8.625 7.75,8.25 7.375,8.125 7,8 6.625,7.875 6.25,7.75 6.125,7.375 6,7 6.125,6.625 6.25,6.25 6.625,6.125 7,6 7.375,5.875 7.75,5.75 7.875,5.375 8,5 8,4.5 8,4 8,3.5 8,3 8.125,2.625"
       style="fill:#ffffff;fill-opacity:1" />
    <path
       id="path3401"
       d="M 14.125,2.625 Q 14.25,2.25 14.625,2.125 15,2 15.5,2 q 0.5,0 1,0 0.5,0 1,0 0.5,0 1,0 0.5,0 0.875,0.125 0.375,0.125 0.5,0.5 0.125,0.375 0,0.75 -0.125,0.375 -0.5,0.5 Q 19,4 18.5,4 18,4 17.5,4 17,4 16.5,4 16,4 15.5,4 15,4 14.625,4.125 14.25,4.25 14.125,4.625 14,5 14.125,5.375 14.25,5.75 14.625,5.875 15,6 15.5,6 q 0.5,0 1,0 0.5,0 0.875,0.125 0.375,0.125 0.5,0.5 0.125,0.375 0,0.75 -0.125,0.375 -0.5,0.5 Q 17,8 16.5,8 16,8 15.5,8 15,8 14.625,8.125 14.25,8.25 14.125,8.625 14,9 14.125,9.375 14.25,9.75 14.625,9.875 15,10 15.5,10 q 0.5,0 1,0 0.5,0 1,0 0.5,0 1,0 0.5,0 0.875,0.125 0.375,0.125 0.5,0.5 0.125,0.375 0,0.75 -0.125,0.375 -0.5,0.5 Q 19,12 18.5,12 q -0.5,0 -1,0 -0.5,0 -1,0 -0.5,0 -1,0 -0.5,0 -0.875,-0.125 -0.375,-0.125 -0.5,-0.5 Q 14,11 13.875,10.625 13.75,10.25 13.375,10.125 13,10 12.625,9.875 12.25,9.75 12.125,9.375 12,9 12,8.5 12,8 12,7.5 12,7 12,6.5 12,6 12,5.5 12,5 12.125,4.625 12.25,4.25 12.625,4.125 13,4 13.375,3.875 13.75,3.75 13.875,3.375 14,3 14.125,2.625"
       style="fill:#ffffff;fill-opacity:1" />
    <path
       id="path3403"
       d="m 22.125,2.625 q 0.125,-0.375 0.5,-0.5 0.375,-0.125 0.75,0 0.375,0.125 0.5,0.5 Q 24,3 24,3.5 q 0,0.5 0,1 0,0.5 0,1 0,0.5 0,1 0,0.5 0,1 0,0.5 0,1 0,0.5 0.125,0.875 0.125,0.375 0.5,0.5 0.375,0.125 0.75,0 0.375,-0.125 0.5,-0.5 Q 26,9 26,8.5 26,8 26,7.5 26,7 26,6.5 26,6 26.125,5.625 26.25,5.25 26.625,5.125 27,5 27.375,5.125 27.75,5.25 27.875,5.625 28,6 28,6.5 q 0,0.5 0,1 0,0.5 0,1 0,0.5 0.125,0.875 0.125,0.375 0.5,0.5 0.375,0.125 0.75,0 0.375,-0.125 0.5,-0.5 Q 30,9 30,8.5 30,8 30,7.5 30,7 30,6.5 30,6 30,5.5 30,5 30,4.5 30,4 30,3.5 30,3 30.125,2.625 30.25,2.25 30.625,2.125 31,2 31.375,2.125 31.75,2.25 31.875,2.625 32,3 32,3.5 q 0,0.5 0,1 0,0.5 0,1 0,0.5 0,1 0,0.5 0,1 0,0.5 0,1 0,0.5 -0.125,0.875 -0.125,0.375 -0.5,0.5 -0.375,0.125 -0.75,0.25 -0.375,0.125 -0.5,0.5 -0.125,0.375 -0.25,0.75 -0.125,0.375 -0.5,0.5 -0.375,0.125 -0.75,0 -0.375,-0.125 -0.5,-0.5 Q 28,11 27.875,10.625 q -0.125,-0.375 -0.5,-0.5 -0.375,-0.125 -0.75,0 -0.375,0.125 -0.5,0.5 -0.125,0.375 -0.25,0.75 -0.125,0.375 -0.5,0.5 -0.375,0.125 -0.75,0 -0.375,-0.125 -0.5,-0.5 Q 24,11 23.875,10.625 23.75,10.25 23.375,10.125 23,10 22.625,9.875 22.25,9.75 22.125,9.375 22,9 22,8.5 22,8 22,7.5 22,7 22,6.5 22,6 22,5.5 22,5 22,4.5 22,4 22,3.5 22,3 22.125,2.625"
       style="fill:#ffffff;fill-opacity:1" />
  </g>
  <g
     transform="translate(0 0)"
     id="g3405">
    <path
       style="fill:#cc0000;fill-opacity:1"
       d="M 0,0.5 0,0 0.5,0 1,0 1.5,0 2,0 2.5,0 3,0 3.5,0 4,0 4.5,0 5,0 5.5,0 6,0 6.5,0 7,0 7.5,0 8,0 8.5,0 9,0 9.5,0 10,0 l 0.5,0 0.5,0 0.5,0 0.5,0 0.5,0 0.5,0 0.5,0 0.5,0 0.5,0 0.5,0 0.5,0 0.5,0 0.5,0 0.5,0 0.5,0 0.5,0 0.5,0 0.5,0 0.5,0 0.5,0 0.5,0 0.5,0 0.5,0 0.5,0 0.5,0 0.5,0 0.5,0 0.5,0 0.5,0 0.5,0 0.5,0 0.5,0 0.5,0 0.5,0 0.5,0 0.5,0 0.5,0 0.5,0 0.5,0 0.5,0 0.5,0 0.5,0 0.5,0 0.5,0 0.5,0 0.5,0 0.5,0 0.5,0 0,0.5 0,0.5 0,0.5 0,0.5 0,0.5 0,0.5 0,0.5 0,0.5 0,0.5 0,0.5 0,0.5 0,0.5 0,0.5 0,0.5 0,0.5 0,0.5 0,0.5 0,0.5 0,0.5 0,0.5 0,0.5 0,0.5 0,0.5 0,0.5 0,0.5 0,0.5 0,0.5 0,0.5 -0.5,0 L 33,14 32.5,14 32,14 31.5,14 31,14 30.5,14 30,14 29.5,14 29,14 28.5,14 28,14 27.5,14 27,14 26.5,14 26,14 25.5,14 25,14 24.5,14 24,14 23.5,14 23,14 22.5,14 22,14 21.5,14 21,14 20.5,14 20,14 19.5,14 19,14 18.5,14 18,14 17.5,14 17,14 16.5,14 16,14 15.5,14 15,14 14.5,14 14,14 13.5,14 13,14 12.5,14 12,14 11.5,14 11,14 10.5,14 10,14 9.5,14 9,14 8.5,14 8,14 7.5,14 7,14 6.5,14 6,14 5.5,14 5,14 4.5,14 4,14 3.5,14 3,14 2.5,14 2,14 1.5,14 1,14 0.5,14 0,14 0,13.5 0,13 0,12.5 0,12 0,11.5 0,11 0,10.5 0,10 0,9.5 0,9 0,8.5 0,8 0,7.5 0,7 0,6.5 0,6 0,5.5 0,5 0,4.5 0,4 0,3.5 0,3 0,2.5 0,2 0,1.5 0,1 0,0.5 M 2.625,11.875 Q 3,12 3.375,11.875 3.75,11.75 3.875,11.375 4,11 4,10.5 4,10 4,9.5 4,9 4,8.5 4,8 4,7.5 4,7 4.125,6.625 4.25,6.25 4.625,6.125 5,6 5.375,5.875 5.75,5.75 5.875,5.375 6,5 5.875,4.625 5.75,4.25 5.375,4.125 5,4 4.625,3.875 4.25,3.75 4.125,3.375 4,3 3.875,2.625 3.75,2.25 3.375,2.125 3,2 2.625,2.125 2.25,2.25 2.125,2.625 2,3 2,3.5 q 0,0.5 0,1 0,0.5 0,1 0,0.5 0,1 0,0.5 0,1 0,0.5 0,1 0,0.5 0,1 0,0.5 0,1 0,0.5 0.125,0.875 0.125,0.375 0.5,0.5 m 6,0 Q 9,12 9.375,11.875 9.75,11.75 9.875,11.375 10,11 10,10.5 10,10 10,9.5 10,9 10,8.5 10,8 10,7.5 10,7 10,6.5 10,6 10,5.5 10,5 10,4.5 10,4 10,3.5 10,3 9.875,2.625 9.75,2.25 9.375,2.125 9,2 8.625,2.125 8.25,2.25 8.125,2.625 8,3 8,3.5 8,4 8,4.5 8,5 7.875,5.375 7.75,5.75 7.375,5.875 7,6 6.625,6.125 6.25,6.25 6.125,6.625 6,7 6.125,7.375 6.25,7.75 6.625,7.875 7,8 7.375,8.125 7.75,8.25 7.875,8.625 8,9 8,9.5 q 0,0.5 0,1 0,0.5 0.125,0.875 0.125,0.375 0.5,0.5 M 18.5,12 q 0.5,0 0.875,-0.125 0.375,-0.125 0.5,-0.5 0.125,-0.375 0,-0.75 -0.125,-0.375 -0.5,-0.5 Q 19,10 18.5,10 q -0.5,0 -1,0 -0.5,0 -1,0 -0.5,0 -1,0 Q 15,10 14.625,9.875 14.25,9.75 14.125,9.375 14,9 14.125,8.625 14.25,8.25 14.625,8.125 15,8 15.5,8 16,8 16.5,8 17,8 17.375,7.875 17.75,7.75 17.875,7.375 18,7 17.875,6.625 17.75,6.25 17.375,6.125 17,6 16.5,6 16,6 15.5,6 15,6 14.625,5.875 14.25,5.75 14.125,5.375 14,5 14.125,4.625 14.25,4.25 14.625,4.125 15,4 15.5,4 q 0.5,0 1,0 0.5,0 1,0 0.5,0 1,0 0.5,0 0.875,-0.125 0.375,-0.125 0.5,-0.5 Q 20,3 19.875,2.625 19.75,2.25 19.375,2.125 19,2 18.5,2 18,2 17.5,2 17,2 16.5,2 16,2 15.5,2 15,2 14.625,2.125 14.25,2.25 14.125,2.625 14,3 13.875,3.375 13.75,3.75 13.375,3.875 13,4 12.625,4.125 12.25,4.25 12.125,4.625 12,5 12,5.5 q 0,0.5 0,1 0,0.5 0,1 0,0.5 0,1 0,0.5 0.125,0.875 0.125,0.375 0.5,0.5 0.375,0.125 0.75,0.25 0.375,0.125 0.5,0.5 0.125,0.375 0.25,0.75 0.125,0.375 0.5,0.5 Q 15,12 15.5,12 q 0.5,0 1,0 0.5,0 1,0 0.5,0 1,0 m 10.125,-0.125 q 0.375,0.125 0.75,0 0.375,-0.125 0.5,-0.5 Q 30,11 30.125,10.625 30.25,10.25 30.625,10.125 31,10 31.375,9.875 31.75,9.75 31.875,9.375 32,9 32,8.5 32,8 32,7.5 32,7 32,6.5 32,6 32,5.5 32,5 32,4.5 32,4 32,3.5 32,3 31.875,2.625 31.75,2.25 31.375,2.125 31,2 30.625,2.125 30.25,2.25 30.125,2.625 30,3 30,3.5 q 0,0.5 0,1 0,0.5 0,1 0,0.5 0,1 0,0.5 0,1 0,0.5 0,1 0,0.5 -0.125,0.875 -0.125,0.375 -0.5,0.5 Q 29,10 28.625,9.875 28.25,9.75 28.125,9.375 28,9 28,8.5 28,8 28,7.5 28,7 28,6.5 28,6 27.875,5.625 27.75,5.25 27.375,5.125 27,5 26.625,5.125 26.25,5.25 26.125,5.625 26,6 26,6.5 q 0,0.5 0,1 0,0.5 0,1 0,0.5 -0.125,0.875 -0.125,0.375 -0.5,0.5 Q 25,10 24.625,9.875 24.25,9.75 24.125,9.375 24,9 24,8.5 24,8 24,7.5 24,7 24,6.5 24,6 24,5.5 24,5 24,4.5 24,4 24,3.5 24,3 23.875,2.625 23.75,2.25 23.375,2.125 23,2 22.625,2.125 22.25,2.25 22.125,2.625 22,3 22,3.5 q 0,0.5 0,1 0,0.5 0,1 0,0.5 0,1 0,0.5 0,1 0,0.5 0,1 0,0.5 0.125,0.875 0.125,0.375 0.5,0.5 0.375,0.125 0.75,0.25 0.375,0.125 0.5,0.5 0.125,0.375 0.25,0.75 0.125,0.375 0.5,0.5 0.375,0.125 0.75,0 0.375,-0.125 0.5,-0.5 0.125,-0.375 0.25,-0.75 0.125,-0.375 0.5,-0.5 0.375,-0.125 0.75,0 0.375,0.125 0.5,0.5 0.125,0.375 0.25,0.75 0.125,0.375 0.5,0.5"
       id="path3407" />
    <path
       style="fill:#ffffff;fill-opacity:1"
       d="M 2.125,2.625 Q 2.25,2.25 2.625,2.125 3,2 3.375,2.125 3.75,2.25 3.875,2.625 4,3 4.125,3.375 4.25,3.75 4.625,3.875 5,4 5.375,4.125 5.75,4.25 5.875,4.625 6,5 5.875,5.375 5.75,5.75 5.375,5.875 5,6 4.625,6.125 4.25,6.25 4.125,6.625 4,7 4,7.5 4,8 4,8.5 4,9 4,9.5 4,10 4,10.5 4,11 3.875,11.375 3.75,11.75 3.375,11.875 3,12 2.625,11.875 2.25,11.75 2.125,11.375 2,11 2,10.5 2,10 2,9.5 2,9 2,8.5 2,8 2,7.5 2,7 2,6.5 2,6 2,5.5 2,5 2,4.5 2,4 2,3.5 2,3 2.125,2.625"
       id="path3409" />
    <path
       style="fill:#ffffff;fill-opacity:1"
       d="M 8.125,2.625 Q 8.25,2.25 8.625,2.125 9,2 9.375,2.125 9.75,2.25 9.875,2.625 10,3 10,3.5 q 0,0.5 0,1 0,0.5 0,1 0,0.5 0,1 0,0.5 0,1 0,0.5 0,1 0,0.5 0,1 0,0.5 0,1 0,0.5 -0.125,0.875 -0.125,0.375 -0.5,0.5 Q 9,12 8.625,11.875 8.25,11.75 8.125,11.375 8,11 8,10.5 8,10 8,9.5 8,9 7.875,8.625 7.75,8.25 7.375,8.125 7,8 6.625,7.875 6.25,7.75 6.125,7.375 6,7 6.125,6.625 6.25,6.25 6.625,6.125 7,6 7.375,5.875 7.75,5.75 7.875,5.375 8,5 8,4.5 8,4 8,3.5 8,3 8.125,2.625"
       id="path3411" />
    <path
       style="fill:#ffffff;fill-opacity:1"
       d="M 14.125,2.625 Q 14.25,2.25 14.625,2.125 15,2 15.5,2 q 0.5,0 1,0 0.5,0 1,0 0.5,0 1,0 0.5,0 0.875,0.125 0.375,0.125 0.5,0.5 0.125,0.375 0,0.75 -0.125,0.375 -0.5,0.5 Q 19,4 18.5,4 18,4 17.5,4 17,4 16.5,4 16,4 15.5,4 15,4 14.625,4.125 14.25,4.25 14.125,4.625 14,5 14.125,5.375 14.25,5.75 14.625,5.875 15,6 15.5,6 q 0.5,0 1,0 0.5,0 0.875,0.125 0.375,0.125 0.5,0.5 0.125,0.375 0,0.75 -0.125,0.375 -0.5,0.5 Q 17,8 16.5,8 16,8 15.5,8 15,8 14.625,8.125 14.25,8.25 14.125,8.625 14,9 14.125,9.375 14.25,9.75 14.625,9.875 15,10 15.5,10 q 0.5,0 1,0 0.5,0 1,0 0.5,0 1,0 0.5,0 0.875,0.125 0.375,0.125 0.5,0.5 0.125,0.375 0,0.75 -0.125,0.375 -0.5,0.5 Q 19,12 18.5,12 q -0.5,0 -1,0 -0.5,0 -1,0 -0.5,0 -1,0 -0.5,0 -0.875,-0.125 -0.375,-0.125 -0.5,-0.5 Q 14,11 13.875,10.625 13.75,10.25 13.375,10.125 13,10 12.625,9.875 12.25,9.75 12.125,9.375 12,9 12,8.5 12,8 12,7.5 12,7 12,6.5 12,6 12,5.5 12,5 12.125,4.625 12.25,4.25 12.625,4.125 13,4 13.375,3.875 13.75,3.75 13.875,3.375 14,3 14.125,2.625"
       id="path3413" />
    <path
       style="fill:#ffffff;fill-opacity:1"
       d="m 22.125,2.625 q 0.125,-0.375 0.5,-0.5 0.375,-0.125 0.75,0 0.375,0.125 0.5,0.5 Q 24,3 24,3.5 q 0,0.5 0,1 0,0.5 0,1 0,0.5 0,1 0,0.5 0,1 0,0.5 0,1 0,0.5 0.125,0.875 0.125,0.375 0.5,0.5 0.375,0.125 0.75,0 0.375,-0.125 0.5,-0.5 Q 26,9 26,8.5 26,8 26,7.5 26,7 26,6.5 26,6 26.125,5.625 26.25,5.25 26.625,5.125 27,5 27.375,5.125 27.75,5.25 27.875,5.625 28,6 28,6.5 q 0,0.5 0,1 0,0.5 0,1 0,0.5 0.125,0.875 0.125,0.375 0.5,0.5 0.375,0.125 0.75,0 0.375,-0.125 0.5,-0.5 Q 30,9 30,8.5 30,8 30,7.5 30,7 30,6.5 30,6 30,5.5 30,5 30,4.5 30,4 30,3.5 30,3 30.125,2.625 30.25,2.25 30.625,2.125 31,2 31.375,2.125 31.75,2.25 31.875,2.625 32,3 32,3.5 q 0,0.5 0,1 0,0.5 0,1 0,0.5 0,1 0,0.5 0,1 0,0.5 0,1 0,0.5 -0.125,0.875 -0.125,0.375 -0.5,0.5 -0.375,0.125 -0.75,0.25 -0.375,0.125 -0.5,0.5 -0.125,0.375 -0.25,0.75 -0.125,0.375 -0.5,0.5 -0.375,0.125 -0.75,0 -0.375,-0.125 -0.5,-0.5 Q 28,11 27.875,10.625 q -0.125,-0.375 -0.5,-0.5 -0.375,-0.125 -0.75,0 -0.375,0.125 -0.5,0.5 -0.125,0.375 -0.25,0.75 -0.125,0.375 -0.5,0.5 -0.375,0.125 -0.75,0 -0.375,-0.125 -0.5,-0.5 Q 24,11 23.875,10.625 23.75,10.25 23.375,10.125 23,10 22.625,9.875 22.25,9.75 22.125,9.375 22,9 22,8.5 22,8 22,7.5 22,7 22,6.5 22,6 22,5.5 22,5 22,4.5 22,4 22,3.5 22,3 22.125,2.625"
       id="path3415" />
  </g>
  <g
     id="g3417"
     transform="translate(0 0)"
     inkscape:export-xdpi="900"
     inkscape:export-ydpi="900">
    <path
       id="path3419"
       d="M 0,0.5 0,0 0.5,0 1,0 1.5,0 2,0 2.5,0 3,0 3.5,0 4,0 4.5,0 5,0 5.5,0 6,0 6.5,0 7,0 7.5,0 8,0 8.5,0 9,0 9.5,0 10,0 l 0.5,0 0.5,0 0.5,0 0.5,0 0.5,0 0.5,0 0.5,0 0.5,0 0.5,0 0.5,0 0.5,0 0.5,0 0.5,0 0.5,0 0.5,0 0.5,0 0.5,0 0.5,0 0.5,0 0.5,0 0.5,0 0.5,0 0.5,0 0.5,0 0.5,0 0.5,0 0.5,0 0.5,0 0.5,0 0.5,0 0.5,0 0.5,0 0.5,0 0.5,0 0.5,0 0.5,0 0.5,0 0.5,0 0.5,0 0.5,0 0.5,0 0.5,0 0.5,0 0.5,0 0.5,0 0.5,0 0.5,0 0.5,0 0,0.5 0,0.5 0,0.5 0,0.5 0,0.5 0,0.5 0,0.5 0,0.5 0,0.5 0,0.5 0,0.5 0,0.5 0,0.5 0,0.5 0,0.5 0,0.5 0,0.5 0,0.5 0,0.5 0,0.5 0,0.5 0,0.5 0,0.5 0,0.5 0,0.5 0,0.5 0,0.5 0,0.5 -0.5,0 L 33,14 32.5,14 32,14 31.5,14 31,14 30.5,14 30,14 29.5,14 29,14 28.5,14 28,14 27.5,14 27,14 26.5,14 26,14 25.5,14 25,14 24.5,14 24,14 23.5,14 23,14 22.5,14 22,14 21.5,14 21,14 20.5,14 20,14 19.5,14 19,14 18.5,14 18,14 17.5,14 17,14 16.5,14 16,14 15.5,14 15,14 14.5,14 14,14 13.5,14 13,14 12.5,14 12,14 11.5,14 11,14 10.5,14 10,14 9.5,14 9,14 8.5,14 8,14 7.5,14 7,14 6.5,14 6,14 5.5,14 5,14 4.5,14 4,14 3.5,14 3,14 2.5,14 2,14 1.5,14 1,14 0.5,14 0,14 0,13.5 0,13 0,12.5 0,12 0,11.5 0,11 0,10.5 0,10 0,9.5 0,9 0,8.5 0,8 0,7.5 0,7 0,6.5 0,6 0,5.5 0,5 0,4.5 0,4 0,3.5 0,3 0,2.5 0,2 0,1.5 0,1 0,0.5 M 2.625,11.875 Q 3,12 3.375,11.875 3.75,11.75 3.875,11.375 4,11 4,10.5 4,10 4,9.5 4,9 4,8.5 4,8 4,7.5 4,7 4.125,6.625 4.25,6.25 4.625,6.125 5,6 5.375,5.875 5.75,5.75 5.875,5.375 6,5 5.875,4.625 5.75,4.25 5.375,4.125 5,4 4.625,3.875 4.25,3.75 4.125,3.375 4,3 3.875,2.625 3.75,2.25 3.375,2.125 3,2 2.625,2.125 2.25,2.25 2.125,2.625 2,3 2,3.5 q 0,0.5 0,1 0,0.5 0,1 0,0.5 0,1 0,0.5 0,1 0,0.5 0,1 0,0.5 0,1 0,0.5 0,1 0,0.5 0.125,0.875 0.125,0.375 0.5,0.5 m 6,0 Q 9,12 9.375,11.875 9.75,11.75 9.875,11.375 10,11 10,10.5 10,10 10,9.5 10,9 10,8.5 10,8 10,7.5 10,7 10,6.5 10,6 10,5.5 10,5 10,4.5 10,4 10,3.5 10,3 9.875,2.625 9.75,2.25 9.375,2.125 9,2 8.625,2.125 8.25,2.25 8.125,2.625 8,3 8,3.5 8,4 8,4.5 8,5 7.875,5.375 7.75,5.75 7.375,5.875 7,6 6.625,6.125 6.25,6.25 6.125,6.625 6,7 6.125,7.375 6.25,7.75 6.625,7.875 7,8 7.375,8.125 7.75,8.25 7.875,8.625 8,9 8,9.5 q 0,0.5 0,1 0,0.5 0.125,0.875 0.125,0.375 0.5,0.5 M 18.5,12 q 0.5,0 0.875,-0.125 0.375,-0.125 0.5,-0.5 0.125,-0.375 0,-0.75 -0.125,-0.375 -0.5,-0.5 Q 19,10 18.5,10 q -0.5,0 -1,0 -0.5,0 -1,0 -0.5,0 -1,0 Q 15,10 14.625,9.875 14.25,9.75 14.125,9.375 14,9 14.125,8.625 14.25,8.25 14.625,8.125 15,8 15.5,8 16,8 16.5,8 17,8 17.375,7.875 17.75,7.75 17.875,7.375 18,7 17.875,6.625 17.75,6.25 17.375,6.125 17,6 16.5,6 16,6 15.5,6 15,6 14.625,5.875 14.25,5.75 14.125,5.375 14,5 14.125,4.625 14.25,4.25 14.625,4.125 15,4 15.5,4 q 0.5,0 1,0 0.5,0 1,0 0.5,0 1,0 0.5,0 0.875,-0.125 0.375,-0.125 0.5,-0.5 Q 20,3 19.875,2.625 19.75,2.25 19.375,2.125 19,2 18.5,2 18,2 17.5,2 17,2 16.5,2 16,2 15.5,2 15,2 14.625,2.125 14.25,2.25 14.125,2.625 14,3 13.875,3.375 13.75,3.75 13.375,3.875 13,4 12.625,4.125 12.25,4.25 12.125,4.625 12,5 12,5.5 q 0,0.5 0,1 0,0.5 0,1 0,0.5 0,1 0,0.5 0.125,0.875 0.125,0.375 0.5,0.5 0.375,0.125 0.75,0.25 0.375,0.125 0.5,0.5 0.125,0.375 0.25,0.75 0.125,0.375 0.5,0.5 Q 15,12 15.5,12 q 0.5,0 1,0 0.5,0 1,0 0.5,0 1,0 m 10.125,-0.125 q 0.375,0.125 0.75,0 0.375,-0.125 0.5,-0.5 Q 30,11 30.125,10.625 30.25,10.25 30.625,10.125 31,10 31.375,9.875 31.75,9.75 31.875,9.375 32,9 32,8.5 32,8 32,7.5 32,7 32,6.5 32,6 32,5.5 32,5 32,4.5 32,4 32,3.5 32,3 31.875,2.625 31.75,2.25 31.375,2.125 31,2 30.625,2.125 30.25,2.25 30.125,2.625 30,3 30,3.5 q 0,0.5 0,1 0,0.5 0,1 0,0.5 0,1 0,0.5 0,1 0,0.5 0,1 0,0.5 -0.125,0.875 -0.125,0.375 -0.5,0.5 Q 29,10 28.625,9.875 28.25,9.75 28.125,9.375 28,9 28,8.5 28,8 28,7.5 28,7 28,6.5 28,6 27.875,5.625 27.75,5.25 27.375,5.125 27,5 26.625,5.125 26.25,5.25 26.125,5.625 26,6 26,6.5 q 0,0.5 0,1 0,0.5 0,1 0,0.5 -0.125,0.875 -0.125,0.375 -0.5,0.5 Q 25,10 24.625,9.875 24.25,9.75 24.125,9.375 24,9 24,8.5 24,8 24,7.5 24,7 24,6.5 24,6 24,5.5 24,5 24,4.5 24,4 24,3.5 24,3 23.875,2.625 23.75,2.25 23.375,2.125 23,2 22.625,2.125 22.25,2.25 22.125,2.625 22,3 22,3.5 q 0,0.5 0,1 0,0.5 0,1 0,0.5 0,1 0,0.5 0,1 0,0.5 0,1 0,0.5 0.125,0.875 0.125,0.375 0.5,0.5 0.375,0.125 0.75,0.25 0.375,0.125 0.5,0.5 0.125,0.375 0.25,0.75 0.125,0.375 0.5,0.5 0.375,0.125 0.75,0 0.375,-0.125 0.5,-0.5 0.125,-0.375 0.25,-0.75 0.125,-0.375 0.5,-0.5 0.375,-0.125 0.75,0 0.375,0.125 0.5,0.5 0.125,0.375 0.25,0.75 0.125,0.375 0.5,0.5"
       style="fill:#cc0000;fill-opacity:1" />
    <path
       id="path3421"
       d="M 2.125,2.625 Q 2.25,2.25 2.625,2.125 3,2 3.375,2.125 3.75,2.25 3.875,2.625 4,3 4.125,3.375 4.25,3.75 4.625,3.875 5,4 5.375,4.125 5.75,4.25 5.875,4.625 6,5 5.875,5.375 5.75,5.75 5.375,5.875 5,6 4.625,6.125 4.25,6.25 4.125,6.625 4,7 4,7.5 4,8 4,8.5 4,9 4,9.5 4,10 4,10.5 4,11 3.875,11.375 3.75,11.75 3.375,11.875 3,12 2.625,11.875 2.25,11.75 2.125,11.375 2,11 2,10.5 2,10 2,9.5 2,9 2,8.5 2,8 2,7.5 2,7 2,6.5 2,6 2,5.5 2,5 2,4.5 2,4 2,3.5 2,3 2.125,2.625"
       style="fill:#ffffff;fill-opacity:1" />
    <path
       id="path3423"
       d="M 8.125,2.625 Q 8.25,2.25 8.625,2.125 9,2 9.375,2.125 9.75,2.25 9.875,2.625 10,3 10,3.5 q 0,0.5 0,1 0,0.5 0,1 0,0.5 0,1 0,0.5 0,1 0,0.5 0,1 0,0.5 0,1 0,0.5 0,1 0,0.5 -0.125,0.875 -0.125,0.375 -0.5,0.5 Q 9,12 8.625,11.875 8.25,11.75 8.125,11.375 8,11 8,10.5 8,10 8,9.5 8,9 7.875,8.625 7.75,8.25 7.375,8.125 7,8 6.625,7.875 6.25,7.75 6.125,7.375 6,7 6.125,6.625 6.25,6.25 6.625,6.125 7,6 7.375,5.875 7.75,5.75 7.875,5.375 8,5 8,4.5 8,4 8,3.5 8,3 8.125,2.625"
       style="fill:#ffffff;fill-opacity:1" />
    <path
       id="path3425"
       d="M 14.125,2.625 Q 14.25,2.25 14.625,2.125 15,2 15.5,2 q 0.5,0 1,0 0.5,0 1,0 0.5,0 1,0 0.5,0 0.875,0.125 0.375,0.125 0.5,0.5 0.125,0.375 0,0.75 -0.125,0.375 -0.5,0.5 Q 19,4 18.5,4 18,4 17.5,4 17,4 16.5,4 16,4 15.5,4 15,4 14.625,4.125 14.25,4.25 14.125,4.625 14,5 14.125,5.375 14.25,5.75 14.625,5.875 15,6 15.5,6 q 0.5,0 1,0 0.5,0 0.875,0.125 0.375,0.125 0.5,0.5 0.125,0.375 0,0.75 -0.125,0.375 -0.5,0.5 Q 17,8 16.5,8 16,8 15.5,8 15,8 14.625,8.125 14.25,8.25 14.125,8.625 14,9 14.125,9.375 14.25,9.75 14.625,9.875 15,10 15.5,10 q 0.5,0 1,0 0.5,0 1,0 0.5,0 1,0 0.5,0 0.875,0.125 0.375,0.125 0.5,0.5 0.125,0.375 0,0.75 -0.125,0.375 -0.5,0.5 Q 19,12 18.5,12 q -0.5,0 -1,0 -0.5,0 -1,0 -0.5,0 -1,0 -0.5,0 -0.875,-0.125 -0.375,-0.125 -0.5,-0.5 Q 14,11 13.875,10.625 13.75,10.25 13.375,10.125 13,10 12.625,9.875 12.25,9.75 12.125,9.375 12,9 12,8.5 12,8 12,7.5 12,7 12,6.5 12,6 12,5.5 12,5 12.125,4.625 12.25,4.25 12.625,4.125 13,4 13.375,3.875 13.75,3.75 13.875,3.375 14,3 14.125,2.625"
       style="fill:#ffffff;fill-opacity:1" />
    <path
       id="path3427"
       d="m 22.125,2.625 q 0.125,-0.375 0.5,-0.5 0.375,-0.125 0.75,0 0.375,0.125 0.5,0.5 Q 24,3 24,3.5 q 0,0.5 0,1 0,0.5 0,1 0,0.5 0,1 0,0.5 0,1 0,0.5 0,1 0,0.5 0.125,0.875 0.125,0.375 0.5,0.5 0.375,0.125 0.75,0 0.375,-0.125 0.5,-0.5 Q 26,9 26,8.5 26,8 26,7.5 26,7 26,6.5 26,6 26.125,5.625 26.25,5.25 26.625,5.125 27,5 27.375,5.125 27.75,5.25 27.875,5.625 28,6 28,6.5 q 0,0.5 0,1 0,0.5 0,1 0,0.5 0.125,0.875 0.125,0.375 0.5,0.5 0.375,0.125 0.75,0 0.375,-0.125 0.5,-0.5 Q 30,9 30,8.5 30,8 30,7.5 30,7 30,6.5 30,6 30,5.5 30,5 30,4.5 30,4 30,3.5 30,3 30.125,2.625 30.25,2.25 30.625,2.125 31,2 31.375,2.125 31.75,2.25 31.875,2.625 32,3 32,3.5 q 0,0.5 0,1 0,0.5 0,1 0,0.5 0,1 0,0.5 0,1 0,0.5 0,1 0,0.5 -0.125,0.875 -0.125,0.375 -0.5,0.5 -0.375,0.125 -0.75,0.25 -0.375,0.125 -0.5,0.5 -0.125,0.375 -0.25,0.75 -0.125,0.375 -0.5,0.5 -0.375,0.125 -0.75,0 -0.375,-0.125 -0.5,-0.5 Q 28,11 27.875,10.625 q -0.125,-0.375 -0.5,-0.5 -0.375,-0.125 -0.75,0 -0.375,0.125 -0.5,0.5 -0.125,0.375 -0.25,0.75 -0.125,0.375 -0.5,0.5 -0.375,0.125 -0.75,0 -0.375,-0.125 -0.5,-0.5 Q 24,11 23.875,10.625 23.75,10.25 23.375,10.125 23,10 22.625,9.875 22.25,9.75 22.125,9.375 22,9 22,8.5 22,8 22,7.5 22,7 22,6.5 22,6 22,5.5 22,5 22,4.5 22,4 22,3.5 22,3 22.125,2.625"
       style="fill:#ffffff;fill-opacity:1" />
  </g>
</svg>
